%TF.GenerationSoftware,KiCad,Pcbnew,8.0.3*%
%TF.CreationDate,2024-09-19T11:22:37+05:30*%
%TF.ProjectId,VLF amplifier,564c4620-616d-4706-9c69-666965722e6b,rev?*%
%TF.SameCoordinates,Original*%
%TF.FileFunction,Copper,L2,Bot*%
%TF.FilePolarity,Positive*%
%FSLAX46Y46*%
G04 Gerber Fmt 4.6, Leading zero omitted, Abs format (unit mm)*
G04 Created by KiCad (PCBNEW 8.0.3) date 2024-09-19 11:22:37*
%MOMM*%
%LPD*%
G01*
G04 APERTURE LIST*
%TA.AperFunction,ComponentPad*%
%ADD10C,1.400000*%
%TD*%
%TA.AperFunction,ComponentPad*%
%ADD11O,1.400000X1.400000*%
%TD*%
%TA.AperFunction,ComponentPad*%
%ADD12C,1.600000*%
%TD*%
%TA.AperFunction,ComponentPad*%
%ADD13O,1.600000X1.600000*%
%TD*%
%TA.AperFunction,ComponentPad*%
%ADD14R,1.000000X1.000000*%
%TD*%
%TA.AperFunction,SMDPad,CuDef*%
%ADD15R,2.420000X5.080000*%
%TD*%
%TA.AperFunction,SMDPad,CuDef*%
%ADD16R,0.460000X0.950000*%
%TD*%
%TA.AperFunction,ComponentPad*%
%ADD17C,0.970000*%
%TD*%
%TA.AperFunction,ComponentPad*%
%ADD18R,1.600000X1.600000*%
%TD*%
%TA.AperFunction,ViaPad*%
%ADD19C,0.500000*%
%TD*%
%TA.AperFunction,Conductor*%
%ADD20C,0.330000*%
%TD*%
G04 APERTURE END LIST*
D10*
%TO.P,R11,1*%
%TO.N,Net-(U2--)*%
X166310000Y-132500000D03*
D11*
%TO.P,R11,2*%
%TO.N,Net-(C6-Pad2)*%
X158690000Y-132500000D03*
%TD*%
D10*
%TO.P,R5,1*%
%TO.N,Net-(U1-+)*%
X220000000Y-116310000D03*
D11*
%TO.P,R5,2*%
%TO.N,GND*%
X220000000Y-108690000D03*
%TD*%
D10*
%TO.P,R3,1*%
%TO.N,Net-(C3-Pad1)*%
X208500000Y-113000000D03*
D11*
%TO.P,R3,2*%
%TO.N,Net-(U1--)*%
X208500000Y-120620000D03*
%TD*%
D12*
%TO.P,C8,1*%
%TO.N,GND*%
X154500000Y-132500000D03*
D13*
%TO.P,C8,2*%
%TO.N,Net-(U2-+)*%
X154500000Y-122500000D03*
%TD*%
D10*
%TO.P,R15,1*%
%TO.N,GND*%
X102500000Y-91000000D03*
D11*
%TO.P,R15,2*%
%TO.N,Net-(J2-In)*%
X110120000Y-91000000D03*
%TD*%
D14*
%TO.P,J4,1,Pin_1*%
%TO.N,GND*%
X165000000Y-65000000D03*
%TD*%
D12*
%TO.P,C1,1*%
%TO.N,Net-(C1-Pad1)*%
X179500000Y-113500000D03*
D13*
%TO.P,C1,2*%
%TO.N,GND*%
X189500000Y-113500000D03*
%TD*%
D12*
%TO.P,C11,1*%
%TO.N,Net-(J2-In)*%
X110000000Y-94500000D03*
D13*
%TO.P,C11,2*%
%TO.N,Net-(C10-Pad2)*%
X110000000Y-104500000D03*
%TD*%
D12*
%TO.P,C12,1*%
%TO.N,Net-(C12-Pad1)*%
X208500000Y-84500000D03*
D13*
%TO.P,C12,2*%
%TO.N,GND*%
X198500000Y-84500000D03*
%TD*%
D10*
%TO.P,R13,1*%
%TO.N,Net-(C9-Pad2)*%
X119880000Y-122500000D03*
D11*
%TO.P,R13,2*%
%TO.N,Net-(C7-Pad2)*%
X127500000Y-122500000D03*
%TD*%
D10*
%TO.P,R1,1*%
%TO.N,Net-(U1--)*%
X186500000Y-124810000D03*
D11*
%TO.P,R1,2*%
%TO.N,Net-(C1-Pad1)*%
X186500000Y-117190000D03*
%TD*%
D10*
%TO.P,R4,1*%
%TO.N,Net-(C4-Pad2)*%
X208500000Y-95310000D03*
D11*
%TO.P,R4,2*%
%TO.N,Net-(C12-Pad1)*%
X208500000Y-87690000D03*
%TD*%
D10*
%TO.P,R2,1*%
%TO.N,Net-(U1--)*%
X177690000Y-128000000D03*
D11*
%TO.P,R2,2*%
%TO.N,Net-(C2-Pad2)*%
X185310000Y-128000000D03*
%TD*%
D12*
%TO.P,C2,1*%
%TO.N,Net-(U1--)*%
X173000000Y-127500000D03*
D13*
%TO.P,C2,2*%
%TO.N,Net-(C2-Pad2)*%
X173000000Y-117500000D03*
%TD*%
D10*
%TO.P,R8,1*%
%TO.N,GND*%
X169000000Y-139000000D03*
D11*
%TO.P,R8,2*%
%TO.N,Net-(C5-Pad2)*%
X169000000Y-131380000D03*
%TD*%
D12*
%TO.P,C3,1*%
%TO.N,Net-(C3-Pad1)*%
X213500000Y-106500000D03*
D13*
%TO.P,C3,2*%
%TO.N,Net-(U1-+)*%
X213500000Y-116500000D03*
%TD*%
D10*
%TO.P,R7,1*%
%TO.N,Net-(C2-Pad2)*%
X192000000Y-134000000D03*
D11*
%TO.P,R7,2*%
%TO.N,Net-(C5-Pad1)*%
X184380000Y-134000000D03*
%TD*%
D14*
%TO.P,J3,1,Pin_1*%
%TO.N,12V*%
X155500000Y-65000000D03*
%TD*%
D10*
%TO.P,R6,1*%
%TO.N,12V*%
X212000000Y-121000000D03*
D11*
%TO.P,R6,2*%
%TO.N,Net-(U1-+)*%
X219620000Y-121000000D03*
%TD*%
D12*
%TO.P,C10,1*%
%TO.N,GND*%
X100000000Y-108000000D03*
D13*
%TO.P,C10,2*%
%TO.N,Net-(C10-Pad2)*%
X110000000Y-108000000D03*
%TD*%
D15*
%TO.P,J2,2,Ext*%
%TO.N,GND*%
X114380000Y-64560000D03*
X105620000Y-64560000D03*
D16*
X114380000Y-67550000D03*
X105620000Y-67550000D03*
D17*
X114380000Y-68000000D03*
X105620000Y-68000000D03*
%TD*%
D15*
%TO.P,J1,2,Ext*%
%TO.N,GND*%
X212380000Y-65060000D03*
X203620000Y-65060000D03*
D16*
X212380000Y-68050000D03*
X203620000Y-68050000D03*
D17*
X212380000Y-68500000D03*
X203620000Y-68500000D03*
%TD*%
D12*
%TO.P,L1,1,1*%
%TO.N,Net-(J1-In)*%
X208500000Y-73380000D03*
D13*
%TO.P,L1,2,2*%
%TO.N,Net-(C12-Pad1)*%
X208500000Y-81000000D03*
%TD*%
D18*
%TO.P,U2,1,NULL*%
%TO.N,unconnected-(U2-NULL-Pad1)*%
X149120000Y-127580000D03*
D13*
%TO.P,U2,2,-*%
%TO.N,Net-(U2--)*%
X149120000Y-125040000D03*
%TO.P,U2,3,+*%
%TO.N,Net-(U2-+)*%
X149120000Y-122500000D03*
%TO.P,U2,4,V-*%
%TO.N,GND*%
X149120000Y-119960000D03*
%TO.P,U2,5,NULL*%
%TO.N,unconnected-(U2-NULL-Pad5)*%
X141500000Y-119960000D03*
%TO.P,U2,6*%
%TO.N,Net-(C7-Pad2)*%
X141500000Y-122500000D03*
%TO.P,U2,7,V+*%
%TO.N,12V*%
X141500000Y-125040000D03*
%TO.P,U2,8,NC*%
%TO.N,unconnected-(U2-NC-Pad8)*%
X141500000Y-127580000D03*
%TD*%
D12*
%TO.P,C9,1*%
%TO.N,GND*%
X116190000Y-132500000D03*
D13*
%TO.P,C9,2*%
%TO.N,Net-(C9-Pad2)*%
X116190000Y-122500000D03*
%TD*%
D12*
%TO.P,C4,1*%
%TO.N,Net-(C3-Pad1)*%
X208500000Y-108500000D03*
D13*
%TO.P,C4,2*%
%TO.N,Net-(C4-Pad2)*%
X208500000Y-98500000D03*
%TD*%
D18*
%TO.P,U1,1,NULL*%
%TO.N,unconnected-(U1-NULL-Pad1)*%
X192880000Y-123380000D03*
D13*
%TO.P,U1,2,-*%
%TO.N,Net-(U1--)*%
X192880000Y-125920000D03*
%TO.P,U1,3,+*%
%TO.N,Net-(U1-+)*%
X192880000Y-128460000D03*
%TO.P,U1,4,V-*%
%TO.N,GND*%
X192880000Y-131000000D03*
%TO.P,U1,5,NULL*%
%TO.N,unconnected-(U1-NULL-Pad5)*%
X200500000Y-131000000D03*
%TO.P,U1,6*%
%TO.N,Net-(C2-Pad2)*%
X200500000Y-128460000D03*
%TO.P,U1,7,V+*%
%TO.N,12V*%
X200500000Y-125920000D03*
%TO.P,U1,8,NC*%
%TO.N,unconnected-(U1-NC-Pad8)*%
X200500000Y-123380000D03*
%TD*%
D12*
%TO.P,C7,1*%
%TO.N,Net-(U2--)*%
X132000000Y-132500000D03*
D13*
%TO.P,C7,2*%
%TO.N,Net-(C7-Pad2)*%
X132000000Y-122500000D03*
%TD*%
D12*
%TO.P,C5,1*%
%TO.N,Net-(C5-Pad1)*%
X182000000Y-131500000D03*
D13*
%TO.P,C5,2*%
%TO.N,Net-(C5-Pad2)*%
X172000000Y-131500000D03*
%TD*%
D12*
%TO.P,C6,1*%
%TO.N,Net-(C5-Pad2)*%
X169000000Y-126500000D03*
D13*
%TO.P,C6,2*%
%TO.N,Net-(C6-Pad2)*%
X159000000Y-126500000D03*
%TD*%
D10*
%TO.P,R9,1*%
%TO.N,Net-(U2-+)*%
X157690000Y-118000000D03*
D11*
%TO.P,R9,2*%
%TO.N,12V*%
X165310000Y-118000000D03*
%TD*%
D10*
%TO.P,R10,1*%
%TO.N,GND*%
X165310000Y-122000000D03*
D11*
%TO.P,R10,2*%
%TO.N,Net-(U2-+)*%
X157690000Y-122000000D03*
%TD*%
D10*
%TO.P,R14,1*%
%TO.N,Net-(C10-Pad2)*%
X110000000Y-111690000D03*
D11*
%TO.P,R14,2*%
%TO.N,Net-(C9-Pad2)*%
X110000000Y-119310000D03*
%TD*%
D10*
%TO.P,R12,1*%
%TO.N,Net-(C7-Pad2)*%
X137000000Y-122690000D03*
D11*
%TO.P,R12,2*%
%TO.N,Net-(U2--)*%
X137000000Y-130310000D03*
%TD*%
D19*
%TO.N,Net-(C2-Pad2)*%
X183500000Y-122500000D03*
X185000000Y-126000000D03*
%TD*%
D20*
%TO.N,Net-(C2-Pad2)*%
X183500000Y-122500000D02*
X183500000Y-124500000D01*
X183500000Y-124500000D02*
X185000000Y-126000000D01*
%TD*%
%TA.AperFunction,Conductor*%
%TO.N,12V*%
G36*
X104152539Y-62520185D02*
G01*
X104198294Y-62572989D01*
X104209500Y-62624500D01*
X104209500Y-67119752D01*
X104221131Y-67178229D01*
X104221132Y-67178230D01*
X104265447Y-67244552D01*
X104331769Y-67288867D01*
X104331770Y-67288868D01*
X104390247Y-67300499D01*
X104390250Y-67300500D01*
X104390252Y-67300500D01*
X105048865Y-67300500D01*
X105115904Y-67320185D01*
X105161659Y-67372989D01*
X105171603Y-67442147D01*
X105142578Y-67505703D01*
X105131093Y-67517314D01*
X105103132Y-67542085D01*
X105103125Y-67542093D01*
X105008563Y-67679090D01*
X105008562Y-67679091D01*
X104949531Y-67834740D01*
X104949530Y-67834745D01*
X104929465Y-68000000D01*
X104949530Y-68165254D01*
X104949531Y-68165259D01*
X105008562Y-68320908D01*
X105103127Y-68457909D01*
X105103129Y-68457911D01*
X105103131Y-68457913D01*
X105227729Y-68568298D01*
X105227731Y-68568299D01*
X105375133Y-68645661D01*
X105454624Y-68665254D01*
X105536764Y-68685500D01*
X105536765Y-68685500D01*
X105703236Y-68685500D01*
X105785355Y-68665259D01*
X105864867Y-68645661D01*
X106012269Y-68568299D01*
X106136873Y-68457909D01*
X106231438Y-68320908D01*
X106290469Y-68165256D01*
X106310535Y-68000000D01*
X106290469Y-67834744D01*
X106290468Y-67834742D01*
X106290468Y-67834740D01*
X106256264Y-67744552D01*
X106231438Y-67679092D01*
X106136873Y-67542091D01*
X106136869Y-67542088D01*
X106136867Y-67542085D01*
X106108907Y-67517314D01*
X106071781Y-67458124D01*
X106072549Y-67388259D01*
X106110968Y-67329900D01*
X106174839Y-67301576D01*
X106191135Y-67300500D01*
X106849750Y-67300500D01*
X106849751Y-67300499D01*
X106864568Y-67297552D01*
X106908229Y-67288868D01*
X106908229Y-67288867D01*
X106908231Y-67288867D01*
X106974552Y-67244552D01*
X107018867Y-67178231D01*
X107018867Y-67178229D01*
X107018868Y-67178229D01*
X107030499Y-67119752D01*
X107030500Y-67119750D01*
X107030500Y-62624500D01*
X107050185Y-62557461D01*
X107102989Y-62511706D01*
X107154500Y-62500500D01*
X112845500Y-62500500D01*
X112912539Y-62520185D01*
X112958294Y-62572989D01*
X112969500Y-62624500D01*
X112969500Y-67119752D01*
X112981131Y-67178229D01*
X112981132Y-67178230D01*
X113025447Y-67244552D01*
X113091769Y-67288867D01*
X113091770Y-67288868D01*
X113150247Y-67300499D01*
X113150250Y-67300500D01*
X113150252Y-67300500D01*
X113808865Y-67300500D01*
X113875904Y-67320185D01*
X113921659Y-67372989D01*
X113931603Y-67442147D01*
X113902578Y-67505703D01*
X113891093Y-67517314D01*
X113863132Y-67542085D01*
X113863125Y-67542093D01*
X113768563Y-67679090D01*
X113768562Y-67679091D01*
X113709531Y-67834740D01*
X113709530Y-67834745D01*
X113689465Y-68000000D01*
X113709530Y-68165254D01*
X113709531Y-68165259D01*
X113768562Y-68320908D01*
X113863127Y-68457909D01*
X113863129Y-68457911D01*
X113863131Y-68457913D01*
X113987729Y-68568298D01*
X113987731Y-68568299D01*
X114135133Y-68645661D01*
X114214624Y-68665254D01*
X114296764Y-68685500D01*
X114296765Y-68685500D01*
X114463236Y-68685500D01*
X114545355Y-68665259D01*
X114624867Y-68645661D01*
X114772269Y-68568299D01*
X114896873Y-68457909D01*
X114991438Y-68320908D01*
X115050469Y-68165256D01*
X115070535Y-68000000D01*
X115050469Y-67834744D01*
X115050468Y-67834742D01*
X115050468Y-67834740D01*
X115016264Y-67744552D01*
X114991438Y-67679092D01*
X114896873Y-67542091D01*
X114896869Y-67542088D01*
X114896867Y-67542085D01*
X114868907Y-67517314D01*
X114831781Y-67458124D01*
X114832549Y-67388259D01*
X114870968Y-67329900D01*
X114934839Y-67301576D01*
X114951135Y-67300500D01*
X115609750Y-67300500D01*
X115609751Y-67300499D01*
X115624568Y-67297552D01*
X115668229Y-67288868D01*
X115668229Y-67288867D01*
X115668231Y-67288867D01*
X115734552Y-67244552D01*
X115778867Y-67178231D01*
X115778867Y-67178229D01*
X115778868Y-67178229D01*
X115790499Y-67119752D01*
X115790500Y-67119750D01*
X115790500Y-65547844D01*
X154500000Y-65547844D01*
X154506401Y-65607372D01*
X154506403Y-65607379D01*
X154556645Y-65742086D01*
X154556649Y-65742093D01*
X154642809Y-65857187D01*
X154642812Y-65857190D01*
X154757906Y-65943350D01*
X154757913Y-65943354D01*
X154892620Y-65993596D01*
X154892627Y-65993598D01*
X154952155Y-65999999D01*
X154952172Y-66000000D01*
X155250000Y-66000000D01*
X155750000Y-66000000D01*
X156047828Y-66000000D01*
X156047844Y-65999999D01*
X156107372Y-65993598D01*
X156107379Y-65993596D01*
X156242086Y-65943354D01*
X156242093Y-65943350D01*
X156357187Y-65857190D01*
X156357190Y-65857187D01*
X156443350Y-65742093D01*
X156443354Y-65742086D01*
X156493596Y-65607379D01*
X156493598Y-65607372D01*
X156499999Y-65547844D01*
X156500000Y-65547827D01*
X156500000Y-65250000D01*
X155750000Y-65250000D01*
X155750000Y-66000000D01*
X155250000Y-66000000D01*
X155250000Y-65250000D01*
X154500000Y-65250000D01*
X154500000Y-65547844D01*
X115790500Y-65547844D01*
X115790500Y-64957213D01*
X155175000Y-64957213D01*
X155175000Y-65042787D01*
X155197149Y-65125445D01*
X155239936Y-65199554D01*
X155300446Y-65260064D01*
X155374555Y-65302851D01*
X155457213Y-65325000D01*
X155542787Y-65325000D01*
X155625445Y-65302851D01*
X155699554Y-65260064D01*
X155760064Y-65199554D01*
X155802851Y-65125445D01*
X155825000Y-65042787D01*
X155825000Y-64957213D01*
X155802851Y-64874555D01*
X155760064Y-64800446D01*
X155709618Y-64750000D01*
X155750000Y-64750000D01*
X156500000Y-64750000D01*
X156500000Y-64480247D01*
X164299500Y-64480247D01*
X164299500Y-65519752D01*
X164311131Y-65578229D01*
X164311132Y-65578230D01*
X164355447Y-65644552D01*
X164421769Y-65688867D01*
X164421770Y-65688868D01*
X164480247Y-65700499D01*
X164480250Y-65700500D01*
X164480252Y-65700500D01*
X165519750Y-65700500D01*
X165519751Y-65700499D01*
X165534568Y-65697552D01*
X165578229Y-65688868D01*
X165578229Y-65688867D01*
X165578231Y-65688867D01*
X165644552Y-65644552D01*
X165688867Y-65578231D01*
X165688867Y-65578229D01*
X165688868Y-65578229D01*
X165700499Y-65519752D01*
X165700500Y-65519750D01*
X165700500Y-64480249D01*
X165700499Y-64480247D01*
X165688868Y-64421770D01*
X165688867Y-64421769D01*
X165644552Y-64355447D01*
X165578230Y-64311132D01*
X165578229Y-64311131D01*
X165519752Y-64299500D01*
X165519748Y-64299500D01*
X164480252Y-64299500D01*
X164480247Y-64299500D01*
X164421770Y-64311131D01*
X164421769Y-64311132D01*
X164355447Y-64355447D01*
X164311132Y-64421769D01*
X164311131Y-64421770D01*
X164299500Y-64480247D01*
X156500000Y-64480247D01*
X156500000Y-64452172D01*
X156499999Y-64452155D01*
X156493598Y-64392627D01*
X156493596Y-64392620D01*
X156443354Y-64257913D01*
X156443350Y-64257906D01*
X156357190Y-64142812D01*
X156357187Y-64142809D01*
X156242093Y-64056649D01*
X156242086Y-64056645D01*
X156107379Y-64006403D01*
X156107372Y-64006401D01*
X156047844Y-64000000D01*
X155750000Y-64000000D01*
X155750000Y-64750000D01*
X155709618Y-64750000D01*
X155699554Y-64739936D01*
X155625445Y-64697149D01*
X155542787Y-64675000D01*
X155457213Y-64675000D01*
X155374555Y-64697149D01*
X155300446Y-64739936D01*
X155239936Y-64800446D01*
X155197149Y-64874555D01*
X155175000Y-64957213D01*
X115790500Y-64957213D01*
X115790500Y-64452155D01*
X154500000Y-64452155D01*
X154500000Y-64750000D01*
X155250000Y-64750000D01*
X155250000Y-64000000D01*
X154952155Y-64000000D01*
X154892627Y-64006401D01*
X154892620Y-64006403D01*
X154757913Y-64056645D01*
X154757906Y-64056649D01*
X154642812Y-64142809D01*
X154642809Y-64142812D01*
X154556649Y-64257906D01*
X154556645Y-64257913D01*
X154506403Y-64392620D01*
X154506401Y-64392627D01*
X154500000Y-64452155D01*
X115790500Y-64452155D01*
X115790500Y-62624500D01*
X115810185Y-62557461D01*
X115862989Y-62511706D01*
X115914500Y-62500500D01*
X202085500Y-62500500D01*
X202152539Y-62520185D01*
X202198294Y-62572989D01*
X202209500Y-62624500D01*
X202209500Y-67619752D01*
X202221131Y-67678229D01*
X202221132Y-67678230D01*
X202265447Y-67744552D01*
X202331769Y-67788867D01*
X202331770Y-67788868D01*
X202390247Y-67800499D01*
X202390250Y-67800500D01*
X202390252Y-67800500D01*
X203048865Y-67800500D01*
X203115904Y-67820185D01*
X203161659Y-67872989D01*
X203171603Y-67942147D01*
X203142578Y-68005703D01*
X203131093Y-68017314D01*
X203103132Y-68042085D01*
X203103125Y-68042093D01*
X203008563Y-68179090D01*
X203008562Y-68179091D01*
X202949531Y-68334740D01*
X202949530Y-68334745D01*
X202929465Y-68500000D01*
X202949530Y-68665254D01*
X202949531Y-68665259D01*
X203008562Y-68820908D01*
X203103127Y-68957909D01*
X203103129Y-68957911D01*
X203103131Y-68957913D01*
X203227729Y-69068298D01*
X203227731Y-69068299D01*
X203375133Y-69145661D01*
X203455949Y-69165580D01*
X203536764Y-69185500D01*
X203536765Y-69185500D01*
X203703236Y-69185500D01*
X203757112Y-69172220D01*
X203864867Y-69145661D01*
X204012269Y-69068299D01*
X204136873Y-68957909D01*
X204231438Y-68820908D01*
X204290469Y-68665256D01*
X204310535Y-68500000D01*
X204290469Y-68334744D01*
X204290468Y-68334742D01*
X204290468Y-68334740D01*
X204263644Y-68264012D01*
X204231438Y-68179092D01*
X204136873Y-68042091D01*
X204136869Y-68042088D01*
X204136867Y-68042085D01*
X204108907Y-68017314D01*
X204071781Y-67958124D01*
X204072549Y-67888259D01*
X204110968Y-67829900D01*
X204174839Y-67801576D01*
X204191135Y-67800500D01*
X204849750Y-67800500D01*
X204849751Y-67800499D01*
X204864568Y-67797552D01*
X204908229Y-67788868D01*
X204908229Y-67788867D01*
X204908231Y-67788867D01*
X204974552Y-67744552D01*
X205018867Y-67678231D01*
X205018867Y-67678229D01*
X205018868Y-67678229D01*
X205030499Y-67619752D01*
X205030500Y-67619750D01*
X205030500Y-62624500D01*
X205050185Y-62557461D01*
X205102989Y-62511706D01*
X205154500Y-62500500D01*
X210845500Y-62500500D01*
X210912539Y-62520185D01*
X210958294Y-62572989D01*
X210969500Y-62624500D01*
X210969500Y-67619752D01*
X210981131Y-67678229D01*
X210981132Y-67678230D01*
X211025447Y-67744552D01*
X211091769Y-67788867D01*
X211091770Y-67788868D01*
X211150247Y-67800499D01*
X211150250Y-67800500D01*
X211150252Y-67800500D01*
X211808865Y-67800500D01*
X211875904Y-67820185D01*
X211921659Y-67872989D01*
X211931603Y-67942147D01*
X211902578Y-68005703D01*
X211891093Y-68017314D01*
X211863132Y-68042085D01*
X211863125Y-68042093D01*
X211768563Y-68179090D01*
X211768562Y-68179091D01*
X211709531Y-68334740D01*
X211709530Y-68334745D01*
X211689465Y-68500000D01*
X211709530Y-68665254D01*
X211709531Y-68665259D01*
X211768562Y-68820908D01*
X211863127Y-68957909D01*
X211863129Y-68957911D01*
X211863131Y-68957913D01*
X211987729Y-69068298D01*
X211987731Y-69068299D01*
X212135133Y-69145661D01*
X212215949Y-69165580D01*
X212296764Y-69185500D01*
X212296765Y-69185500D01*
X212463236Y-69185500D01*
X212517112Y-69172220D01*
X212624867Y-69145661D01*
X212772269Y-69068299D01*
X212896873Y-68957909D01*
X212991438Y-68820908D01*
X213050469Y-68665256D01*
X213070535Y-68500000D01*
X213050469Y-68334744D01*
X213050468Y-68334742D01*
X213050468Y-68334740D01*
X213023644Y-68264012D01*
X212991438Y-68179092D01*
X212896873Y-68042091D01*
X212896869Y-68042088D01*
X212896867Y-68042085D01*
X212868907Y-68017314D01*
X212831781Y-67958124D01*
X212832549Y-67888259D01*
X212870968Y-67829900D01*
X212934839Y-67801576D01*
X212951135Y-67800500D01*
X213609750Y-67800500D01*
X213609751Y-67800499D01*
X213624568Y-67797552D01*
X213668229Y-67788868D01*
X213668229Y-67788867D01*
X213668231Y-67788867D01*
X213734552Y-67744552D01*
X213778867Y-67678231D01*
X213778867Y-67678229D01*
X213778868Y-67678229D01*
X213790499Y-67619752D01*
X213790500Y-67619750D01*
X213790500Y-62624500D01*
X213810185Y-62557461D01*
X213862989Y-62511706D01*
X213914500Y-62500500D01*
X221434108Y-62500500D01*
X221495933Y-62500500D01*
X221504043Y-62500765D01*
X221752895Y-62517075D01*
X221768953Y-62519190D01*
X221961353Y-62557461D01*
X222009535Y-62567045D01*
X222025202Y-62571243D01*
X222182093Y-62624500D01*
X222257481Y-62650091D01*
X222272458Y-62656294D01*
X222481799Y-62759529D01*
X222492460Y-62764787D01*
X222506508Y-62772897D01*
X222710464Y-62909177D01*
X222723328Y-62919048D01*
X222907749Y-63080781D01*
X222919218Y-63092250D01*
X223080951Y-63276671D01*
X223090825Y-63289539D01*
X223227102Y-63493492D01*
X223235212Y-63507539D01*
X223343702Y-63727534D01*
X223349909Y-63742520D01*
X223428756Y-63974797D01*
X223432954Y-63990464D01*
X223480807Y-64231035D01*
X223482925Y-64247116D01*
X223499235Y-64495956D01*
X223499500Y-64504066D01*
X223499500Y-141495933D01*
X223499235Y-141504043D01*
X223482925Y-141752883D01*
X223480807Y-141768964D01*
X223432954Y-142009535D01*
X223428756Y-142025202D01*
X223349909Y-142257479D01*
X223343702Y-142272465D01*
X223235212Y-142492460D01*
X223227102Y-142506507D01*
X223090825Y-142710460D01*
X223080951Y-142723328D01*
X222919218Y-142907749D01*
X222907749Y-142919218D01*
X222723328Y-143080951D01*
X222710460Y-143090825D01*
X222506507Y-143227102D01*
X222492460Y-143235212D01*
X222272465Y-143343702D01*
X222257479Y-143349909D01*
X222025202Y-143428756D01*
X222009535Y-143432954D01*
X221768964Y-143480807D01*
X221752883Y-143482925D01*
X221504043Y-143499235D01*
X221495933Y-143499500D01*
X93504067Y-143499500D01*
X93495957Y-143499235D01*
X93247116Y-143482925D01*
X93231035Y-143480807D01*
X92990464Y-143432954D01*
X92974797Y-143428756D01*
X92742520Y-143349909D01*
X92727534Y-143343702D01*
X92507539Y-143235212D01*
X92493492Y-143227102D01*
X92289539Y-143090825D01*
X92276671Y-143080951D01*
X92092250Y-142919218D01*
X92080781Y-142907749D01*
X91919048Y-142723328D01*
X91909174Y-142710460D01*
X91772897Y-142506507D01*
X91764787Y-142492460D01*
X91658855Y-142277652D01*
X91656294Y-142272458D01*
X91650090Y-142257479D01*
X91571243Y-142025202D01*
X91567045Y-142009535D01*
X91559186Y-141970026D01*
X91519190Y-141768953D01*
X91517075Y-141752895D01*
X91500765Y-141504043D01*
X91500500Y-141495933D01*
X91500500Y-139000000D01*
X168094540Y-139000000D01*
X168114326Y-139188256D01*
X168114327Y-139188259D01*
X168172818Y-139368277D01*
X168172821Y-139368284D01*
X168267467Y-139532216D01*
X168394129Y-139672888D01*
X168547265Y-139784148D01*
X168547270Y-139784151D01*
X168720192Y-139861142D01*
X168720197Y-139861144D01*
X168905354Y-139900500D01*
X168905355Y-139900500D01*
X169094644Y-139900500D01*
X169094646Y-139900500D01*
X169279803Y-139861144D01*
X169452730Y-139784151D01*
X169605871Y-139672888D01*
X169732533Y-139532216D01*
X169827179Y-139368284D01*
X169885674Y-139188256D01*
X169905460Y-139000000D01*
X169885674Y-138811744D01*
X169827179Y-138631716D01*
X169732533Y-138467784D01*
X169605871Y-138327112D01*
X169605870Y-138327111D01*
X169452734Y-138215851D01*
X169452729Y-138215848D01*
X169279807Y-138138857D01*
X169279802Y-138138855D01*
X169134001Y-138107865D01*
X169094646Y-138099500D01*
X168905354Y-138099500D01*
X168872897Y-138106398D01*
X168720197Y-138138855D01*
X168720192Y-138138857D01*
X168547270Y-138215848D01*
X168547265Y-138215851D01*
X168394129Y-138327111D01*
X168267466Y-138467785D01*
X168172821Y-138631715D01*
X168172818Y-138631722D01*
X168114327Y-138811740D01*
X168114326Y-138811744D01*
X168094540Y-139000000D01*
X91500500Y-139000000D01*
X91500500Y-134000000D01*
X183474540Y-134000000D01*
X183494326Y-134188256D01*
X183494327Y-134188259D01*
X183552818Y-134368277D01*
X183552821Y-134368284D01*
X183647467Y-134532216D01*
X183774129Y-134672888D01*
X183927265Y-134784148D01*
X183927270Y-134784151D01*
X184100192Y-134861142D01*
X184100197Y-134861144D01*
X184285354Y-134900500D01*
X184285355Y-134900500D01*
X184474644Y-134900500D01*
X184474646Y-134900500D01*
X184659803Y-134861144D01*
X184832730Y-134784151D01*
X184985871Y-134672888D01*
X185112533Y-134532216D01*
X185207179Y-134368284D01*
X185265674Y-134188256D01*
X185285460Y-134000000D01*
X191094540Y-134000000D01*
X191114326Y-134188256D01*
X191114327Y-134188259D01*
X191172818Y-134368277D01*
X191172821Y-134368284D01*
X191267467Y-134532216D01*
X191394129Y-134672888D01*
X191547265Y-134784148D01*
X191547270Y-134784151D01*
X191720192Y-134861142D01*
X191720197Y-134861144D01*
X191905354Y-134900500D01*
X191905355Y-134900500D01*
X192094644Y-134900500D01*
X192094646Y-134900500D01*
X192279803Y-134861144D01*
X192452730Y-134784151D01*
X192605871Y-134672888D01*
X192732533Y-134532216D01*
X192827179Y-134368284D01*
X192885674Y-134188256D01*
X192905460Y-134000000D01*
X192885674Y-133811744D01*
X192827179Y-133631716D01*
X192732533Y-133467784D01*
X192605871Y-133327112D01*
X192605870Y-133327111D01*
X192452734Y-133215851D01*
X192452729Y-133215848D01*
X192279807Y-133138857D01*
X192279802Y-133138855D01*
X192134001Y-133107865D01*
X192094646Y-133099500D01*
X191905354Y-133099500D01*
X191872897Y-133106398D01*
X191720197Y-133138855D01*
X191720192Y-133138857D01*
X191547270Y-133215848D01*
X191547265Y-133215851D01*
X191394129Y-133327111D01*
X191267466Y-133467785D01*
X191172821Y-133631715D01*
X191172818Y-133631722D01*
X191114327Y-133811740D01*
X191114326Y-133811744D01*
X191094540Y-134000000D01*
X185285460Y-134000000D01*
X185265674Y-133811744D01*
X185207179Y-133631716D01*
X185112533Y-133467784D01*
X184985871Y-133327112D01*
X184985870Y-133327111D01*
X184832734Y-133215851D01*
X184832729Y-133215848D01*
X184659807Y-133138857D01*
X184659802Y-133138855D01*
X184514001Y-133107865D01*
X184474646Y-133099500D01*
X184285354Y-133099500D01*
X184252897Y-133106398D01*
X184100197Y-133138855D01*
X184100192Y-133138857D01*
X183927270Y-133215848D01*
X183927265Y-133215851D01*
X183774129Y-133327111D01*
X183647466Y-133467785D01*
X183552821Y-133631715D01*
X183552818Y-133631722D01*
X183494327Y-133811740D01*
X183494326Y-133811744D01*
X183474540Y-134000000D01*
X91500500Y-134000000D01*
X91500500Y-132500000D01*
X115184659Y-132500000D01*
X115203975Y-132696129D01*
X115261188Y-132884733D01*
X115354086Y-133058532D01*
X115354090Y-133058539D01*
X115479116Y-133210883D01*
X115631460Y-133335909D01*
X115631467Y-133335913D01*
X115805266Y-133428811D01*
X115805269Y-133428811D01*
X115805273Y-133428814D01*
X115993868Y-133486024D01*
X116190000Y-133505341D01*
X116386132Y-133486024D01*
X116574727Y-133428814D01*
X116748538Y-133335910D01*
X116900883Y-133210883D01*
X117025910Y-133058538D01*
X117118814Y-132884727D01*
X117176024Y-132696132D01*
X117195341Y-132500000D01*
X130994659Y-132500000D01*
X131013975Y-132696129D01*
X131071188Y-132884733D01*
X131164086Y-133058532D01*
X131164090Y-133058539D01*
X131289116Y-133210883D01*
X131441460Y-133335909D01*
X131441467Y-133335913D01*
X131615266Y-133428811D01*
X131615269Y-133428811D01*
X131615273Y-133428814D01*
X131803868Y-133486024D01*
X132000000Y-133505341D01*
X132196132Y-133486024D01*
X132384727Y-133428814D01*
X132558538Y-133335910D01*
X132710883Y-133210883D01*
X132835910Y-133058538D01*
X132928814Y-132884727D01*
X132986024Y-132696132D01*
X133005341Y-132500000D01*
X153494659Y-132500000D01*
X153513975Y-132696129D01*
X153571188Y-132884733D01*
X153664086Y-133058532D01*
X153664090Y-133058539D01*
X153789116Y-133210883D01*
X153941460Y-133335909D01*
X153941467Y-133335913D01*
X154115266Y-133428811D01*
X154115269Y-133428811D01*
X154115273Y-133428814D01*
X154303868Y-133486024D01*
X154500000Y-133505341D01*
X154696132Y-133486024D01*
X154884727Y-133428814D01*
X155058538Y-133335910D01*
X155210883Y-133210883D01*
X155335910Y-133058538D01*
X155428814Y-132884727D01*
X155486024Y-132696132D01*
X155505341Y-132500000D01*
X157784540Y-132500000D01*
X157804326Y-132688256D01*
X157804327Y-132688259D01*
X157862818Y-132868277D01*
X157862821Y-132868284D01*
X157957467Y-133032216D01*
X158053487Y-133138857D01*
X158084129Y-133172888D01*
X158237265Y-133284148D01*
X158237270Y-133284151D01*
X158410192Y-133361142D01*
X158410197Y-133361144D01*
X158595354Y-133400500D01*
X158595355Y-133400500D01*
X158784644Y-133400500D01*
X158784646Y-133400500D01*
X158969803Y-133361144D01*
X159142730Y-133284151D01*
X159295871Y-133172888D01*
X159422533Y-133032216D01*
X159517179Y-132868284D01*
X159575674Y-132688256D01*
X159595460Y-132500000D01*
X165404540Y-132500000D01*
X165424326Y-132688256D01*
X165424327Y-132688259D01*
X165482818Y-132868277D01*
X165482821Y-132868284D01*
X165577467Y-133032216D01*
X165673487Y-133138857D01*
X165704129Y-133172888D01*
X165857265Y-133284148D01*
X165857270Y-133284151D01*
X166030192Y-133361142D01*
X166030197Y-133361144D01*
X166215354Y-133400500D01*
X166215355Y-133400500D01*
X166404644Y-133400500D01*
X166404646Y-133400500D01*
X166589803Y-133361144D01*
X166762730Y-133284151D01*
X166915871Y-133172888D01*
X167042533Y-133032216D01*
X167137179Y-132868284D01*
X167195674Y-132688256D01*
X167215460Y-132500000D01*
X167195674Y-132311744D01*
X167137179Y-132131716D01*
X167042533Y-131967784D01*
X166915871Y-131827112D01*
X166915870Y-131827111D01*
X166762734Y-131715851D01*
X166762729Y-131715848D01*
X166589807Y-131638857D01*
X166589802Y-131638855D01*
X166444001Y-131607865D01*
X166404646Y-131599500D01*
X166215354Y-131599500D01*
X166182897Y-131606398D01*
X166030197Y-131638855D01*
X166030192Y-131638857D01*
X165857270Y-131715848D01*
X165857265Y-131715851D01*
X165704129Y-131827111D01*
X165577466Y-131967785D01*
X165482821Y-132131715D01*
X165482818Y-132131722D01*
X165426885Y-132303868D01*
X165424326Y-132311744D01*
X165404540Y-132500000D01*
X159595460Y-132500000D01*
X159575674Y-132311744D01*
X159517179Y-132131716D01*
X159422533Y-131967784D01*
X159295871Y-131827112D01*
X159295870Y-131827111D01*
X159142734Y-131715851D01*
X159142729Y-131715848D01*
X158969807Y-131638857D01*
X158969802Y-131638855D01*
X158824001Y-131607865D01*
X158784646Y-131599500D01*
X158595354Y-131599500D01*
X158562897Y-131606398D01*
X158410197Y-131638855D01*
X158410192Y-131638857D01*
X158237270Y-131715848D01*
X158237265Y-131715851D01*
X158084129Y-131827111D01*
X157957466Y-131967785D01*
X157862821Y-132131715D01*
X157862818Y-132131722D01*
X157806885Y-132303868D01*
X157804326Y-132311744D01*
X157784540Y-132500000D01*
X155505341Y-132500000D01*
X155486024Y-132303868D01*
X155428814Y-132115273D01*
X155428811Y-132115269D01*
X155428811Y-132115266D01*
X155335913Y-131941467D01*
X155335909Y-131941460D01*
X155210883Y-131789116D01*
X155058539Y-131664090D01*
X155058532Y-131664086D01*
X154884733Y-131571188D01*
X154884727Y-131571186D01*
X154696132Y-131513976D01*
X154696129Y-131513975D01*
X154500000Y-131494659D01*
X154303870Y-131513975D01*
X154115266Y-131571188D01*
X153941467Y-131664086D01*
X153941460Y-131664090D01*
X153789116Y-131789116D01*
X153664090Y-131941460D01*
X153664086Y-131941467D01*
X153571188Y-132115266D01*
X153513975Y-132303870D01*
X153494659Y-132500000D01*
X133005341Y-132500000D01*
X132986024Y-132303868D01*
X132928814Y-132115273D01*
X132928811Y-132115269D01*
X132928811Y-132115266D01*
X132835913Y-131941467D01*
X132835909Y-131941460D01*
X132710883Y-131789116D01*
X132558539Y-131664090D01*
X132558532Y-131664086D01*
X132384733Y-131571188D01*
X132384727Y-131571186D01*
X132196132Y-131513976D01*
X132196129Y-131513975D01*
X132000000Y-131494659D01*
X131803870Y-131513975D01*
X131615266Y-131571188D01*
X131441467Y-131664086D01*
X131441460Y-131664090D01*
X131289116Y-131789116D01*
X131164090Y-131941460D01*
X131164086Y-131941467D01*
X131071188Y-132115266D01*
X131013975Y-132303870D01*
X130994659Y-132500000D01*
X117195341Y-132500000D01*
X117176024Y-132303868D01*
X117118814Y-132115273D01*
X117118811Y-132115269D01*
X117118811Y-132115266D01*
X117025913Y-131941467D01*
X117025909Y-131941460D01*
X116900883Y-131789116D01*
X116748539Y-131664090D01*
X116748532Y-131664086D01*
X116574733Y-131571188D01*
X116574727Y-131571186D01*
X116386132Y-131513976D01*
X116386129Y-131513975D01*
X116190000Y-131494659D01*
X115993870Y-131513975D01*
X115805266Y-131571188D01*
X115631467Y-131664086D01*
X115631460Y-131664090D01*
X115479116Y-131789116D01*
X115354090Y-131941460D01*
X115354086Y-131941467D01*
X115261188Y-132115266D01*
X115203975Y-132303870D01*
X115184659Y-132500000D01*
X91500500Y-132500000D01*
X91500500Y-131380000D01*
X168094540Y-131380000D01*
X168114326Y-131568256D01*
X168114327Y-131568259D01*
X168172818Y-131748277D01*
X168172821Y-131748284D01*
X168267467Y-131912216D01*
X168394129Y-132052888D01*
X168547265Y-132164148D01*
X168547270Y-132164151D01*
X168720192Y-132241142D01*
X168720197Y-132241144D01*
X168905354Y-132280500D01*
X168905355Y-132280500D01*
X169094644Y-132280500D01*
X169094646Y-132280500D01*
X169279803Y-132241144D01*
X169452730Y-132164151D01*
X169605871Y-132052888D01*
X169732533Y-131912216D01*
X169827179Y-131748284D01*
X169885674Y-131568256D01*
X169892848Y-131500000D01*
X170994659Y-131500000D01*
X171013975Y-131696129D01*
X171013976Y-131696132D01*
X171056377Y-131835910D01*
X171071188Y-131884733D01*
X171164086Y-132058532D01*
X171164090Y-132058539D01*
X171289116Y-132210883D01*
X171441460Y-132335909D01*
X171441467Y-132335913D01*
X171615266Y-132428811D01*
X171615269Y-132428811D01*
X171615273Y-132428814D01*
X171803868Y-132486024D01*
X172000000Y-132505341D01*
X172196132Y-132486024D01*
X172384727Y-132428814D01*
X172558538Y-132335910D01*
X172710883Y-132210883D01*
X172835910Y-132058538D01*
X172898486Y-131941467D01*
X172928811Y-131884733D01*
X172928811Y-131884732D01*
X172928814Y-131884727D01*
X172986024Y-131696132D01*
X173005341Y-131500000D01*
X180994659Y-131500000D01*
X181013975Y-131696129D01*
X181013976Y-131696132D01*
X181056377Y-131835910D01*
X181071188Y-131884733D01*
X181164086Y-132058532D01*
X181164090Y-132058539D01*
X181289116Y-132210883D01*
X181441460Y-132335909D01*
X181441467Y-132335913D01*
X181615266Y-132428811D01*
X181615269Y-132428811D01*
X181615273Y-132428814D01*
X181803868Y-132486024D01*
X182000000Y-132505341D01*
X182196132Y-132486024D01*
X182384727Y-132428814D01*
X182558538Y-132335910D01*
X182710883Y-132210883D01*
X182835910Y-132058538D01*
X182898486Y-131941467D01*
X182928811Y-131884733D01*
X182928811Y-131884732D01*
X182928814Y-131884727D01*
X182986024Y-131696132D01*
X183005341Y-131500000D01*
X182986024Y-131303868D01*
X182928814Y-131115273D01*
X182928811Y-131115269D01*
X182928811Y-131115266D01*
X182867200Y-131000000D01*
X191874659Y-131000000D01*
X191893975Y-131196129D01*
X191951188Y-131384733D01*
X192044086Y-131558532D01*
X192044090Y-131558539D01*
X192169116Y-131710883D01*
X192321460Y-131835909D01*
X192321467Y-131835913D01*
X192495266Y-131928811D01*
X192495269Y-131928811D01*
X192495273Y-131928814D01*
X192683868Y-131986024D01*
X192880000Y-132005341D01*
X193076132Y-131986024D01*
X193264727Y-131928814D01*
X193295784Y-131912214D01*
X193438532Y-131835913D01*
X193438538Y-131835910D01*
X193590883Y-131710883D01*
X193715910Y-131558538D01*
X193808814Y-131384727D01*
X193866024Y-131196132D01*
X193885341Y-131000000D01*
X199494659Y-131000000D01*
X199513975Y-131196129D01*
X199571188Y-131384733D01*
X199664086Y-131558532D01*
X199664090Y-131558539D01*
X199789116Y-131710883D01*
X199941460Y-131835909D01*
X199941467Y-131835913D01*
X200115266Y-131928811D01*
X200115269Y-131928811D01*
X200115273Y-131928814D01*
X200303868Y-131986024D01*
X200500000Y-132005341D01*
X200696132Y-131986024D01*
X200884727Y-131928814D01*
X200915784Y-131912214D01*
X201058532Y-131835913D01*
X201058538Y-131835910D01*
X201210883Y-131710883D01*
X201335910Y-131558538D01*
X201428814Y-131384727D01*
X201486024Y-131196132D01*
X201505341Y-131000000D01*
X201486024Y-130803868D01*
X201428814Y-130615273D01*
X201428811Y-130615269D01*
X201428811Y-130615266D01*
X201335913Y-130441467D01*
X201335909Y-130441460D01*
X201210883Y-130289116D01*
X201058539Y-130164090D01*
X201058532Y-130164086D01*
X200884733Y-130071188D01*
X200884727Y-130071186D01*
X200696132Y-130013976D01*
X200696129Y-130013975D01*
X200500000Y-129994659D01*
X200303870Y-130013975D01*
X200115266Y-130071188D01*
X199941467Y-130164086D01*
X199941460Y-130164090D01*
X199789116Y-130289116D01*
X199664090Y-130441460D01*
X199664086Y-130441467D01*
X199571188Y-130615266D01*
X199513975Y-130803870D01*
X199494659Y-131000000D01*
X193885341Y-131000000D01*
X193866024Y-130803868D01*
X193808814Y-130615273D01*
X193808811Y-130615269D01*
X193808811Y-130615266D01*
X193715913Y-130441467D01*
X193715909Y-130441460D01*
X193590883Y-130289116D01*
X193438539Y-130164090D01*
X193438532Y-130164086D01*
X193264733Y-130071188D01*
X193264727Y-130071186D01*
X193076132Y-130013976D01*
X193076129Y-130013975D01*
X192880000Y-129994659D01*
X192683870Y-130013975D01*
X192495266Y-130071188D01*
X192321467Y-130164086D01*
X192321460Y-130164090D01*
X192169116Y-130289116D01*
X192044090Y-130441460D01*
X192044086Y-130441467D01*
X191951188Y-130615266D01*
X191893975Y-130803870D01*
X191874659Y-131000000D01*
X182867200Y-131000000D01*
X182835913Y-130941467D01*
X182835909Y-130941460D01*
X182710883Y-130789116D01*
X182558539Y-130664090D01*
X182558532Y-130664086D01*
X182384733Y-130571188D01*
X182384727Y-130571186D01*
X182258997Y-130533046D01*
X182196129Y-130513975D01*
X182000000Y-130494659D01*
X181803870Y-130513975D01*
X181615266Y-130571188D01*
X181441467Y-130664086D01*
X181441460Y-130664090D01*
X181289116Y-130789116D01*
X181164090Y-130941460D01*
X181164086Y-130941467D01*
X181071188Y-131115266D01*
X181013975Y-131303870D01*
X180994659Y-131500000D01*
X173005341Y-131500000D01*
X172986024Y-131303868D01*
X172928814Y-131115273D01*
X172928811Y-131115269D01*
X172928811Y-131115266D01*
X172835913Y-130941467D01*
X172835909Y-130941460D01*
X172710883Y-130789116D01*
X172558539Y-130664090D01*
X172558532Y-130664086D01*
X172384733Y-130571188D01*
X172384727Y-130571186D01*
X172258997Y-130533046D01*
X172196129Y-130513975D01*
X172000000Y-130494659D01*
X171803870Y-130513975D01*
X171615266Y-130571188D01*
X171441467Y-130664086D01*
X171441460Y-130664090D01*
X171289116Y-130789116D01*
X171164090Y-130941460D01*
X171164086Y-130941467D01*
X171071188Y-131115266D01*
X171013975Y-131303870D01*
X170994659Y-131500000D01*
X169892848Y-131500000D01*
X169905460Y-131380000D01*
X169885674Y-131191744D01*
X169827179Y-131011716D01*
X169732533Y-130847784D01*
X169605871Y-130707112D01*
X169566183Y-130678277D01*
X169452734Y-130595851D01*
X169452729Y-130595848D01*
X169279807Y-130518857D01*
X169279802Y-130518855D01*
X169134001Y-130487865D01*
X169094646Y-130479500D01*
X168905354Y-130479500D01*
X168872897Y-130486398D01*
X168720197Y-130518855D01*
X168720192Y-130518857D01*
X168547270Y-130595848D01*
X168547265Y-130595851D01*
X168394129Y-130707111D01*
X168267466Y-130847785D01*
X168172821Y-131011715D01*
X168172818Y-131011722D01*
X168121020Y-131171142D01*
X168114326Y-131191744D01*
X168094540Y-131380000D01*
X91500500Y-131380000D01*
X91500500Y-130310000D01*
X136094540Y-130310000D01*
X136114326Y-130498256D01*
X136114327Y-130498259D01*
X136172818Y-130678277D01*
X136172821Y-130678284D01*
X136267467Y-130842216D01*
X136356827Y-130941460D01*
X136394129Y-130982888D01*
X136547265Y-131094148D01*
X136547270Y-131094151D01*
X136720192Y-131171142D01*
X136720197Y-131171144D01*
X136905354Y-131210500D01*
X136905355Y-131210500D01*
X137094644Y-131210500D01*
X137094646Y-131210500D01*
X137279803Y-131171144D01*
X137452730Y-131094151D01*
X137605871Y-130982888D01*
X137732533Y-130842216D01*
X137827179Y-130678284D01*
X137885674Y-130498256D01*
X137905460Y-130310000D01*
X137885674Y-130121744D01*
X137827179Y-129941716D01*
X137732533Y-129777784D01*
X137605871Y-129637112D01*
X137605870Y-129637111D01*
X137452734Y-129525851D01*
X137452729Y-129525848D01*
X137279807Y-129448857D01*
X137279802Y-129448855D01*
X137134001Y-129417865D01*
X137094646Y-129409500D01*
X136905354Y-129409500D01*
X136872897Y-129416398D01*
X136720197Y-129448855D01*
X136720192Y-129448857D01*
X136547270Y-129525848D01*
X136547265Y-129525851D01*
X136394129Y-129637111D01*
X136267466Y-129777785D01*
X136172821Y-129941715D01*
X136172818Y-129941722D01*
X136114327Y-130121740D01*
X136114326Y-130121744D01*
X136094540Y-130310000D01*
X91500500Y-130310000D01*
X91500500Y-127580000D01*
X140494659Y-127580000D01*
X140513975Y-127776129D01*
X140571188Y-127964733D01*
X140664086Y-128138532D01*
X140664090Y-128138539D01*
X140789116Y-128290883D01*
X140941460Y-128415909D01*
X140941467Y-128415913D01*
X141115266Y-128508811D01*
X141115269Y-128508811D01*
X141115273Y-128508814D01*
X141303868Y-128566024D01*
X141500000Y-128585341D01*
X141696132Y-128566024D01*
X141884727Y-128508814D01*
X141891227Y-128505340D01*
X142058532Y-128415913D01*
X142058538Y-128415910D01*
X142210883Y-128290883D01*
X142335910Y-128138538D01*
X142428814Y-127964727D01*
X142486024Y-127776132D01*
X142505341Y-127580000D01*
X142486024Y-127383868D01*
X142428814Y-127195273D01*
X142428811Y-127195269D01*
X142428811Y-127195266D01*
X142335913Y-127021467D01*
X142335909Y-127021460D01*
X142210883Y-126869116D01*
X142078226Y-126760247D01*
X148119500Y-126760247D01*
X148119500Y-128399752D01*
X148131131Y-128458229D01*
X148131132Y-128458230D01*
X148175447Y-128524552D01*
X148241769Y-128568867D01*
X148241770Y-128568868D01*
X148300247Y-128580499D01*
X148300250Y-128580500D01*
X148300252Y-128580500D01*
X149939750Y-128580500D01*
X149939751Y-128580499D01*
X149954568Y-128577552D01*
X149998229Y-128568868D01*
X149998229Y-128568867D01*
X149998231Y-128568867D01*
X150064552Y-128524552D01*
X150108867Y-128458231D01*
X150108867Y-128458229D01*
X150108868Y-128458229D01*
X150120499Y-128399752D01*
X150120500Y-128399750D01*
X150120500Y-126760249D01*
X150120499Y-126760247D01*
X150108868Y-126701770D01*
X150108867Y-126701769D01*
X150064552Y-126635447D01*
X149998230Y-126591132D01*
X149998229Y-126591131D01*
X149939752Y-126579500D01*
X149939748Y-126579500D01*
X148300252Y-126579500D01*
X148300247Y-126579500D01*
X148241770Y-126591131D01*
X148241769Y-126591132D01*
X148175447Y-126635447D01*
X148131132Y-126701769D01*
X148131131Y-126701770D01*
X148119500Y-126760247D01*
X142078226Y-126760247D01*
X142058539Y-126744090D01*
X142058532Y-126744086D01*
X141884733Y-126651188D01*
X141884727Y-126651186D01*
X141696132Y-126593976D01*
X141696129Y-126593975D01*
X141500000Y-126574659D01*
X141303870Y-126593975D01*
X141115266Y-126651188D01*
X140941467Y-126744086D01*
X140941460Y-126744090D01*
X140789116Y-126869116D01*
X140664090Y-127021460D01*
X140664086Y-127021467D01*
X140571188Y-127195266D01*
X140513975Y-127383870D01*
X140494659Y-127580000D01*
X91500500Y-127580000D01*
X91500500Y-126500000D01*
X157994659Y-126500000D01*
X158013975Y-126696129D01*
X158013976Y-126696132D01*
X158066450Y-126869116D01*
X158071188Y-126884733D01*
X158164086Y-127058532D01*
X158164090Y-127058539D01*
X158289116Y-127210883D01*
X158441460Y-127335909D01*
X158441467Y-127335913D01*
X158615266Y-127428811D01*
X158615269Y-127428811D01*
X158615273Y-127428814D01*
X158803868Y-127486024D01*
X159000000Y-127505341D01*
X159196132Y-127486024D01*
X159384727Y-127428814D01*
X159558538Y-127335910D01*
X159710883Y-127210883D01*
X159835910Y-127058538D01*
X159898486Y-126941467D01*
X159928811Y-126884733D01*
X159928811Y-126884732D01*
X159928814Y-126884727D01*
X159986024Y-126696132D01*
X160005341Y-126500000D01*
X167994659Y-126500000D01*
X168013975Y-126696129D01*
X168013976Y-126696132D01*
X168066450Y-126869116D01*
X168071188Y-126884733D01*
X168164086Y-127058532D01*
X168164090Y-127058539D01*
X168289116Y-127210883D01*
X168441460Y-127335909D01*
X168441467Y-127335913D01*
X168615266Y-127428811D01*
X168615269Y-127428811D01*
X168615273Y-127428814D01*
X168803868Y-127486024D01*
X169000000Y-127505341D01*
X169054229Y-127500000D01*
X171994659Y-127500000D01*
X172013975Y-127696129D01*
X172071188Y-127884733D01*
X172164086Y-128058532D01*
X172164090Y-128058539D01*
X172289116Y-128210883D01*
X172441460Y-128335909D01*
X172441467Y-128335913D01*
X172615266Y-128428811D01*
X172615269Y-128428811D01*
X172615273Y-128428814D01*
X172803868Y-128486024D01*
X173000000Y-128505341D01*
X173196132Y-128486024D01*
X173384727Y-128428814D01*
X173558538Y-128335910D01*
X173710883Y-128210883D01*
X173835910Y-128058538D01*
X173867199Y-128000000D01*
X176784540Y-128000000D01*
X176804326Y-128188256D01*
X176804327Y-128188259D01*
X176862818Y-128368277D01*
X176862821Y-128368284D01*
X176957467Y-128532216D01*
X177069039Y-128656129D01*
X177084129Y-128672888D01*
X177237265Y-128784148D01*
X177237270Y-128784151D01*
X177410192Y-128861142D01*
X177410197Y-128861144D01*
X177595354Y-128900500D01*
X177595355Y-128900500D01*
X177784644Y-128900500D01*
X177784646Y-128900500D01*
X177969803Y-128861144D01*
X178142730Y-128784151D01*
X178295871Y-128672888D01*
X178422533Y-128532216D01*
X178517179Y-128368284D01*
X178575674Y-128188256D01*
X178595460Y-128000000D01*
X184404540Y-128000000D01*
X184424326Y-128188256D01*
X184424327Y-128188259D01*
X184482818Y-128368277D01*
X184482821Y-128368284D01*
X184577467Y-128532216D01*
X184689039Y-128656129D01*
X184704129Y-128672888D01*
X184857265Y-128784148D01*
X184857270Y-128784151D01*
X185030192Y-128861142D01*
X185030197Y-128861144D01*
X185215354Y-128900500D01*
X185215355Y-128900500D01*
X185404644Y-128900500D01*
X185404646Y-128900500D01*
X185589803Y-128861144D01*
X185762730Y-128784151D01*
X185915871Y-128672888D01*
X186042533Y-128532216D01*
X186084227Y-128460000D01*
X191874659Y-128460000D01*
X191893975Y-128656129D01*
X191893976Y-128656132D01*
X191932809Y-128784148D01*
X191951188Y-128844733D01*
X192044086Y-129018532D01*
X192044090Y-129018539D01*
X192169116Y-129170883D01*
X192321460Y-129295909D01*
X192321467Y-129295913D01*
X192495266Y-129388811D01*
X192495269Y-129388811D01*
X192495273Y-129388814D01*
X192683868Y-129446024D01*
X192880000Y-129465341D01*
X193076132Y-129446024D01*
X193264727Y-129388814D01*
X193438538Y-129295910D01*
X193590883Y-129170883D01*
X193715910Y-129018538D01*
X193808814Y-128844727D01*
X193866024Y-128656132D01*
X193885341Y-128460000D01*
X199494659Y-128460000D01*
X199513975Y-128656129D01*
X199513976Y-128656132D01*
X199552809Y-128784148D01*
X199571188Y-128844733D01*
X199664086Y-129018532D01*
X199664090Y-129018539D01*
X199789116Y-129170883D01*
X199941460Y-129295909D01*
X199941467Y-129295913D01*
X200115266Y-129388811D01*
X200115269Y-129388811D01*
X200115273Y-129388814D01*
X200303868Y-129446024D01*
X200500000Y-129465341D01*
X200696132Y-129446024D01*
X200884727Y-129388814D01*
X201058538Y-129295910D01*
X201210883Y-129170883D01*
X201335910Y-129018538D01*
X201428814Y-128844727D01*
X201486024Y-128656132D01*
X201505341Y-128460000D01*
X201486024Y-128263868D01*
X201428814Y-128075273D01*
X201428811Y-128075269D01*
X201428811Y-128075266D01*
X201335913Y-127901467D01*
X201335909Y-127901460D01*
X201210883Y-127749116D01*
X201058539Y-127624090D01*
X201058532Y-127624086D01*
X200884733Y-127531188D01*
X200884727Y-127531186D01*
X200696132Y-127473976D01*
X200696129Y-127473975D01*
X200500000Y-127454659D01*
X200303870Y-127473975D01*
X200115266Y-127531188D01*
X199941467Y-127624086D01*
X199941460Y-127624090D01*
X199789116Y-127749116D01*
X199664090Y-127901460D01*
X199664086Y-127901467D01*
X199571188Y-128075266D01*
X199513975Y-128263870D01*
X199494659Y-128460000D01*
X193885341Y-128460000D01*
X193866024Y-128263868D01*
X193808814Y-128075273D01*
X193808811Y-128075269D01*
X193808811Y-128075266D01*
X193715913Y-127901467D01*
X193715909Y-127901460D01*
X193590883Y-127749116D01*
X193438539Y-127624090D01*
X193438532Y-127624086D01*
X193264733Y-127531188D01*
X193264727Y-127531186D01*
X193076132Y-127473976D01*
X193076129Y-127473975D01*
X192880000Y-127454659D01*
X192683870Y-127473975D01*
X192495266Y-127531188D01*
X192321467Y-127624086D01*
X192321460Y-127624090D01*
X192169116Y-127749116D01*
X192044090Y-127901460D01*
X192044086Y-127901467D01*
X191951188Y-128075266D01*
X191893975Y-128263870D01*
X191874659Y-128460000D01*
X186084227Y-128460000D01*
X186137179Y-128368284D01*
X186195674Y-128188256D01*
X186215460Y-128000000D01*
X186195674Y-127811744D01*
X186137179Y-127631716D01*
X186042533Y-127467784D01*
X185915871Y-127327112D01*
X185915870Y-127327111D01*
X185762734Y-127215851D01*
X185762729Y-127215848D01*
X185589807Y-127138857D01*
X185589802Y-127138855D01*
X185444001Y-127107865D01*
X185404646Y-127099500D01*
X185215354Y-127099500D01*
X185182897Y-127106398D01*
X185030197Y-127138855D01*
X185030192Y-127138857D01*
X184857270Y-127215848D01*
X184857265Y-127215851D01*
X184704129Y-127327111D01*
X184577466Y-127467785D01*
X184482821Y-127631715D01*
X184482818Y-127631722D01*
X184435898Y-127776129D01*
X184424326Y-127811744D01*
X184404540Y-128000000D01*
X178595460Y-128000000D01*
X178575674Y-127811744D01*
X178517179Y-127631716D01*
X178422533Y-127467784D01*
X178295871Y-127327112D01*
X178295870Y-127327111D01*
X178142734Y-127215851D01*
X178142729Y-127215848D01*
X177969807Y-127138857D01*
X177969802Y-127138855D01*
X177824001Y-127107865D01*
X177784646Y-127099500D01*
X177595354Y-127099500D01*
X177562897Y-127106398D01*
X177410197Y-127138855D01*
X177410192Y-127138857D01*
X177237270Y-127215848D01*
X177237265Y-127215851D01*
X177084129Y-127327111D01*
X176957466Y-127467785D01*
X176862821Y-127631715D01*
X176862818Y-127631722D01*
X176815898Y-127776129D01*
X176804326Y-127811744D01*
X176784540Y-128000000D01*
X173867199Y-128000000D01*
X173928814Y-127884727D01*
X173986024Y-127696132D01*
X174005341Y-127500000D01*
X173986024Y-127303868D01*
X173928814Y-127115273D01*
X173928811Y-127115269D01*
X173928811Y-127115266D01*
X173835913Y-126941467D01*
X173835909Y-126941460D01*
X173710883Y-126789116D01*
X173558539Y-126664090D01*
X173558532Y-126664086D01*
X173384733Y-126571188D01*
X173384727Y-126571186D01*
X173196132Y-126513976D01*
X173196129Y-126513975D01*
X173000000Y-126494659D01*
X172803870Y-126513975D01*
X172615266Y-126571188D01*
X172441467Y-126664086D01*
X172441460Y-126664090D01*
X172289116Y-126789116D01*
X172164090Y-126941460D01*
X172164086Y-126941467D01*
X172071188Y-127115266D01*
X172013975Y-127303870D01*
X171994659Y-127500000D01*
X169054229Y-127500000D01*
X169196132Y-127486024D01*
X169384727Y-127428814D01*
X169558538Y-127335910D01*
X169710883Y-127210883D01*
X169835910Y-127058538D01*
X169898486Y-126941467D01*
X169928811Y-126884733D01*
X169928811Y-126884732D01*
X169928814Y-126884727D01*
X169986024Y-126696132D01*
X170005341Y-126500000D01*
X169986024Y-126303868D01*
X169928814Y-126115273D01*
X169928811Y-126115269D01*
X169928811Y-126115266D01*
X169835913Y-125941467D01*
X169835909Y-125941460D01*
X169710883Y-125789116D01*
X169558539Y-125664090D01*
X169558532Y-125664086D01*
X169384733Y-125571188D01*
X169384727Y-125571186D01*
X169241684Y-125527794D01*
X169196129Y-125513975D01*
X169000000Y-125494659D01*
X168803870Y-125513975D01*
X168615266Y-125571188D01*
X168441467Y-125664086D01*
X168441460Y-125664090D01*
X168289116Y-125789116D01*
X168164090Y-125941460D01*
X168164086Y-125941467D01*
X168071188Y-126115266D01*
X168013975Y-126303870D01*
X167994659Y-126500000D01*
X160005341Y-126500000D01*
X159986024Y-126303868D01*
X159928814Y-126115273D01*
X159928811Y-126115269D01*
X159928811Y-126115266D01*
X159835913Y-125941467D01*
X159835909Y-125941460D01*
X159710883Y-125789116D01*
X159558539Y-125664090D01*
X159558532Y-125664086D01*
X159384733Y-125571188D01*
X159384727Y-125571186D01*
X159241684Y-125527794D01*
X159196129Y-125513975D01*
X159000000Y-125494659D01*
X158803870Y-125513975D01*
X158615266Y-125571188D01*
X158441467Y-125664086D01*
X158441460Y-125664090D01*
X158289116Y-125789116D01*
X158164090Y-125941460D01*
X158164086Y-125941467D01*
X158071188Y-126115266D01*
X158013975Y-126303870D01*
X157994659Y-126500000D01*
X91500500Y-126500000D01*
X91500500Y-124789999D01*
X140221127Y-124789999D01*
X140221128Y-124790000D01*
X141184314Y-124790000D01*
X141179920Y-124794394D01*
X141127259Y-124885606D01*
X141100000Y-124987339D01*
X141100000Y-125092661D01*
X141127259Y-125194394D01*
X141179920Y-125285606D01*
X141184314Y-125290000D01*
X140221128Y-125290000D01*
X140273730Y-125486317D01*
X140273734Y-125486326D01*
X140369865Y-125692482D01*
X140500342Y-125878820D01*
X140661179Y-126039657D01*
X140847517Y-126170134D01*
X141053673Y-126266265D01*
X141053682Y-126266269D01*
X141249999Y-126318872D01*
X141250000Y-126318871D01*
X141250000Y-125355686D01*
X141254394Y-125360080D01*
X141345606Y-125412741D01*
X141447339Y-125440000D01*
X141552661Y-125440000D01*
X141654394Y-125412741D01*
X141745606Y-125360080D01*
X141750000Y-125355686D01*
X141750000Y-126318872D01*
X141946317Y-126266269D01*
X141946326Y-126266265D01*
X142152482Y-126170134D01*
X142338820Y-126039657D01*
X142499657Y-125878820D01*
X142630134Y-125692482D01*
X142726265Y-125486326D01*
X142726269Y-125486317D01*
X142778872Y-125290000D01*
X141815686Y-125290000D01*
X141820080Y-125285606D01*
X141872741Y-125194394D01*
X141900000Y-125092661D01*
X141900000Y-125040000D01*
X148114659Y-125040000D01*
X148133975Y-125236129D01*
X148133976Y-125236132D01*
X148171575Y-125360080D01*
X148191188Y-125424733D01*
X148284086Y-125598532D01*
X148284090Y-125598539D01*
X148409116Y-125750883D01*
X148561460Y-125875909D01*
X148561467Y-125875913D01*
X148735266Y-125968811D01*
X148735269Y-125968811D01*
X148735273Y-125968814D01*
X148923868Y-126026024D01*
X149120000Y-126045341D01*
X149316132Y-126026024D01*
X149504727Y-125968814D01*
X149678538Y-125875910D01*
X149830883Y-125750883D01*
X149955910Y-125598538D01*
X150022652Y-125473673D01*
X150048811Y-125424733D01*
X150048811Y-125424732D01*
X150048814Y-125424727D01*
X150106024Y-125236132D01*
X150125341Y-125040000D01*
X150106024Y-124843868D01*
X150048814Y-124655273D01*
X150048811Y-124655269D01*
X150048811Y-124655266D01*
X149955913Y-124481467D01*
X149955909Y-124481460D01*
X149830883Y-124329116D01*
X149678539Y-124204090D01*
X149678532Y-124204086D01*
X149504733Y-124111188D01*
X149504727Y-124111186D01*
X149316132Y-124053976D01*
X149316129Y-124053975D01*
X149120000Y-124034659D01*
X148923870Y-124053975D01*
X148735266Y-124111188D01*
X148561467Y-124204086D01*
X148561460Y-124204090D01*
X148409116Y-124329116D01*
X148284090Y-124481460D01*
X148284086Y-124481467D01*
X148191188Y-124655266D01*
X148133975Y-124843870D01*
X148114659Y-125040000D01*
X141900000Y-125040000D01*
X141900000Y-124987339D01*
X141872741Y-124885606D01*
X141820080Y-124794394D01*
X141815686Y-124790000D01*
X142778872Y-124790000D01*
X142778872Y-124789999D01*
X142726269Y-124593682D01*
X142726265Y-124593673D01*
X142630134Y-124387517D01*
X142499657Y-124201179D01*
X142338820Y-124040342D01*
X142152482Y-123909865D01*
X141946328Y-123813734D01*
X141750000Y-123761127D01*
X141750000Y-124724314D01*
X141745606Y-124719920D01*
X141654394Y-124667259D01*
X141552661Y-124640000D01*
X141447339Y-124640000D01*
X141345606Y-124667259D01*
X141254394Y-124719920D01*
X141250000Y-124724314D01*
X141250000Y-123761127D01*
X141053671Y-123813734D01*
X140847517Y-123909865D01*
X140661179Y-124040342D01*
X140500342Y-124201179D01*
X140369865Y-124387517D01*
X140273734Y-124593673D01*
X140273730Y-124593682D01*
X140221127Y-124789999D01*
X91500500Y-124789999D01*
X91500500Y-122500000D01*
X115184659Y-122500000D01*
X115203975Y-122696129D01*
X115261188Y-122884733D01*
X115354086Y-123058532D01*
X115354090Y-123058539D01*
X115479116Y-123210883D01*
X115631460Y-123335909D01*
X115631467Y-123335913D01*
X115805266Y-123428811D01*
X115805269Y-123428811D01*
X115805273Y-123428814D01*
X115993868Y-123486024D01*
X116190000Y-123505341D01*
X116386132Y-123486024D01*
X116574727Y-123428814D01*
X116748538Y-123335910D01*
X116900883Y-123210883D01*
X117025910Y-123058538D01*
X117118814Y-122884727D01*
X117176024Y-122696132D01*
X117195341Y-122500000D01*
X118974540Y-122500000D01*
X118994326Y-122688256D01*
X118994327Y-122688259D01*
X119052818Y-122868277D01*
X119052821Y-122868284D01*
X119147467Y-123032216D01*
X119274129Y-123172888D01*
X119427265Y-123284148D01*
X119427270Y-123284151D01*
X119600192Y-123361142D01*
X119600197Y-123361144D01*
X119785354Y-123400500D01*
X119785355Y-123400500D01*
X119974644Y-123400500D01*
X119974646Y-123400500D01*
X120159803Y-123361144D01*
X120332730Y-123284151D01*
X120485871Y-123172888D01*
X120612533Y-123032216D01*
X120707179Y-122868284D01*
X120765674Y-122688256D01*
X120785460Y-122500000D01*
X126594540Y-122500000D01*
X126614326Y-122688256D01*
X126614327Y-122688259D01*
X126672818Y-122868277D01*
X126672821Y-122868284D01*
X126767467Y-123032216D01*
X126894129Y-123172888D01*
X127047265Y-123284148D01*
X127047270Y-123284151D01*
X127220192Y-123361142D01*
X127220197Y-123361144D01*
X127405354Y-123400500D01*
X127405355Y-123400500D01*
X127594644Y-123400500D01*
X127594646Y-123400500D01*
X127779803Y-123361144D01*
X127952730Y-123284151D01*
X128105871Y-123172888D01*
X128232533Y-123032216D01*
X128327179Y-122868284D01*
X128385674Y-122688256D01*
X128405460Y-122500000D01*
X130994659Y-122500000D01*
X131013975Y-122696129D01*
X131071188Y-122884733D01*
X131164086Y-123058532D01*
X131164090Y-123058539D01*
X131289116Y-123210883D01*
X131441460Y-123335909D01*
X131441467Y-123335913D01*
X131615266Y-123428811D01*
X131615269Y-123428811D01*
X131615273Y-123428814D01*
X131803868Y-123486024D01*
X132000000Y-123505341D01*
X132196132Y-123486024D01*
X132384727Y-123428814D01*
X132558538Y-123335910D01*
X132710883Y-123210883D01*
X132835910Y-123058538D01*
X132928814Y-122884727D01*
X132986024Y-122696132D01*
X132986628Y-122690000D01*
X136094540Y-122690000D01*
X136114326Y-122878256D01*
X136114327Y-122878259D01*
X136172818Y-123058277D01*
X136172821Y-123058284D01*
X136267467Y-123222216D01*
X136323231Y-123284148D01*
X136394129Y-123362888D01*
X136547265Y-123474148D01*
X136547270Y-123474151D01*
X136720192Y-123551142D01*
X136720197Y-123551144D01*
X136905354Y-123590500D01*
X136905355Y-123590500D01*
X137094644Y-123590500D01*
X137094646Y-123590500D01*
X137279803Y-123551144D01*
X137452730Y-123474151D01*
X137605871Y-123362888D01*
X137732533Y-123222216D01*
X137827179Y-123058284D01*
X137885674Y-122878256D01*
X137905460Y-122690000D01*
X137885674Y-122501744D01*
X137885107Y-122500000D01*
X140494659Y-122500000D01*
X140513975Y-122696129D01*
X140571188Y-122884733D01*
X140664086Y-123058532D01*
X140664090Y-123058539D01*
X140789116Y-123210883D01*
X140941460Y-123335909D01*
X140941467Y-123335913D01*
X141115266Y-123428811D01*
X141115269Y-123428811D01*
X141115273Y-123428814D01*
X141303868Y-123486024D01*
X141500000Y-123505341D01*
X141696132Y-123486024D01*
X141884727Y-123428814D01*
X142058538Y-123335910D01*
X142210883Y-123210883D01*
X142335910Y-123058538D01*
X142428814Y-122884727D01*
X142486024Y-122696132D01*
X142505341Y-122500000D01*
X148114659Y-122500000D01*
X148133975Y-122696129D01*
X148191188Y-122884733D01*
X148284086Y-123058532D01*
X148284090Y-123058539D01*
X148409116Y-123210883D01*
X148561460Y-123335909D01*
X148561467Y-123335913D01*
X148735266Y-123428811D01*
X148735269Y-123428811D01*
X148735273Y-123428814D01*
X148923868Y-123486024D01*
X149120000Y-123505341D01*
X149316132Y-123486024D01*
X149504727Y-123428814D01*
X149678538Y-123335910D01*
X149830883Y-123210883D01*
X149955910Y-123058538D01*
X150048814Y-122884727D01*
X150106024Y-122696132D01*
X150125341Y-122500000D01*
X153494659Y-122500000D01*
X153513975Y-122696129D01*
X153571188Y-122884733D01*
X153664086Y-123058532D01*
X153664090Y-123058539D01*
X153789116Y-123210883D01*
X153941460Y-123335909D01*
X153941467Y-123335913D01*
X154115266Y-123428811D01*
X154115269Y-123428811D01*
X154115273Y-123428814D01*
X154303868Y-123486024D01*
X154500000Y-123505341D01*
X154696132Y-123486024D01*
X154884727Y-123428814D01*
X155058538Y-123335910D01*
X155210883Y-123210883D01*
X155335910Y-123058538D01*
X155428814Y-122884727D01*
X155486024Y-122696132D01*
X155505341Y-122500000D01*
X155486024Y-122303868D01*
X155428814Y-122115273D01*
X155428811Y-122115269D01*
X155428811Y-122115266D01*
X155367200Y-122000000D01*
X156784540Y-122000000D01*
X156804326Y-122188256D01*
X156804327Y-122188259D01*
X156862818Y-122368277D01*
X156862821Y-122368284D01*
X156957467Y-122532216D01*
X156982711Y-122560252D01*
X157084129Y-122672888D01*
X157237265Y-122784148D01*
X157237270Y-122784151D01*
X157410192Y-122861142D01*
X157410197Y-122861144D01*
X157595354Y-122900500D01*
X157595355Y-122900500D01*
X157784644Y-122900500D01*
X157784646Y-122900500D01*
X157969803Y-122861144D01*
X158142730Y-122784151D01*
X158295871Y-122672888D01*
X158422533Y-122532216D01*
X158517179Y-122368284D01*
X158575674Y-122188256D01*
X158595460Y-122000000D01*
X164404540Y-122000000D01*
X164424326Y-122188256D01*
X164424327Y-122188259D01*
X164482818Y-122368277D01*
X164482821Y-122368284D01*
X164577467Y-122532216D01*
X164602711Y-122560252D01*
X164704129Y-122672888D01*
X164857265Y-122784148D01*
X164857270Y-122784151D01*
X165030192Y-122861142D01*
X165030197Y-122861144D01*
X165215354Y-122900500D01*
X165215355Y-122900500D01*
X165404644Y-122900500D01*
X165404646Y-122900500D01*
X165589803Y-122861144D01*
X165762730Y-122784151D01*
X165915871Y-122672888D01*
X166042533Y-122532216D01*
X166061133Y-122500000D01*
X183044867Y-122500000D01*
X183063302Y-122628225D01*
X183120802Y-122754130D01*
X183118538Y-122755163D01*
X183134500Y-122809510D01*
X183134500Y-124548118D01*
X183159408Y-124641079D01*
X183183467Y-124682750D01*
X183207527Y-124724422D01*
X183207529Y-124724424D01*
X184526054Y-126042950D01*
X184559539Y-126104273D01*
X184561111Y-126112982D01*
X184563302Y-126128223D01*
X184563303Y-126128227D01*
X184582442Y-126170134D01*
X184617118Y-126246063D01*
X184701951Y-126343967D01*
X184810931Y-126414004D01*
X184935225Y-126450499D01*
X184935227Y-126450500D01*
X184935228Y-126450500D01*
X185064773Y-126450500D01*
X185064773Y-126450499D01*
X185189069Y-126414004D01*
X185298049Y-126343967D01*
X185382882Y-126246063D01*
X185436697Y-126128226D01*
X185455133Y-126000000D01*
X185443631Y-125920000D01*
X191874659Y-125920000D01*
X191893975Y-126116129D01*
X191893976Y-126116132D01*
X191950925Y-126303868D01*
X191951188Y-126304733D01*
X192044086Y-126478532D01*
X192044090Y-126478539D01*
X192169116Y-126630883D01*
X192321460Y-126755909D01*
X192321467Y-126755913D01*
X192495266Y-126848811D01*
X192495269Y-126848811D01*
X192495273Y-126848814D01*
X192683868Y-126906024D01*
X192880000Y-126925341D01*
X193076132Y-126906024D01*
X193264727Y-126848814D01*
X193438538Y-126755910D01*
X193590883Y-126630883D01*
X193715910Y-126478538D01*
X193787840Y-126343966D01*
X193808811Y-126304733D01*
X193808811Y-126304732D01*
X193808814Y-126304727D01*
X193866024Y-126116132D01*
X193885341Y-125920000D01*
X193866024Y-125723868D01*
X193849683Y-125669999D01*
X199221127Y-125669999D01*
X199221128Y-125670000D01*
X200184314Y-125670000D01*
X200179920Y-125674394D01*
X200127259Y-125765606D01*
X200100000Y-125867339D01*
X200100000Y-125972661D01*
X200127259Y-126074394D01*
X200179920Y-126165606D01*
X200184314Y-126170000D01*
X199221128Y-126170000D01*
X199273730Y-126366317D01*
X199273734Y-126366326D01*
X199369865Y-126572482D01*
X199500342Y-126758820D01*
X199661179Y-126919657D01*
X199847517Y-127050134D01*
X200053673Y-127146265D01*
X200053682Y-127146269D01*
X200249999Y-127198872D01*
X200250000Y-127198871D01*
X200250000Y-126235686D01*
X200254394Y-126240080D01*
X200345606Y-126292741D01*
X200447339Y-126320000D01*
X200552661Y-126320000D01*
X200654394Y-126292741D01*
X200745606Y-126240080D01*
X200750000Y-126235686D01*
X200750000Y-127198872D01*
X200946317Y-127146269D01*
X200946326Y-127146265D01*
X201152482Y-127050134D01*
X201338820Y-126919657D01*
X201499657Y-126758820D01*
X201630134Y-126572482D01*
X201726265Y-126366326D01*
X201726269Y-126366317D01*
X201778872Y-126170000D01*
X200815686Y-126170000D01*
X200820080Y-126165606D01*
X200872741Y-126074394D01*
X200900000Y-125972661D01*
X200900000Y-125867339D01*
X200872741Y-125765606D01*
X200820080Y-125674394D01*
X200815686Y-125670000D01*
X201778872Y-125670000D01*
X201778872Y-125669999D01*
X201726269Y-125473682D01*
X201726265Y-125473673D01*
X201630134Y-125267517D01*
X201499657Y-125081179D01*
X201338820Y-124920342D01*
X201152482Y-124789865D01*
X200946328Y-124693734D01*
X200750000Y-124641127D01*
X200750000Y-125604314D01*
X200745606Y-125599920D01*
X200654394Y-125547259D01*
X200552661Y-125520000D01*
X200447339Y-125520000D01*
X200345606Y-125547259D01*
X200254394Y-125599920D01*
X200250000Y-125604314D01*
X200250000Y-124641127D01*
X200053671Y-124693734D01*
X199847517Y-124789865D01*
X199661179Y-124920342D01*
X199500342Y-125081179D01*
X199369865Y-125267517D01*
X199273734Y-125473673D01*
X199273730Y-125473682D01*
X199221127Y-125669999D01*
X193849683Y-125669999D01*
X193808814Y-125535273D01*
X193808811Y-125535269D01*
X193808811Y-125535266D01*
X193715913Y-125361467D01*
X193715909Y-125361460D01*
X193590883Y-125209116D01*
X193438539Y-125084090D01*
X193438532Y-125084086D01*
X193264733Y-124991188D01*
X193264727Y-124991186D01*
X193076132Y-124933976D01*
X193076129Y-124933975D01*
X192880000Y-124914659D01*
X192683870Y-124933975D01*
X192495266Y-124991188D01*
X192321467Y-125084086D01*
X192321460Y-125084090D01*
X192169116Y-125209116D01*
X192044090Y-125361460D01*
X192044086Y-125361467D01*
X191951188Y-125535266D01*
X191893975Y-125723870D01*
X191874659Y-125920000D01*
X185443631Y-125920000D01*
X185436697Y-125871774D01*
X185382882Y-125753937D01*
X185298049Y-125656033D01*
X185189069Y-125585996D01*
X185189067Y-125585995D01*
X185189065Y-125585994D01*
X185189066Y-125585994D01*
X185097437Y-125559090D01*
X185044690Y-125527794D01*
X184326896Y-124810000D01*
X185594540Y-124810000D01*
X185614326Y-124998256D01*
X185614327Y-124998259D01*
X185672818Y-125178277D01*
X185672821Y-125178284D01*
X185767467Y-125342216D01*
X185885832Y-125473673D01*
X185894129Y-125482888D01*
X186047265Y-125594148D01*
X186047270Y-125594151D01*
X186220192Y-125671142D01*
X186220197Y-125671144D01*
X186405354Y-125710500D01*
X186405355Y-125710500D01*
X186594644Y-125710500D01*
X186594646Y-125710500D01*
X186779803Y-125671144D01*
X186952730Y-125594151D01*
X187105871Y-125482888D01*
X187232533Y-125342216D01*
X187327179Y-125178284D01*
X187385674Y-124998256D01*
X187405460Y-124810000D01*
X187385674Y-124621744D01*
X187327179Y-124441716D01*
X187232533Y-124277784D01*
X187105871Y-124137112D01*
X187070187Y-124111186D01*
X186952734Y-124025851D01*
X186952729Y-124025848D01*
X186779807Y-123948857D01*
X186779802Y-123948855D01*
X186634001Y-123917865D01*
X186594646Y-123909500D01*
X186405354Y-123909500D01*
X186372897Y-123916398D01*
X186220197Y-123948855D01*
X186220192Y-123948857D01*
X186047270Y-124025848D01*
X186047265Y-124025851D01*
X185894129Y-124137111D01*
X185767466Y-124277785D01*
X185672821Y-124441715D01*
X185672818Y-124441722D01*
X185623444Y-124593682D01*
X185614326Y-124621744D01*
X185594540Y-124810000D01*
X184326896Y-124810000D01*
X183901819Y-124384923D01*
X183868334Y-124323600D01*
X183865500Y-124297242D01*
X183865500Y-122809519D01*
X183881460Y-122755163D01*
X183879198Y-122754130D01*
X183908485Y-122690000D01*
X183936697Y-122628226D01*
X183946471Y-122560247D01*
X191879500Y-122560247D01*
X191879500Y-124199752D01*
X191891131Y-124258229D01*
X191891132Y-124258230D01*
X191935447Y-124324552D01*
X192001769Y-124368867D01*
X192001770Y-124368868D01*
X192060247Y-124380499D01*
X192060250Y-124380500D01*
X192060252Y-124380500D01*
X193699750Y-124380500D01*
X193699751Y-124380499D01*
X193714568Y-124377552D01*
X193758229Y-124368868D01*
X193758229Y-124368867D01*
X193758231Y-124368867D01*
X193824552Y-124324552D01*
X193868867Y-124258231D01*
X193868867Y-124258229D01*
X193868868Y-124258229D01*
X193880499Y-124199752D01*
X193880500Y-124199750D01*
X193880500Y-123380000D01*
X199494659Y-123380000D01*
X199513975Y-123576129D01*
X199571188Y-123764733D01*
X199664086Y-123938532D01*
X199664090Y-123938539D01*
X199789116Y-124090883D01*
X199941460Y-124215909D01*
X199941467Y-124215913D01*
X200115266Y-124308811D01*
X200115269Y-124308811D01*
X200115273Y-124308814D01*
X200303868Y-124366024D01*
X200500000Y-124385341D01*
X200696132Y-124366024D01*
X200884727Y-124308814D01*
X201058538Y-124215910D01*
X201210883Y-124090883D01*
X201335910Y-123938538D01*
X201428814Y-123764727D01*
X201486024Y-123576132D01*
X201505341Y-123380000D01*
X201486024Y-123183868D01*
X201428814Y-122995273D01*
X201428811Y-122995269D01*
X201428811Y-122995266D01*
X201335913Y-122821467D01*
X201335909Y-122821460D01*
X201210883Y-122669116D01*
X201058539Y-122544090D01*
X201058532Y-122544086D01*
X200884733Y-122451188D01*
X200884727Y-122451186D01*
X200696132Y-122393976D01*
X200696129Y-122393975D01*
X200500000Y-122374659D01*
X200303870Y-122393975D01*
X200115266Y-122451188D01*
X199941467Y-122544086D01*
X199941460Y-122544090D01*
X199789116Y-122669116D01*
X199664090Y-122821460D01*
X199664086Y-122821467D01*
X199571188Y-122995266D01*
X199513975Y-123183870D01*
X199494659Y-123380000D01*
X193880500Y-123380000D01*
X193880500Y-122560249D01*
X193880499Y-122560247D01*
X193868868Y-122501770D01*
X193868867Y-122501769D01*
X193824552Y-122435447D01*
X193758230Y-122391132D01*
X193758229Y-122391131D01*
X193699752Y-122379500D01*
X193699748Y-122379500D01*
X192060252Y-122379500D01*
X192060247Y-122379500D01*
X192001770Y-122391131D01*
X192001769Y-122391132D01*
X191935447Y-122435447D01*
X191891132Y-122501769D01*
X191891131Y-122501770D01*
X191879500Y-122560247D01*
X183946471Y-122560247D01*
X183955133Y-122500000D01*
X183936697Y-122371774D01*
X183882882Y-122253937D01*
X183798049Y-122156033D01*
X183689069Y-122085996D01*
X183689065Y-122085994D01*
X183689064Y-122085994D01*
X183564774Y-122049500D01*
X183564772Y-122049500D01*
X183435228Y-122049500D01*
X183435226Y-122049500D01*
X183310935Y-122085994D01*
X183310932Y-122085995D01*
X183310931Y-122085996D01*
X183265386Y-122115266D01*
X183201950Y-122156033D01*
X183117118Y-122253937D01*
X183117117Y-122253938D01*
X183063302Y-122371774D01*
X183044867Y-122500000D01*
X166061133Y-122500000D01*
X166137179Y-122368284D01*
X166195674Y-122188256D01*
X166214737Y-122006879D01*
X211346672Y-122006879D01*
X211346672Y-122006880D01*
X211462821Y-122078797D01*
X211462822Y-122078798D01*
X211670195Y-122159134D01*
X211888807Y-122200000D01*
X212111193Y-122200000D01*
X212329809Y-122159133D01*
X212537168Y-122078801D01*
X212537181Y-122078795D01*
X212653326Y-122006879D01*
X212000001Y-121353553D01*
X212000000Y-121353553D01*
X211346672Y-122006879D01*
X166214737Y-122006879D01*
X166215460Y-122000000D01*
X166195674Y-121811744D01*
X166137179Y-121631716D01*
X166042533Y-121467784D01*
X165915871Y-121327112D01*
X165915870Y-121327111D01*
X165762734Y-121215851D01*
X165762729Y-121215848D01*
X165589807Y-121138857D01*
X165589802Y-121138855D01*
X165444001Y-121107865D01*
X165404646Y-121099500D01*
X165215354Y-121099500D01*
X165182897Y-121106398D01*
X165030197Y-121138855D01*
X165030192Y-121138857D01*
X164857270Y-121215848D01*
X164857265Y-121215851D01*
X164704129Y-121327111D01*
X164577466Y-121467785D01*
X164482821Y-121631715D01*
X164482818Y-121631722D01*
X164424327Y-121811740D01*
X164424326Y-121811744D01*
X164404540Y-122000000D01*
X158595460Y-122000000D01*
X158575674Y-121811744D01*
X158517179Y-121631716D01*
X158422533Y-121467784D01*
X158295871Y-121327112D01*
X158295870Y-121327111D01*
X158142734Y-121215851D01*
X158142729Y-121215848D01*
X157969807Y-121138857D01*
X157969802Y-121138855D01*
X157824001Y-121107865D01*
X157784646Y-121099500D01*
X157595354Y-121099500D01*
X157562897Y-121106398D01*
X157410197Y-121138855D01*
X157410192Y-121138857D01*
X157237270Y-121215848D01*
X157237265Y-121215851D01*
X157084129Y-121327111D01*
X156957466Y-121467785D01*
X156862821Y-121631715D01*
X156862818Y-121631722D01*
X156804327Y-121811740D01*
X156804326Y-121811744D01*
X156784540Y-122000000D01*
X155367200Y-122000000D01*
X155335913Y-121941467D01*
X155335909Y-121941460D01*
X155210883Y-121789116D01*
X155058539Y-121664090D01*
X155058532Y-121664086D01*
X154884733Y-121571188D01*
X154884727Y-121571186D01*
X154696132Y-121513976D01*
X154696129Y-121513975D01*
X154500000Y-121494659D01*
X154303870Y-121513975D01*
X154115266Y-121571188D01*
X153941467Y-121664086D01*
X153941460Y-121664090D01*
X153789116Y-121789116D01*
X153664090Y-121941460D01*
X153664086Y-121941467D01*
X153571188Y-122115266D01*
X153513975Y-122303870D01*
X153494659Y-122500000D01*
X150125341Y-122500000D01*
X150106024Y-122303868D01*
X150048814Y-122115273D01*
X150048811Y-122115269D01*
X150048811Y-122115266D01*
X149955913Y-121941467D01*
X149955909Y-121941460D01*
X149830883Y-121789116D01*
X149678539Y-121664090D01*
X149678532Y-121664086D01*
X149504733Y-121571188D01*
X149504727Y-121571186D01*
X149316132Y-121513976D01*
X149316129Y-121513975D01*
X149120000Y-121494659D01*
X148923870Y-121513975D01*
X148735266Y-121571188D01*
X148561467Y-121664086D01*
X148561460Y-121664090D01*
X148409116Y-121789116D01*
X148284090Y-121941460D01*
X148284086Y-121941467D01*
X148191188Y-122115266D01*
X148133975Y-122303870D01*
X148114659Y-122500000D01*
X142505341Y-122500000D01*
X142486024Y-122303868D01*
X142428814Y-122115273D01*
X142428811Y-122115269D01*
X142428811Y-122115266D01*
X142335913Y-121941467D01*
X142335909Y-121941460D01*
X142210883Y-121789116D01*
X142058539Y-121664090D01*
X142058532Y-121664086D01*
X141884733Y-121571188D01*
X141884727Y-121571186D01*
X141696132Y-121513976D01*
X141696129Y-121513975D01*
X141500000Y-121494659D01*
X141303870Y-121513975D01*
X141115266Y-121571188D01*
X140941467Y-121664086D01*
X140941460Y-121664090D01*
X140789116Y-121789116D01*
X140664090Y-121941460D01*
X140664086Y-121941467D01*
X140571188Y-122115266D01*
X140513975Y-122303870D01*
X140494659Y-122500000D01*
X137885107Y-122500000D01*
X137827179Y-122321716D01*
X137732533Y-122157784D01*
X137605871Y-122017112D01*
X137591788Y-122006880D01*
X137452734Y-121905851D01*
X137452729Y-121905848D01*
X137279807Y-121828857D01*
X137279802Y-121828855D01*
X137134001Y-121797865D01*
X137094646Y-121789500D01*
X136905354Y-121789500D01*
X136872897Y-121796398D01*
X136720197Y-121828855D01*
X136720192Y-121828857D01*
X136547270Y-121905848D01*
X136547265Y-121905851D01*
X136394129Y-122017111D01*
X136267466Y-122157785D01*
X136172821Y-122321715D01*
X136172818Y-122321722D01*
X136114327Y-122501740D01*
X136114326Y-122501744D01*
X136094540Y-122690000D01*
X132986628Y-122690000D01*
X133005341Y-122500000D01*
X132986024Y-122303868D01*
X132928814Y-122115273D01*
X132928811Y-122115269D01*
X132928811Y-122115266D01*
X132835913Y-121941467D01*
X132835909Y-121941460D01*
X132710883Y-121789116D01*
X132558539Y-121664090D01*
X132558532Y-121664086D01*
X132384733Y-121571188D01*
X132384727Y-121571186D01*
X132196132Y-121513976D01*
X132196129Y-121513975D01*
X132000000Y-121494659D01*
X131803870Y-121513975D01*
X131615266Y-121571188D01*
X131441467Y-121664086D01*
X131441460Y-121664090D01*
X131289116Y-121789116D01*
X131164090Y-121941460D01*
X131164086Y-121941467D01*
X131071188Y-122115266D01*
X131013975Y-122303870D01*
X130994659Y-122500000D01*
X128405460Y-122500000D01*
X128385674Y-122311744D01*
X128327179Y-122131716D01*
X128232533Y-121967784D01*
X128105871Y-121827112D01*
X128084719Y-121811744D01*
X127952734Y-121715851D01*
X127952729Y-121715848D01*
X127779807Y-121638857D01*
X127779802Y-121638855D01*
X127634001Y-121607865D01*
X127594646Y-121599500D01*
X127405354Y-121599500D01*
X127372897Y-121606398D01*
X127220197Y-121638855D01*
X127220192Y-121638857D01*
X127047270Y-121715848D01*
X127047265Y-121715851D01*
X126894129Y-121827111D01*
X126767466Y-121967785D01*
X126672821Y-122131715D01*
X126672818Y-122131722D01*
X126633108Y-122253938D01*
X126614326Y-122311744D01*
X126594540Y-122500000D01*
X120785460Y-122500000D01*
X120765674Y-122311744D01*
X120707179Y-122131716D01*
X120612533Y-121967784D01*
X120485871Y-121827112D01*
X120464719Y-121811744D01*
X120332734Y-121715851D01*
X120332729Y-121715848D01*
X120159807Y-121638857D01*
X120159802Y-121638855D01*
X120014001Y-121607865D01*
X119974646Y-121599500D01*
X119785354Y-121599500D01*
X119752897Y-121606398D01*
X119600197Y-121638855D01*
X119600192Y-121638857D01*
X119427270Y-121715848D01*
X119427265Y-121715851D01*
X119274129Y-121827111D01*
X119147466Y-121967785D01*
X119052821Y-122131715D01*
X119052818Y-122131722D01*
X119013108Y-122253938D01*
X118994326Y-122311744D01*
X118974540Y-122500000D01*
X117195341Y-122500000D01*
X117176024Y-122303868D01*
X117118814Y-122115273D01*
X117118811Y-122115269D01*
X117118811Y-122115266D01*
X117025913Y-121941467D01*
X117025909Y-121941460D01*
X116900883Y-121789116D01*
X116748539Y-121664090D01*
X116748532Y-121664086D01*
X116574733Y-121571188D01*
X116574727Y-121571186D01*
X116386132Y-121513976D01*
X116386129Y-121513975D01*
X116190000Y-121494659D01*
X115993870Y-121513975D01*
X115805266Y-121571188D01*
X115631467Y-121664086D01*
X115631460Y-121664090D01*
X115479116Y-121789116D01*
X115354090Y-121941460D01*
X115354086Y-121941467D01*
X115261188Y-122115266D01*
X115203975Y-122303870D01*
X115184659Y-122500000D01*
X91500500Y-122500000D01*
X91500500Y-119310000D01*
X109094540Y-119310000D01*
X109114326Y-119498256D01*
X109114327Y-119498259D01*
X109172818Y-119678277D01*
X109172821Y-119678284D01*
X109267467Y-119842216D01*
X109394129Y-119982888D01*
X109547265Y-120094148D01*
X109547270Y-120094151D01*
X109720192Y-120171142D01*
X109720197Y-120171144D01*
X109905354Y-120210500D01*
X109905355Y-120210500D01*
X110094644Y-120210500D01*
X110094646Y-120210500D01*
X110279803Y-120171144D01*
X110452730Y-120094151D01*
X110605871Y-119982888D01*
X110626480Y-119960000D01*
X140494659Y-119960000D01*
X140513975Y-120156129D01*
X140571188Y-120344733D01*
X140664086Y-120518532D01*
X140664090Y-120518539D01*
X140789116Y-120670883D01*
X140941460Y-120795909D01*
X140941467Y-120795913D01*
X141115266Y-120888811D01*
X141115269Y-120888811D01*
X141115273Y-120888814D01*
X141303868Y-120946024D01*
X141500000Y-120965341D01*
X141696132Y-120946024D01*
X141884727Y-120888814D01*
X142058538Y-120795910D01*
X142210883Y-120670883D01*
X142335910Y-120518538D01*
X142428814Y-120344727D01*
X142486024Y-120156132D01*
X142505341Y-119960000D01*
X148114659Y-119960000D01*
X148133975Y-120156129D01*
X148191188Y-120344733D01*
X148284086Y-120518532D01*
X148284090Y-120518539D01*
X148409116Y-120670883D01*
X148561460Y-120795909D01*
X148561467Y-120795913D01*
X148735266Y-120888811D01*
X148735269Y-120888811D01*
X148735273Y-120888814D01*
X148923868Y-120946024D01*
X149120000Y-120965341D01*
X149316132Y-120946024D01*
X149504727Y-120888814D01*
X149678538Y-120795910D01*
X149830883Y-120670883D01*
X149872642Y-120620000D01*
X207594540Y-120620000D01*
X207614326Y-120808256D01*
X207614327Y-120808259D01*
X207672818Y-120988277D01*
X207672821Y-120988284D01*
X207767467Y-121152216D01*
X207829796Y-121221439D01*
X207894129Y-121292888D01*
X208047265Y-121404148D01*
X208047270Y-121404151D01*
X208220192Y-121481142D01*
X208220197Y-121481144D01*
X208405354Y-121520500D01*
X208405355Y-121520500D01*
X208594644Y-121520500D01*
X208594646Y-121520500D01*
X208779803Y-121481144D01*
X208952730Y-121404151D01*
X209105871Y-121292888D01*
X209232533Y-121152216D01*
X209320415Y-120999999D01*
X210794859Y-120999999D01*
X210794859Y-121000000D01*
X210815378Y-121221439D01*
X210876240Y-121435350D01*
X210975369Y-121634428D01*
X210991137Y-121655308D01*
X210991138Y-121655308D01*
X211646447Y-121000000D01*
X211600369Y-120953922D01*
X211650000Y-120953922D01*
X211650000Y-121046078D01*
X211673852Y-121135095D01*
X211719930Y-121214905D01*
X211785095Y-121280070D01*
X211864905Y-121326148D01*
X211953922Y-121350000D01*
X212046078Y-121350000D01*
X212135095Y-121326148D01*
X212214905Y-121280070D01*
X212280070Y-121214905D01*
X212326148Y-121135095D01*
X212350000Y-121046078D01*
X212350000Y-120999999D01*
X212353553Y-120999999D01*
X212353553Y-121000000D01*
X213008861Y-121655308D01*
X213024631Y-121634425D01*
X213024633Y-121634422D01*
X213123759Y-121435350D01*
X213184621Y-121221439D01*
X213205141Y-121000000D01*
X218714540Y-121000000D01*
X218734326Y-121188256D01*
X218734327Y-121188259D01*
X218792818Y-121368277D01*
X218792821Y-121368284D01*
X218887467Y-121532216D01*
X218983487Y-121638857D01*
X219014129Y-121672888D01*
X219167265Y-121784148D01*
X219167270Y-121784151D01*
X219340192Y-121861142D01*
X219340197Y-121861144D01*
X219525354Y-121900500D01*
X219525355Y-121900500D01*
X219714644Y-121900500D01*
X219714646Y-121900500D01*
X219899803Y-121861144D01*
X220072730Y-121784151D01*
X220225871Y-121672888D01*
X220352533Y-121532216D01*
X220447179Y-121368284D01*
X220505674Y-121188256D01*
X220525460Y-121000000D01*
X220505674Y-120811744D01*
X220447179Y-120631716D01*
X220352533Y-120467784D01*
X220225871Y-120327112D01*
X220225870Y-120327111D01*
X220072734Y-120215851D01*
X220072729Y-120215848D01*
X219899807Y-120138857D01*
X219899802Y-120138855D01*
X219754001Y-120107865D01*
X219714646Y-120099500D01*
X219525354Y-120099500D01*
X219492897Y-120106398D01*
X219340197Y-120138855D01*
X219340192Y-120138857D01*
X219167270Y-120215848D01*
X219167265Y-120215851D01*
X219014129Y-120327111D01*
X218887466Y-120467785D01*
X218792821Y-120631715D01*
X218792818Y-120631722D01*
X218735459Y-120808256D01*
X218734326Y-120811744D01*
X218714540Y-121000000D01*
X213205141Y-121000000D01*
X213205141Y-120999999D01*
X213184621Y-120778560D01*
X213123759Y-120564649D01*
X213024635Y-120365580D01*
X213024630Y-120365572D01*
X213008860Y-120344690D01*
X212353553Y-120999999D01*
X212350000Y-120999999D01*
X212350000Y-120953922D01*
X212326148Y-120864905D01*
X212280070Y-120785095D01*
X212214905Y-120719930D01*
X212135095Y-120673852D01*
X212046078Y-120650000D01*
X211953922Y-120650000D01*
X211864905Y-120673852D01*
X211785095Y-120719930D01*
X211719930Y-120785095D01*
X211673852Y-120864905D01*
X211650000Y-120953922D01*
X211600369Y-120953922D01*
X210991138Y-120344691D01*
X210991137Y-120344691D01*
X210975368Y-120365574D01*
X210876240Y-120564649D01*
X210815378Y-120778560D01*
X210794859Y-120999999D01*
X209320415Y-120999999D01*
X209327179Y-120988284D01*
X209385674Y-120808256D01*
X209405460Y-120620000D01*
X209385674Y-120431744D01*
X209327179Y-120251716D01*
X209232533Y-120087784D01*
X209147296Y-119993119D01*
X211346671Y-119993119D01*
X212000000Y-120646447D01*
X212000001Y-120646447D01*
X212653327Y-119993119D01*
X212537178Y-119921202D01*
X212537177Y-119921201D01*
X212329804Y-119840865D01*
X212111193Y-119800000D01*
X211888807Y-119800000D01*
X211670195Y-119840865D01*
X211462824Y-119921200D01*
X211462823Y-119921201D01*
X211346671Y-119993119D01*
X209147296Y-119993119D01*
X209105871Y-119947112D01*
X209070209Y-119921202D01*
X208952734Y-119835851D01*
X208952729Y-119835848D01*
X208779807Y-119758857D01*
X208779802Y-119758855D01*
X208634001Y-119727865D01*
X208594646Y-119719500D01*
X208405354Y-119719500D01*
X208372897Y-119726398D01*
X208220197Y-119758855D01*
X208220192Y-119758857D01*
X208047270Y-119835848D01*
X208047265Y-119835851D01*
X207894129Y-119947111D01*
X207767466Y-120087785D01*
X207672821Y-120251715D01*
X207672818Y-120251722D01*
X207635824Y-120365580D01*
X207614326Y-120431744D01*
X207594540Y-120620000D01*
X149872642Y-120620000D01*
X149955910Y-120518538D01*
X150048814Y-120344727D01*
X150106024Y-120156132D01*
X150125341Y-119960000D01*
X150106024Y-119763868D01*
X150048814Y-119575273D01*
X150048811Y-119575269D01*
X150048811Y-119575266D01*
X149955913Y-119401467D01*
X149955909Y-119401460D01*
X149830883Y-119249116D01*
X149678539Y-119124090D01*
X149678532Y-119124086D01*
X149504733Y-119031188D01*
X149504727Y-119031186D01*
X149316132Y-118973976D01*
X149316129Y-118973975D01*
X149120000Y-118954659D01*
X148923870Y-118973975D01*
X148735266Y-119031188D01*
X148561467Y-119124086D01*
X148561460Y-119124090D01*
X148409116Y-119249116D01*
X148284090Y-119401460D01*
X148284086Y-119401467D01*
X148191188Y-119575266D01*
X148133975Y-119763870D01*
X148114659Y-119960000D01*
X142505341Y-119960000D01*
X142486024Y-119763868D01*
X142428814Y-119575273D01*
X142428811Y-119575269D01*
X142428811Y-119575266D01*
X142335913Y-119401467D01*
X142335909Y-119401460D01*
X142210883Y-119249116D01*
X142058539Y-119124090D01*
X142058532Y-119124086D01*
X141884733Y-119031188D01*
X141884727Y-119031186D01*
X141696132Y-118973976D01*
X141696129Y-118973975D01*
X141500000Y-118954659D01*
X141303870Y-118973975D01*
X141115266Y-119031188D01*
X140941467Y-119124086D01*
X140941460Y-119124090D01*
X140789116Y-119249116D01*
X140664090Y-119401460D01*
X140664086Y-119401467D01*
X140571188Y-119575266D01*
X140513975Y-119763870D01*
X140494659Y-119960000D01*
X110626480Y-119960000D01*
X110732533Y-119842216D01*
X110827179Y-119678284D01*
X110885674Y-119498256D01*
X110905460Y-119310000D01*
X110885674Y-119121744D01*
X110827179Y-118941716D01*
X110732533Y-118777784D01*
X110605871Y-118637112D01*
X110602173Y-118634425D01*
X110452734Y-118525851D01*
X110452729Y-118525848D01*
X110279807Y-118448857D01*
X110279802Y-118448855D01*
X110134001Y-118417865D01*
X110094646Y-118409500D01*
X109905354Y-118409500D01*
X109872897Y-118416398D01*
X109720197Y-118448855D01*
X109720192Y-118448857D01*
X109547270Y-118525848D01*
X109547265Y-118525851D01*
X109394129Y-118637111D01*
X109267466Y-118777785D01*
X109172821Y-118941715D01*
X109172818Y-118941722D01*
X109128280Y-119078797D01*
X109114326Y-119121744D01*
X109094540Y-119310000D01*
X91500500Y-119310000D01*
X91500500Y-118000000D01*
X156784540Y-118000000D01*
X156804326Y-118188256D01*
X156804327Y-118188259D01*
X156862818Y-118368277D01*
X156862821Y-118368284D01*
X156957467Y-118532216D01*
X157049497Y-118634425D01*
X157084129Y-118672888D01*
X157237265Y-118784148D01*
X157237270Y-118784151D01*
X157410192Y-118861142D01*
X157410197Y-118861144D01*
X157595354Y-118900500D01*
X157595355Y-118900500D01*
X157784644Y-118900500D01*
X157784646Y-118900500D01*
X157969803Y-118861144D01*
X158142730Y-118784151D01*
X158295871Y-118672888D01*
X158422533Y-118532216D01*
X158517179Y-118368284D01*
X158555612Y-118250000D01*
X164133505Y-118250000D01*
X164186239Y-118435349D01*
X164285368Y-118634425D01*
X164419391Y-118811900D01*
X164583738Y-118961721D01*
X164772820Y-119078797D01*
X164772822Y-119078798D01*
X164980195Y-119159135D01*
X165060000Y-119174052D01*
X165560000Y-119174052D01*
X165639804Y-119159135D01*
X165847177Y-119078798D01*
X165847179Y-119078797D01*
X166036261Y-118961721D01*
X166200608Y-118811900D01*
X166334631Y-118634425D01*
X166433760Y-118435349D01*
X166486495Y-118250000D01*
X165560000Y-118250000D01*
X165560000Y-119174052D01*
X165060000Y-119174052D01*
X165060000Y-118250000D01*
X164133505Y-118250000D01*
X158555612Y-118250000D01*
X158575674Y-118188256D01*
X158595460Y-118000000D01*
X158590617Y-117953922D01*
X164960000Y-117953922D01*
X164960000Y-118046078D01*
X164983852Y-118135095D01*
X165029930Y-118214905D01*
X165095095Y-118280070D01*
X165174905Y-118326148D01*
X165263922Y-118350000D01*
X165356078Y-118350000D01*
X165445095Y-118326148D01*
X165524905Y-118280070D01*
X165590070Y-118214905D01*
X165636148Y-118135095D01*
X165660000Y-118046078D01*
X165660000Y-117953922D01*
X165636148Y-117864905D01*
X165590070Y-117785095D01*
X165554975Y-117750000D01*
X165560000Y-117750000D01*
X166486495Y-117750000D01*
X166433760Y-117564650D01*
X166401568Y-117500000D01*
X171994659Y-117500000D01*
X172013975Y-117696129D01*
X172071188Y-117884733D01*
X172164086Y-118058532D01*
X172164090Y-118058539D01*
X172289116Y-118210883D01*
X172441460Y-118335909D01*
X172441467Y-118335913D01*
X172615266Y-118428811D01*
X172615269Y-118428811D01*
X172615273Y-118428814D01*
X172803868Y-118486024D01*
X173000000Y-118505341D01*
X173196132Y-118486024D01*
X173384727Y-118428814D01*
X173558538Y-118335910D01*
X173710883Y-118210883D01*
X173835910Y-118058538D01*
X173882362Y-117971632D01*
X173928811Y-117884733D01*
X173928811Y-117884732D01*
X173928814Y-117884727D01*
X173986024Y-117696132D01*
X174005341Y-117500000D01*
X173986024Y-117303868D01*
X173951482Y-117190000D01*
X185594540Y-117190000D01*
X185614326Y-117378256D01*
X185614327Y-117378259D01*
X185672818Y-117558277D01*
X185672821Y-117558284D01*
X185767467Y-117722216D01*
X185824084Y-117785095D01*
X185894129Y-117862888D01*
X186047265Y-117974148D01*
X186047270Y-117974151D01*
X186220192Y-118051142D01*
X186220197Y-118051144D01*
X186405354Y-118090500D01*
X186405355Y-118090500D01*
X186594644Y-118090500D01*
X186594646Y-118090500D01*
X186779803Y-118051144D01*
X186952730Y-117974151D01*
X187105871Y-117862888D01*
X187232533Y-117722216D01*
X187327179Y-117558284D01*
X187385674Y-117378256D01*
X187405460Y-117190000D01*
X187385674Y-117001744D01*
X187327179Y-116821716D01*
X187232533Y-116657784D01*
X187105871Y-116517112D01*
X187101555Y-116513976D01*
X187082319Y-116500000D01*
X212494659Y-116500000D01*
X212513975Y-116696129D01*
X212571188Y-116884733D01*
X212664086Y-117058532D01*
X212664090Y-117058539D01*
X212789116Y-117210883D01*
X212941460Y-117335909D01*
X212941467Y-117335913D01*
X213115266Y-117428811D01*
X213115269Y-117428811D01*
X213115273Y-117428814D01*
X213303868Y-117486024D01*
X213500000Y-117505341D01*
X213696132Y-117486024D01*
X213884727Y-117428814D01*
X214058538Y-117335910D01*
X214210883Y-117210883D01*
X214335910Y-117058538D01*
X214398486Y-116941467D01*
X214428811Y-116884733D01*
X214428811Y-116884732D01*
X214428814Y-116884727D01*
X214486024Y-116696132D01*
X214505341Y-116500000D01*
X214486628Y-116310000D01*
X219094540Y-116310000D01*
X219114326Y-116498256D01*
X219114327Y-116498259D01*
X219172818Y-116678277D01*
X219172821Y-116678284D01*
X219267467Y-116842216D01*
X219305750Y-116884733D01*
X219394129Y-116982888D01*
X219547265Y-117094148D01*
X219547270Y-117094151D01*
X219720192Y-117171142D01*
X219720197Y-117171144D01*
X219905354Y-117210500D01*
X219905355Y-117210500D01*
X220094644Y-117210500D01*
X220094646Y-117210500D01*
X220279803Y-117171144D01*
X220452730Y-117094151D01*
X220605871Y-116982888D01*
X220732533Y-116842216D01*
X220827179Y-116678284D01*
X220885674Y-116498256D01*
X220905460Y-116310000D01*
X220885674Y-116121744D01*
X220827179Y-115941716D01*
X220732533Y-115777784D01*
X220605871Y-115637112D01*
X220605870Y-115637111D01*
X220452734Y-115525851D01*
X220452729Y-115525848D01*
X220279807Y-115448857D01*
X220279802Y-115448855D01*
X220134001Y-115417865D01*
X220094646Y-115409500D01*
X219905354Y-115409500D01*
X219872897Y-115416398D01*
X219720197Y-115448855D01*
X219720192Y-115448857D01*
X219547270Y-115525848D01*
X219547265Y-115525851D01*
X219394129Y-115637111D01*
X219267466Y-115777785D01*
X219172821Y-115941715D01*
X219172818Y-115941722D01*
X219114327Y-116121740D01*
X219114326Y-116121744D01*
X219094540Y-116310000D01*
X214486628Y-116310000D01*
X214486024Y-116303868D01*
X214428814Y-116115273D01*
X214428811Y-116115269D01*
X214428811Y-116115266D01*
X214335913Y-115941467D01*
X214335909Y-115941460D01*
X214210883Y-115789116D01*
X214058539Y-115664090D01*
X214058532Y-115664086D01*
X213884733Y-115571188D01*
X213884727Y-115571186D01*
X213758997Y-115533046D01*
X213696129Y-115513975D01*
X213500000Y-115494659D01*
X213303870Y-115513975D01*
X213115266Y-115571188D01*
X212941467Y-115664086D01*
X212941460Y-115664090D01*
X212789116Y-115789116D01*
X212664090Y-115941460D01*
X212664086Y-115941467D01*
X212571188Y-116115266D01*
X212513975Y-116303870D01*
X212494659Y-116500000D01*
X187082319Y-116500000D01*
X186952734Y-116405851D01*
X186952729Y-116405848D01*
X186779807Y-116328857D01*
X186779802Y-116328855D01*
X186634001Y-116297865D01*
X186594646Y-116289500D01*
X186405354Y-116289500D01*
X186372897Y-116296398D01*
X186220197Y-116328855D01*
X186220192Y-116328857D01*
X186047270Y-116405848D01*
X186047265Y-116405851D01*
X185894129Y-116517111D01*
X185767466Y-116657785D01*
X185672821Y-116821715D01*
X185672818Y-116821722D01*
X185614327Y-117001740D01*
X185614326Y-117001744D01*
X185594540Y-117190000D01*
X173951482Y-117190000D01*
X173928814Y-117115273D01*
X173928811Y-117115269D01*
X173928811Y-117115266D01*
X173835913Y-116941467D01*
X173835909Y-116941460D01*
X173710883Y-116789116D01*
X173558539Y-116664090D01*
X173558532Y-116664086D01*
X173384733Y-116571188D01*
X173384727Y-116571186D01*
X173196132Y-116513976D01*
X173196129Y-116513975D01*
X173000000Y-116494659D01*
X172803870Y-116513975D01*
X172615266Y-116571188D01*
X172441467Y-116664086D01*
X172441460Y-116664090D01*
X172289116Y-116789116D01*
X172164090Y-116941460D01*
X172164086Y-116941467D01*
X172071188Y-117115266D01*
X172013975Y-117303870D01*
X171994659Y-117500000D01*
X166401568Y-117500000D01*
X166334631Y-117365574D01*
X166200608Y-117188099D01*
X166036261Y-117038278D01*
X165847179Y-116921202D01*
X165847177Y-116921201D01*
X165639799Y-116840864D01*
X165560000Y-116825946D01*
X165560000Y-117750000D01*
X165554975Y-117750000D01*
X165524905Y-117719930D01*
X165445095Y-117673852D01*
X165356078Y-117650000D01*
X165263922Y-117650000D01*
X165174905Y-117673852D01*
X165095095Y-117719930D01*
X165029930Y-117785095D01*
X164983852Y-117864905D01*
X164960000Y-117953922D01*
X158590617Y-117953922D01*
X158575674Y-117811744D01*
X158555612Y-117750000D01*
X164133505Y-117750000D01*
X165060000Y-117750000D01*
X165060000Y-116825946D01*
X164980200Y-116840864D01*
X164772822Y-116921201D01*
X164772820Y-116921202D01*
X164583738Y-117038278D01*
X164419391Y-117188099D01*
X164285368Y-117365574D01*
X164186239Y-117564650D01*
X164133505Y-117750000D01*
X158555612Y-117750000D01*
X158517179Y-117631716D01*
X158422533Y-117467784D01*
X158295871Y-117327112D01*
X158295870Y-117327111D01*
X158142734Y-117215851D01*
X158142729Y-117215848D01*
X157969807Y-117138857D01*
X157969802Y-117138855D01*
X157824001Y-117107865D01*
X157784646Y-117099500D01*
X157595354Y-117099500D01*
X157562897Y-117106398D01*
X157410197Y-117138855D01*
X157410192Y-117138857D01*
X157237270Y-117215848D01*
X157237265Y-117215851D01*
X157084129Y-117327111D01*
X156957466Y-117467785D01*
X156862821Y-117631715D01*
X156862818Y-117631722D01*
X156804327Y-117811740D01*
X156804326Y-117811744D01*
X156784540Y-118000000D01*
X91500500Y-118000000D01*
X91500500Y-113500000D01*
X178494659Y-113500000D01*
X178513975Y-113696129D01*
X178571188Y-113884733D01*
X178664086Y-114058532D01*
X178664090Y-114058539D01*
X178789116Y-114210883D01*
X178941460Y-114335909D01*
X178941467Y-114335913D01*
X179115266Y-114428811D01*
X179115269Y-114428811D01*
X179115273Y-114428814D01*
X179303868Y-114486024D01*
X179500000Y-114505341D01*
X179696132Y-114486024D01*
X179884727Y-114428814D01*
X180058538Y-114335910D01*
X180210883Y-114210883D01*
X180335910Y-114058538D01*
X180428814Y-113884727D01*
X180486024Y-113696132D01*
X180505341Y-113500000D01*
X188494659Y-113500000D01*
X188513975Y-113696129D01*
X188571188Y-113884733D01*
X188664086Y-114058532D01*
X188664090Y-114058539D01*
X188789116Y-114210883D01*
X188941460Y-114335909D01*
X188941467Y-114335913D01*
X189115266Y-114428811D01*
X189115269Y-114428811D01*
X189115273Y-114428814D01*
X189303868Y-114486024D01*
X189500000Y-114505341D01*
X189696132Y-114486024D01*
X189884727Y-114428814D01*
X190058538Y-114335910D01*
X190210883Y-114210883D01*
X190335910Y-114058538D01*
X190428814Y-113884727D01*
X190486024Y-113696132D01*
X190505341Y-113500000D01*
X190486024Y-113303868D01*
X190428814Y-113115273D01*
X190428811Y-113115269D01*
X190428811Y-113115266D01*
X190367200Y-113000000D01*
X207594540Y-113000000D01*
X207614326Y-113188256D01*
X207614327Y-113188259D01*
X207672818Y-113368277D01*
X207672821Y-113368284D01*
X207767467Y-113532216D01*
X207894129Y-113672888D01*
X208047265Y-113784148D01*
X208047270Y-113784151D01*
X208220192Y-113861142D01*
X208220197Y-113861144D01*
X208405354Y-113900500D01*
X208405355Y-113900500D01*
X208594644Y-113900500D01*
X208594646Y-113900500D01*
X208779803Y-113861144D01*
X208952730Y-113784151D01*
X209105871Y-113672888D01*
X209232533Y-113532216D01*
X209327179Y-113368284D01*
X209385674Y-113188256D01*
X209405460Y-113000000D01*
X209385674Y-112811744D01*
X209327179Y-112631716D01*
X209232533Y-112467784D01*
X209105871Y-112327112D01*
X209105870Y-112327111D01*
X208952734Y-112215851D01*
X208952729Y-112215848D01*
X208779807Y-112138857D01*
X208779802Y-112138855D01*
X208634001Y-112107865D01*
X208594646Y-112099500D01*
X208405354Y-112099500D01*
X208372897Y-112106398D01*
X208220197Y-112138855D01*
X208220192Y-112138857D01*
X208047270Y-112215848D01*
X208047265Y-112215851D01*
X207894129Y-112327111D01*
X207767466Y-112467785D01*
X207672821Y-112631715D01*
X207672818Y-112631722D01*
X207621678Y-112789116D01*
X207614326Y-112811744D01*
X207594540Y-113000000D01*
X190367200Y-113000000D01*
X190335913Y-112941467D01*
X190335909Y-112941460D01*
X190210883Y-112789116D01*
X190058539Y-112664090D01*
X190058532Y-112664086D01*
X189884733Y-112571188D01*
X189884727Y-112571186D01*
X189696132Y-112513976D01*
X189696129Y-112513975D01*
X189500000Y-112494659D01*
X189303870Y-112513975D01*
X189115266Y-112571188D01*
X188941467Y-112664086D01*
X188941460Y-112664090D01*
X188789116Y-112789116D01*
X188664090Y-112941460D01*
X188664086Y-112941467D01*
X188571188Y-113115266D01*
X188513975Y-113303870D01*
X188494659Y-113500000D01*
X180505341Y-113500000D01*
X180486024Y-113303868D01*
X180428814Y-113115273D01*
X180428811Y-113115269D01*
X180428811Y-113115266D01*
X180335913Y-112941467D01*
X180335909Y-112941460D01*
X180210883Y-112789116D01*
X180058539Y-112664090D01*
X180058532Y-112664086D01*
X179884733Y-112571188D01*
X179884727Y-112571186D01*
X179696132Y-112513976D01*
X179696129Y-112513975D01*
X179500000Y-112494659D01*
X179303870Y-112513975D01*
X179115266Y-112571188D01*
X178941467Y-112664086D01*
X178941460Y-112664090D01*
X178789116Y-112789116D01*
X178664090Y-112941460D01*
X178664086Y-112941467D01*
X178571188Y-113115266D01*
X178513975Y-113303870D01*
X178494659Y-113500000D01*
X91500500Y-113500000D01*
X91500500Y-111690000D01*
X109094540Y-111690000D01*
X109114326Y-111878256D01*
X109114327Y-111878259D01*
X109172818Y-112058277D01*
X109172821Y-112058284D01*
X109267467Y-112222216D01*
X109361915Y-112327111D01*
X109394129Y-112362888D01*
X109547265Y-112474148D01*
X109547270Y-112474151D01*
X109720192Y-112551142D01*
X109720197Y-112551144D01*
X109905354Y-112590500D01*
X109905355Y-112590500D01*
X110094644Y-112590500D01*
X110094646Y-112590500D01*
X110279803Y-112551144D01*
X110452730Y-112474151D01*
X110605871Y-112362888D01*
X110732533Y-112222216D01*
X110827179Y-112058284D01*
X110885674Y-111878256D01*
X110905460Y-111690000D01*
X110885674Y-111501744D01*
X110827179Y-111321716D01*
X110732533Y-111157784D01*
X110605871Y-111017112D01*
X110605870Y-111017111D01*
X110452734Y-110905851D01*
X110452729Y-110905848D01*
X110279807Y-110828857D01*
X110279802Y-110828855D01*
X110134001Y-110797865D01*
X110094646Y-110789500D01*
X109905354Y-110789500D01*
X109872897Y-110796398D01*
X109720197Y-110828855D01*
X109720192Y-110828857D01*
X109547270Y-110905848D01*
X109547265Y-110905851D01*
X109394129Y-111017111D01*
X109267466Y-111157785D01*
X109172821Y-111321715D01*
X109172818Y-111321722D01*
X109114327Y-111501740D01*
X109114326Y-111501744D01*
X109094540Y-111690000D01*
X91500500Y-111690000D01*
X91500500Y-108000000D01*
X98994659Y-108000000D01*
X99013975Y-108196129D01*
X99071188Y-108384733D01*
X99164086Y-108558532D01*
X99164090Y-108558539D01*
X99289116Y-108710883D01*
X99441460Y-108835909D01*
X99441467Y-108835913D01*
X99615266Y-108928811D01*
X99615269Y-108928811D01*
X99615273Y-108928814D01*
X99803868Y-108986024D01*
X100000000Y-109005341D01*
X100196132Y-108986024D01*
X100384727Y-108928814D01*
X100558538Y-108835910D01*
X100710883Y-108710883D01*
X100835910Y-108558538D01*
X100928814Y-108384727D01*
X100986024Y-108196132D01*
X101005341Y-108000000D01*
X108994659Y-108000000D01*
X109013975Y-108196129D01*
X109071188Y-108384733D01*
X109164086Y-108558532D01*
X109164090Y-108558539D01*
X109289116Y-108710883D01*
X109441460Y-108835909D01*
X109441467Y-108835913D01*
X109615266Y-108928811D01*
X109615269Y-108928811D01*
X109615273Y-108928814D01*
X109803868Y-108986024D01*
X110000000Y-109005341D01*
X110196132Y-108986024D01*
X110384727Y-108928814D01*
X110558538Y-108835910D01*
X110710883Y-108710883D01*
X110835910Y-108558538D01*
X110867199Y-108500000D01*
X207494659Y-108500000D01*
X207513975Y-108696129D01*
X207513976Y-108696132D01*
X207556377Y-108835910D01*
X207571188Y-108884733D01*
X207664086Y-109058532D01*
X207664090Y-109058539D01*
X207789116Y-109210883D01*
X207941460Y-109335909D01*
X207941467Y-109335913D01*
X208115266Y-109428811D01*
X208115269Y-109428811D01*
X208115273Y-109428814D01*
X208303868Y-109486024D01*
X208500000Y-109505341D01*
X208696132Y-109486024D01*
X208884727Y-109428814D01*
X209058538Y-109335910D01*
X209210883Y-109210883D01*
X209335910Y-109058538D01*
X209428814Y-108884727D01*
X209486024Y-108696132D01*
X209486628Y-108690000D01*
X219094540Y-108690000D01*
X219114326Y-108878256D01*
X219114327Y-108878259D01*
X219172818Y-109058277D01*
X219172821Y-109058284D01*
X219267467Y-109222216D01*
X219369837Y-109335909D01*
X219394129Y-109362888D01*
X219547265Y-109474148D01*
X219547270Y-109474151D01*
X219720192Y-109551142D01*
X219720197Y-109551144D01*
X219905354Y-109590500D01*
X219905355Y-109590500D01*
X220094644Y-109590500D01*
X220094646Y-109590500D01*
X220279803Y-109551144D01*
X220452730Y-109474151D01*
X220605871Y-109362888D01*
X220732533Y-109222216D01*
X220827179Y-109058284D01*
X220885674Y-108878256D01*
X220905460Y-108690000D01*
X220885674Y-108501744D01*
X220827179Y-108321716D01*
X220732533Y-108157784D01*
X220605871Y-108017112D01*
X220605870Y-108017111D01*
X220452734Y-107905851D01*
X220452729Y-107905848D01*
X220279807Y-107828857D01*
X220279802Y-107828855D01*
X220134001Y-107797865D01*
X220094646Y-107789500D01*
X219905354Y-107789500D01*
X219872897Y-107796398D01*
X219720197Y-107828855D01*
X219720192Y-107828857D01*
X219547270Y-107905848D01*
X219547265Y-107905851D01*
X219394129Y-108017111D01*
X219267466Y-108157785D01*
X219172821Y-108321715D01*
X219172818Y-108321722D01*
X219114327Y-108501740D01*
X219114326Y-108501744D01*
X219094540Y-108690000D01*
X209486628Y-108690000D01*
X209505341Y-108500000D01*
X209486024Y-108303868D01*
X209428814Y-108115273D01*
X209428811Y-108115269D01*
X209428811Y-108115266D01*
X209335913Y-107941467D01*
X209335909Y-107941460D01*
X209210883Y-107789116D01*
X209058539Y-107664090D01*
X209058532Y-107664086D01*
X208884733Y-107571188D01*
X208884727Y-107571186D01*
X208696132Y-107513976D01*
X208696129Y-107513975D01*
X208500000Y-107494659D01*
X208303870Y-107513975D01*
X208115266Y-107571188D01*
X207941467Y-107664086D01*
X207941460Y-107664090D01*
X207789116Y-107789116D01*
X207664090Y-107941460D01*
X207664086Y-107941467D01*
X207571188Y-108115266D01*
X207513975Y-108303870D01*
X207494659Y-108500000D01*
X110867199Y-108500000D01*
X110928814Y-108384727D01*
X110986024Y-108196132D01*
X111005341Y-108000000D01*
X110986024Y-107803868D01*
X110928814Y-107615273D01*
X110928811Y-107615269D01*
X110928811Y-107615266D01*
X110835913Y-107441467D01*
X110835909Y-107441460D01*
X110710883Y-107289116D01*
X110558539Y-107164090D01*
X110558532Y-107164086D01*
X110384733Y-107071188D01*
X110384727Y-107071186D01*
X110196132Y-107013976D01*
X110196129Y-107013975D01*
X110000000Y-106994659D01*
X109803870Y-107013975D01*
X109615266Y-107071188D01*
X109441467Y-107164086D01*
X109441460Y-107164090D01*
X109289116Y-107289116D01*
X109164090Y-107441460D01*
X109164086Y-107441467D01*
X109071188Y-107615266D01*
X109013975Y-107803870D01*
X108994659Y-108000000D01*
X101005341Y-108000000D01*
X100986024Y-107803868D01*
X100928814Y-107615273D01*
X100928811Y-107615269D01*
X100928811Y-107615266D01*
X100835913Y-107441467D01*
X100835909Y-107441460D01*
X100710883Y-107289116D01*
X100558539Y-107164090D01*
X100558532Y-107164086D01*
X100384733Y-107071188D01*
X100384727Y-107071186D01*
X100196132Y-107013976D01*
X100196129Y-107013975D01*
X100000000Y-106994659D01*
X99803870Y-107013975D01*
X99615266Y-107071188D01*
X99441467Y-107164086D01*
X99441460Y-107164090D01*
X99289116Y-107289116D01*
X99164090Y-107441460D01*
X99164086Y-107441467D01*
X99071188Y-107615266D01*
X99013975Y-107803870D01*
X98994659Y-108000000D01*
X91500500Y-108000000D01*
X91500500Y-106500000D01*
X212494659Y-106500000D01*
X212513975Y-106696129D01*
X212571188Y-106884733D01*
X212664086Y-107058532D01*
X212664090Y-107058539D01*
X212789116Y-107210883D01*
X212941460Y-107335909D01*
X212941467Y-107335913D01*
X213115266Y-107428811D01*
X213115269Y-107428811D01*
X213115273Y-107428814D01*
X213303868Y-107486024D01*
X213500000Y-107505341D01*
X213696132Y-107486024D01*
X213884727Y-107428814D01*
X214058538Y-107335910D01*
X214210883Y-107210883D01*
X214335910Y-107058538D01*
X214428814Y-106884727D01*
X214486024Y-106696132D01*
X214505341Y-106500000D01*
X214486024Y-106303868D01*
X214428814Y-106115273D01*
X214428811Y-106115269D01*
X214428811Y-106115266D01*
X214335913Y-105941467D01*
X214335909Y-105941460D01*
X214210883Y-105789116D01*
X214058539Y-105664090D01*
X214058532Y-105664086D01*
X213884733Y-105571188D01*
X213884727Y-105571186D01*
X213696132Y-105513976D01*
X213696129Y-105513975D01*
X213500000Y-105494659D01*
X213303870Y-105513975D01*
X213115266Y-105571188D01*
X212941467Y-105664086D01*
X212941460Y-105664090D01*
X212789116Y-105789116D01*
X212664090Y-105941460D01*
X212664086Y-105941467D01*
X212571188Y-106115266D01*
X212513975Y-106303870D01*
X212494659Y-106500000D01*
X91500500Y-106500000D01*
X91500500Y-104500000D01*
X108994659Y-104500000D01*
X109013975Y-104696129D01*
X109071188Y-104884733D01*
X109164086Y-105058532D01*
X109164090Y-105058539D01*
X109289116Y-105210883D01*
X109441460Y-105335909D01*
X109441467Y-105335913D01*
X109615266Y-105428811D01*
X109615269Y-105428811D01*
X109615273Y-105428814D01*
X109803868Y-105486024D01*
X110000000Y-105505341D01*
X110196132Y-105486024D01*
X110384727Y-105428814D01*
X110558538Y-105335910D01*
X110710883Y-105210883D01*
X110835910Y-105058538D01*
X110928814Y-104884727D01*
X110986024Y-104696132D01*
X111005341Y-104500000D01*
X110986024Y-104303868D01*
X110928814Y-104115273D01*
X110928811Y-104115269D01*
X110928811Y-104115266D01*
X110835913Y-103941467D01*
X110835909Y-103941460D01*
X110710883Y-103789116D01*
X110558539Y-103664090D01*
X110558532Y-103664086D01*
X110384733Y-103571188D01*
X110384727Y-103571186D01*
X110196132Y-103513976D01*
X110196129Y-103513975D01*
X110000000Y-103494659D01*
X109803870Y-103513975D01*
X109615266Y-103571188D01*
X109441467Y-103664086D01*
X109441460Y-103664090D01*
X109289116Y-103789116D01*
X109164090Y-103941460D01*
X109164086Y-103941467D01*
X109071188Y-104115266D01*
X109013975Y-104303870D01*
X108994659Y-104500000D01*
X91500500Y-104500000D01*
X91500500Y-98500000D01*
X207494659Y-98500000D01*
X207513975Y-98696129D01*
X207571188Y-98884733D01*
X207664086Y-99058532D01*
X207664090Y-99058539D01*
X207789116Y-99210883D01*
X207941460Y-99335909D01*
X207941467Y-99335913D01*
X208115266Y-99428811D01*
X208115269Y-99428811D01*
X208115273Y-99428814D01*
X208303868Y-99486024D01*
X208500000Y-99505341D01*
X208696132Y-99486024D01*
X208884727Y-99428814D01*
X209058538Y-99335910D01*
X209210883Y-99210883D01*
X209335910Y-99058538D01*
X209428814Y-98884727D01*
X209486024Y-98696132D01*
X209505341Y-98500000D01*
X209486024Y-98303868D01*
X209428814Y-98115273D01*
X209428811Y-98115269D01*
X209428811Y-98115266D01*
X209335913Y-97941467D01*
X209335909Y-97941460D01*
X209210883Y-97789116D01*
X209058539Y-97664090D01*
X209058532Y-97664086D01*
X208884733Y-97571188D01*
X208884727Y-97571186D01*
X208696132Y-97513976D01*
X208696129Y-97513975D01*
X208500000Y-97494659D01*
X208303870Y-97513975D01*
X208115266Y-97571188D01*
X207941467Y-97664086D01*
X207941460Y-97664090D01*
X207789116Y-97789116D01*
X207664090Y-97941460D01*
X207664086Y-97941467D01*
X207571188Y-98115266D01*
X207513975Y-98303870D01*
X207494659Y-98500000D01*
X91500500Y-98500000D01*
X91500500Y-94500000D01*
X108994659Y-94500000D01*
X109013975Y-94696129D01*
X109071188Y-94884733D01*
X109164086Y-95058532D01*
X109164090Y-95058539D01*
X109289116Y-95210883D01*
X109441460Y-95335909D01*
X109441467Y-95335913D01*
X109615266Y-95428811D01*
X109615269Y-95428811D01*
X109615273Y-95428814D01*
X109803868Y-95486024D01*
X110000000Y-95505341D01*
X110196132Y-95486024D01*
X110384727Y-95428814D01*
X110558538Y-95335910D01*
X110590109Y-95310000D01*
X207594540Y-95310000D01*
X207614326Y-95498256D01*
X207614327Y-95498259D01*
X207672818Y-95678277D01*
X207672821Y-95678284D01*
X207767467Y-95842216D01*
X207894129Y-95982888D01*
X208047265Y-96094148D01*
X208047270Y-96094151D01*
X208220192Y-96171142D01*
X208220197Y-96171144D01*
X208405354Y-96210500D01*
X208405355Y-96210500D01*
X208594644Y-96210500D01*
X208594646Y-96210500D01*
X208779803Y-96171144D01*
X208952730Y-96094151D01*
X209105871Y-95982888D01*
X209232533Y-95842216D01*
X209327179Y-95678284D01*
X209385674Y-95498256D01*
X209405460Y-95310000D01*
X209385674Y-95121744D01*
X209327179Y-94941716D01*
X209232533Y-94777784D01*
X209105871Y-94637112D01*
X209105870Y-94637111D01*
X208952734Y-94525851D01*
X208952729Y-94525848D01*
X208779807Y-94448857D01*
X208779802Y-94448855D01*
X208634001Y-94417865D01*
X208594646Y-94409500D01*
X208405354Y-94409500D01*
X208372897Y-94416398D01*
X208220197Y-94448855D01*
X208220192Y-94448857D01*
X208047270Y-94525848D01*
X208047265Y-94525851D01*
X207894129Y-94637111D01*
X207767466Y-94777785D01*
X207672821Y-94941715D01*
X207672818Y-94941722D01*
X207614327Y-95121740D01*
X207614326Y-95121744D01*
X207594540Y-95310000D01*
X110590109Y-95310000D01*
X110710883Y-95210883D01*
X110835910Y-95058538D01*
X110928814Y-94884727D01*
X110986024Y-94696132D01*
X111005341Y-94500000D01*
X110986024Y-94303868D01*
X110928814Y-94115273D01*
X110928811Y-94115269D01*
X110928811Y-94115266D01*
X110835913Y-93941467D01*
X110835909Y-93941460D01*
X110710883Y-93789116D01*
X110558539Y-93664090D01*
X110558532Y-93664086D01*
X110384733Y-93571188D01*
X110384727Y-93571186D01*
X110196132Y-93513976D01*
X110196129Y-93513975D01*
X110000000Y-93494659D01*
X109803870Y-93513975D01*
X109615266Y-93571188D01*
X109441467Y-93664086D01*
X109441460Y-93664090D01*
X109289116Y-93789116D01*
X109164090Y-93941460D01*
X109164086Y-93941467D01*
X109071188Y-94115266D01*
X109013975Y-94303870D01*
X108994659Y-94500000D01*
X91500500Y-94500000D01*
X91500500Y-91000000D01*
X101594540Y-91000000D01*
X101614326Y-91188256D01*
X101614327Y-91188259D01*
X101672818Y-91368277D01*
X101672821Y-91368284D01*
X101767467Y-91532216D01*
X101894129Y-91672888D01*
X102047265Y-91784148D01*
X102047270Y-91784151D01*
X102220192Y-91861142D01*
X102220197Y-91861144D01*
X102405354Y-91900500D01*
X102405355Y-91900500D01*
X102594644Y-91900500D01*
X102594646Y-91900500D01*
X102779803Y-91861144D01*
X102952730Y-91784151D01*
X103105871Y-91672888D01*
X103232533Y-91532216D01*
X103327179Y-91368284D01*
X103385674Y-91188256D01*
X103405460Y-91000000D01*
X109214540Y-91000000D01*
X109234326Y-91188256D01*
X109234327Y-91188259D01*
X109292818Y-91368277D01*
X109292821Y-91368284D01*
X109387467Y-91532216D01*
X109514129Y-91672888D01*
X109667265Y-91784148D01*
X109667270Y-91784151D01*
X109840192Y-91861142D01*
X109840197Y-91861144D01*
X110025354Y-91900500D01*
X110025355Y-91900500D01*
X110214644Y-91900500D01*
X110214646Y-91900500D01*
X110399803Y-91861144D01*
X110572730Y-91784151D01*
X110725871Y-91672888D01*
X110852533Y-91532216D01*
X110947179Y-91368284D01*
X111005674Y-91188256D01*
X111025460Y-91000000D01*
X111005674Y-90811744D01*
X110947179Y-90631716D01*
X110852533Y-90467784D01*
X110725871Y-90327112D01*
X110725870Y-90327111D01*
X110572734Y-90215851D01*
X110572729Y-90215848D01*
X110399807Y-90138857D01*
X110399802Y-90138855D01*
X110254001Y-90107865D01*
X110214646Y-90099500D01*
X110025354Y-90099500D01*
X109992897Y-90106398D01*
X109840197Y-90138855D01*
X109840192Y-90138857D01*
X109667270Y-90215848D01*
X109667265Y-90215851D01*
X109514129Y-90327111D01*
X109387466Y-90467785D01*
X109292821Y-90631715D01*
X109292818Y-90631722D01*
X109234327Y-90811740D01*
X109234326Y-90811744D01*
X109214540Y-91000000D01*
X103405460Y-91000000D01*
X103385674Y-90811744D01*
X103327179Y-90631716D01*
X103232533Y-90467784D01*
X103105871Y-90327112D01*
X103105870Y-90327111D01*
X102952734Y-90215851D01*
X102952729Y-90215848D01*
X102779807Y-90138857D01*
X102779802Y-90138855D01*
X102634001Y-90107865D01*
X102594646Y-90099500D01*
X102405354Y-90099500D01*
X102372897Y-90106398D01*
X102220197Y-90138855D01*
X102220192Y-90138857D01*
X102047270Y-90215848D01*
X102047265Y-90215851D01*
X101894129Y-90327111D01*
X101767466Y-90467785D01*
X101672821Y-90631715D01*
X101672818Y-90631722D01*
X101614327Y-90811740D01*
X101614326Y-90811744D01*
X101594540Y-91000000D01*
X91500500Y-91000000D01*
X91500500Y-87690000D01*
X207594540Y-87690000D01*
X207614326Y-87878256D01*
X207614327Y-87878259D01*
X207672818Y-88058277D01*
X207672821Y-88058284D01*
X207767467Y-88222216D01*
X207894129Y-88362888D01*
X208047265Y-88474148D01*
X208047270Y-88474151D01*
X208220192Y-88551142D01*
X208220197Y-88551144D01*
X208405354Y-88590500D01*
X208405355Y-88590500D01*
X208594644Y-88590500D01*
X208594646Y-88590500D01*
X208779803Y-88551144D01*
X208952730Y-88474151D01*
X209105871Y-88362888D01*
X209232533Y-88222216D01*
X209327179Y-88058284D01*
X209385674Y-87878256D01*
X209405460Y-87690000D01*
X209385674Y-87501744D01*
X209327179Y-87321716D01*
X209232533Y-87157784D01*
X209105871Y-87017112D01*
X209105870Y-87017111D01*
X208952734Y-86905851D01*
X208952729Y-86905848D01*
X208779807Y-86828857D01*
X208779802Y-86828855D01*
X208634001Y-86797865D01*
X208594646Y-86789500D01*
X208405354Y-86789500D01*
X208372897Y-86796398D01*
X208220197Y-86828855D01*
X208220192Y-86828857D01*
X208047270Y-86905848D01*
X208047265Y-86905851D01*
X207894129Y-87017111D01*
X207767466Y-87157785D01*
X207672821Y-87321715D01*
X207672818Y-87321722D01*
X207614327Y-87501740D01*
X207614326Y-87501744D01*
X207594540Y-87690000D01*
X91500500Y-87690000D01*
X91500500Y-84500000D01*
X197494659Y-84500000D01*
X197513975Y-84696129D01*
X197571188Y-84884733D01*
X197664086Y-85058532D01*
X197664090Y-85058539D01*
X197789116Y-85210883D01*
X197941460Y-85335909D01*
X197941467Y-85335913D01*
X198115266Y-85428811D01*
X198115269Y-85428811D01*
X198115273Y-85428814D01*
X198303868Y-85486024D01*
X198500000Y-85505341D01*
X198696132Y-85486024D01*
X198884727Y-85428814D01*
X199058538Y-85335910D01*
X199210883Y-85210883D01*
X199335910Y-85058538D01*
X199428814Y-84884727D01*
X199486024Y-84696132D01*
X199505341Y-84500000D01*
X207494659Y-84500000D01*
X207513975Y-84696129D01*
X207571188Y-84884733D01*
X207664086Y-85058532D01*
X207664090Y-85058539D01*
X207789116Y-85210883D01*
X207941460Y-85335909D01*
X207941467Y-85335913D01*
X208115266Y-85428811D01*
X208115269Y-85428811D01*
X208115273Y-85428814D01*
X208303868Y-85486024D01*
X208500000Y-85505341D01*
X208696132Y-85486024D01*
X208884727Y-85428814D01*
X209058538Y-85335910D01*
X209210883Y-85210883D01*
X209335910Y-85058538D01*
X209428814Y-84884727D01*
X209486024Y-84696132D01*
X209505341Y-84500000D01*
X209486024Y-84303868D01*
X209428814Y-84115273D01*
X209428811Y-84115269D01*
X209428811Y-84115266D01*
X209335913Y-83941467D01*
X209335909Y-83941460D01*
X209210883Y-83789116D01*
X209058539Y-83664090D01*
X209058532Y-83664086D01*
X208884733Y-83571188D01*
X208884727Y-83571186D01*
X208696132Y-83513976D01*
X208696129Y-83513975D01*
X208500000Y-83494659D01*
X208303870Y-83513975D01*
X208115266Y-83571188D01*
X207941467Y-83664086D01*
X207941460Y-83664090D01*
X207789116Y-83789116D01*
X207664090Y-83941460D01*
X207664086Y-83941467D01*
X207571188Y-84115266D01*
X207513975Y-84303870D01*
X207494659Y-84500000D01*
X199505341Y-84500000D01*
X199486024Y-84303868D01*
X199428814Y-84115273D01*
X199428811Y-84115269D01*
X199428811Y-84115266D01*
X199335913Y-83941467D01*
X199335909Y-83941460D01*
X199210883Y-83789116D01*
X199058539Y-83664090D01*
X199058532Y-83664086D01*
X198884733Y-83571188D01*
X198884727Y-83571186D01*
X198696132Y-83513976D01*
X198696129Y-83513975D01*
X198500000Y-83494659D01*
X198303870Y-83513975D01*
X198115266Y-83571188D01*
X197941467Y-83664086D01*
X197941460Y-83664090D01*
X197789116Y-83789116D01*
X197664090Y-83941460D01*
X197664086Y-83941467D01*
X197571188Y-84115266D01*
X197513975Y-84303870D01*
X197494659Y-84500000D01*
X91500500Y-84500000D01*
X91500500Y-81000000D01*
X207494659Y-81000000D01*
X207513975Y-81196129D01*
X207571188Y-81384733D01*
X207664086Y-81558532D01*
X207664090Y-81558539D01*
X207789116Y-81710883D01*
X207941460Y-81835909D01*
X207941467Y-81835913D01*
X208115266Y-81928811D01*
X208115269Y-81928811D01*
X208115273Y-81928814D01*
X208303868Y-81986024D01*
X208500000Y-82005341D01*
X208696132Y-81986024D01*
X208884727Y-81928814D01*
X209058538Y-81835910D01*
X209210883Y-81710883D01*
X209335910Y-81558538D01*
X209428814Y-81384727D01*
X209486024Y-81196132D01*
X209505341Y-81000000D01*
X209486024Y-80803868D01*
X209428814Y-80615273D01*
X209428811Y-80615269D01*
X209428811Y-80615266D01*
X209335913Y-80441467D01*
X209335909Y-80441460D01*
X209210883Y-80289116D01*
X209058539Y-80164090D01*
X209058532Y-80164086D01*
X208884733Y-80071188D01*
X208884727Y-80071186D01*
X208696132Y-80013976D01*
X208696129Y-80013975D01*
X208500000Y-79994659D01*
X208303870Y-80013975D01*
X208115266Y-80071188D01*
X207941467Y-80164086D01*
X207941460Y-80164090D01*
X207789116Y-80289116D01*
X207664090Y-80441460D01*
X207664086Y-80441467D01*
X207571188Y-80615266D01*
X207513975Y-80803870D01*
X207494659Y-81000000D01*
X91500500Y-81000000D01*
X91500500Y-73380000D01*
X207494659Y-73380000D01*
X207513975Y-73576129D01*
X207571188Y-73764733D01*
X207664086Y-73938532D01*
X207664090Y-73938539D01*
X207789116Y-74090883D01*
X207941460Y-74215909D01*
X207941467Y-74215913D01*
X208115266Y-74308811D01*
X208115269Y-74308811D01*
X208115273Y-74308814D01*
X208303868Y-74366024D01*
X208500000Y-74385341D01*
X208696132Y-74366024D01*
X208884727Y-74308814D01*
X209058538Y-74215910D01*
X209210883Y-74090883D01*
X209335910Y-73938538D01*
X209428814Y-73764727D01*
X209486024Y-73576132D01*
X209505341Y-73380000D01*
X209486024Y-73183868D01*
X209428814Y-72995273D01*
X209428811Y-72995269D01*
X209428811Y-72995266D01*
X209335913Y-72821467D01*
X209335909Y-72821460D01*
X209210883Y-72669116D01*
X209058539Y-72544090D01*
X209058532Y-72544086D01*
X208884733Y-72451188D01*
X208884727Y-72451186D01*
X208696132Y-72393976D01*
X208696129Y-72393975D01*
X208500000Y-72374659D01*
X208303870Y-72393975D01*
X208115266Y-72451188D01*
X207941467Y-72544086D01*
X207941460Y-72544090D01*
X207789116Y-72669116D01*
X207664090Y-72821460D01*
X207664086Y-72821467D01*
X207571188Y-72995266D01*
X207513975Y-73183870D01*
X207494659Y-73380000D01*
X91500500Y-73380000D01*
X91500500Y-64504066D01*
X91500765Y-64495956D01*
X91501794Y-64480252D01*
X91517075Y-64247102D01*
X91519190Y-64231048D01*
X91567045Y-63990462D01*
X91571243Y-63974797D01*
X91594337Y-63906762D01*
X91650093Y-63742512D01*
X91656291Y-63727547D01*
X91764790Y-63507533D01*
X91772893Y-63493498D01*
X91909182Y-63289527D01*
X91919039Y-63276681D01*
X92080786Y-63092244D01*
X92092244Y-63080786D01*
X92276681Y-62919039D01*
X92289527Y-62909182D01*
X92493498Y-62772893D01*
X92507533Y-62764790D01*
X92727547Y-62656291D01*
X92742512Y-62650093D01*
X92969653Y-62572989D01*
X92974797Y-62571243D01*
X92990464Y-62567045D01*
X93231048Y-62519190D01*
X93247102Y-62517075D01*
X93495957Y-62500765D01*
X93504067Y-62500500D01*
X93565892Y-62500500D01*
X104085500Y-62500500D01*
X104152539Y-62520185D01*
G37*
%TD.AperFunction*%
%TD*%
M02*
