%TF.GenerationSoftware,KiCad,Pcbnew,8.0.3*%
%TF.CreationDate,2024-09-19T11:22:37+05:30*%
%TF.ProjectId,VLF amplifier,564c4620-616d-4706-9c69-666965722e6b,rev?*%
%TF.SameCoordinates,Original*%
%TF.FileFunction,Copper,L1,Top*%
%TF.FilePolarity,Positive*%
%FSLAX46Y46*%
G04 Gerber Fmt 4.6, Leading zero omitted, Abs format (unit mm)*
G04 Created by KiCad (PCBNEW 8.0.3) date 2024-09-19 11:22:37*
%MOMM*%
%LPD*%
G01*
G04 APERTURE LIST*
%TA.AperFunction,ComponentPad*%
%ADD10C,1.400000*%
%TD*%
%TA.AperFunction,ComponentPad*%
%ADD11O,1.400000X1.400000*%
%TD*%
%TA.AperFunction,ComponentPad*%
%ADD12C,1.600000*%
%TD*%
%TA.AperFunction,ComponentPad*%
%ADD13O,1.600000X1.600000*%
%TD*%
%TA.AperFunction,ComponentPad*%
%ADD14R,1.000000X1.000000*%
%TD*%
%TA.AperFunction,SMDPad,CuDef*%
%ADD15R,2.290000X5.080000*%
%TD*%
%TA.AperFunction,SMDPad,CuDef*%
%ADD16R,2.420000X5.080000*%
%TD*%
%TA.AperFunction,SMDPad,CuDef*%
%ADD17R,0.460000X0.950000*%
%TD*%
%TA.AperFunction,ComponentPad*%
%ADD18C,0.970000*%
%TD*%
%TA.AperFunction,ComponentPad*%
%ADD19R,1.600000X1.600000*%
%TD*%
%TA.AperFunction,ViaPad*%
%ADD20C,0.500000*%
%TD*%
%TA.AperFunction,Conductor*%
%ADD21C,0.330000*%
%TD*%
G04 APERTURE END LIST*
D10*
%TO.P,R11,1*%
%TO.N,Net-(U2--)*%
X166310000Y-132500000D03*
D11*
%TO.P,R11,2*%
%TO.N,Net-(C6-Pad2)*%
X158690000Y-132500000D03*
%TD*%
D10*
%TO.P,R5,1*%
%TO.N,Net-(U1-+)*%
X220000000Y-116310000D03*
D11*
%TO.P,R5,2*%
%TO.N,GND*%
X220000000Y-108690000D03*
%TD*%
D10*
%TO.P,R3,1*%
%TO.N,Net-(C3-Pad1)*%
X208500000Y-113000000D03*
D11*
%TO.P,R3,2*%
%TO.N,Net-(U1--)*%
X208500000Y-120620000D03*
%TD*%
D12*
%TO.P,C8,1*%
%TO.N,GND*%
X154500000Y-132500000D03*
D13*
%TO.P,C8,2*%
%TO.N,Net-(U2-+)*%
X154500000Y-122500000D03*
%TD*%
D10*
%TO.P,R15,1*%
%TO.N,GND*%
X102500000Y-91000000D03*
D11*
%TO.P,R15,2*%
%TO.N,Net-(J2-In)*%
X110120000Y-91000000D03*
%TD*%
D14*
%TO.P,J4,1,Pin_1*%
%TO.N,GND*%
X165000000Y-65000000D03*
%TD*%
D12*
%TO.P,C1,1*%
%TO.N,Net-(C1-Pad1)*%
X179500000Y-113500000D03*
D13*
%TO.P,C1,2*%
%TO.N,GND*%
X189500000Y-113500000D03*
%TD*%
D12*
%TO.P,C11,1*%
%TO.N,Net-(J2-In)*%
X110000000Y-94500000D03*
D13*
%TO.P,C11,2*%
%TO.N,Net-(C10-Pad2)*%
X110000000Y-104500000D03*
%TD*%
D12*
%TO.P,C12,1*%
%TO.N,Net-(C12-Pad1)*%
X208500000Y-84500000D03*
D13*
%TO.P,C12,2*%
%TO.N,GND*%
X198500000Y-84500000D03*
%TD*%
D10*
%TO.P,R13,1*%
%TO.N,Net-(C9-Pad2)*%
X119880000Y-122500000D03*
D11*
%TO.P,R13,2*%
%TO.N,Net-(C7-Pad2)*%
X127500000Y-122500000D03*
%TD*%
D10*
%TO.P,R1,1*%
%TO.N,Net-(U1--)*%
X186500000Y-124810000D03*
D11*
%TO.P,R1,2*%
%TO.N,Net-(C1-Pad1)*%
X186500000Y-117190000D03*
%TD*%
D10*
%TO.P,R4,1*%
%TO.N,Net-(C4-Pad2)*%
X208500000Y-95310000D03*
D11*
%TO.P,R4,2*%
%TO.N,Net-(C12-Pad1)*%
X208500000Y-87690000D03*
%TD*%
D10*
%TO.P,R2,1*%
%TO.N,Net-(U1--)*%
X177690000Y-128000000D03*
D11*
%TO.P,R2,2*%
%TO.N,Net-(C2-Pad2)*%
X185310000Y-128000000D03*
%TD*%
D12*
%TO.P,C2,1*%
%TO.N,Net-(U1--)*%
X173000000Y-127500000D03*
D13*
%TO.P,C2,2*%
%TO.N,Net-(C2-Pad2)*%
X173000000Y-117500000D03*
%TD*%
D10*
%TO.P,R8,1*%
%TO.N,GND*%
X169000000Y-139000000D03*
D11*
%TO.P,R8,2*%
%TO.N,Net-(C5-Pad2)*%
X169000000Y-131380000D03*
%TD*%
D12*
%TO.P,C3,1*%
%TO.N,Net-(C3-Pad1)*%
X213500000Y-106500000D03*
D13*
%TO.P,C3,2*%
%TO.N,Net-(U1-+)*%
X213500000Y-116500000D03*
%TD*%
D10*
%TO.P,R7,1*%
%TO.N,Net-(C2-Pad2)*%
X192000000Y-134000000D03*
D11*
%TO.P,R7,2*%
%TO.N,Net-(C5-Pad1)*%
X184380000Y-134000000D03*
%TD*%
D14*
%TO.P,J3,1,Pin_1*%
%TO.N,12V*%
X155500000Y-65000000D03*
%TD*%
D10*
%TO.P,R6,1*%
%TO.N,12V*%
X212000000Y-121000000D03*
D11*
%TO.P,R6,2*%
%TO.N,Net-(U1-+)*%
X219620000Y-121000000D03*
%TD*%
D12*
%TO.P,C10,1*%
%TO.N,GND*%
X100000000Y-108000000D03*
D13*
%TO.P,C10,2*%
%TO.N,Net-(C10-Pad2)*%
X110000000Y-108000000D03*
%TD*%
D15*
%TO.P,J2,1,In*%
%TO.N,Net-(J2-In)*%
X110000000Y-64560000D03*
D16*
%TO.P,J2,2,Ext*%
%TO.N,GND*%
X114380000Y-64560000D03*
X105620000Y-64560000D03*
D17*
X114380000Y-67550000D03*
X105620000Y-67550000D03*
D18*
X114380000Y-68000000D03*
X105620000Y-68000000D03*
%TD*%
D15*
%TO.P,J1,1,In*%
%TO.N,Net-(J1-In)*%
X208000000Y-65060000D03*
D16*
%TO.P,J1,2,Ext*%
%TO.N,GND*%
X212380000Y-65060000D03*
X203620000Y-65060000D03*
D17*
X212380000Y-68050000D03*
X203620000Y-68050000D03*
D18*
X212380000Y-68500000D03*
X203620000Y-68500000D03*
%TD*%
D12*
%TO.P,L1,1,1*%
%TO.N,Net-(J1-In)*%
X208500000Y-73380000D03*
D13*
%TO.P,L1,2,2*%
%TO.N,Net-(C12-Pad1)*%
X208500000Y-81000000D03*
%TD*%
D19*
%TO.P,U2,1,NULL*%
%TO.N,unconnected-(U2-NULL-Pad1)*%
X149120000Y-127580000D03*
D13*
%TO.P,U2,2,-*%
%TO.N,Net-(U2--)*%
X149120000Y-125040000D03*
%TO.P,U2,3,+*%
%TO.N,Net-(U2-+)*%
X149120000Y-122500000D03*
%TO.P,U2,4,V-*%
%TO.N,GND*%
X149120000Y-119960000D03*
%TO.P,U2,5,NULL*%
%TO.N,unconnected-(U2-NULL-Pad5)*%
X141500000Y-119960000D03*
%TO.P,U2,6*%
%TO.N,Net-(C7-Pad2)*%
X141500000Y-122500000D03*
%TO.P,U2,7,V+*%
%TO.N,12V*%
X141500000Y-125040000D03*
%TO.P,U2,8,NC*%
%TO.N,unconnected-(U2-NC-Pad8)*%
X141500000Y-127580000D03*
%TD*%
D12*
%TO.P,C9,1*%
%TO.N,GND*%
X116190000Y-132500000D03*
D13*
%TO.P,C9,2*%
%TO.N,Net-(C9-Pad2)*%
X116190000Y-122500000D03*
%TD*%
D12*
%TO.P,C4,1*%
%TO.N,Net-(C3-Pad1)*%
X208500000Y-108500000D03*
D13*
%TO.P,C4,2*%
%TO.N,Net-(C4-Pad2)*%
X208500000Y-98500000D03*
%TD*%
D19*
%TO.P,U1,1,NULL*%
%TO.N,unconnected-(U1-NULL-Pad1)*%
X192880000Y-123380000D03*
D13*
%TO.P,U1,2,-*%
%TO.N,Net-(U1--)*%
X192880000Y-125920000D03*
%TO.P,U1,3,+*%
%TO.N,Net-(U1-+)*%
X192880000Y-128460000D03*
%TO.P,U1,4,V-*%
%TO.N,GND*%
X192880000Y-131000000D03*
%TO.P,U1,5,NULL*%
%TO.N,unconnected-(U1-NULL-Pad5)*%
X200500000Y-131000000D03*
%TO.P,U1,6*%
%TO.N,Net-(C2-Pad2)*%
X200500000Y-128460000D03*
%TO.P,U1,7,V+*%
%TO.N,12V*%
X200500000Y-125920000D03*
%TO.P,U1,8,NC*%
%TO.N,unconnected-(U1-NC-Pad8)*%
X200500000Y-123380000D03*
%TD*%
D12*
%TO.P,C7,1*%
%TO.N,Net-(U2--)*%
X132000000Y-132500000D03*
D13*
%TO.P,C7,2*%
%TO.N,Net-(C7-Pad2)*%
X132000000Y-122500000D03*
%TD*%
D12*
%TO.P,C5,1*%
%TO.N,Net-(C5-Pad1)*%
X182000000Y-131500000D03*
D13*
%TO.P,C5,2*%
%TO.N,Net-(C5-Pad2)*%
X172000000Y-131500000D03*
%TD*%
D12*
%TO.P,C6,1*%
%TO.N,Net-(C5-Pad2)*%
X169000000Y-126500000D03*
D13*
%TO.P,C6,2*%
%TO.N,Net-(C6-Pad2)*%
X159000000Y-126500000D03*
%TD*%
D10*
%TO.P,R9,1*%
%TO.N,Net-(U2-+)*%
X157690000Y-118000000D03*
D11*
%TO.P,R9,2*%
%TO.N,12V*%
X165310000Y-118000000D03*
%TD*%
D10*
%TO.P,R10,1*%
%TO.N,GND*%
X165310000Y-122000000D03*
D11*
%TO.P,R10,2*%
%TO.N,Net-(U2-+)*%
X157690000Y-122000000D03*
%TD*%
D10*
%TO.P,R14,1*%
%TO.N,Net-(C10-Pad2)*%
X110000000Y-111690000D03*
D11*
%TO.P,R14,2*%
%TO.N,Net-(C9-Pad2)*%
X110000000Y-119310000D03*
%TD*%
D10*
%TO.P,R12,1*%
%TO.N,Net-(C7-Pad2)*%
X137000000Y-122690000D03*
D11*
%TO.P,R12,2*%
%TO.N,Net-(U2--)*%
X137000000Y-130310000D03*
%TD*%
D20*
%TO.N,Net-(C2-Pad2)*%
X183500000Y-122500000D03*
X185000000Y-126000000D03*
%TD*%
D21*
%TO.N,Net-(C1-Pad1)*%
X183190000Y-117190000D02*
X186500000Y-117190000D01*
X179500000Y-113500000D02*
X183190000Y-117190000D01*
%TO.N,Net-(C2-Pad2)*%
X185000000Y-126000000D02*
X185000000Y-127690000D01*
X185000000Y-127690000D02*
X185310000Y-128000000D01*
X185310000Y-128000000D02*
X191310000Y-134000000D01*
X197540000Y-128460000D02*
X200500000Y-128460000D01*
X176500000Y-117500000D02*
X178500000Y-117500000D01*
X192000000Y-134000000D02*
X197540000Y-128460000D01*
X178500000Y-117500000D02*
X183500000Y-122500000D01*
X173000000Y-117500000D02*
X176500000Y-117500000D01*
X191310000Y-134000000D02*
X192000000Y-134000000D01*
%TO.N,Net-(U1--)*%
X180880000Y-124810000D02*
X177690000Y-128000000D01*
X186500000Y-124810000D02*
X180880000Y-124810000D01*
X173000000Y-127500000D02*
X177190000Y-127500000D01*
X186500000Y-124810000D02*
X191770000Y-124810000D01*
X177190000Y-127500000D02*
X177690000Y-128000000D01*
X194045000Y-124755000D02*
X204365000Y-124755000D01*
X192880000Y-125920000D02*
X194045000Y-124755000D01*
X191770000Y-124810000D02*
X192880000Y-125920000D01*
X204365000Y-124755000D02*
X208500000Y-120620000D01*
%TO.N,Net-(U1-+)*%
X213500000Y-117631370D02*
X204046370Y-127085000D01*
X194255000Y-127085000D02*
X192880000Y-128460000D01*
X204046370Y-127085000D02*
X194255000Y-127085000D01*
X219620000Y-121000000D02*
X219620000Y-116690000D01*
X213500000Y-116500000D02*
X214000000Y-116500000D01*
X219620000Y-116690000D02*
X220000000Y-116310000D01*
X214190000Y-116310000D02*
X220000000Y-116310000D01*
X214000000Y-116500000D02*
X214190000Y-116310000D01*
X213500000Y-116500000D02*
X213500000Y-117631370D01*
X219500000Y-121120000D02*
X219620000Y-121000000D01*
%TO.N,Net-(C3-Pad1)*%
X208500000Y-108500000D02*
X210500000Y-106500000D01*
X208500000Y-108500000D02*
X208500000Y-113000000D01*
X210500000Y-106500000D02*
X213500000Y-106500000D01*
%TO.N,Net-(C4-Pad2)*%
X208500000Y-95310000D02*
X208500000Y-98500000D01*
%TO.N,Net-(J2-In)*%
X110000000Y-94500000D02*
X110000000Y-91120000D01*
X110000000Y-91120000D02*
X110120000Y-91000000D01*
X110000000Y-90880000D02*
X110120000Y-91000000D01*
X110000000Y-66570000D02*
X110000000Y-90880000D01*
%TO.N,Net-(C5-Pad1)*%
X182000000Y-131500000D02*
X184380000Y-133880000D01*
X184380000Y-133880000D02*
X184380000Y-134000000D01*
%TO.N,Net-(C5-Pad2)*%
X169000000Y-126500000D02*
X169000000Y-131380000D01*
X169120000Y-131500000D02*
X169000000Y-131380000D01*
X172000000Y-131500000D02*
X169120000Y-131500000D01*
%TO.N,Net-(C6-Pad2)*%
X158690000Y-132500000D02*
X158690000Y-126810000D01*
X158690000Y-126810000D02*
X159000000Y-126500000D01*
%TO.N,Net-(C7-Pad2)*%
X132000000Y-122500000D02*
X136810000Y-122500000D01*
X136810000Y-122500000D02*
X137000000Y-122690000D01*
X141310000Y-122690000D02*
X141500000Y-122500000D01*
X127500000Y-122500000D02*
X132000000Y-122500000D01*
X137000000Y-122690000D02*
X141310000Y-122690000D01*
%TO.N,Net-(U2--)*%
X149120000Y-125040000D02*
X143850000Y-130310000D01*
X143850000Y-130310000D02*
X137000000Y-130310000D01*
X159187559Y-125040000D02*
X166310000Y-132162441D01*
X137000000Y-130310000D02*
X134190000Y-130310000D01*
X166310000Y-132162441D02*
X166310000Y-132500000D01*
X149120000Y-125040000D02*
X159187559Y-125040000D01*
X134190000Y-130310000D02*
X132000000Y-132500000D01*
%TO.N,Net-(J1-In)*%
X208000000Y-72880000D02*
X208500000Y-73380000D01*
X208000000Y-65060000D02*
X208000000Y-72880000D01*
%TO.N,Net-(U2-+)*%
X154500000Y-122500000D02*
X157190000Y-122500000D01*
X157690000Y-118000000D02*
X157690000Y-122000000D01*
X149120000Y-122500000D02*
X154500000Y-122500000D01*
X157190000Y-122500000D02*
X157690000Y-122000000D01*
%TO.N,Net-(C9-Pad2)*%
X116190000Y-122500000D02*
X119880000Y-122500000D01*
X113190000Y-122500000D02*
X116190000Y-122500000D01*
X110000000Y-119310000D02*
X113190000Y-122500000D01*
%TO.N,Net-(C10-Pad2)*%
X110000000Y-108000000D02*
X110000000Y-104500000D01*
X110000000Y-111690000D02*
X110000000Y-108000000D01*
%TO.N,Net-(C12-Pad1)*%
X208500000Y-81000000D02*
X208500000Y-87690000D01*
%TD*%
%TA.AperFunction,Conductor*%
%TO.N,GND*%
G36*
X103853039Y-62520185D02*
G01*
X103898794Y-62572989D01*
X103910000Y-62624500D01*
X103910000Y-64310000D01*
X107330000Y-64310000D01*
X107330000Y-62624500D01*
X107349685Y-62557461D01*
X107402489Y-62511706D01*
X107454000Y-62500500D01*
X108530500Y-62500500D01*
X108597539Y-62520185D01*
X108643294Y-62572989D01*
X108654500Y-62624500D01*
X108654500Y-67119752D01*
X108666131Y-67178229D01*
X108666132Y-67178230D01*
X108710447Y-67244552D01*
X108776769Y-67288867D01*
X108776770Y-67288868D01*
X108835247Y-67300499D01*
X108835250Y-67300500D01*
X108835252Y-67300500D01*
X109510500Y-67300500D01*
X109577539Y-67320185D01*
X109623294Y-67372989D01*
X109634500Y-67424500D01*
X109634500Y-90176475D01*
X109614815Y-90243514D01*
X109583387Y-90276792D01*
X109514128Y-90327112D01*
X109514123Y-90327116D01*
X109387466Y-90467785D01*
X109292821Y-90631715D01*
X109292818Y-90631722D01*
X109234327Y-90811740D01*
X109234326Y-90811744D01*
X109214540Y-91000000D01*
X109234326Y-91188256D01*
X109234327Y-91188259D01*
X109292818Y-91368277D01*
X109292821Y-91368284D01*
X109387467Y-91532216D01*
X109498300Y-91655308D01*
X109514129Y-91672888D01*
X109514133Y-91672892D01*
X109583384Y-91723204D01*
X109626051Y-91778533D01*
X109634500Y-91823523D01*
X109634500Y-93486586D01*
X109614815Y-93553625D01*
X109568953Y-93595944D01*
X109441467Y-93664086D01*
X109441460Y-93664090D01*
X109289116Y-93789116D01*
X109164090Y-93941460D01*
X109164086Y-93941467D01*
X109071188Y-94115266D01*
X109013975Y-94303870D01*
X108994659Y-94500000D01*
X109013975Y-94696129D01*
X109071188Y-94884733D01*
X109164086Y-95058532D01*
X109164090Y-95058539D01*
X109289116Y-95210883D01*
X109441460Y-95335909D01*
X109441467Y-95335913D01*
X109615266Y-95428811D01*
X109615269Y-95428811D01*
X109615273Y-95428814D01*
X109803868Y-95486024D01*
X110000000Y-95505341D01*
X110196132Y-95486024D01*
X110384727Y-95428814D01*
X110558538Y-95335910D01*
X110710883Y-95210883D01*
X110835910Y-95058538D01*
X110928814Y-94884727D01*
X110986024Y-94696132D01*
X111005341Y-94500000D01*
X110986024Y-94303868D01*
X110928814Y-94115273D01*
X110928811Y-94115269D01*
X110928811Y-94115266D01*
X110835913Y-93941467D01*
X110835909Y-93941460D01*
X110710883Y-93789116D01*
X110558539Y-93664090D01*
X110558532Y-93664086D01*
X110431047Y-93595944D01*
X110381203Y-93546982D01*
X110365500Y-93486586D01*
X110365500Y-91956943D01*
X110385185Y-91889904D01*
X110437989Y-91844149D01*
X110439064Y-91843664D01*
X110496613Y-91818040D01*
X110572730Y-91784151D01*
X110725871Y-91672888D01*
X110852533Y-91532216D01*
X110947179Y-91368284D01*
X111005674Y-91188256D01*
X111025460Y-91000000D01*
X111005674Y-90811744D01*
X110947179Y-90631716D01*
X110852533Y-90467784D01*
X110725871Y-90327112D01*
X110725870Y-90327111D01*
X110572734Y-90215851D01*
X110572729Y-90215848D01*
X110439064Y-90156336D01*
X110385827Y-90111086D01*
X110365506Y-90044237D01*
X110365500Y-90043057D01*
X110365500Y-84249999D01*
X197221127Y-84249999D01*
X197221128Y-84250000D01*
X198184314Y-84250000D01*
X198179920Y-84254394D01*
X198127259Y-84345606D01*
X198100000Y-84447339D01*
X198100000Y-84552661D01*
X198127259Y-84654394D01*
X198179920Y-84745606D01*
X198184314Y-84750000D01*
X197221128Y-84750000D01*
X197273730Y-84946317D01*
X197273734Y-84946326D01*
X197369865Y-85152482D01*
X197500342Y-85338820D01*
X197661179Y-85499657D01*
X197847517Y-85630134D01*
X198053673Y-85726265D01*
X198053682Y-85726269D01*
X198249999Y-85778872D01*
X198250000Y-85778871D01*
X198250000Y-84815686D01*
X198254394Y-84820080D01*
X198345606Y-84872741D01*
X198447339Y-84900000D01*
X198552661Y-84900000D01*
X198654394Y-84872741D01*
X198745606Y-84820080D01*
X198750000Y-84815686D01*
X198750000Y-85778872D01*
X198946317Y-85726269D01*
X198946326Y-85726265D01*
X199152482Y-85630134D01*
X199338820Y-85499657D01*
X199499657Y-85338820D01*
X199630134Y-85152482D01*
X199726265Y-84946326D01*
X199726269Y-84946317D01*
X199778872Y-84750000D01*
X198815686Y-84750000D01*
X198820080Y-84745606D01*
X198872741Y-84654394D01*
X198900000Y-84552661D01*
X198900000Y-84447339D01*
X198872741Y-84345606D01*
X198820080Y-84254394D01*
X198815686Y-84250000D01*
X199778872Y-84250000D01*
X199778872Y-84249999D01*
X199726269Y-84053682D01*
X199726265Y-84053673D01*
X199630134Y-83847517D01*
X199499657Y-83661179D01*
X199338820Y-83500342D01*
X199152482Y-83369865D01*
X198946328Y-83273734D01*
X198750000Y-83221127D01*
X198750000Y-84184314D01*
X198745606Y-84179920D01*
X198654394Y-84127259D01*
X198552661Y-84100000D01*
X198447339Y-84100000D01*
X198345606Y-84127259D01*
X198254394Y-84179920D01*
X198250000Y-84184314D01*
X198250000Y-83221127D01*
X198053671Y-83273734D01*
X197847517Y-83369865D01*
X197661179Y-83500342D01*
X197500342Y-83661179D01*
X197369865Y-83847517D01*
X197273734Y-84053673D01*
X197273730Y-84053682D01*
X197221127Y-84249999D01*
X110365500Y-84249999D01*
X110365500Y-81000000D01*
X207494659Y-81000000D01*
X207513975Y-81196129D01*
X207571188Y-81384733D01*
X207664086Y-81558532D01*
X207664090Y-81558539D01*
X207789116Y-81710883D01*
X207941460Y-81835909D01*
X207941463Y-81835911D01*
X207985340Y-81859363D01*
X208068953Y-81904055D01*
X208118797Y-81953016D01*
X208134500Y-82013413D01*
X208134500Y-83486586D01*
X208114815Y-83553625D01*
X208068953Y-83595944D01*
X207941467Y-83664086D01*
X207941460Y-83664090D01*
X207789116Y-83789116D01*
X207664090Y-83941460D01*
X207664086Y-83941467D01*
X207571188Y-84115266D01*
X207513975Y-84303870D01*
X207494659Y-84500000D01*
X207513975Y-84696129D01*
X207513976Y-84696132D01*
X207551575Y-84820080D01*
X207571188Y-84884733D01*
X207664086Y-85058532D01*
X207664090Y-85058539D01*
X207789116Y-85210883D01*
X207941460Y-85335909D01*
X207941463Y-85335911D01*
X207985340Y-85359363D01*
X208068953Y-85404055D01*
X208118797Y-85453016D01*
X208134500Y-85513413D01*
X208134500Y-86786485D01*
X208114815Y-86853524D01*
X208062011Y-86899279D01*
X208060936Y-86899764D01*
X208047269Y-86905848D01*
X207894129Y-87017111D01*
X207767466Y-87157785D01*
X207672821Y-87321715D01*
X207672818Y-87321722D01*
X207614327Y-87501740D01*
X207614326Y-87501744D01*
X207594540Y-87690000D01*
X207614326Y-87878256D01*
X207614327Y-87878259D01*
X207672818Y-88058277D01*
X207672821Y-88058284D01*
X207767467Y-88222216D01*
X207894129Y-88362888D01*
X208047265Y-88474148D01*
X208047270Y-88474151D01*
X208220192Y-88551142D01*
X208220197Y-88551144D01*
X208405354Y-88590500D01*
X208405355Y-88590500D01*
X208594644Y-88590500D01*
X208594646Y-88590500D01*
X208779803Y-88551144D01*
X208952730Y-88474151D01*
X209105871Y-88362888D01*
X209232533Y-88222216D01*
X209327179Y-88058284D01*
X209385674Y-87878256D01*
X209405460Y-87690000D01*
X209385674Y-87501744D01*
X209327179Y-87321716D01*
X209232533Y-87157784D01*
X209105871Y-87017112D01*
X209105870Y-87017111D01*
X208952730Y-86905848D01*
X208939064Y-86899764D01*
X208885827Y-86854514D01*
X208865506Y-86787664D01*
X208865500Y-86786485D01*
X208865500Y-85513413D01*
X208885185Y-85446374D01*
X208931045Y-85404056D01*
X209058538Y-85335910D01*
X209210883Y-85210883D01*
X209335910Y-85058538D01*
X209395893Y-84946317D01*
X209428811Y-84884733D01*
X209428811Y-84884732D01*
X209428814Y-84884727D01*
X209486024Y-84696132D01*
X209505341Y-84500000D01*
X209486024Y-84303868D01*
X209428814Y-84115273D01*
X209428811Y-84115269D01*
X209428811Y-84115266D01*
X209335913Y-83941467D01*
X209335909Y-83941460D01*
X209210883Y-83789116D01*
X209058539Y-83664090D01*
X209058532Y-83664086D01*
X208931047Y-83595944D01*
X208881203Y-83546982D01*
X208865500Y-83486586D01*
X208865500Y-82013413D01*
X208885185Y-81946374D01*
X208931045Y-81904056D01*
X209058538Y-81835910D01*
X209210883Y-81710883D01*
X209335910Y-81558538D01*
X209428814Y-81384727D01*
X209486024Y-81196132D01*
X209505341Y-81000000D01*
X209486024Y-80803868D01*
X209428814Y-80615273D01*
X209428811Y-80615269D01*
X209428811Y-80615266D01*
X209335913Y-80441467D01*
X209335909Y-80441460D01*
X209210883Y-80289116D01*
X209058539Y-80164090D01*
X209058532Y-80164086D01*
X208884733Y-80071188D01*
X208884727Y-80071186D01*
X208696132Y-80013976D01*
X208696129Y-80013975D01*
X208500000Y-79994659D01*
X208303870Y-80013975D01*
X208115266Y-80071188D01*
X207941467Y-80164086D01*
X207941460Y-80164090D01*
X207789116Y-80289116D01*
X207664090Y-80441460D01*
X207664086Y-80441467D01*
X207571188Y-80615266D01*
X207513975Y-80803870D01*
X207494659Y-81000000D01*
X110365500Y-81000000D01*
X110365500Y-69350992D01*
X203122559Y-69350992D01*
X203241230Y-69414423D01*
X203426907Y-69470748D01*
X203620000Y-69489765D01*
X203813092Y-69470748D01*
X203998772Y-69414422D01*
X203998774Y-69414422D01*
X204117438Y-69350992D01*
X204117439Y-69350991D01*
X203620001Y-68853553D01*
X203620000Y-68853553D01*
X203122559Y-69350992D01*
X110365500Y-69350992D01*
X110365500Y-68850992D01*
X113882559Y-68850992D01*
X114001230Y-68914423D01*
X114186907Y-68970748D01*
X114380000Y-68989765D01*
X114573092Y-68970748D01*
X114758772Y-68914422D01*
X114758774Y-68914422D01*
X114877438Y-68850992D01*
X114877439Y-68850991D01*
X114380001Y-68353553D01*
X114380000Y-68353553D01*
X113882559Y-68850992D01*
X110365500Y-68850992D01*
X110365500Y-67424500D01*
X110385185Y-67357461D01*
X110437989Y-67311706D01*
X110489500Y-67300500D01*
X111164750Y-67300500D01*
X111164751Y-67300499D01*
X111179568Y-67297552D01*
X111223229Y-67288868D01*
X111223229Y-67288867D01*
X111223231Y-67288867D01*
X111289552Y-67244552D01*
X111333867Y-67178231D01*
X111333867Y-67178229D01*
X111333868Y-67178229D01*
X111339912Y-67147844D01*
X112670000Y-67147844D01*
X112676401Y-67207372D01*
X112676403Y-67207379D01*
X112726645Y-67342086D01*
X112726649Y-67342093D01*
X112812809Y-67457187D01*
X112812812Y-67457190D01*
X112927906Y-67543350D01*
X112927913Y-67543354D01*
X113062620Y-67593596D01*
X113062627Y-67593598D01*
X113122155Y-67599999D01*
X113122172Y-67600000D01*
X113304822Y-67600000D01*
X113371861Y-67619685D01*
X113417616Y-67672489D01*
X113427560Y-67741647D01*
X113423482Y-67759996D01*
X113409252Y-67806904D01*
X113390234Y-68000000D01*
X113409251Y-68193092D01*
X113465576Y-68378769D01*
X113529007Y-68497438D01*
X114072195Y-67954250D01*
X114150000Y-67954250D01*
X114150000Y-68045750D01*
X114185015Y-68130285D01*
X114249715Y-68194985D01*
X114334250Y-68230000D01*
X114425750Y-68230000D01*
X114510285Y-68194985D01*
X114574985Y-68130285D01*
X114610000Y-68045750D01*
X114610000Y-67954250D01*
X114574985Y-67869715D01*
X114510285Y-67805015D01*
X114449893Y-67780000D01*
X114513552Y-67780000D01*
X115230991Y-68497439D01*
X115230992Y-68497438D01*
X115294422Y-68378774D01*
X115294422Y-68378772D01*
X115350748Y-68193092D01*
X115369765Y-68000000D01*
X115350747Y-67806904D01*
X115336518Y-67759996D01*
X115335894Y-67690129D01*
X115362538Y-67647844D01*
X201910000Y-67647844D01*
X201916401Y-67707372D01*
X201916403Y-67707379D01*
X201966645Y-67842086D01*
X201966649Y-67842093D01*
X202052809Y-67957187D01*
X202052812Y-67957190D01*
X202167906Y-68043350D01*
X202167913Y-68043354D01*
X202302620Y-68093596D01*
X202302627Y-68093598D01*
X202362155Y-68099999D01*
X202362172Y-68100000D01*
X202544822Y-68100000D01*
X202611861Y-68119685D01*
X202657616Y-68172489D01*
X202667560Y-68241647D01*
X202663482Y-68259996D01*
X202649252Y-68306904D01*
X202630234Y-68500000D01*
X202649251Y-68693092D01*
X202705576Y-68878769D01*
X202769007Y-68997438D01*
X203312195Y-68454250D01*
X203390000Y-68454250D01*
X203390000Y-68545750D01*
X203425015Y-68630285D01*
X203489715Y-68694985D01*
X203574250Y-68730000D01*
X203665750Y-68730000D01*
X203750285Y-68694985D01*
X203814985Y-68630285D01*
X203850000Y-68545750D01*
X203850000Y-68454250D01*
X203814985Y-68369715D01*
X203750285Y-68305015D01*
X203689893Y-68280000D01*
X203753552Y-68280000D01*
X204470991Y-68997439D01*
X204470992Y-68997438D01*
X204534422Y-68878774D01*
X204534422Y-68878772D01*
X204590748Y-68693092D01*
X204609765Y-68500000D01*
X204590747Y-68306904D01*
X204576518Y-68259996D01*
X204575894Y-68190129D01*
X204613141Y-68131016D01*
X204676435Y-68101425D01*
X204695178Y-68100000D01*
X204877828Y-68100000D01*
X204877844Y-68099999D01*
X204937372Y-68093598D01*
X204937379Y-68093596D01*
X205072086Y-68043354D01*
X205072093Y-68043350D01*
X205187187Y-67957190D01*
X205187190Y-67957187D01*
X205273350Y-67842093D01*
X205273354Y-67842086D01*
X205323596Y-67707379D01*
X205323598Y-67707372D01*
X205329999Y-67647844D01*
X205330000Y-67647827D01*
X205330000Y-65310000D01*
X203870000Y-65310000D01*
X203870000Y-68071638D01*
X203850315Y-68138677D01*
X203850000Y-68139067D01*
X203850000Y-68156000D01*
X203830315Y-68223039D01*
X203777511Y-68268794D01*
X203756281Y-68273412D01*
X203753552Y-68280000D01*
X203689893Y-68280000D01*
X203665750Y-68270000D01*
X203574250Y-68270000D01*
X203489715Y-68305015D01*
X203425015Y-68369715D01*
X203390000Y-68454250D01*
X203312195Y-68454250D01*
X203486446Y-68279999D01*
X203482631Y-68270789D01*
X203446961Y-68260315D01*
X203401206Y-68207511D01*
X203390000Y-68156000D01*
X203390000Y-68129433D01*
X203372834Y-68097996D01*
X203370000Y-68071638D01*
X203370000Y-65310000D01*
X201910000Y-65310000D01*
X201910000Y-67647844D01*
X115362538Y-67647844D01*
X115373141Y-67631016D01*
X115436435Y-67601425D01*
X115455178Y-67600000D01*
X115637828Y-67600000D01*
X115637844Y-67599999D01*
X115697372Y-67593598D01*
X115697379Y-67593596D01*
X115832086Y-67543354D01*
X115832093Y-67543350D01*
X115947187Y-67457190D01*
X115947190Y-67457187D01*
X116033350Y-67342093D01*
X116033354Y-67342086D01*
X116083596Y-67207379D01*
X116083598Y-67207372D01*
X116089999Y-67147844D01*
X116090000Y-67147827D01*
X116090000Y-64810000D01*
X114630000Y-64810000D01*
X114630000Y-67571638D01*
X114610315Y-67638677D01*
X114610000Y-67639067D01*
X114610000Y-67656000D01*
X114590315Y-67723039D01*
X114537511Y-67768794D01*
X114516281Y-67773412D01*
X114513552Y-67780000D01*
X114449893Y-67780000D01*
X114425750Y-67770000D01*
X114334250Y-67770000D01*
X114249715Y-67805015D01*
X114185015Y-67869715D01*
X114150000Y-67954250D01*
X114072195Y-67954250D01*
X114246446Y-67779999D01*
X114242631Y-67770789D01*
X114206961Y-67760315D01*
X114161206Y-67707511D01*
X114150000Y-67656000D01*
X114150000Y-67629433D01*
X114132834Y-67597996D01*
X114130000Y-67571638D01*
X114130000Y-64810000D01*
X112670000Y-64810000D01*
X112670000Y-67147844D01*
X111339912Y-67147844D01*
X111345499Y-67119752D01*
X111345500Y-67119750D01*
X111345500Y-64480247D01*
X154799500Y-64480247D01*
X154799500Y-65519752D01*
X154811131Y-65578229D01*
X154811132Y-65578230D01*
X154855447Y-65644552D01*
X154921769Y-65688867D01*
X154921770Y-65688868D01*
X154980247Y-65700499D01*
X154980250Y-65700500D01*
X154980252Y-65700500D01*
X156019750Y-65700500D01*
X156019751Y-65700499D01*
X156034568Y-65697552D01*
X156078229Y-65688868D01*
X156078229Y-65688867D01*
X156078231Y-65688867D01*
X156144552Y-65644552D01*
X156188867Y-65578231D01*
X156188867Y-65578229D01*
X156188868Y-65578229D01*
X156194912Y-65547844D01*
X164000000Y-65547844D01*
X164006401Y-65607372D01*
X164006403Y-65607379D01*
X164056645Y-65742086D01*
X164056649Y-65742093D01*
X164142809Y-65857187D01*
X164142812Y-65857190D01*
X164257906Y-65943350D01*
X164257913Y-65943354D01*
X164392620Y-65993596D01*
X164392627Y-65993598D01*
X164452155Y-65999999D01*
X164452172Y-66000000D01*
X164750000Y-66000000D01*
X165250000Y-66000000D01*
X165547828Y-66000000D01*
X165547844Y-65999999D01*
X165607372Y-65993598D01*
X165607379Y-65993596D01*
X165742086Y-65943354D01*
X165742093Y-65943350D01*
X165857187Y-65857190D01*
X165857190Y-65857187D01*
X165943350Y-65742093D01*
X165943354Y-65742086D01*
X165993596Y-65607379D01*
X165993598Y-65607372D01*
X165999999Y-65547844D01*
X166000000Y-65547827D01*
X166000000Y-65250000D01*
X165250000Y-65250000D01*
X165250000Y-66000000D01*
X164750000Y-66000000D01*
X164750000Y-65250000D01*
X164000000Y-65250000D01*
X164000000Y-65547844D01*
X156194912Y-65547844D01*
X156200499Y-65519752D01*
X156200500Y-65519750D01*
X156200500Y-64957213D01*
X164675000Y-64957213D01*
X164675000Y-65042787D01*
X164697149Y-65125445D01*
X164739936Y-65199554D01*
X164800446Y-65260064D01*
X164874555Y-65302851D01*
X164957213Y-65325000D01*
X165042787Y-65325000D01*
X165125445Y-65302851D01*
X165199554Y-65260064D01*
X165260064Y-65199554D01*
X165302851Y-65125445D01*
X165325000Y-65042787D01*
X165325000Y-64957213D01*
X165302851Y-64874555D01*
X165260064Y-64800446D01*
X165209618Y-64750000D01*
X165250000Y-64750000D01*
X166000000Y-64750000D01*
X166000000Y-64452172D01*
X165999999Y-64452155D01*
X165993598Y-64392627D01*
X165993596Y-64392620D01*
X165943354Y-64257913D01*
X165943350Y-64257906D01*
X165857190Y-64142812D01*
X165857187Y-64142809D01*
X165742093Y-64056649D01*
X165742086Y-64056645D01*
X165607379Y-64006403D01*
X165607372Y-64006401D01*
X165547844Y-64000000D01*
X165250000Y-64000000D01*
X165250000Y-64750000D01*
X165209618Y-64750000D01*
X165199554Y-64739936D01*
X165125445Y-64697149D01*
X165042787Y-64675000D01*
X164957213Y-64675000D01*
X164874555Y-64697149D01*
X164800446Y-64739936D01*
X164739936Y-64800446D01*
X164697149Y-64874555D01*
X164675000Y-64957213D01*
X156200500Y-64957213D01*
X156200500Y-64480249D01*
X156200499Y-64480247D01*
X156194912Y-64452155D01*
X164000000Y-64452155D01*
X164000000Y-64750000D01*
X164750000Y-64750000D01*
X164750000Y-64000000D01*
X164452155Y-64000000D01*
X164392627Y-64006401D01*
X164392620Y-64006403D01*
X164257913Y-64056645D01*
X164257906Y-64056649D01*
X164142812Y-64142809D01*
X164142809Y-64142812D01*
X164056649Y-64257906D01*
X164056645Y-64257913D01*
X164006403Y-64392620D01*
X164006401Y-64392627D01*
X164000000Y-64452155D01*
X156194912Y-64452155D01*
X156188868Y-64421770D01*
X156188867Y-64421769D01*
X156144552Y-64355447D01*
X156078230Y-64311132D01*
X156078229Y-64311131D01*
X156019752Y-64299500D01*
X156019748Y-64299500D01*
X154980252Y-64299500D01*
X154980247Y-64299500D01*
X154921770Y-64311131D01*
X154921769Y-64311132D01*
X154855447Y-64355447D01*
X154811132Y-64421769D01*
X154811131Y-64421770D01*
X154799500Y-64480247D01*
X111345500Y-64480247D01*
X111345500Y-62624500D01*
X111365185Y-62557461D01*
X111417989Y-62511706D01*
X111469500Y-62500500D01*
X112546000Y-62500500D01*
X112613039Y-62520185D01*
X112658794Y-62572989D01*
X112670000Y-62624500D01*
X112670000Y-64310000D01*
X116090000Y-64310000D01*
X116090000Y-62624500D01*
X116109685Y-62557461D01*
X116162489Y-62511706D01*
X116214000Y-62500500D01*
X201786000Y-62500500D01*
X201853039Y-62520185D01*
X201898794Y-62572989D01*
X201910000Y-62624500D01*
X201910000Y-64810000D01*
X205330000Y-64810000D01*
X205330000Y-62624500D01*
X205349685Y-62557461D01*
X205402489Y-62511706D01*
X205454000Y-62500500D01*
X206530500Y-62500500D01*
X206597539Y-62520185D01*
X206643294Y-62572989D01*
X206654500Y-62624500D01*
X206654500Y-67619752D01*
X206666131Y-67678229D01*
X206666132Y-67678230D01*
X206710447Y-67744552D01*
X206776769Y-67788867D01*
X206776770Y-67788868D01*
X206835247Y-67800499D01*
X206835250Y-67800500D01*
X206835252Y-67800500D01*
X207510500Y-67800500D01*
X207577539Y-67820185D01*
X207623294Y-67872989D01*
X207634500Y-67924500D01*
X207634500Y-72845760D01*
X207619858Y-72904213D01*
X207571188Y-72995267D01*
X207513975Y-73183870D01*
X207494659Y-73380000D01*
X207513975Y-73576129D01*
X207571188Y-73764733D01*
X207664086Y-73938532D01*
X207664090Y-73938539D01*
X207789116Y-74090883D01*
X207941460Y-74215909D01*
X207941467Y-74215913D01*
X208115266Y-74308811D01*
X208115269Y-74308811D01*
X208115273Y-74308814D01*
X208303868Y-74366024D01*
X208500000Y-74385341D01*
X208696132Y-74366024D01*
X208884727Y-74308814D01*
X209058538Y-74215910D01*
X209210883Y-74090883D01*
X209335910Y-73938538D01*
X209428814Y-73764727D01*
X209486024Y-73576132D01*
X209505341Y-73380000D01*
X209486024Y-73183868D01*
X209428814Y-72995273D01*
X209428811Y-72995267D01*
X209428811Y-72995266D01*
X209335913Y-72821467D01*
X209335909Y-72821460D01*
X209210883Y-72669116D01*
X209058539Y-72544090D01*
X209058532Y-72544086D01*
X208884733Y-72451188D01*
X208884727Y-72451186D01*
X208696132Y-72393976D01*
X208696129Y-72393975D01*
X208500000Y-72374659D01*
X208493909Y-72374659D01*
X208493909Y-72373028D01*
X208433002Y-72361474D01*
X208382294Y-72313406D01*
X208365500Y-72251093D01*
X208365500Y-69350992D01*
X211882559Y-69350992D01*
X212001230Y-69414423D01*
X212186907Y-69470748D01*
X212380000Y-69489765D01*
X212573092Y-69470748D01*
X212758772Y-69414422D01*
X212758774Y-69414422D01*
X212877438Y-69350992D01*
X212877439Y-69350991D01*
X212380001Y-68853553D01*
X212380000Y-68853553D01*
X211882559Y-69350992D01*
X208365500Y-69350992D01*
X208365500Y-67924500D01*
X208385185Y-67857461D01*
X208437989Y-67811706D01*
X208489500Y-67800500D01*
X209164750Y-67800500D01*
X209164751Y-67800499D01*
X209179568Y-67797552D01*
X209223229Y-67788868D01*
X209223229Y-67788867D01*
X209223231Y-67788867D01*
X209289552Y-67744552D01*
X209333867Y-67678231D01*
X209333867Y-67678229D01*
X209333868Y-67678229D01*
X209339912Y-67647844D01*
X210670000Y-67647844D01*
X210676401Y-67707372D01*
X210676403Y-67707379D01*
X210726645Y-67842086D01*
X210726649Y-67842093D01*
X210812809Y-67957187D01*
X210812812Y-67957190D01*
X210927906Y-68043350D01*
X210927913Y-68043354D01*
X211062620Y-68093596D01*
X211062627Y-68093598D01*
X211122155Y-68099999D01*
X211122172Y-68100000D01*
X211304822Y-68100000D01*
X211371861Y-68119685D01*
X211417616Y-68172489D01*
X211427560Y-68241647D01*
X211423482Y-68259996D01*
X211409252Y-68306904D01*
X211390234Y-68500000D01*
X211409251Y-68693092D01*
X211465576Y-68878769D01*
X211529007Y-68997438D01*
X212072195Y-68454250D01*
X212150000Y-68454250D01*
X212150000Y-68545750D01*
X212185015Y-68630285D01*
X212249715Y-68694985D01*
X212334250Y-68730000D01*
X212425750Y-68730000D01*
X212510285Y-68694985D01*
X212574985Y-68630285D01*
X212610000Y-68545750D01*
X212610000Y-68454250D01*
X212574985Y-68369715D01*
X212510285Y-68305015D01*
X212449893Y-68280000D01*
X212513552Y-68280000D01*
X213230991Y-68997439D01*
X213230992Y-68997438D01*
X213294422Y-68878774D01*
X213294422Y-68878772D01*
X213350748Y-68693092D01*
X213369765Y-68500000D01*
X213350747Y-68306904D01*
X213336518Y-68259996D01*
X213335894Y-68190129D01*
X213373141Y-68131016D01*
X213436435Y-68101425D01*
X213455178Y-68100000D01*
X213637828Y-68100000D01*
X213637844Y-68099999D01*
X213697372Y-68093598D01*
X213697379Y-68093596D01*
X213832086Y-68043354D01*
X213832093Y-68043350D01*
X213947187Y-67957190D01*
X213947190Y-67957187D01*
X214033350Y-67842093D01*
X214033354Y-67842086D01*
X214083596Y-67707379D01*
X214083598Y-67707372D01*
X214089999Y-67647844D01*
X214090000Y-67647827D01*
X214090000Y-65310000D01*
X212630000Y-65310000D01*
X212630000Y-68071638D01*
X212610315Y-68138677D01*
X212610000Y-68139067D01*
X212610000Y-68156000D01*
X212590315Y-68223039D01*
X212537511Y-68268794D01*
X212516281Y-68273412D01*
X212513552Y-68280000D01*
X212449893Y-68280000D01*
X212425750Y-68270000D01*
X212334250Y-68270000D01*
X212249715Y-68305015D01*
X212185015Y-68369715D01*
X212150000Y-68454250D01*
X212072195Y-68454250D01*
X212246446Y-68279999D01*
X212242631Y-68270789D01*
X212206961Y-68260315D01*
X212161206Y-68207511D01*
X212150000Y-68156000D01*
X212150000Y-68129433D01*
X212132834Y-68097996D01*
X212130000Y-68071638D01*
X212130000Y-65310000D01*
X210670000Y-65310000D01*
X210670000Y-67647844D01*
X209339912Y-67647844D01*
X209343259Y-67631016D01*
X209345500Y-67619748D01*
X209345500Y-62624500D01*
X209365185Y-62557461D01*
X209417989Y-62511706D01*
X209469500Y-62500500D01*
X210546000Y-62500500D01*
X210613039Y-62520185D01*
X210658794Y-62572989D01*
X210670000Y-62624500D01*
X210670000Y-64810000D01*
X214090000Y-64810000D01*
X214090000Y-62624500D01*
X214109685Y-62557461D01*
X214162489Y-62511706D01*
X214214000Y-62500500D01*
X221434108Y-62500500D01*
X221495933Y-62500500D01*
X221504043Y-62500765D01*
X221752895Y-62517075D01*
X221768953Y-62519190D01*
X221961353Y-62557461D01*
X222009535Y-62567045D01*
X222025202Y-62571243D01*
X222182093Y-62624500D01*
X222257481Y-62650091D01*
X222272458Y-62656294D01*
X222481799Y-62759529D01*
X222492460Y-62764787D01*
X222506508Y-62772897D01*
X222710464Y-62909177D01*
X222723328Y-62919048D01*
X222907749Y-63080781D01*
X222919218Y-63092250D01*
X223080951Y-63276671D01*
X223090825Y-63289539D01*
X223227102Y-63493492D01*
X223235212Y-63507539D01*
X223343702Y-63727534D01*
X223349909Y-63742520D01*
X223428756Y-63974797D01*
X223432954Y-63990464D01*
X223480807Y-64231035D01*
X223482925Y-64247116D01*
X223499235Y-64495956D01*
X223499500Y-64504066D01*
X223499500Y-141495933D01*
X223499235Y-141504043D01*
X223482925Y-141752883D01*
X223480807Y-141768964D01*
X223432954Y-142009535D01*
X223428756Y-142025202D01*
X223349909Y-142257479D01*
X223343702Y-142272465D01*
X223235212Y-142492460D01*
X223227102Y-142506507D01*
X223090825Y-142710460D01*
X223080951Y-142723328D01*
X222919218Y-142907749D01*
X222907749Y-142919218D01*
X222723328Y-143080951D01*
X222710460Y-143090825D01*
X222506507Y-143227102D01*
X222492460Y-143235212D01*
X222272465Y-143343702D01*
X222257479Y-143349909D01*
X222025202Y-143428756D01*
X222009535Y-143432954D01*
X221768964Y-143480807D01*
X221752883Y-143482925D01*
X221504043Y-143499235D01*
X221495933Y-143499500D01*
X93504067Y-143499500D01*
X93495957Y-143499235D01*
X93247116Y-143482925D01*
X93231035Y-143480807D01*
X92990464Y-143432954D01*
X92974797Y-143428756D01*
X92742520Y-143349909D01*
X92727534Y-143343702D01*
X92507539Y-143235212D01*
X92493492Y-143227102D01*
X92289539Y-143090825D01*
X92276671Y-143080951D01*
X92092250Y-142919218D01*
X92080781Y-142907749D01*
X91919048Y-142723328D01*
X91909174Y-142710460D01*
X91772897Y-142506507D01*
X91764787Y-142492460D01*
X91658855Y-142277652D01*
X91656294Y-142272458D01*
X91650090Y-142257479D01*
X91571243Y-142025202D01*
X91567045Y-142009535D01*
X91559186Y-141970026D01*
X91519190Y-141768953D01*
X91517075Y-141752895D01*
X91500765Y-141504043D01*
X91500500Y-141495933D01*
X91500500Y-140006879D01*
X168346672Y-140006879D01*
X168346672Y-140006880D01*
X168462821Y-140078797D01*
X168462822Y-140078798D01*
X168670195Y-140159134D01*
X168888807Y-140200000D01*
X169111193Y-140200000D01*
X169329809Y-140159133D01*
X169537168Y-140078801D01*
X169537181Y-140078795D01*
X169653326Y-140006879D01*
X169000001Y-139353553D01*
X169000000Y-139353553D01*
X168346672Y-140006879D01*
X91500500Y-140006879D01*
X91500500Y-138999999D01*
X167794859Y-138999999D01*
X167794859Y-139000000D01*
X167815378Y-139221439D01*
X167876240Y-139435350D01*
X167975369Y-139634428D01*
X167991137Y-139655308D01*
X167991138Y-139655308D01*
X168646447Y-139000000D01*
X168600369Y-138953922D01*
X168650000Y-138953922D01*
X168650000Y-139046078D01*
X168673852Y-139135095D01*
X168719930Y-139214905D01*
X168785095Y-139280070D01*
X168864905Y-139326148D01*
X168953922Y-139350000D01*
X169046078Y-139350000D01*
X169135095Y-139326148D01*
X169214905Y-139280070D01*
X169280070Y-139214905D01*
X169326148Y-139135095D01*
X169350000Y-139046078D01*
X169350000Y-138999999D01*
X169353553Y-138999999D01*
X169353553Y-139000000D01*
X170008861Y-139655308D01*
X170024631Y-139634425D01*
X170024633Y-139634422D01*
X170123759Y-139435350D01*
X170184621Y-139221439D01*
X170205141Y-139000000D01*
X170205141Y-138999999D01*
X170184621Y-138778560D01*
X170123759Y-138564649D01*
X170024635Y-138365580D01*
X170024630Y-138365572D01*
X170008860Y-138344690D01*
X169353553Y-138999999D01*
X169350000Y-138999999D01*
X169350000Y-138953922D01*
X169326148Y-138864905D01*
X169280070Y-138785095D01*
X169214905Y-138719930D01*
X169135095Y-138673852D01*
X169046078Y-138650000D01*
X168953922Y-138650000D01*
X168864905Y-138673852D01*
X168785095Y-138719930D01*
X168719930Y-138785095D01*
X168673852Y-138864905D01*
X168650000Y-138953922D01*
X168600369Y-138953922D01*
X167991138Y-138344691D01*
X167991137Y-138344691D01*
X167975368Y-138365574D01*
X167876240Y-138564649D01*
X167815378Y-138778560D01*
X167794859Y-138999999D01*
X91500500Y-138999999D01*
X91500500Y-137993119D01*
X168346671Y-137993119D01*
X169000000Y-138646447D01*
X169000001Y-138646447D01*
X169653327Y-137993119D01*
X169537178Y-137921202D01*
X169537177Y-137921201D01*
X169329804Y-137840865D01*
X169111193Y-137800000D01*
X168888807Y-137800000D01*
X168670195Y-137840865D01*
X168462824Y-137921200D01*
X168462823Y-137921201D01*
X168346671Y-137993119D01*
X91500500Y-137993119D01*
X91500500Y-132499997D01*
X114885034Y-132499997D01*
X114885034Y-132500002D01*
X114904858Y-132726599D01*
X114904860Y-132726610D01*
X114963730Y-132946317D01*
X114963735Y-132946331D01*
X115059863Y-133152478D01*
X115110974Y-133225472D01*
X115790000Y-132546446D01*
X115790000Y-132552661D01*
X115817259Y-132654394D01*
X115869920Y-132745606D01*
X115944394Y-132820080D01*
X116035606Y-132872741D01*
X116137339Y-132900000D01*
X116143553Y-132900000D01*
X115464526Y-133579025D01*
X115537513Y-133630132D01*
X115537521Y-133630136D01*
X115743668Y-133726264D01*
X115743682Y-133726269D01*
X115963389Y-133785139D01*
X115963400Y-133785141D01*
X116189998Y-133804966D01*
X116190002Y-133804966D01*
X116416599Y-133785141D01*
X116416610Y-133785139D01*
X116636317Y-133726269D01*
X116636331Y-133726264D01*
X116842478Y-133630136D01*
X116915471Y-133579024D01*
X116236447Y-132900000D01*
X116242661Y-132900000D01*
X116344394Y-132872741D01*
X116435606Y-132820080D01*
X116510080Y-132745606D01*
X116562741Y-132654394D01*
X116590000Y-132552661D01*
X116590000Y-132546447D01*
X117269024Y-133225471D01*
X117320136Y-133152478D01*
X117416264Y-132946331D01*
X117416269Y-132946317D01*
X117475139Y-132726610D01*
X117475141Y-132726599D01*
X117494966Y-132500002D01*
X117494966Y-132500000D01*
X130994659Y-132500000D01*
X131013975Y-132696129D01*
X131013976Y-132696132D01*
X131061729Y-132853553D01*
X131071188Y-132884733D01*
X131164086Y-133058532D01*
X131164090Y-133058539D01*
X131289116Y-133210883D01*
X131441460Y-133335909D01*
X131441467Y-133335913D01*
X131615266Y-133428811D01*
X131615269Y-133428811D01*
X131615273Y-133428814D01*
X131803868Y-133486024D01*
X132000000Y-133505341D01*
X132196132Y-133486024D01*
X132384727Y-133428814D01*
X132558538Y-133335910D01*
X132710883Y-133210883D01*
X132835910Y-133058538D01*
X132895893Y-132946317D01*
X132928811Y-132884733D01*
X132928811Y-132884732D01*
X132928814Y-132884727D01*
X132986024Y-132696132D01*
X133005341Y-132500000D01*
X133005341Y-132499997D01*
X153195034Y-132499997D01*
X153195034Y-132500002D01*
X153214858Y-132726599D01*
X153214860Y-132726610D01*
X153273730Y-132946317D01*
X153273735Y-132946331D01*
X153369863Y-133152478D01*
X153420974Y-133225472D01*
X154100000Y-132546446D01*
X154100000Y-132552661D01*
X154127259Y-132654394D01*
X154179920Y-132745606D01*
X154254394Y-132820080D01*
X154345606Y-132872741D01*
X154447339Y-132900000D01*
X154453553Y-132900000D01*
X153774526Y-133579025D01*
X153847513Y-133630132D01*
X153847521Y-133630136D01*
X154053668Y-133726264D01*
X154053682Y-133726269D01*
X154273389Y-133785139D01*
X154273400Y-133785141D01*
X154499998Y-133804966D01*
X154500002Y-133804966D01*
X154726599Y-133785141D01*
X154726610Y-133785139D01*
X154946317Y-133726269D01*
X154946331Y-133726264D01*
X155152478Y-133630136D01*
X155225471Y-133579024D01*
X154546447Y-132900000D01*
X154552661Y-132900000D01*
X154654394Y-132872741D01*
X154745606Y-132820080D01*
X154820080Y-132745606D01*
X154872741Y-132654394D01*
X154900000Y-132552661D01*
X154900000Y-132546447D01*
X155579024Y-133225471D01*
X155630136Y-133152478D01*
X155726264Y-132946331D01*
X155726269Y-132946317D01*
X155785139Y-132726610D01*
X155785141Y-132726599D01*
X155804966Y-132500002D01*
X155804966Y-132499997D01*
X155785141Y-132273400D01*
X155785139Y-132273389D01*
X155726269Y-132053682D01*
X155726264Y-132053668D01*
X155630136Y-131847521D01*
X155630132Y-131847513D01*
X155579025Y-131774526D01*
X154900000Y-132453551D01*
X154900000Y-132447339D01*
X154872741Y-132345606D01*
X154820080Y-132254394D01*
X154745606Y-132179920D01*
X154654394Y-132127259D01*
X154552661Y-132100000D01*
X154546448Y-132100000D01*
X155225472Y-131420974D01*
X155152478Y-131369863D01*
X154946331Y-131273735D01*
X154946317Y-131273730D01*
X154726610Y-131214860D01*
X154726599Y-131214858D01*
X154500002Y-131195034D01*
X154499998Y-131195034D01*
X154273400Y-131214858D01*
X154273389Y-131214860D01*
X154053682Y-131273730D01*
X154053673Y-131273734D01*
X153847516Y-131369866D01*
X153847512Y-131369868D01*
X153774526Y-131420973D01*
X153774526Y-131420974D01*
X154453553Y-132100000D01*
X154447339Y-132100000D01*
X154345606Y-132127259D01*
X154254394Y-132179920D01*
X154179920Y-132254394D01*
X154127259Y-132345606D01*
X154100000Y-132447339D01*
X154100000Y-132453552D01*
X153420974Y-131774526D01*
X153420973Y-131774526D01*
X153369868Y-131847512D01*
X153369866Y-131847516D01*
X153273734Y-132053673D01*
X153273730Y-132053682D01*
X153214860Y-132273389D01*
X153214858Y-132273400D01*
X153195034Y-132499997D01*
X133005341Y-132499997D01*
X132986024Y-132303868D01*
X132944058Y-132165528D01*
X132943436Y-132095664D01*
X132975037Y-132041856D01*
X134305076Y-130711819D01*
X134366399Y-130678334D01*
X134392757Y-130675500D01*
X136099622Y-130675500D01*
X136166661Y-130695185D01*
X136207009Y-130737500D01*
X136267465Y-130842214D01*
X136394129Y-130982888D01*
X136547265Y-131094148D01*
X136547270Y-131094151D01*
X136720192Y-131171142D01*
X136720197Y-131171144D01*
X136905354Y-131210500D01*
X136905355Y-131210500D01*
X137094644Y-131210500D01*
X137094646Y-131210500D01*
X137279803Y-131171144D01*
X137452730Y-131094151D01*
X137605871Y-130982888D01*
X137732533Y-130842216D01*
X137785774Y-130750000D01*
X137792991Y-130737500D01*
X137843558Y-130689284D01*
X137900378Y-130675500D01*
X143898117Y-130675500D01*
X143898119Y-130675500D01*
X143991078Y-130650592D01*
X144074422Y-130602473D01*
X147907819Y-126769074D01*
X147969142Y-126735590D01*
X148038834Y-126740574D01*
X148094767Y-126782446D01*
X148119184Y-126847910D01*
X148119500Y-126856756D01*
X148119500Y-128399752D01*
X148131131Y-128458229D01*
X148131132Y-128458230D01*
X148175447Y-128524552D01*
X148241769Y-128568867D01*
X148241770Y-128568868D01*
X148300247Y-128580499D01*
X148300250Y-128580500D01*
X148300252Y-128580500D01*
X149939750Y-128580500D01*
X149939751Y-128580499D01*
X149954568Y-128577552D01*
X149998229Y-128568868D01*
X149998229Y-128568867D01*
X149998231Y-128568867D01*
X150064552Y-128524552D01*
X150108867Y-128458231D01*
X150108867Y-128458229D01*
X150108868Y-128458229D01*
X150120499Y-128399752D01*
X150120500Y-128399750D01*
X150120500Y-126760249D01*
X150120499Y-126760247D01*
X150108868Y-126701770D01*
X150108867Y-126701769D01*
X150064552Y-126635447D01*
X149998230Y-126591132D01*
X149998229Y-126591131D01*
X149939752Y-126579500D01*
X149939748Y-126579500D01*
X148396756Y-126579500D01*
X148329717Y-126559815D01*
X148283962Y-126507011D01*
X148274018Y-126437853D01*
X148303043Y-126374297D01*
X148309075Y-126367819D01*
X148430831Y-126246063D01*
X148661856Y-126015037D01*
X148723177Y-125981554D01*
X148785528Y-125984058D01*
X148923868Y-126026024D01*
X149120000Y-126045341D01*
X149316132Y-126026024D01*
X149504727Y-125968814D01*
X149678538Y-125875910D01*
X149830883Y-125750883D01*
X149955910Y-125598538D01*
X150000207Y-125515664D01*
X150024056Y-125471047D01*
X150073018Y-125421203D01*
X150133414Y-125405500D01*
X158430213Y-125405500D01*
X158497252Y-125425185D01*
X158543007Y-125477989D01*
X158552951Y-125547147D01*
X158523926Y-125610703D01*
X158488666Y-125638858D01*
X158441467Y-125664086D01*
X158441460Y-125664090D01*
X158289116Y-125789116D01*
X158164090Y-125941460D01*
X158164086Y-125941467D01*
X158071188Y-126115266D01*
X158013975Y-126303870D01*
X157994659Y-126500000D01*
X158013975Y-126696129D01*
X158027457Y-126740574D01*
X158066450Y-126869116D01*
X158071188Y-126884733D01*
X158164086Y-127058532D01*
X158164090Y-127058539D01*
X158292981Y-127215592D01*
X158291794Y-127216565D01*
X158321666Y-127271271D01*
X158324500Y-127297629D01*
X158324500Y-131596485D01*
X158304815Y-131663524D01*
X158252011Y-131709279D01*
X158250936Y-131709764D01*
X158237269Y-131715848D01*
X158084129Y-131827111D01*
X157957466Y-131967785D01*
X157862821Y-132131715D01*
X157862818Y-132131722D01*
X157807576Y-132301741D01*
X157804326Y-132311744D01*
X157784540Y-132500000D01*
X157804326Y-132688256D01*
X157804327Y-132688259D01*
X157862818Y-132868277D01*
X157862821Y-132868284D01*
X157957467Y-133032216D01*
X158053487Y-133138857D01*
X158084129Y-133172888D01*
X158237265Y-133284148D01*
X158237270Y-133284151D01*
X158410192Y-133361142D01*
X158410197Y-133361144D01*
X158595354Y-133400500D01*
X158595355Y-133400500D01*
X158784644Y-133400500D01*
X158784646Y-133400500D01*
X158969803Y-133361144D01*
X159142730Y-133284151D01*
X159295871Y-133172888D01*
X159422533Y-133032216D01*
X159517179Y-132868284D01*
X159575674Y-132688256D01*
X159595460Y-132500000D01*
X159575674Y-132311744D01*
X159517179Y-132131716D01*
X159422533Y-131967784D01*
X159295871Y-131827112D01*
X159295870Y-131827111D01*
X159142730Y-131715848D01*
X159129064Y-131709764D01*
X159075827Y-131664514D01*
X159055506Y-131597664D01*
X159055500Y-131596485D01*
X159055500Y-127612261D01*
X159075185Y-127545222D01*
X159127989Y-127499467D01*
X159167346Y-127488858D01*
X159196132Y-127486024D01*
X159384727Y-127428814D01*
X159558538Y-127335910D01*
X159710883Y-127210883D01*
X159835910Y-127058538D01*
X159898486Y-126941467D01*
X159928811Y-126884733D01*
X159928811Y-126884732D01*
X159928814Y-126884727D01*
X159986024Y-126696132D01*
X159990880Y-126646826D01*
X160017041Y-126582040D01*
X160074075Y-126541681D01*
X160143875Y-126538564D01*
X160201964Y-126571300D01*
X165517866Y-131887202D01*
X165551351Y-131948525D01*
X165546367Y-132018217D01*
X165537573Y-132036882D01*
X165503636Y-132095664D01*
X165483735Y-132130134D01*
X165482820Y-132131718D01*
X165482818Y-132131722D01*
X165427576Y-132301741D01*
X165424326Y-132311744D01*
X165404540Y-132500000D01*
X165424326Y-132688256D01*
X165424327Y-132688259D01*
X165482818Y-132868277D01*
X165482821Y-132868284D01*
X165577467Y-133032216D01*
X165673487Y-133138857D01*
X165704129Y-133172888D01*
X165857265Y-133284148D01*
X165857270Y-133284151D01*
X166030192Y-133361142D01*
X166030197Y-133361144D01*
X166215354Y-133400500D01*
X166215355Y-133400500D01*
X166404644Y-133400500D01*
X166404646Y-133400500D01*
X166589803Y-133361144D01*
X166762730Y-133284151D01*
X166915871Y-133172888D01*
X167042533Y-133032216D01*
X167137179Y-132868284D01*
X167195674Y-132688256D01*
X167215460Y-132500000D01*
X167195674Y-132311744D01*
X167137179Y-132131716D01*
X167042533Y-131967784D01*
X166915871Y-131827112D01*
X166915870Y-131827111D01*
X166762734Y-131715851D01*
X166762729Y-131715848D01*
X166589807Y-131638857D01*
X166589802Y-131638855D01*
X166444001Y-131607865D01*
X166404646Y-131599500D01*
X166404645Y-131599500D01*
X166315316Y-131599500D01*
X166248277Y-131579815D01*
X166227635Y-131563181D01*
X161164454Y-126500000D01*
X167994659Y-126500000D01*
X168013975Y-126696129D01*
X168027457Y-126740574D01*
X168066450Y-126869116D01*
X168071188Y-126884733D01*
X168164086Y-127058532D01*
X168164090Y-127058539D01*
X168289116Y-127210883D01*
X168441460Y-127335909D01*
X168441463Y-127335911D01*
X168480623Y-127356842D01*
X168568953Y-127404055D01*
X168618797Y-127453016D01*
X168634500Y-127513413D01*
X168634500Y-130476485D01*
X168614815Y-130543524D01*
X168562011Y-130589279D01*
X168560936Y-130589764D01*
X168547269Y-130595848D01*
X168394129Y-130707111D01*
X168267466Y-130847785D01*
X168172821Y-131011715D01*
X168172818Y-131011722D01*
X168121020Y-131171142D01*
X168114326Y-131191744D01*
X168094540Y-131380000D01*
X168114326Y-131568256D01*
X168114327Y-131568259D01*
X168172818Y-131748277D01*
X168172821Y-131748284D01*
X168267467Y-131912216D01*
X168362911Y-132018217D01*
X168394129Y-132052888D01*
X168547265Y-132164148D01*
X168547270Y-132164151D01*
X168720192Y-132241142D01*
X168720197Y-132241144D01*
X168905354Y-132280500D01*
X168905355Y-132280500D01*
X169094644Y-132280500D01*
X169094646Y-132280500D01*
X169279803Y-132241144D01*
X169452730Y-132164151D01*
X169605871Y-132052888D01*
X169732533Y-131912216D01*
X169732533Y-131912215D01*
X169736881Y-131907387D01*
X169738922Y-131909224D01*
X169784658Y-131873952D01*
X169829655Y-131865500D01*
X170986586Y-131865500D01*
X171053625Y-131885185D01*
X171095944Y-131931047D01*
X171164086Y-132058532D01*
X171164090Y-132058539D01*
X171289116Y-132210883D01*
X171441460Y-132335909D01*
X171441467Y-132335913D01*
X171615266Y-132428811D01*
X171615269Y-132428811D01*
X171615273Y-132428814D01*
X171803868Y-132486024D01*
X172000000Y-132505341D01*
X172196132Y-132486024D01*
X172384727Y-132428814D01*
X172558538Y-132335910D01*
X172710883Y-132210883D01*
X172835910Y-132058538D01*
X172898486Y-131941467D01*
X172928811Y-131884733D01*
X172928811Y-131884732D01*
X172928814Y-131884727D01*
X172986024Y-131696132D01*
X173005341Y-131500000D01*
X180994659Y-131500000D01*
X181013975Y-131696129D01*
X181013976Y-131696132D01*
X181067917Y-131873952D01*
X181071188Y-131884733D01*
X181164086Y-132058532D01*
X181164090Y-132058539D01*
X181289116Y-132210883D01*
X181441460Y-132335909D01*
X181441467Y-132335913D01*
X181615266Y-132428811D01*
X181615269Y-132428811D01*
X181615273Y-132428814D01*
X181803868Y-132486024D01*
X182000000Y-132505341D01*
X182196132Y-132486024D01*
X182334467Y-132444059D01*
X182404334Y-132443436D01*
X182458144Y-132475039D01*
X183514294Y-133531189D01*
X183547779Y-133592512D01*
X183544544Y-133657188D01*
X183502970Y-133785141D01*
X183494326Y-133811744D01*
X183474540Y-134000000D01*
X183494326Y-134188256D01*
X183494327Y-134188259D01*
X183552818Y-134368277D01*
X183552821Y-134368284D01*
X183647467Y-134532216D01*
X183774129Y-134672888D01*
X183927265Y-134784148D01*
X183927270Y-134784151D01*
X184100192Y-134861142D01*
X184100197Y-134861144D01*
X184285354Y-134900500D01*
X184285355Y-134900500D01*
X184474644Y-134900500D01*
X184474646Y-134900500D01*
X184659803Y-134861144D01*
X184832730Y-134784151D01*
X184985871Y-134672888D01*
X185112533Y-134532216D01*
X185207179Y-134368284D01*
X185265674Y-134188256D01*
X185285460Y-134000000D01*
X185265674Y-133811744D01*
X185207179Y-133631716D01*
X185112533Y-133467784D01*
X184985871Y-133327112D01*
X184985863Y-133327106D01*
X184832734Y-133215851D01*
X184832729Y-133215848D01*
X184659807Y-133138857D01*
X184659802Y-133138855D01*
X184488976Y-133102546D01*
X184474646Y-133099500D01*
X184285354Y-133099500D01*
X184285350Y-133099500D01*
X184211867Y-133115119D01*
X184142199Y-133109803D01*
X184098405Y-133081510D01*
X182975039Y-131958144D01*
X182941554Y-131896821D01*
X182944060Y-131834467D01*
X182946291Y-131827112D01*
X182986024Y-131696132D01*
X183005341Y-131500000D01*
X182986024Y-131303868D01*
X182928814Y-131115273D01*
X182928811Y-131115269D01*
X182928811Y-131115266D01*
X182835913Y-130941467D01*
X182835909Y-130941460D01*
X182710883Y-130789116D01*
X182558539Y-130664090D01*
X182558532Y-130664086D01*
X182384733Y-130571188D01*
X182384727Y-130571186D01*
X182196132Y-130513976D01*
X182196129Y-130513975D01*
X182000000Y-130494659D01*
X181803870Y-130513975D01*
X181615266Y-130571188D01*
X181441467Y-130664086D01*
X181441460Y-130664090D01*
X181289116Y-130789116D01*
X181164090Y-130941460D01*
X181164086Y-130941467D01*
X181071188Y-131115266D01*
X181013975Y-131303870D01*
X180994659Y-131500000D01*
X173005341Y-131500000D01*
X172986024Y-131303868D01*
X172928814Y-131115273D01*
X172928811Y-131115269D01*
X172928811Y-131115266D01*
X172835913Y-130941467D01*
X172835909Y-130941460D01*
X172710883Y-130789116D01*
X172558539Y-130664090D01*
X172558532Y-130664086D01*
X172384733Y-130571188D01*
X172384727Y-130571186D01*
X172196132Y-130513976D01*
X172196129Y-130513975D01*
X172000000Y-130494659D01*
X171803870Y-130513975D01*
X171615266Y-130571188D01*
X171441467Y-130664086D01*
X171441460Y-130664090D01*
X171289116Y-130789116D01*
X171164090Y-130941460D01*
X171164086Y-130941467D01*
X171095944Y-131068953D01*
X171046982Y-131118797D01*
X170986586Y-131134500D01*
X169957165Y-131134500D01*
X169890126Y-131114815D01*
X169844371Y-131062011D01*
X169839234Y-131048817D01*
X169827182Y-131011724D01*
X169827180Y-131011720D01*
X169827179Y-131011716D01*
X169732533Y-130847784D01*
X169605871Y-130707112D01*
X169581333Y-130689284D01*
X169452730Y-130595848D01*
X169439064Y-130589764D01*
X169385827Y-130544514D01*
X169365506Y-130477664D01*
X169365500Y-130476485D01*
X169365500Y-127513413D01*
X169369439Y-127500000D01*
X171994659Y-127500000D01*
X172013975Y-127696129D01*
X172071188Y-127884733D01*
X172164086Y-128058532D01*
X172164090Y-128058539D01*
X172289116Y-128210883D01*
X172441460Y-128335909D01*
X172441467Y-128335913D01*
X172615266Y-128428811D01*
X172615269Y-128428811D01*
X172615273Y-128428814D01*
X172803868Y-128486024D01*
X173000000Y-128505341D01*
X173196132Y-128486024D01*
X173384727Y-128428814D01*
X173558538Y-128335910D01*
X173710883Y-128210883D01*
X173835910Y-128058538D01*
X173867201Y-127999997D01*
X173904056Y-127931047D01*
X173953018Y-127881203D01*
X174013414Y-127865500D01*
X176660961Y-127865500D01*
X176728000Y-127885185D01*
X176773755Y-127937989D01*
X176782817Y-127993502D01*
X176784540Y-127993502D01*
X176784540Y-127999997D01*
X176784540Y-128000000D01*
X176804326Y-128188256D01*
X176804327Y-128188259D01*
X176862818Y-128368277D01*
X176862821Y-128368284D01*
X176957467Y-128532216D01*
X177069039Y-128656129D01*
X177084129Y-128672888D01*
X177237265Y-128784148D01*
X177237270Y-128784151D01*
X177410192Y-128861142D01*
X177410197Y-128861144D01*
X177595354Y-128900500D01*
X177595355Y-128900500D01*
X177784644Y-128900500D01*
X177784646Y-128900500D01*
X177969803Y-128861144D01*
X178142730Y-128784151D01*
X178295871Y-128672888D01*
X178422533Y-128532216D01*
X178517179Y-128368284D01*
X178575674Y-128188256D01*
X178595460Y-128000000D01*
X178575674Y-127811744D01*
X178554882Y-127747757D01*
X178552887Y-127677919D01*
X178585131Y-127621762D01*
X180995076Y-125211819D01*
X181056399Y-125178334D01*
X181082757Y-125175500D01*
X185599622Y-125175500D01*
X185666661Y-125195185D01*
X185707009Y-125237500D01*
X185767465Y-125342214D01*
X185894129Y-125482888D01*
X186047265Y-125594148D01*
X186047270Y-125594151D01*
X186220192Y-125671142D01*
X186220197Y-125671144D01*
X186405354Y-125710500D01*
X186405355Y-125710500D01*
X186594644Y-125710500D01*
X186594646Y-125710500D01*
X186779803Y-125671144D01*
X186952730Y-125594151D01*
X187105871Y-125482888D01*
X187232533Y-125342216D01*
X187278761Y-125262147D01*
X187292991Y-125237500D01*
X187343558Y-125189284D01*
X187400378Y-125175500D01*
X191567243Y-125175500D01*
X191634282Y-125195185D01*
X191654924Y-125211819D01*
X191904960Y-125461855D01*
X191938445Y-125523178D01*
X191935940Y-125585531D01*
X191893975Y-125723869D01*
X191874659Y-125920000D01*
X191893975Y-126116129D01*
X191893976Y-126116132D01*
X191950925Y-126303868D01*
X191951188Y-126304733D01*
X192044086Y-126478532D01*
X192044090Y-126478539D01*
X192169116Y-126630883D01*
X192321460Y-126755909D01*
X192321467Y-126755913D01*
X192495266Y-126848811D01*
X192495269Y-126848811D01*
X192495273Y-126848814D01*
X192683868Y-126906024D01*
X192880000Y-126925341D01*
X193076132Y-126906024D01*
X193264727Y-126848814D01*
X193266419Y-126847910D01*
X193413908Y-126769075D01*
X193438538Y-126755910D01*
X193590883Y-126630883D01*
X193715910Y-126478538D01*
X193775091Y-126367819D01*
X193808811Y-126304733D01*
X193808811Y-126304732D01*
X193808814Y-126304727D01*
X193866024Y-126116132D01*
X193885341Y-125920000D01*
X193866024Y-125723868D01*
X193824058Y-125585528D01*
X193823436Y-125515664D01*
X193855035Y-125461858D01*
X194160078Y-125156816D01*
X194221399Y-125123334D01*
X194247757Y-125120500D01*
X199599666Y-125120500D01*
X199666705Y-125140185D01*
X199712460Y-125192989D01*
X199722404Y-125262147D01*
X199695519Y-125323165D01*
X199664091Y-125361460D01*
X199664086Y-125361467D01*
X199571188Y-125535266D01*
X199513975Y-125723870D01*
X199494659Y-125920000D01*
X199513975Y-126116129D01*
X199513976Y-126116132D01*
X199570925Y-126303868D01*
X199571188Y-126304733D01*
X199664086Y-126478532D01*
X199664091Y-126478539D01*
X199695519Y-126516835D01*
X199722832Y-126581145D01*
X199711041Y-126650013D01*
X199663889Y-126701573D01*
X199599666Y-126719500D01*
X194206881Y-126719500D01*
X194113922Y-126744408D01*
X194113921Y-126744408D01*
X194113919Y-126744409D01*
X194113916Y-126744410D01*
X194036484Y-126789117D01*
X194030576Y-126792528D01*
X194030575Y-126792528D01*
X193338143Y-127484960D01*
X193276820Y-127518445D01*
X193214468Y-127515940D01*
X193076132Y-127473976D01*
X193076129Y-127473975D01*
X192880000Y-127454659D01*
X192683870Y-127473975D01*
X192495266Y-127531188D01*
X192321467Y-127624086D01*
X192321460Y-127624090D01*
X192169116Y-127749116D01*
X192044090Y-127901460D01*
X192044086Y-127901467D01*
X191951188Y-128075266D01*
X191893975Y-128263870D01*
X191874659Y-128460000D01*
X191893975Y-128656129D01*
X191893976Y-128656132D01*
X191950143Y-128841290D01*
X191951188Y-128844733D01*
X192044086Y-129018532D01*
X192044090Y-129018539D01*
X192169116Y-129170883D01*
X192321460Y-129295909D01*
X192321467Y-129295913D01*
X192495266Y-129388811D01*
X192495269Y-129388811D01*
X192495273Y-129388814D01*
X192683868Y-129446024D01*
X192880000Y-129465341D01*
X193076132Y-129446024D01*
X193264727Y-129388814D01*
X193438538Y-129295910D01*
X193590883Y-129170883D01*
X193715910Y-129018538D01*
X193780631Y-128897453D01*
X193808811Y-128844733D01*
X193808811Y-128844732D01*
X193808814Y-128844727D01*
X193866024Y-128656132D01*
X193885341Y-128460000D01*
X193866024Y-128263868D01*
X193824058Y-128125528D01*
X193823436Y-128055664D01*
X193855037Y-128001856D01*
X194370076Y-127486819D01*
X194431399Y-127453334D01*
X194457757Y-127450500D01*
X199806425Y-127450500D01*
X199873464Y-127470185D01*
X199919219Y-127522989D01*
X199929163Y-127592147D01*
X199900138Y-127655703D01*
X199885090Y-127670353D01*
X199789116Y-127749116D01*
X199664090Y-127901460D01*
X199664086Y-127901467D01*
X199595944Y-128028953D01*
X199546982Y-128078797D01*
X199486586Y-128094500D01*
X197491881Y-128094500D01*
X197398920Y-128119408D01*
X197315578Y-128167527D01*
X197315575Y-128167529D01*
X194269423Y-131213681D01*
X194208100Y-131247166D01*
X194181742Y-131250000D01*
X193195686Y-131250000D01*
X193200080Y-131245606D01*
X193252741Y-131154394D01*
X193280000Y-131052661D01*
X193280000Y-130947339D01*
X193252741Y-130845606D01*
X193200080Y-130754394D01*
X193195686Y-130750000D01*
X194158872Y-130750000D01*
X194158872Y-130749999D01*
X194106269Y-130553682D01*
X194106265Y-130553673D01*
X194010134Y-130347517D01*
X193879657Y-130161179D01*
X193718820Y-130000342D01*
X193532482Y-129869865D01*
X193326328Y-129773734D01*
X193130000Y-129721127D01*
X193130000Y-130684314D01*
X193125606Y-130679920D01*
X193034394Y-130627259D01*
X192932661Y-130600000D01*
X192827339Y-130600000D01*
X192725606Y-130627259D01*
X192634394Y-130679920D01*
X192630000Y-130684314D01*
X192630000Y-129721127D01*
X192433671Y-129773734D01*
X192227517Y-129869865D01*
X192041179Y-130000342D01*
X191880342Y-130161179D01*
X191749865Y-130347517D01*
X191653734Y-130553673D01*
X191653730Y-130553682D01*
X191601127Y-130749999D01*
X191601128Y-130750000D01*
X192564314Y-130750000D01*
X192559920Y-130754394D01*
X192507259Y-130845606D01*
X192480000Y-130947339D01*
X192480000Y-131052661D01*
X192507259Y-131154394D01*
X192559920Y-131245606D01*
X192564314Y-131250000D01*
X191601128Y-131250000D01*
X191653730Y-131446317D01*
X191653734Y-131446326D01*
X191749865Y-131652482D01*
X191880342Y-131838820D01*
X192041179Y-131999657D01*
X192227517Y-132130134D01*
X192433673Y-132226265D01*
X192433682Y-132226269D01*
X192629999Y-132278872D01*
X192630000Y-132278871D01*
X192630000Y-131315686D01*
X192634394Y-131320080D01*
X192725606Y-131372741D01*
X192827339Y-131400000D01*
X192932661Y-131400000D01*
X193034394Y-131372741D01*
X193125606Y-131320080D01*
X193130000Y-131315686D01*
X193130000Y-132301741D01*
X193110315Y-132368780D01*
X193093681Y-132389422D01*
X192380557Y-133102546D01*
X192319234Y-133136031D01*
X192267095Y-133136154D01*
X192094646Y-133099500D01*
X191905354Y-133099500D01*
X191891024Y-133102546D01*
X191720197Y-133138855D01*
X191720192Y-133138857D01*
X191547270Y-133215848D01*
X191547265Y-133215851D01*
X191394135Y-133327106D01*
X191394126Y-133327114D01*
X191367791Y-133356361D01*
X191308304Y-133393008D01*
X191238447Y-133391675D01*
X191187963Y-133361067D01*
X186205133Y-128378238D01*
X186171648Y-128316915D01*
X186174883Y-128252239D01*
X186195674Y-128188256D01*
X186215460Y-128000000D01*
X186195674Y-127811744D01*
X186137179Y-127631716D01*
X186042533Y-127467784D01*
X185915871Y-127327112D01*
X185915870Y-127327111D01*
X185762734Y-127215851D01*
X185762729Y-127215848D01*
X185589807Y-127138857D01*
X185589802Y-127138855D01*
X185463719Y-127112056D01*
X185402237Y-127078864D01*
X185368461Y-127017701D01*
X185365500Y-126990766D01*
X185365500Y-126309519D01*
X185381460Y-126255163D01*
X185379198Y-126254130D01*
X185436697Y-126128225D01*
X185438560Y-126115266D01*
X185455133Y-126000000D01*
X185436697Y-125871774D01*
X185382882Y-125753937D01*
X185298049Y-125656033D01*
X185189069Y-125585996D01*
X185189065Y-125585994D01*
X185189064Y-125585994D01*
X185064774Y-125549500D01*
X185064772Y-125549500D01*
X184935228Y-125549500D01*
X184935226Y-125549500D01*
X184810935Y-125585994D01*
X184810932Y-125585995D01*
X184810931Y-125585996D01*
X184791414Y-125598539D01*
X184701950Y-125656033D01*
X184617118Y-125753937D01*
X184617117Y-125753938D01*
X184563302Y-125871774D01*
X184544867Y-126000000D01*
X184563302Y-126128225D01*
X184620802Y-126254130D01*
X184618538Y-126255163D01*
X184634500Y-126309510D01*
X184634500Y-127356842D01*
X184614815Y-127423881D01*
X184602650Y-127439814D01*
X184577470Y-127467778D01*
X184577465Y-127467785D01*
X184482821Y-127631715D01*
X184482818Y-127631722D01*
X184435898Y-127776129D01*
X184424326Y-127811744D01*
X184404540Y-128000000D01*
X184424326Y-128188256D01*
X184424327Y-128188259D01*
X184482818Y-128368277D01*
X184482821Y-128368284D01*
X184577467Y-128532216D01*
X184689039Y-128656129D01*
X184704129Y-128672888D01*
X184857265Y-128784148D01*
X184857270Y-128784151D01*
X185030192Y-128861142D01*
X185030197Y-128861144D01*
X185215354Y-128900500D01*
X185215355Y-128900500D01*
X185404644Y-128900500D01*
X185404646Y-128900500D01*
X185577099Y-128863844D01*
X185646763Y-128869160D01*
X185690557Y-128897452D01*
X191085577Y-134292473D01*
X191085578Y-134292474D01*
X191085580Y-134292475D01*
X191122682Y-134313896D01*
X191169316Y-134362804D01*
X191169572Y-134362657D01*
X191170179Y-134363709D01*
X191170898Y-134364463D01*
X191172295Y-134367374D01*
X191267465Y-134532214D01*
X191394129Y-134672888D01*
X191547265Y-134784148D01*
X191547270Y-134784151D01*
X191720192Y-134861142D01*
X191720197Y-134861144D01*
X191905354Y-134900500D01*
X191905355Y-134900500D01*
X192094644Y-134900500D01*
X192094646Y-134900500D01*
X192279803Y-134861144D01*
X192452730Y-134784151D01*
X192605871Y-134672888D01*
X192732533Y-134532216D01*
X192827179Y-134368284D01*
X192885674Y-134188256D01*
X192905460Y-134000000D01*
X192885674Y-133811744D01*
X192864882Y-133747757D01*
X192862887Y-133677919D01*
X192895131Y-133621762D01*
X195516894Y-131000000D01*
X199494659Y-131000000D01*
X199513975Y-131196129D01*
X199519657Y-131214860D01*
X199551575Y-131320080D01*
X199571188Y-131384733D01*
X199664086Y-131558532D01*
X199664090Y-131558539D01*
X199789116Y-131710883D01*
X199941460Y-131835909D01*
X199941467Y-131835913D01*
X200115266Y-131928811D01*
X200115269Y-131928811D01*
X200115273Y-131928814D01*
X200303868Y-131986024D01*
X200500000Y-132005341D01*
X200696132Y-131986024D01*
X200884727Y-131928814D01*
X200915784Y-131912214D01*
X201036815Y-131847521D01*
X201058538Y-131835910D01*
X201210883Y-131710883D01*
X201335910Y-131558538D01*
X201409440Y-131420973D01*
X201428811Y-131384733D01*
X201428811Y-131384732D01*
X201428814Y-131384727D01*
X201486024Y-131196132D01*
X201505341Y-131000000D01*
X201486024Y-130803868D01*
X201428814Y-130615273D01*
X201428811Y-130615269D01*
X201428811Y-130615266D01*
X201335913Y-130441467D01*
X201335909Y-130441460D01*
X201210883Y-130289116D01*
X201058539Y-130164090D01*
X201058532Y-130164086D01*
X200884733Y-130071188D01*
X200884727Y-130071186D01*
X200696132Y-130013976D01*
X200696129Y-130013975D01*
X200500000Y-129994659D01*
X200303870Y-130013975D01*
X200115266Y-130071188D01*
X199941467Y-130164086D01*
X199941460Y-130164090D01*
X199789116Y-130289116D01*
X199664090Y-130441460D01*
X199664086Y-130441467D01*
X199571188Y-130615266D01*
X199513975Y-130803870D01*
X199494659Y-131000000D01*
X195516894Y-131000000D01*
X197655076Y-128861819D01*
X197716399Y-128828334D01*
X197742757Y-128825500D01*
X199486586Y-128825500D01*
X199553625Y-128845185D01*
X199595944Y-128891047D01*
X199664086Y-129018532D01*
X199664090Y-129018539D01*
X199789116Y-129170883D01*
X199941460Y-129295909D01*
X199941467Y-129295913D01*
X200115266Y-129388811D01*
X200115269Y-129388811D01*
X200115273Y-129388814D01*
X200303868Y-129446024D01*
X200500000Y-129465341D01*
X200696132Y-129446024D01*
X200884727Y-129388814D01*
X201058538Y-129295910D01*
X201210883Y-129170883D01*
X201335910Y-129018538D01*
X201400631Y-128897453D01*
X201428811Y-128844733D01*
X201428811Y-128844732D01*
X201428814Y-128844727D01*
X201486024Y-128656132D01*
X201505341Y-128460000D01*
X201486024Y-128263868D01*
X201428814Y-128075273D01*
X201428811Y-128075269D01*
X201428811Y-128075266D01*
X201335913Y-127901467D01*
X201335909Y-127901460D01*
X201210883Y-127749116D01*
X201114910Y-127670353D01*
X201075576Y-127612607D01*
X201073705Y-127542763D01*
X201109893Y-127482994D01*
X201172649Y-127452279D01*
X201193575Y-127450500D01*
X204094487Y-127450500D01*
X204094489Y-127450500D01*
X204187448Y-127425592D01*
X204270792Y-127377473D01*
X210899352Y-120748912D01*
X210960673Y-120715429D01*
X211030365Y-120720413D01*
X211086298Y-120762285D01*
X211110715Y-120827749D01*
X211110352Y-120849554D01*
X211094540Y-121000000D01*
X211114326Y-121188256D01*
X211114327Y-121188259D01*
X211172818Y-121368277D01*
X211172821Y-121368284D01*
X211267467Y-121532216D01*
X211386204Y-121664086D01*
X211394129Y-121672888D01*
X211547265Y-121784148D01*
X211547270Y-121784151D01*
X211720192Y-121861142D01*
X211720197Y-121861144D01*
X211905354Y-121900500D01*
X211905355Y-121900500D01*
X212094644Y-121900500D01*
X212094646Y-121900500D01*
X212279803Y-121861144D01*
X212452730Y-121784151D01*
X212605871Y-121672888D01*
X212732533Y-121532216D01*
X212827179Y-121368284D01*
X212885674Y-121188256D01*
X212905460Y-121000000D01*
X212885674Y-120811744D01*
X212827179Y-120631716D01*
X212732533Y-120467784D01*
X212605871Y-120327112D01*
X212541137Y-120280080D01*
X212452734Y-120215851D01*
X212452729Y-120215848D01*
X212279807Y-120138857D01*
X212279802Y-120138855D01*
X212134001Y-120107865D01*
X212094646Y-120099500D01*
X211905354Y-120099500D01*
X211872332Y-120106518D01*
X211861976Y-120108720D01*
X211792309Y-120103402D01*
X211736576Y-120061264D01*
X211712472Y-119995684D01*
X211727650Y-119927483D01*
X211748512Y-119899752D01*
X213792473Y-117855792D01*
X213840592Y-117772448D01*
X213865500Y-117679489D01*
X213865500Y-117583251D01*
X213865500Y-117513413D01*
X213885185Y-117446374D01*
X213931045Y-117404056D01*
X214058538Y-117335910D01*
X214210883Y-117210883D01*
X214335910Y-117058538D01*
X214398486Y-116941467D01*
X214428812Y-116884731D01*
X214428812Y-116884730D01*
X214428814Y-116884727D01*
X214465586Y-116763503D01*
X214503884Y-116705066D01*
X214567696Y-116676610D01*
X214584247Y-116675500D01*
X219099622Y-116675500D01*
X219166661Y-116695185D01*
X219207008Y-116737498D01*
X219237887Y-116790982D01*
X219254500Y-116852981D01*
X219254500Y-120096485D01*
X219234815Y-120163524D01*
X219182011Y-120209279D01*
X219180936Y-120209764D01*
X219167269Y-120215848D01*
X219014129Y-120327111D01*
X218887466Y-120467785D01*
X218792821Y-120631715D01*
X218792818Y-120631722D01*
X218738525Y-120798820D01*
X218734326Y-120811744D01*
X218714540Y-121000000D01*
X218734326Y-121188256D01*
X218734327Y-121188259D01*
X218792818Y-121368277D01*
X218792821Y-121368284D01*
X218887467Y-121532216D01*
X219006204Y-121664086D01*
X219014129Y-121672888D01*
X219167265Y-121784148D01*
X219167270Y-121784151D01*
X219340192Y-121861142D01*
X219340197Y-121861144D01*
X219525354Y-121900500D01*
X219525355Y-121900500D01*
X219714644Y-121900500D01*
X219714646Y-121900500D01*
X219899803Y-121861144D01*
X220072730Y-121784151D01*
X220225871Y-121672888D01*
X220352533Y-121532216D01*
X220447179Y-121368284D01*
X220505674Y-121188256D01*
X220525460Y-121000000D01*
X220505674Y-120811744D01*
X220447179Y-120631716D01*
X220352533Y-120467784D01*
X220225871Y-120327112D01*
X220225870Y-120327111D01*
X220072730Y-120215848D01*
X220059064Y-120209764D01*
X220005827Y-120164514D01*
X219985506Y-120097664D01*
X219985500Y-120096485D01*
X219985500Y-117333621D01*
X220005185Y-117266582D01*
X220057989Y-117220827D01*
X220088430Y-117212515D01*
X220088289Y-117211851D01*
X220094645Y-117210500D01*
X220094646Y-117210500D01*
X220279803Y-117171144D01*
X220452730Y-117094151D01*
X220605871Y-116982888D01*
X220732533Y-116842216D01*
X220827179Y-116678284D01*
X220885674Y-116498256D01*
X220905460Y-116310000D01*
X220885674Y-116121744D01*
X220827179Y-115941716D01*
X220732533Y-115777784D01*
X220605871Y-115637112D01*
X220605870Y-115637111D01*
X220452734Y-115525851D01*
X220452729Y-115525848D01*
X220279807Y-115448857D01*
X220279802Y-115448855D01*
X220134001Y-115417865D01*
X220094646Y-115409500D01*
X219905354Y-115409500D01*
X219872897Y-115416398D01*
X219720197Y-115448855D01*
X219720192Y-115448857D01*
X219547270Y-115525848D01*
X219547265Y-115525851D01*
X219394129Y-115637111D01*
X219267465Y-115777785D01*
X219207009Y-115882500D01*
X219156442Y-115930716D01*
X219099622Y-115944500D01*
X214397051Y-115944500D01*
X214330012Y-115924815D01*
X214301198Y-115899165D01*
X214210883Y-115789116D01*
X214058539Y-115664090D01*
X214058532Y-115664086D01*
X213884733Y-115571188D01*
X213884727Y-115571186D01*
X213758997Y-115533046D01*
X213696129Y-115513975D01*
X213500000Y-115494659D01*
X213303870Y-115513975D01*
X213115266Y-115571188D01*
X212941467Y-115664086D01*
X212941460Y-115664090D01*
X212789116Y-115789116D01*
X212664090Y-115941460D01*
X212664086Y-115941467D01*
X212571188Y-116115266D01*
X212513975Y-116303870D01*
X212494659Y-116500000D01*
X212513975Y-116696129D01*
X212513976Y-116696132D01*
X212534413Y-116763505D01*
X212571188Y-116884733D01*
X212664086Y-117058532D01*
X212664090Y-117058539D01*
X212789116Y-117210883D01*
X212856986Y-117266582D01*
X212941462Y-117335910D01*
X213013691Y-117374517D01*
X213063534Y-117423479D01*
X213078995Y-117491616D01*
X213055164Y-117557296D01*
X213042918Y-117571556D01*
X209548481Y-121065993D01*
X209487158Y-121099478D01*
X209417466Y-121094494D01*
X209361533Y-121052622D01*
X209337116Y-120987158D01*
X209342868Y-120939996D01*
X209385674Y-120808256D01*
X209405460Y-120620000D01*
X209385674Y-120431744D01*
X209327179Y-120251716D01*
X209232533Y-120087784D01*
X209105871Y-119947112D01*
X209078854Y-119927483D01*
X208952734Y-119835851D01*
X208952729Y-119835848D01*
X208779807Y-119758857D01*
X208779802Y-119758855D01*
X208634001Y-119727865D01*
X208594646Y-119719500D01*
X208405354Y-119719500D01*
X208372897Y-119726398D01*
X208220197Y-119758855D01*
X208220192Y-119758857D01*
X208047270Y-119835848D01*
X208047265Y-119835851D01*
X207894129Y-119947111D01*
X207767466Y-120087785D01*
X207672821Y-120251715D01*
X207672818Y-120251722D01*
X207614327Y-120431740D01*
X207614326Y-120431744D01*
X207594540Y-120620000D01*
X207614326Y-120808256D01*
X207614327Y-120808259D01*
X207635115Y-120872239D01*
X207637110Y-120942081D01*
X207604865Y-120998238D01*
X204249924Y-124353181D01*
X204188601Y-124386666D01*
X204162243Y-124389500D01*
X201193575Y-124389500D01*
X201126536Y-124369815D01*
X201080781Y-124317011D01*
X201070837Y-124247853D01*
X201099862Y-124184297D01*
X201114910Y-124169647D01*
X201210883Y-124090883D01*
X201335909Y-123938539D01*
X201335913Y-123938532D01*
X201428811Y-123764733D01*
X201428811Y-123764732D01*
X201428814Y-123764727D01*
X201486024Y-123576132D01*
X201505341Y-123380000D01*
X201486024Y-123183868D01*
X201428814Y-122995273D01*
X201428811Y-122995269D01*
X201428811Y-122995266D01*
X201335913Y-122821467D01*
X201335909Y-122821460D01*
X201210883Y-122669116D01*
X201058539Y-122544090D01*
X201058532Y-122544086D01*
X200884733Y-122451188D01*
X200884727Y-122451186D01*
X200696132Y-122393976D01*
X200696129Y-122393975D01*
X200500000Y-122374659D01*
X200303870Y-122393975D01*
X200115266Y-122451188D01*
X199941467Y-122544086D01*
X199941460Y-122544090D01*
X199789116Y-122669116D01*
X199664090Y-122821460D01*
X199664086Y-122821467D01*
X199571188Y-122995266D01*
X199513975Y-123183870D01*
X199494659Y-123380000D01*
X199513975Y-123576129D01*
X199571188Y-123764733D01*
X199664086Y-123938532D01*
X199664090Y-123938539D01*
X199789116Y-124090883D01*
X199885090Y-124169647D01*
X199924424Y-124227393D01*
X199926295Y-124297237D01*
X199890107Y-124357006D01*
X199827351Y-124387721D01*
X199806425Y-124389500D01*
X193993851Y-124389500D01*
X193926812Y-124369815D01*
X193881057Y-124317011D01*
X193871113Y-124247853D01*
X193872233Y-124241310D01*
X193880500Y-124199747D01*
X193880500Y-122560249D01*
X193880499Y-122560247D01*
X193868868Y-122501770D01*
X193868867Y-122501769D01*
X193824552Y-122435447D01*
X193758230Y-122391132D01*
X193758229Y-122391131D01*
X193699752Y-122379500D01*
X193699748Y-122379500D01*
X192060252Y-122379500D01*
X192060247Y-122379500D01*
X192001770Y-122391131D01*
X192001769Y-122391132D01*
X191935447Y-122435447D01*
X191891132Y-122501769D01*
X191891131Y-122501770D01*
X191879500Y-122560247D01*
X191879500Y-124199752D01*
X191891131Y-124258229D01*
X191895806Y-124269513D01*
X191892714Y-124270793D01*
X191907586Y-124318287D01*
X191889101Y-124385667D01*
X191837122Y-124432357D01*
X191783606Y-124444500D01*
X187400378Y-124444500D01*
X187333339Y-124424815D01*
X187292991Y-124382500D01*
X187232534Y-124277785D01*
X187105870Y-124137111D01*
X186952734Y-124025851D01*
X186952729Y-124025848D01*
X186779807Y-123948857D01*
X186779802Y-123948855D01*
X186634001Y-123917865D01*
X186594646Y-123909500D01*
X186405354Y-123909500D01*
X186372897Y-123916398D01*
X186220197Y-123948855D01*
X186220192Y-123948857D01*
X186047270Y-124025848D01*
X186047265Y-124025851D01*
X185894129Y-124137111D01*
X185767465Y-124277785D01*
X185707009Y-124382500D01*
X185656442Y-124430716D01*
X185599622Y-124444500D01*
X180831880Y-124444500D01*
X180738921Y-124469408D01*
X180655578Y-124517527D01*
X180655575Y-124517529D01*
X178070557Y-127102546D01*
X178009234Y-127136031D01*
X177957095Y-127136154D01*
X177784646Y-127099500D01*
X177595354Y-127099500D01*
X177581024Y-127102546D01*
X177410197Y-127138855D01*
X177410190Y-127138858D01*
X177391763Y-127147062D01*
X177322513Y-127156345D01*
X177309238Y-127153556D01*
X177296666Y-127150187D01*
X177238119Y-127134500D01*
X177238118Y-127134500D01*
X174013414Y-127134500D01*
X173946375Y-127114815D01*
X173904056Y-127068953D01*
X173835913Y-126941467D01*
X173835909Y-126941460D01*
X173710883Y-126789116D01*
X173558539Y-126664090D01*
X173558532Y-126664086D01*
X173384733Y-126571188D01*
X173384727Y-126571186D01*
X173196132Y-126513976D01*
X173196129Y-126513975D01*
X173000000Y-126494659D01*
X172803870Y-126513975D01*
X172615266Y-126571188D01*
X172441467Y-126664086D01*
X172441460Y-126664090D01*
X172289116Y-126789116D01*
X172164090Y-126941460D01*
X172164086Y-126941467D01*
X172071188Y-127115266D01*
X172013975Y-127303870D01*
X171994659Y-127500000D01*
X169369439Y-127500000D01*
X169385185Y-127446374D01*
X169431045Y-127404056D01*
X169558538Y-127335910D01*
X169710883Y-127210883D01*
X169835910Y-127058538D01*
X169898486Y-126941467D01*
X169928811Y-126884733D01*
X169928811Y-126884732D01*
X169928814Y-126884727D01*
X169986024Y-126696132D01*
X170005341Y-126500000D01*
X169986024Y-126303868D01*
X169928814Y-126115273D01*
X169928811Y-126115269D01*
X169928811Y-126115266D01*
X169835913Y-125941467D01*
X169835909Y-125941460D01*
X169710883Y-125789116D01*
X169558539Y-125664090D01*
X169558532Y-125664086D01*
X169384733Y-125571188D01*
X169384727Y-125571186D01*
X169226467Y-125523178D01*
X169196129Y-125513975D01*
X169000000Y-125494659D01*
X168803870Y-125513975D01*
X168615266Y-125571188D01*
X168441467Y-125664086D01*
X168441460Y-125664090D01*
X168289116Y-125789116D01*
X168164090Y-125941460D01*
X168164086Y-125941467D01*
X168071188Y-126115266D01*
X168013975Y-126303870D01*
X167994659Y-126500000D01*
X161164454Y-126500000D01*
X159411983Y-124747529D01*
X159411981Y-124747527D01*
X159370309Y-124723467D01*
X159328638Y-124699408D01*
X159282157Y-124686954D01*
X159235678Y-124674500D01*
X159235677Y-124674500D01*
X150133414Y-124674500D01*
X150066375Y-124654815D01*
X150024056Y-124608953D01*
X149955913Y-124481467D01*
X149955909Y-124481460D01*
X149830883Y-124329116D01*
X149678539Y-124204090D01*
X149678532Y-124204086D01*
X149504733Y-124111188D01*
X149504727Y-124111186D01*
X149316132Y-124053976D01*
X149316129Y-124053975D01*
X149120000Y-124034659D01*
X148923870Y-124053975D01*
X148735266Y-124111188D01*
X148561467Y-124204086D01*
X148561460Y-124204090D01*
X148409116Y-124329116D01*
X148284090Y-124481460D01*
X148284086Y-124481467D01*
X148191188Y-124655266D01*
X148133975Y-124843870D01*
X148114659Y-125040000D01*
X148133975Y-125236129D01*
X148133976Y-125236132D01*
X148175940Y-125374468D01*
X148176563Y-125444333D01*
X148144960Y-125498143D01*
X143734924Y-129908181D01*
X143673601Y-129941666D01*
X143647243Y-129944500D01*
X137900378Y-129944500D01*
X137833339Y-129924815D01*
X137792991Y-129882500D01*
X137732534Y-129777785D01*
X137605870Y-129637111D01*
X137452734Y-129525851D01*
X137452729Y-129525848D01*
X137279807Y-129448857D01*
X137279802Y-129448855D01*
X137134001Y-129417865D01*
X137094646Y-129409500D01*
X136905354Y-129409500D01*
X136872897Y-129416398D01*
X136720197Y-129448855D01*
X136720192Y-129448857D01*
X136547270Y-129525848D01*
X136547265Y-129525851D01*
X136394129Y-129637111D01*
X136267465Y-129777785D01*
X136207009Y-129882500D01*
X136156442Y-129930716D01*
X136099622Y-129944500D01*
X134141881Y-129944500D01*
X134048920Y-129969408D01*
X133965578Y-130017527D01*
X133965575Y-130017529D01*
X132458143Y-131524960D01*
X132396820Y-131558445D01*
X132334468Y-131555940D01*
X132196132Y-131513976D01*
X132196129Y-131513975D01*
X132000000Y-131494659D01*
X131803870Y-131513975D01*
X131615266Y-131571188D01*
X131441467Y-131664086D01*
X131441460Y-131664090D01*
X131289116Y-131789116D01*
X131164090Y-131941460D01*
X131164086Y-131941467D01*
X131071188Y-132115266D01*
X131013975Y-132303870D01*
X130994659Y-132500000D01*
X117494966Y-132500000D01*
X117494966Y-132499997D01*
X117475141Y-132273400D01*
X117475139Y-132273389D01*
X117416269Y-132053682D01*
X117416264Y-132053668D01*
X117320136Y-131847521D01*
X117320132Y-131847513D01*
X117269025Y-131774526D01*
X116590000Y-132453551D01*
X116590000Y-132447339D01*
X116562741Y-132345606D01*
X116510080Y-132254394D01*
X116435606Y-132179920D01*
X116344394Y-132127259D01*
X116242661Y-132100000D01*
X116236448Y-132100000D01*
X116915472Y-131420974D01*
X116842478Y-131369863D01*
X116636331Y-131273735D01*
X116636317Y-131273730D01*
X116416610Y-131214860D01*
X116416599Y-131214858D01*
X116190002Y-131195034D01*
X116189998Y-131195034D01*
X115963400Y-131214858D01*
X115963389Y-131214860D01*
X115743682Y-131273730D01*
X115743673Y-131273734D01*
X115537516Y-131369866D01*
X115537512Y-131369868D01*
X115464526Y-131420973D01*
X115464526Y-131420974D01*
X116143553Y-132100000D01*
X116137339Y-132100000D01*
X116035606Y-132127259D01*
X115944394Y-132179920D01*
X115869920Y-132254394D01*
X115817259Y-132345606D01*
X115790000Y-132447339D01*
X115790000Y-132453552D01*
X115110974Y-131774526D01*
X115110973Y-131774526D01*
X115059868Y-131847512D01*
X115059866Y-131847516D01*
X114963734Y-132053673D01*
X114963730Y-132053682D01*
X114904860Y-132273389D01*
X114904858Y-132273400D01*
X114885034Y-132499997D01*
X91500500Y-132499997D01*
X91500500Y-127580000D01*
X140494659Y-127580000D01*
X140513975Y-127776129D01*
X140571188Y-127964733D01*
X140664086Y-128138532D01*
X140664090Y-128138539D01*
X140789116Y-128290883D01*
X140941460Y-128415909D01*
X140941467Y-128415913D01*
X141115266Y-128508811D01*
X141115269Y-128508811D01*
X141115273Y-128508814D01*
X141303868Y-128566024D01*
X141500000Y-128585341D01*
X141696132Y-128566024D01*
X141884727Y-128508814D01*
X141891227Y-128505340D01*
X142058532Y-128415913D01*
X142058538Y-128415910D01*
X142210883Y-128290883D01*
X142335910Y-128138538D01*
X142382362Y-128051632D01*
X142428811Y-127964733D01*
X142428811Y-127964732D01*
X142428814Y-127964727D01*
X142486024Y-127776132D01*
X142505341Y-127580000D01*
X142486024Y-127383868D01*
X142428814Y-127195273D01*
X142428811Y-127195269D01*
X142428811Y-127195266D01*
X142335913Y-127021467D01*
X142335909Y-127021460D01*
X142210883Y-126869116D01*
X142058539Y-126744090D01*
X142058532Y-126744086D01*
X141884733Y-126651188D01*
X141884727Y-126651186D01*
X141696132Y-126593976D01*
X141696129Y-126593975D01*
X141500000Y-126574659D01*
X141303870Y-126593975D01*
X141115266Y-126651188D01*
X140941467Y-126744086D01*
X140941460Y-126744090D01*
X140789116Y-126869116D01*
X140664090Y-127021460D01*
X140664086Y-127021467D01*
X140571188Y-127195266D01*
X140513975Y-127383870D01*
X140494659Y-127580000D01*
X91500500Y-127580000D01*
X91500500Y-125040000D01*
X140494659Y-125040000D01*
X140513975Y-125236129D01*
X140513976Y-125236132D01*
X140555939Y-125374466D01*
X140571188Y-125424733D01*
X140664086Y-125598532D01*
X140664090Y-125598539D01*
X140789116Y-125750883D01*
X140941460Y-125875909D01*
X140941467Y-125875913D01*
X141115266Y-125968811D01*
X141115269Y-125968811D01*
X141115273Y-125968814D01*
X141303868Y-126026024D01*
X141500000Y-126045341D01*
X141696132Y-126026024D01*
X141884727Y-125968814D01*
X142058538Y-125875910D01*
X142210883Y-125750883D01*
X142335910Y-125598538D01*
X142400345Y-125477989D01*
X142428811Y-125424733D01*
X142428811Y-125424732D01*
X142428814Y-125424727D01*
X142486024Y-125236132D01*
X142505341Y-125040000D01*
X142486024Y-124843868D01*
X142428814Y-124655273D01*
X142428811Y-124655269D01*
X142428811Y-124655266D01*
X142335913Y-124481467D01*
X142335909Y-124481460D01*
X142210883Y-124329116D01*
X142058539Y-124204090D01*
X142058532Y-124204086D01*
X141884733Y-124111188D01*
X141884727Y-124111186D01*
X141696132Y-124053976D01*
X141696129Y-124053975D01*
X141500000Y-124034659D01*
X141303870Y-124053975D01*
X141115266Y-124111188D01*
X140941467Y-124204086D01*
X140941460Y-124204090D01*
X140789116Y-124329116D01*
X140664090Y-124481460D01*
X140664086Y-124481467D01*
X140571188Y-124655266D01*
X140513975Y-124843870D01*
X140494659Y-125040000D01*
X91500500Y-125040000D01*
X91500500Y-119310000D01*
X109094540Y-119310000D01*
X109114326Y-119498256D01*
X109114327Y-119498259D01*
X109172818Y-119678277D01*
X109172821Y-119678284D01*
X109267467Y-119842216D01*
X109394129Y-119982888D01*
X109547265Y-120094148D01*
X109547270Y-120094151D01*
X109720192Y-120171142D01*
X109720197Y-120171144D01*
X109905354Y-120210500D01*
X109905355Y-120210500D01*
X110094644Y-120210500D01*
X110094646Y-120210500D01*
X110267099Y-120173844D01*
X110336763Y-120179160D01*
X110380558Y-120207453D01*
X112965578Y-122792473D01*
X113048922Y-122840592D01*
X113141880Y-122865500D01*
X113141881Y-122865500D01*
X115176586Y-122865500D01*
X115243625Y-122885185D01*
X115285944Y-122931047D01*
X115354086Y-123058532D01*
X115354090Y-123058539D01*
X115479116Y-123210883D01*
X115631460Y-123335909D01*
X115631467Y-123335913D01*
X115805266Y-123428811D01*
X115805269Y-123428811D01*
X115805273Y-123428814D01*
X115993868Y-123486024D01*
X116190000Y-123505341D01*
X116386132Y-123486024D01*
X116574727Y-123428814D01*
X116748538Y-123335910D01*
X116900883Y-123210883D01*
X117025910Y-123058538D01*
X117083658Y-122950500D01*
X117094056Y-122931047D01*
X117143018Y-122881203D01*
X117203414Y-122865500D01*
X118979622Y-122865500D01*
X119046661Y-122885185D01*
X119087009Y-122927500D01*
X119147465Y-123032214D01*
X119274129Y-123172888D01*
X119427265Y-123284148D01*
X119427270Y-123284151D01*
X119600192Y-123361142D01*
X119600197Y-123361144D01*
X119785354Y-123400500D01*
X119785355Y-123400500D01*
X119974644Y-123400500D01*
X119974646Y-123400500D01*
X120159803Y-123361144D01*
X120332730Y-123284151D01*
X120485871Y-123172888D01*
X120612533Y-123032216D01*
X120707179Y-122868284D01*
X120765674Y-122688256D01*
X120785460Y-122500000D01*
X126594540Y-122500000D01*
X126614326Y-122688256D01*
X126614327Y-122688259D01*
X126672818Y-122868277D01*
X126672821Y-122868284D01*
X126767467Y-123032216D01*
X126881744Y-123159133D01*
X126894129Y-123172888D01*
X127047265Y-123284148D01*
X127047270Y-123284151D01*
X127220192Y-123361142D01*
X127220197Y-123361144D01*
X127405354Y-123400500D01*
X127405355Y-123400500D01*
X127594644Y-123400500D01*
X127594646Y-123400500D01*
X127779803Y-123361144D01*
X127952730Y-123284151D01*
X128105871Y-123172888D01*
X128232533Y-123032216D01*
X128292991Y-122927500D01*
X128343558Y-122879284D01*
X128400378Y-122865500D01*
X130986586Y-122865500D01*
X131053625Y-122885185D01*
X131095944Y-122931047D01*
X131164086Y-123058532D01*
X131164090Y-123058539D01*
X131289116Y-123210883D01*
X131441460Y-123335909D01*
X131441467Y-123335913D01*
X131615266Y-123428811D01*
X131615269Y-123428811D01*
X131615273Y-123428814D01*
X131803868Y-123486024D01*
X132000000Y-123505341D01*
X132196132Y-123486024D01*
X132384727Y-123428814D01*
X132558538Y-123335910D01*
X132710883Y-123210883D01*
X132835910Y-123058538D01*
X132893658Y-122950500D01*
X132904056Y-122931047D01*
X132953018Y-122881203D01*
X133013414Y-122865500D01*
X136020090Y-122865500D01*
X136087129Y-122885185D01*
X136132884Y-122937989D01*
X136138021Y-122951182D01*
X136172818Y-123058277D01*
X136172821Y-123058284D01*
X136267467Y-123222216D01*
X136323231Y-123284148D01*
X136394129Y-123362888D01*
X136547265Y-123474148D01*
X136547270Y-123474151D01*
X136720192Y-123551142D01*
X136720197Y-123551144D01*
X136905354Y-123590500D01*
X136905355Y-123590500D01*
X137094644Y-123590500D01*
X137094646Y-123590500D01*
X137279803Y-123551144D01*
X137452730Y-123474151D01*
X137605871Y-123362888D01*
X137732533Y-123222216D01*
X137754673Y-123183868D01*
X137792991Y-123117500D01*
X137843558Y-123069284D01*
X137900378Y-123055500D01*
X140602949Y-123055500D01*
X140669988Y-123075185D01*
X140698802Y-123100835D01*
X140789116Y-123210883D01*
X140941460Y-123335909D01*
X140941467Y-123335913D01*
X141115266Y-123428811D01*
X141115269Y-123428811D01*
X141115273Y-123428814D01*
X141303868Y-123486024D01*
X141500000Y-123505341D01*
X141696132Y-123486024D01*
X141884727Y-123428814D01*
X142058538Y-123335910D01*
X142210883Y-123210883D01*
X142335910Y-123058538D01*
X142400345Y-122937989D01*
X142428811Y-122884733D01*
X142428811Y-122884732D01*
X142428814Y-122884727D01*
X142486024Y-122696132D01*
X142505341Y-122500000D01*
X148114659Y-122500000D01*
X148133975Y-122696129D01*
X148133976Y-122696132D01*
X148177797Y-122840591D01*
X148191188Y-122884733D01*
X148284086Y-123058532D01*
X148284090Y-123058539D01*
X148409116Y-123210883D01*
X148561460Y-123335909D01*
X148561467Y-123335913D01*
X148735266Y-123428811D01*
X148735269Y-123428811D01*
X148735273Y-123428814D01*
X148923868Y-123486024D01*
X149120000Y-123505341D01*
X149316132Y-123486024D01*
X149504727Y-123428814D01*
X149678538Y-123335910D01*
X149830883Y-123210883D01*
X149955910Y-123058538D01*
X150013658Y-122950500D01*
X150024056Y-122931047D01*
X150073018Y-122881203D01*
X150133414Y-122865500D01*
X153486586Y-122865500D01*
X153553625Y-122885185D01*
X153595944Y-122931047D01*
X153664086Y-123058532D01*
X153664090Y-123058539D01*
X153789116Y-123210883D01*
X153941460Y-123335909D01*
X153941467Y-123335913D01*
X154115266Y-123428811D01*
X154115269Y-123428811D01*
X154115273Y-123428814D01*
X154303868Y-123486024D01*
X154500000Y-123505341D01*
X154696132Y-123486024D01*
X154884727Y-123428814D01*
X155058538Y-123335910D01*
X155210883Y-123210883D01*
X155335910Y-123058538D01*
X155363523Y-123006879D01*
X164656672Y-123006879D01*
X164656672Y-123006880D01*
X164772821Y-123078797D01*
X164772822Y-123078798D01*
X164980195Y-123159134D01*
X165198807Y-123200000D01*
X165421193Y-123200000D01*
X165639809Y-123159133D01*
X165847168Y-123078801D01*
X165847181Y-123078795D01*
X165963326Y-123006879D01*
X165310001Y-122353553D01*
X165310000Y-122353553D01*
X164656672Y-123006879D01*
X155363523Y-123006879D01*
X155393658Y-122950500D01*
X155404056Y-122931047D01*
X155453018Y-122881203D01*
X155513414Y-122865500D01*
X157238117Y-122865500D01*
X157238119Y-122865500D01*
X157309241Y-122846443D01*
X157379090Y-122848106D01*
X157391762Y-122852936D01*
X157410197Y-122861144D01*
X157595354Y-122900500D01*
X157595355Y-122900500D01*
X157784644Y-122900500D01*
X157784646Y-122900500D01*
X157969803Y-122861144D01*
X158142730Y-122784151D01*
X158295871Y-122672888D01*
X158422533Y-122532216D01*
X158517179Y-122368284D01*
X158575674Y-122188256D01*
X158595460Y-122000000D01*
X158595460Y-121999999D01*
X164104859Y-121999999D01*
X164104859Y-122000000D01*
X164125378Y-122221439D01*
X164186240Y-122435350D01*
X164285369Y-122634428D01*
X164301137Y-122655308D01*
X164301138Y-122655308D01*
X164956447Y-122000000D01*
X164910369Y-121953922D01*
X164960000Y-121953922D01*
X164960000Y-122046078D01*
X164983852Y-122135095D01*
X165029930Y-122214905D01*
X165095095Y-122280070D01*
X165174905Y-122326148D01*
X165263922Y-122350000D01*
X165356078Y-122350000D01*
X165445095Y-122326148D01*
X165524905Y-122280070D01*
X165590070Y-122214905D01*
X165636148Y-122135095D01*
X165660000Y-122046078D01*
X165660000Y-121999999D01*
X165663553Y-121999999D01*
X165663553Y-122000000D01*
X166318861Y-122655308D01*
X166334631Y-122634425D01*
X166334633Y-122634422D01*
X166433759Y-122435350D01*
X166494621Y-122221439D01*
X166515141Y-122000000D01*
X166515141Y-121999999D01*
X166494621Y-121778560D01*
X166433759Y-121564649D01*
X166334635Y-121365580D01*
X166334630Y-121365572D01*
X166318860Y-121344690D01*
X165663553Y-121999999D01*
X165660000Y-121999999D01*
X165660000Y-121953922D01*
X165636148Y-121864905D01*
X165590070Y-121785095D01*
X165524905Y-121719930D01*
X165445095Y-121673852D01*
X165356078Y-121650000D01*
X165263922Y-121650000D01*
X165174905Y-121673852D01*
X165095095Y-121719930D01*
X165029930Y-121785095D01*
X164983852Y-121864905D01*
X164960000Y-121953922D01*
X164910369Y-121953922D01*
X164301138Y-121344691D01*
X164301137Y-121344691D01*
X164285368Y-121365574D01*
X164186240Y-121564649D01*
X164125378Y-121778560D01*
X164104859Y-121999999D01*
X158595460Y-121999999D01*
X158575674Y-121811744D01*
X158517179Y-121631716D01*
X158422533Y-121467784D01*
X158295871Y-121327112D01*
X158248766Y-121292888D01*
X158142730Y-121215848D01*
X158129064Y-121209764D01*
X158075827Y-121164514D01*
X158055506Y-121097664D01*
X158055500Y-121096485D01*
X158055500Y-120993119D01*
X164656671Y-120993119D01*
X165310000Y-121646447D01*
X165310001Y-121646447D01*
X165963327Y-120993119D01*
X165847178Y-120921202D01*
X165847177Y-120921201D01*
X165639804Y-120840865D01*
X165421193Y-120800000D01*
X165198807Y-120800000D01*
X164980195Y-120840865D01*
X164772824Y-120921200D01*
X164772823Y-120921201D01*
X164656671Y-120993119D01*
X158055500Y-120993119D01*
X158055500Y-118903515D01*
X158075185Y-118836476D01*
X158127989Y-118790721D01*
X158129066Y-118790235D01*
X158136830Y-118786777D01*
X158142730Y-118784151D01*
X158295871Y-118672888D01*
X158422533Y-118532216D01*
X158517179Y-118368284D01*
X158575674Y-118188256D01*
X158595460Y-118000000D01*
X164404540Y-118000000D01*
X164424326Y-118188256D01*
X164424327Y-118188259D01*
X164482818Y-118368277D01*
X164482821Y-118368284D01*
X164577467Y-118532216D01*
X164671915Y-118637111D01*
X164704129Y-118672888D01*
X164857265Y-118784148D01*
X164857270Y-118784151D01*
X165030192Y-118861142D01*
X165030197Y-118861144D01*
X165215354Y-118900500D01*
X165215355Y-118900500D01*
X165404644Y-118900500D01*
X165404646Y-118900500D01*
X165589803Y-118861144D01*
X165762730Y-118784151D01*
X165915871Y-118672888D01*
X166042533Y-118532216D01*
X166137179Y-118368284D01*
X166195674Y-118188256D01*
X166215460Y-118000000D01*
X166195674Y-117811744D01*
X166137179Y-117631716D01*
X166061133Y-117500000D01*
X171994659Y-117500000D01*
X172013975Y-117696129D01*
X172071188Y-117884733D01*
X172164086Y-118058532D01*
X172164090Y-118058539D01*
X172289116Y-118210883D01*
X172441460Y-118335909D01*
X172441467Y-118335913D01*
X172615266Y-118428811D01*
X172615269Y-118428811D01*
X172615273Y-118428814D01*
X172803868Y-118486024D01*
X173000000Y-118505341D01*
X173196132Y-118486024D01*
X173384727Y-118428814D01*
X173558538Y-118335910D01*
X173710883Y-118210883D01*
X173835910Y-118058538D01*
X173881016Y-117974151D01*
X173904056Y-117931047D01*
X173953018Y-117881203D01*
X174013414Y-117865500D01*
X176451881Y-117865500D01*
X178297243Y-117865500D01*
X178364282Y-117885185D01*
X178384924Y-117901819D01*
X183026054Y-122542949D01*
X183059539Y-122604272D01*
X183061111Y-122612982D01*
X183063302Y-122628222D01*
X183063303Y-122628227D01*
X183094315Y-122696132D01*
X183117118Y-122746063D01*
X183157331Y-122792472D01*
X183199026Y-122840592D01*
X183201951Y-122843967D01*
X183310931Y-122914004D01*
X183435225Y-122950499D01*
X183435227Y-122950500D01*
X183435228Y-122950500D01*
X183564773Y-122950500D01*
X183564773Y-122950499D01*
X183689069Y-122914004D01*
X183798049Y-122843967D01*
X183882882Y-122746063D01*
X183936697Y-122628226D01*
X183955133Y-122500000D01*
X183936697Y-122371774D01*
X183882882Y-122253937D01*
X183798049Y-122156033D01*
X183689069Y-122085996D01*
X183689068Y-122085995D01*
X183689064Y-122085993D01*
X183597436Y-122059090D01*
X183544689Y-122027794D01*
X178724424Y-117207529D01*
X178724422Y-117207527D01*
X178682750Y-117183467D01*
X178641079Y-117159408D01*
X178594598Y-117146954D01*
X178548119Y-117134500D01*
X178548118Y-117134500D01*
X174013414Y-117134500D01*
X173946375Y-117114815D01*
X173904056Y-117068953D01*
X173835913Y-116941467D01*
X173835909Y-116941460D01*
X173710883Y-116789116D01*
X173558539Y-116664090D01*
X173558532Y-116664086D01*
X173384733Y-116571188D01*
X173384727Y-116571186D01*
X173196132Y-116513976D01*
X173196129Y-116513975D01*
X173000000Y-116494659D01*
X172803870Y-116513975D01*
X172615266Y-116571188D01*
X172441467Y-116664086D01*
X172441460Y-116664090D01*
X172289116Y-116789116D01*
X172164090Y-116941460D01*
X172164086Y-116941467D01*
X172071188Y-117115266D01*
X172013975Y-117303870D01*
X171994659Y-117500000D01*
X166061133Y-117500000D01*
X166042533Y-117467784D01*
X165915871Y-117327112D01*
X165915870Y-117327111D01*
X165762734Y-117215851D01*
X165762729Y-117215848D01*
X165589807Y-117138857D01*
X165589802Y-117138855D01*
X165444001Y-117107865D01*
X165404646Y-117099500D01*
X165215354Y-117099500D01*
X165182897Y-117106398D01*
X165030197Y-117138855D01*
X165030192Y-117138857D01*
X164857270Y-117215848D01*
X164857265Y-117215851D01*
X164704129Y-117327111D01*
X164577466Y-117467785D01*
X164482821Y-117631715D01*
X164482818Y-117631722D01*
X164424327Y-117811740D01*
X164424326Y-117811744D01*
X164404540Y-118000000D01*
X158595460Y-118000000D01*
X158575674Y-117811744D01*
X158517179Y-117631716D01*
X158422533Y-117467784D01*
X158295871Y-117327112D01*
X158295870Y-117327111D01*
X158142734Y-117215851D01*
X158142729Y-117215848D01*
X157969807Y-117138857D01*
X157969802Y-117138855D01*
X157824001Y-117107865D01*
X157784646Y-117099500D01*
X157595354Y-117099500D01*
X157562897Y-117106398D01*
X157410197Y-117138855D01*
X157410192Y-117138857D01*
X157237270Y-117215848D01*
X157237265Y-117215851D01*
X157084129Y-117327111D01*
X156957466Y-117467785D01*
X156862821Y-117631715D01*
X156862818Y-117631722D01*
X156804327Y-117811740D01*
X156804326Y-117811744D01*
X156784540Y-118000000D01*
X156804326Y-118188256D01*
X156804327Y-118188259D01*
X156862818Y-118368277D01*
X156862821Y-118368284D01*
X156957467Y-118532216D01*
X157051915Y-118637111D01*
X157084129Y-118672888D01*
X157237268Y-118784150D01*
X157237272Y-118784152D01*
X157250934Y-118790235D01*
X157304171Y-118835484D01*
X157324494Y-118902333D01*
X157324500Y-118903515D01*
X157324500Y-121096485D01*
X157304815Y-121163524D01*
X157252011Y-121209279D01*
X157250936Y-121209764D01*
X157237269Y-121215848D01*
X157084129Y-121327111D01*
X156957466Y-121467785D01*
X156862821Y-121631715D01*
X156862818Y-121631722D01*
X156804327Y-121811740D01*
X156804326Y-121811744D01*
X156790692Y-121941467D01*
X156784540Y-122000002D01*
X156784540Y-122006498D01*
X156782641Y-122006498D01*
X156771718Y-122066258D01*
X156723990Y-122117286D01*
X156660961Y-122134500D01*
X155513414Y-122134500D01*
X155446375Y-122114815D01*
X155404056Y-122068953D01*
X155335913Y-121941467D01*
X155335909Y-121941460D01*
X155210883Y-121789116D01*
X155058539Y-121664090D01*
X155058532Y-121664086D01*
X154884733Y-121571188D01*
X154884727Y-121571186D01*
X154696132Y-121513976D01*
X154696129Y-121513975D01*
X154500000Y-121494659D01*
X154303870Y-121513975D01*
X154115266Y-121571188D01*
X153941467Y-121664086D01*
X153941460Y-121664090D01*
X153789116Y-121789116D01*
X153664090Y-121941460D01*
X153664086Y-121941467D01*
X153595944Y-122068953D01*
X153546982Y-122118797D01*
X153486586Y-122134500D01*
X150133414Y-122134500D01*
X150066375Y-122114815D01*
X150024056Y-122068953D01*
X149955913Y-121941467D01*
X149955909Y-121941460D01*
X149830883Y-121789116D01*
X149678539Y-121664090D01*
X149678532Y-121664086D01*
X149504733Y-121571188D01*
X149504727Y-121571186D01*
X149316132Y-121513976D01*
X149316129Y-121513975D01*
X149120000Y-121494659D01*
X148923870Y-121513975D01*
X148735266Y-121571188D01*
X148561467Y-121664086D01*
X148561460Y-121664090D01*
X148409116Y-121789116D01*
X148284090Y-121941460D01*
X148284086Y-121941467D01*
X148191188Y-122115266D01*
X148133975Y-122303870D01*
X148114659Y-122500000D01*
X142505341Y-122500000D01*
X142486024Y-122303868D01*
X142428814Y-122115273D01*
X142428811Y-122115269D01*
X142428811Y-122115266D01*
X142335913Y-121941467D01*
X142335909Y-121941460D01*
X142210883Y-121789116D01*
X142058539Y-121664090D01*
X142058532Y-121664086D01*
X141884733Y-121571188D01*
X141884727Y-121571186D01*
X141696132Y-121513976D01*
X141696129Y-121513975D01*
X141500000Y-121494659D01*
X141303870Y-121513975D01*
X141115266Y-121571188D01*
X140941467Y-121664086D01*
X140941460Y-121664090D01*
X140789116Y-121789116D01*
X140664090Y-121941460D01*
X140664086Y-121941467D01*
X140571187Y-122115268D01*
X140558290Y-122157784D01*
X140534413Y-122236496D01*
X140496116Y-122294934D01*
X140432304Y-122323390D01*
X140415753Y-122324500D01*
X137900378Y-122324500D01*
X137833339Y-122304815D01*
X137792991Y-122262500D01*
X137732534Y-122157785D01*
X137605870Y-122017111D01*
X137452734Y-121905851D01*
X137452729Y-121905848D01*
X137279807Y-121828857D01*
X137279802Y-121828855D01*
X137134001Y-121797865D01*
X137094646Y-121789500D01*
X136905354Y-121789500D01*
X136872897Y-121796398D01*
X136720197Y-121828855D01*
X136720192Y-121828857D01*
X136547270Y-121905848D01*
X136547265Y-121905851D01*
X136394129Y-122017111D01*
X136325374Y-122093472D01*
X136265887Y-122130121D01*
X136233224Y-122134500D01*
X133013414Y-122134500D01*
X132946375Y-122114815D01*
X132904056Y-122068953D01*
X132835913Y-121941467D01*
X132835909Y-121941460D01*
X132710883Y-121789116D01*
X132558539Y-121664090D01*
X132558532Y-121664086D01*
X132384733Y-121571188D01*
X132384727Y-121571186D01*
X132196132Y-121513976D01*
X132196129Y-121513975D01*
X132000000Y-121494659D01*
X131803870Y-121513975D01*
X131615266Y-121571188D01*
X131441467Y-121664086D01*
X131441460Y-121664090D01*
X131289116Y-121789116D01*
X131164090Y-121941460D01*
X131164086Y-121941467D01*
X131095944Y-122068953D01*
X131046982Y-122118797D01*
X130986586Y-122134500D01*
X128400378Y-122134500D01*
X128333339Y-122114815D01*
X128292991Y-122072500D01*
X128232534Y-121967785D01*
X128105870Y-121827111D01*
X127952734Y-121715851D01*
X127952729Y-121715848D01*
X127779807Y-121638857D01*
X127779802Y-121638855D01*
X127634001Y-121607865D01*
X127594646Y-121599500D01*
X127405354Y-121599500D01*
X127372897Y-121606398D01*
X127220197Y-121638855D01*
X127220192Y-121638857D01*
X127047270Y-121715848D01*
X127047265Y-121715851D01*
X126894129Y-121827111D01*
X126767466Y-121967785D01*
X126672821Y-122131715D01*
X126672818Y-122131722D01*
X126619788Y-122294934D01*
X126614326Y-122311744D01*
X126594540Y-122500000D01*
X120785460Y-122500000D01*
X120765674Y-122311744D01*
X120707179Y-122131716D01*
X120612533Y-121967784D01*
X120485871Y-121827112D01*
X120464719Y-121811744D01*
X120332734Y-121715851D01*
X120332729Y-121715848D01*
X120159807Y-121638857D01*
X120159802Y-121638855D01*
X120014001Y-121607865D01*
X119974646Y-121599500D01*
X119785354Y-121599500D01*
X119752897Y-121606398D01*
X119600197Y-121638855D01*
X119600192Y-121638857D01*
X119427270Y-121715848D01*
X119427265Y-121715851D01*
X119274129Y-121827111D01*
X119147465Y-121967785D01*
X119087009Y-122072500D01*
X119036442Y-122120716D01*
X118979622Y-122134500D01*
X117203414Y-122134500D01*
X117136375Y-122114815D01*
X117094056Y-122068953D01*
X117025913Y-121941467D01*
X117025909Y-121941460D01*
X116900883Y-121789116D01*
X116748539Y-121664090D01*
X116748532Y-121664086D01*
X116574733Y-121571188D01*
X116574727Y-121571186D01*
X116386132Y-121513976D01*
X116386129Y-121513975D01*
X116190000Y-121494659D01*
X115993870Y-121513975D01*
X115805266Y-121571188D01*
X115631467Y-121664086D01*
X115631460Y-121664090D01*
X115479116Y-121789116D01*
X115354090Y-121941460D01*
X115354086Y-121941467D01*
X115285944Y-122068953D01*
X115236982Y-122118797D01*
X115176586Y-122134500D01*
X113392757Y-122134500D01*
X113325718Y-122114815D01*
X113305076Y-122098181D01*
X111166895Y-119960000D01*
X140494659Y-119960000D01*
X140513975Y-120156129D01*
X140528984Y-120205606D01*
X140551575Y-120280080D01*
X140571188Y-120344733D01*
X140664086Y-120518532D01*
X140664090Y-120518539D01*
X140789116Y-120670883D01*
X140941460Y-120795909D01*
X140941467Y-120795913D01*
X141115266Y-120888811D01*
X141115269Y-120888811D01*
X141115273Y-120888814D01*
X141303868Y-120946024D01*
X141500000Y-120965341D01*
X141696132Y-120946024D01*
X141884727Y-120888814D01*
X141958174Y-120849556D01*
X141998971Y-120827749D01*
X142058538Y-120795910D01*
X142210883Y-120670883D01*
X142335910Y-120518538D01*
X142395893Y-120406317D01*
X142428811Y-120344733D01*
X142428811Y-120344732D01*
X142428814Y-120344727D01*
X142486024Y-120156132D01*
X142505341Y-119960000D01*
X142486024Y-119763868D01*
X142469683Y-119709999D01*
X147841127Y-119709999D01*
X147841128Y-119710000D01*
X148804314Y-119710000D01*
X148799920Y-119714394D01*
X148747259Y-119805606D01*
X148720000Y-119907339D01*
X148720000Y-120012661D01*
X148747259Y-120114394D01*
X148799920Y-120205606D01*
X148804314Y-120210000D01*
X147841128Y-120210000D01*
X147893730Y-120406317D01*
X147893734Y-120406326D01*
X147989865Y-120612482D01*
X148120342Y-120798820D01*
X148281179Y-120959657D01*
X148467517Y-121090134D01*
X148673673Y-121186265D01*
X148673682Y-121186269D01*
X148869999Y-121238872D01*
X148870000Y-121238871D01*
X148870000Y-120275686D01*
X148874394Y-120280080D01*
X148965606Y-120332741D01*
X149067339Y-120360000D01*
X149172661Y-120360000D01*
X149274394Y-120332741D01*
X149365606Y-120280080D01*
X149370000Y-120275686D01*
X149370000Y-121238872D01*
X149566317Y-121186269D01*
X149566326Y-121186265D01*
X149772482Y-121090134D01*
X149958820Y-120959657D01*
X150119657Y-120798820D01*
X150250134Y-120612482D01*
X150346265Y-120406326D01*
X150346269Y-120406317D01*
X150398872Y-120210000D01*
X149435686Y-120210000D01*
X149440080Y-120205606D01*
X149492741Y-120114394D01*
X149520000Y-120012661D01*
X149520000Y-119907339D01*
X149492741Y-119805606D01*
X149440080Y-119714394D01*
X149435686Y-119710000D01*
X150398872Y-119710000D01*
X150398872Y-119709999D01*
X150346269Y-119513682D01*
X150346265Y-119513673D01*
X150250134Y-119307517D01*
X150119657Y-119121179D01*
X149958820Y-118960342D01*
X149772482Y-118829865D01*
X149566328Y-118733734D01*
X149370000Y-118681127D01*
X149370000Y-119644314D01*
X149365606Y-119639920D01*
X149274394Y-119587259D01*
X149172661Y-119560000D01*
X149067339Y-119560000D01*
X148965606Y-119587259D01*
X148874394Y-119639920D01*
X148870000Y-119644314D01*
X148870000Y-118681127D01*
X148673671Y-118733734D01*
X148467517Y-118829865D01*
X148281179Y-118960342D01*
X148120342Y-119121179D01*
X147989865Y-119307517D01*
X147893734Y-119513673D01*
X147893730Y-119513682D01*
X147841127Y-119709999D01*
X142469683Y-119709999D01*
X142428814Y-119575273D01*
X142428811Y-119575269D01*
X142428811Y-119575266D01*
X142335913Y-119401467D01*
X142335909Y-119401460D01*
X142210883Y-119249116D01*
X142058539Y-119124090D01*
X142058532Y-119124086D01*
X141884733Y-119031188D01*
X141884727Y-119031186D01*
X141696132Y-118973976D01*
X141696129Y-118973975D01*
X141500000Y-118954659D01*
X141303870Y-118973975D01*
X141115266Y-119031188D01*
X140941467Y-119124086D01*
X140941460Y-119124090D01*
X140789116Y-119249116D01*
X140664090Y-119401460D01*
X140664086Y-119401467D01*
X140571188Y-119575266D01*
X140513975Y-119763870D01*
X140494659Y-119960000D01*
X111166895Y-119960000D01*
X110895133Y-119688238D01*
X110861648Y-119626915D01*
X110864883Y-119562239D01*
X110885674Y-119498256D01*
X110905460Y-119310000D01*
X110885674Y-119121744D01*
X110827179Y-118941716D01*
X110732533Y-118777784D01*
X110605871Y-118637112D01*
X110605870Y-118637111D01*
X110452734Y-118525851D01*
X110452729Y-118525848D01*
X110279807Y-118448857D01*
X110279802Y-118448855D01*
X110134001Y-118417865D01*
X110094646Y-118409500D01*
X109905354Y-118409500D01*
X109872897Y-118416398D01*
X109720197Y-118448855D01*
X109720192Y-118448857D01*
X109547270Y-118525848D01*
X109547265Y-118525851D01*
X109394129Y-118637111D01*
X109267466Y-118777785D01*
X109172821Y-118941715D01*
X109172818Y-118941722D01*
X109114327Y-119121740D01*
X109114326Y-119121744D01*
X109094540Y-119310000D01*
X91500500Y-119310000D01*
X91500500Y-113500000D01*
X178494659Y-113500000D01*
X178513975Y-113696129D01*
X178513976Y-113696132D01*
X178551575Y-113820080D01*
X178571188Y-113884733D01*
X178664086Y-114058532D01*
X178664090Y-114058539D01*
X178789116Y-114210883D01*
X178941460Y-114335909D01*
X178941467Y-114335913D01*
X179115266Y-114428811D01*
X179115269Y-114428811D01*
X179115273Y-114428814D01*
X179303868Y-114486024D01*
X179500000Y-114505341D01*
X179696132Y-114486024D01*
X179834467Y-114444059D01*
X179904334Y-114443436D01*
X179958144Y-114475039D01*
X182965578Y-117482473D01*
X183048922Y-117530592D01*
X183141881Y-117555500D01*
X183238119Y-117555500D01*
X185599622Y-117555500D01*
X185666661Y-117575185D01*
X185707009Y-117617500D01*
X185767465Y-117722214D01*
X185894129Y-117862888D01*
X186047265Y-117974148D01*
X186047270Y-117974151D01*
X186220192Y-118051142D01*
X186220197Y-118051144D01*
X186405354Y-118090500D01*
X186405355Y-118090500D01*
X186594644Y-118090500D01*
X186594646Y-118090500D01*
X186779803Y-118051144D01*
X186952730Y-117974151D01*
X187105871Y-117862888D01*
X187232533Y-117722216D01*
X187327179Y-117558284D01*
X187385674Y-117378256D01*
X187405460Y-117190000D01*
X187385674Y-117001744D01*
X187327179Y-116821716D01*
X187232533Y-116657784D01*
X187105871Y-116517112D01*
X187101555Y-116513976D01*
X186952734Y-116405851D01*
X186952729Y-116405848D01*
X186779807Y-116328857D01*
X186779802Y-116328855D01*
X186634001Y-116297865D01*
X186594646Y-116289500D01*
X186405354Y-116289500D01*
X186372897Y-116296398D01*
X186220197Y-116328855D01*
X186220192Y-116328857D01*
X186047270Y-116405848D01*
X186047265Y-116405851D01*
X185894129Y-116517111D01*
X185767465Y-116657785D01*
X185707009Y-116762500D01*
X185656442Y-116810716D01*
X185599622Y-116824500D01*
X183392757Y-116824500D01*
X183325718Y-116804815D01*
X183305076Y-116788181D01*
X180475039Y-113958144D01*
X180441554Y-113896821D01*
X180444060Y-113834467D01*
X180486024Y-113696132D01*
X180505341Y-113500000D01*
X180486024Y-113303868D01*
X180469683Y-113249999D01*
X188221127Y-113249999D01*
X188221128Y-113250000D01*
X189184314Y-113250000D01*
X189179920Y-113254394D01*
X189127259Y-113345606D01*
X189100000Y-113447339D01*
X189100000Y-113552661D01*
X189127259Y-113654394D01*
X189179920Y-113745606D01*
X189184314Y-113750000D01*
X188221128Y-113750000D01*
X188273730Y-113946317D01*
X188273734Y-113946326D01*
X188369865Y-114152482D01*
X188500342Y-114338820D01*
X188661179Y-114499657D01*
X188847517Y-114630134D01*
X189053673Y-114726265D01*
X189053682Y-114726269D01*
X189249999Y-114778872D01*
X189250000Y-114778871D01*
X189250000Y-113815686D01*
X189254394Y-113820080D01*
X189345606Y-113872741D01*
X189447339Y-113900000D01*
X189552661Y-113900000D01*
X189654394Y-113872741D01*
X189745606Y-113820080D01*
X189750000Y-113815686D01*
X189750000Y-114778872D01*
X189946317Y-114726269D01*
X189946326Y-114726265D01*
X190152482Y-114630134D01*
X190338820Y-114499657D01*
X190499657Y-114338820D01*
X190630134Y-114152482D01*
X190726265Y-113946326D01*
X190726269Y-113946317D01*
X190778872Y-113750000D01*
X189815686Y-113750000D01*
X189820080Y-113745606D01*
X189872741Y-113654394D01*
X189900000Y-113552661D01*
X189900000Y-113447339D01*
X189872741Y-113345606D01*
X189820080Y-113254394D01*
X189815686Y-113250000D01*
X190778872Y-113250000D01*
X190778872Y-113249999D01*
X190726269Y-113053682D01*
X190726265Y-113053673D01*
X190630134Y-112847517D01*
X190499657Y-112661179D01*
X190338820Y-112500342D01*
X190152482Y-112369865D01*
X189946328Y-112273734D01*
X189750000Y-112221127D01*
X189750000Y-113184314D01*
X189745606Y-113179920D01*
X189654394Y-113127259D01*
X189552661Y-113100000D01*
X189447339Y-113100000D01*
X189345606Y-113127259D01*
X189254394Y-113179920D01*
X189250000Y-113184314D01*
X189250000Y-112221127D01*
X189053671Y-112273734D01*
X188847517Y-112369865D01*
X188661179Y-112500342D01*
X188500342Y-112661179D01*
X188369865Y-112847517D01*
X188273734Y-113053673D01*
X188273730Y-113053682D01*
X188221127Y-113249999D01*
X180469683Y-113249999D01*
X180428814Y-113115273D01*
X180428811Y-113115269D01*
X180428811Y-113115266D01*
X180335913Y-112941467D01*
X180335909Y-112941460D01*
X180210883Y-112789116D01*
X180058539Y-112664090D01*
X180058532Y-112664086D01*
X179884733Y-112571188D01*
X179884727Y-112571186D01*
X179696132Y-112513976D01*
X179696129Y-112513975D01*
X179500000Y-112494659D01*
X179303870Y-112513975D01*
X179115266Y-112571188D01*
X178941467Y-112664086D01*
X178941460Y-112664090D01*
X178789116Y-112789116D01*
X178664090Y-112941460D01*
X178664086Y-112941467D01*
X178571188Y-113115266D01*
X178513975Y-113303870D01*
X178494659Y-113500000D01*
X91500500Y-113500000D01*
X91500500Y-107999997D01*
X98695034Y-107999997D01*
X98695034Y-108000002D01*
X98714858Y-108226599D01*
X98714860Y-108226610D01*
X98773730Y-108446317D01*
X98773735Y-108446331D01*
X98869863Y-108652478D01*
X98920974Y-108725472D01*
X99600000Y-108046446D01*
X99600000Y-108052661D01*
X99627259Y-108154394D01*
X99679920Y-108245606D01*
X99754394Y-108320080D01*
X99845606Y-108372741D01*
X99947339Y-108400000D01*
X99953553Y-108400000D01*
X99274526Y-109079025D01*
X99347513Y-109130132D01*
X99347521Y-109130136D01*
X99553668Y-109226264D01*
X99553682Y-109226269D01*
X99773389Y-109285139D01*
X99773400Y-109285141D01*
X99999998Y-109304966D01*
X100000002Y-109304966D01*
X100226599Y-109285141D01*
X100226610Y-109285139D01*
X100446317Y-109226269D01*
X100446331Y-109226264D01*
X100652478Y-109130136D01*
X100725471Y-109079024D01*
X100046447Y-108400000D01*
X100052661Y-108400000D01*
X100154394Y-108372741D01*
X100245606Y-108320080D01*
X100320080Y-108245606D01*
X100372741Y-108154394D01*
X100400000Y-108052661D01*
X100400000Y-108046447D01*
X101079024Y-108725471D01*
X101130136Y-108652478D01*
X101226264Y-108446331D01*
X101226269Y-108446317D01*
X101285139Y-108226610D01*
X101285141Y-108226599D01*
X101304966Y-108000002D01*
X101304966Y-107999997D01*
X101285141Y-107773400D01*
X101285139Y-107773389D01*
X101226269Y-107553682D01*
X101226264Y-107553668D01*
X101130136Y-107347521D01*
X101130132Y-107347513D01*
X101079025Y-107274526D01*
X100400000Y-107953551D01*
X100400000Y-107947339D01*
X100372741Y-107845606D01*
X100320080Y-107754394D01*
X100245606Y-107679920D01*
X100154394Y-107627259D01*
X100052661Y-107600000D01*
X100046448Y-107600000D01*
X100725472Y-106920974D01*
X100652478Y-106869863D01*
X100446331Y-106773735D01*
X100446317Y-106773730D01*
X100226610Y-106714860D01*
X100226599Y-106714858D01*
X100000002Y-106695034D01*
X99999998Y-106695034D01*
X99773400Y-106714858D01*
X99773389Y-106714860D01*
X99553682Y-106773730D01*
X99553673Y-106773734D01*
X99347516Y-106869866D01*
X99347512Y-106869868D01*
X99274526Y-106920973D01*
X99274526Y-106920974D01*
X99953553Y-107600000D01*
X99947339Y-107600000D01*
X99845606Y-107627259D01*
X99754394Y-107679920D01*
X99679920Y-107754394D01*
X99627259Y-107845606D01*
X99600000Y-107947339D01*
X99600000Y-107953552D01*
X98920974Y-107274526D01*
X98920973Y-107274526D01*
X98869868Y-107347512D01*
X98869866Y-107347516D01*
X98773734Y-107553673D01*
X98773730Y-107553682D01*
X98714860Y-107773389D01*
X98714858Y-107773400D01*
X98695034Y-107999997D01*
X91500500Y-107999997D01*
X91500500Y-104500000D01*
X108994659Y-104500000D01*
X109013975Y-104696129D01*
X109071188Y-104884733D01*
X109164086Y-105058532D01*
X109164090Y-105058539D01*
X109289116Y-105210883D01*
X109441460Y-105335909D01*
X109441463Y-105335911D01*
X109485340Y-105359363D01*
X109568953Y-105404055D01*
X109618797Y-105453016D01*
X109634500Y-105513413D01*
X109634500Y-106986586D01*
X109614815Y-107053625D01*
X109568953Y-107095944D01*
X109441467Y-107164086D01*
X109441460Y-107164090D01*
X109289116Y-107289116D01*
X109164090Y-107441460D01*
X109164086Y-107441467D01*
X109071188Y-107615266D01*
X109013975Y-107803870D01*
X108994659Y-108000000D01*
X109013975Y-108196129D01*
X109013976Y-108196132D01*
X109061729Y-108353553D01*
X109071188Y-108384733D01*
X109164086Y-108558532D01*
X109164090Y-108558539D01*
X109289116Y-108710883D01*
X109441460Y-108835909D01*
X109441463Y-108835911D01*
X109485340Y-108859363D01*
X109568953Y-108904055D01*
X109618797Y-108953016D01*
X109634500Y-109013413D01*
X109634500Y-110786485D01*
X109614815Y-110853524D01*
X109562011Y-110899279D01*
X109560936Y-110899764D01*
X109547269Y-110905848D01*
X109394129Y-111017111D01*
X109267466Y-111157785D01*
X109172821Y-111321715D01*
X109172818Y-111321722D01*
X109114327Y-111501740D01*
X109114326Y-111501744D01*
X109094540Y-111690000D01*
X109114326Y-111878256D01*
X109114327Y-111878259D01*
X109172818Y-112058277D01*
X109172821Y-112058284D01*
X109267467Y-112222216D01*
X109361915Y-112327111D01*
X109394129Y-112362888D01*
X109547265Y-112474148D01*
X109547270Y-112474151D01*
X109720192Y-112551142D01*
X109720197Y-112551144D01*
X109905354Y-112590500D01*
X109905355Y-112590500D01*
X110094644Y-112590500D01*
X110094646Y-112590500D01*
X110279803Y-112551144D01*
X110452730Y-112474151D01*
X110605871Y-112362888D01*
X110732533Y-112222216D01*
X110827179Y-112058284D01*
X110885674Y-111878256D01*
X110905460Y-111690000D01*
X110885674Y-111501744D01*
X110827179Y-111321716D01*
X110732533Y-111157784D01*
X110605871Y-111017112D01*
X110605870Y-111017111D01*
X110452730Y-110905848D01*
X110439064Y-110899764D01*
X110385827Y-110854514D01*
X110365506Y-110787664D01*
X110365500Y-110786485D01*
X110365500Y-109013413D01*
X110385185Y-108946374D01*
X110431045Y-108904056D01*
X110558538Y-108835910D01*
X110710883Y-108710883D01*
X110835910Y-108558538D01*
X110867199Y-108500000D01*
X207494659Y-108500000D01*
X207513975Y-108696129D01*
X207513976Y-108696132D01*
X207556377Y-108835910D01*
X207571188Y-108884733D01*
X207664086Y-109058532D01*
X207664090Y-109058539D01*
X207789116Y-109210883D01*
X207941460Y-109335909D01*
X207941463Y-109335911D01*
X207985340Y-109359363D01*
X208068953Y-109404055D01*
X208118797Y-109453016D01*
X208134500Y-109513413D01*
X208134500Y-112096485D01*
X208114815Y-112163524D01*
X208062011Y-112209279D01*
X208060936Y-112209764D01*
X208047269Y-112215848D01*
X207894129Y-112327111D01*
X207767466Y-112467785D01*
X207672821Y-112631715D01*
X207672818Y-112631722D01*
X207621678Y-112789116D01*
X207614326Y-112811744D01*
X207594540Y-113000000D01*
X207614326Y-113188256D01*
X207614327Y-113188259D01*
X207672818Y-113368277D01*
X207672821Y-113368284D01*
X207767467Y-113532216D01*
X207785876Y-113552661D01*
X207894129Y-113672888D01*
X208047265Y-113784148D01*
X208047270Y-113784151D01*
X208220192Y-113861142D01*
X208220197Y-113861144D01*
X208405354Y-113900500D01*
X208405355Y-113900500D01*
X208594644Y-113900500D01*
X208594646Y-113900500D01*
X208779803Y-113861144D01*
X208952730Y-113784151D01*
X209105871Y-113672888D01*
X209232533Y-113532216D01*
X209327179Y-113368284D01*
X209385674Y-113188256D01*
X209405460Y-113000000D01*
X209385674Y-112811744D01*
X209327179Y-112631716D01*
X209232533Y-112467784D01*
X209105871Y-112327112D01*
X209105870Y-112327111D01*
X208952730Y-112215848D01*
X208939064Y-112209764D01*
X208885827Y-112164514D01*
X208865506Y-112097664D01*
X208865500Y-112096485D01*
X208865500Y-109513413D01*
X208885185Y-109446374D01*
X208931045Y-109404056D01*
X209058538Y-109335910D01*
X209210883Y-109210883D01*
X209335910Y-109058538D01*
X209399270Y-108940000D01*
X218823505Y-108940000D01*
X218876239Y-109125349D01*
X218975368Y-109324425D01*
X219109391Y-109501900D01*
X219273738Y-109651721D01*
X219462820Y-109768797D01*
X219462822Y-109768798D01*
X219670195Y-109849135D01*
X219750000Y-109864052D01*
X220250000Y-109864052D01*
X220329804Y-109849135D01*
X220537177Y-109768798D01*
X220537179Y-109768797D01*
X220726261Y-109651721D01*
X220890608Y-109501900D01*
X221024631Y-109324425D01*
X221123760Y-109125349D01*
X221176495Y-108940000D01*
X220250000Y-108940000D01*
X220250000Y-109864052D01*
X219750000Y-109864052D01*
X219750000Y-108940000D01*
X218823505Y-108940000D01*
X209399270Y-108940000D01*
X209418029Y-108904905D01*
X209428811Y-108884733D01*
X209428811Y-108884732D01*
X209428814Y-108884727D01*
X209486024Y-108696132D01*
X209491166Y-108643922D01*
X219650000Y-108643922D01*
X219650000Y-108736078D01*
X219673852Y-108825095D01*
X219719930Y-108904905D01*
X219785095Y-108970070D01*
X219864905Y-109016148D01*
X219953922Y-109040000D01*
X220046078Y-109040000D01*
X220135095Y-109016148D01*
X220214905Y-108970070D01*
X220280070Y-108904905D01*
X220326148Y-108825095D01*
X220350000Y-108736078D01*
X220350000Y-108643922D01*
X220326148Y-108554905D01*
X220280070Y-108475095D01*
X220244975Y-108440000D01*
X220250000Y-108440000D01*
X221176495Y-108440000D01*
X221123760Y-108254650D01*
X221024631Y-108055574D01*
X220890608Y-107878099D01*
X220726261Y-107728278D01*
X220537179Y-107611202D01*
X220537177Y-107611201D01*
X220329799Y-107530864D01*
X220250000Y-107515946D01*
X220250000Y-108440000D01*
X220244975Y-108440000D01*
X220214905Y-108409930D01*
X220135095Y-108363852D01*
X220046078Y-108340000D01*
X219953922Y-108340000D01*
X219864905Y-108363852D01*
X219785095Y-108409930D01*
X219719930Y-108475095D01*
X219673852Y-108554905D01*
X219650000Y-108643922D01*
X209491166Y-108643922D01*
X209505341Y-108500000D01*
X209499432Y-108440000D01*
X218823505Y-108440000D01*
X219750000Y-108440000D01*
X219750000Y-107515946D01*
X219670200Y-107530864D01*
X219462822Y-107611201D01*
X219462820Y-107611202D01*
X219273738Y-107728278D01*
X219109391Y-107878099D01*
X218975368Y-108055574D01*
X218876239Y-108254650D01*
X218823505Y-108440000D01*
X209499432Y-108440000D01*
X209486024Y-108303868D01*
X209444058Y-108165528D01*
X209443436Y-108095664D01*
X209475037Y-108041856D01*
X210615076Y-106901819D01*
X210676399Y-106868334D01*
X210702757Y-106865500D01*
X212486586Y-106865500D01*
X212553625Y-106885185D01*
X212595944Y-106931047D01*
X212664086Y-107058532D01*
X212664090Y-107058539D01*
X212789116Y-107210883D01*
X212941460Y-107335909D01*
X212941467Y-107335913D01*
X213115266Y-107428811D01*
X213115269Y-107428811D01*
X213115273Y-107428814D01*
X213303868Y-107486024D01*
X213500000Y-107505341D01*
X213696132Y-107486024D01*
X213884727Y-107428814D01*
X214058538Y-107335910D01*
X214210883Y-107210883D01*
X214335910Y-107058538D01*
X214382362Y-106971632D01*
X214428811Y-106884733D01*
X214428811Y-106884732D01*
X214428814Y-106884727D01*
X214486024Y-106696132D01*
X214505341Y-106500000D01*
X214486024Y-106303868D01*
X214428814Y-106115273D01*
X214428811Y-106115269D01*
X214428811Y-106115266D01*
X214335913Y-105941467D01*
X214335909Y-105941460D01*
X214210883Y-105789116D01*
X214058539Y-105664090D01*
X214058532Y-105664086D01*
X213884733Y-105571188D01*
X213884727Y-105571186D01*
X213696132Y-105513976D01*
X213696129Y-105513975D01*
X213500000Y-105494659D01*
X213303870Y-105513975D01*
X213115266Y-105571188D01*
X212941467Y-105664086D01*
X212941460Y-105664090D01*
X212789116Y-105789116D01*
X212664090Y-105941460D01*
X212664086Y-105941467D01*
X212595944Y-106068953D01*
X212546982Y-106118797D01*
X212486586Y-106134500D01*
X210451881Y-106134500D01*
X210358920Y-106159408D01*
X210275578Y-106207527D01*
X210275575Y-106207529D01*
X208958143Y-107524960D01*
X208896820Y-107558445D01*
X208834468Y-107555940D01*
X208696132Y-107513976D01*
X208696129Y-107513975D01*
X208500000Y-107494659D01*
X208303870Y-107513975D01*
X208115266Y-107571188D01*
X207941467Y-107664086D01*
X207941460Y-107664090D01*
X207789116Y-107789116D01*
X207664090Y-107941460D01*
X207664086Y-107941467D01*
X207571188Y-108115266D01*
X207513975Y-108303870D01*
X207494659Y-108500000D01*
X110867199Y-108500000D01*
X110915343Y-108409930D01*
X110928811Y-108384733D01*
X110928811Y-108384732D01*
X110928814Y-108384727D01*
X110986024Y-108196132D01*
X111005341Y-108000000D01*
X110986024Y-107803868D01*
X110928814Y-107615273D01*
X110928811Y-107615269D01*
X110928811Y-107615266D01*
X110835913Y-107441467D01*
X110835909Y-107441460D01*
X110710883Y-107289116D01*
X110558539Y-107164090D01*
X110558532Y-107164086D01*
X110431047Y-107095944D01*
X110381203Y-107046982D01*
X110365500Y-106986586D01*
X110365500Y-105513413D01*
X110385185Y-105446374D01*
X110431045Y-105404056D01*
X110558538Y-105335910D01*
X110710883Y-105210883D01*
X110835910Y-105058538D01*
X110928814Y-104884727D01*
X110986024Y-104696132D01*
X111005341Y-104500000D01*
X110986024Y-104303868D01*
X110928814Y-104115273D01*
X110928811Y-104115269D01*
X110928811Y-104115266D01*
X110835913Y-103941467D01*
X110835909Y-103941460D01*
X110710883Y-103789116D01*
X110558539Y-103664090D01*
X110558532Y-103664086D01*
X110384733Y-103571188D01*
X110384727Y-103571186D01*
X110196132Y-103513976D01*
X110196129Y-103513975D01*
X110000000Y-103494659D01*
X109803870Y-103513975D01*
X109615266Y-103571188D01*
X109441467Y-103664086D01*
X109441460Y-103664090D01*
X109289116Y-103789116D01*
X109164090Y-103941460D01*
X109164086Y-103941467D01*
X109071188Y-104115266D01*
X109013975Y-104303870D01*
X108994659Y-104500000D01*
X91500500Y-104500000D01*
X91500500Y-98500000D01*
X207494659Y-98500000D01*
X207513975Y-98696129D01*
X207571188Y-98884733D01*
X207664086Y-99058532D01*
X207664090Y-99058539D01*
X207789116Y-99210883D01*
X207941460Y-99335909D01*
X207941467Y-99335913D01*
X208115266Y-99428811D01*
X208115269Y-99428811D01*
X208115273Y-99428814D01*
X208303868Y-99486024D01*
X208500000Y-99505341D01*
X208696132Y-99486024D01*
X208884727Y-99428814D01*
X209058538Y-99335910D01*
X209210883Y-99210883D01*
X209335910Y-99058538D01*
X209428814Y-98884727D01*
X209486024Y-98696132D01*
X209505341Y-98500000D01*
X209486024Y-98303868D01*
X209428814Y-98115273D01*
X209428811Y-98115269D01*
X209428811Y-98115266D01*
X209335913Y-97941467D01*
X209335909Y-97941460D01*
X209210883Y-97789116D01*
X209058539Y-97664090D01*
X209058532Y-97664086D01*
X208931047Y-97595944D01*
X208881203Y-97546982D01*
X208865500Y-97486586D01*
X208865500Y-96213515D01*
X208885185Y-96146476D01*
X208937989Y-96100721D01*
X208939066Y-96100235D01*
X208946830Y-96096777D01*
X208952730Y-96094151D01*
X209105871Y-95982888D01*
X209232533Y-95842216D01*
X209327179Y-95678284D01*
X209385674Y-95498256D01*
X209405460Y-95310000D01*
X209385674Y-95121744D01*
X209327179Y-94941716D01*
X209232533Y-94777784D01*
X209105871Y-94637112D01*
X209105870Y-94637111D01*
X208952734Y-94525851D01*
X208952729Y-94525848D01*
X208779807Y-94448857D01*
X208779802Y-94448855D01*
X208634001Y-94417865D01*
X208594646Y-94409500D01*
X208405354Y-94409500D01*
X208372897Y-94416398D01*
X208220197Y-94448855D01*
X208220192Y-94448857D01*
X208047270Y-94525848D01*
X208047265Y-94525851D01*
X207894129Y-94637111D01*
X207767466Y-94777785D01*
X207672821Y-94941715D01*
X207672818Y-94941722D01*
X207614327Y-95121740D01*
X207614326Y-95121744D01*
X207594540Y-95310000D01*
X207614326Y-95498256D01*
X207614327Y-95498259D01*
X207672818Y-95678277D01*
X207672821Y-95678284D01*
X207767467Y-95842216D01*
X207894129Y-95982888D01*
X208047268Y-96094150D01*
X208047272Y-96094152D01*
X208060934Y-96100235D01*
X208114171Y-96145484D01*
X208134494Y-96212333D01*
X208134500Y-96213515D01*
X208134500Y-97486586D01*
X208114815Y-97553625D01*
X208068953Y-97595944D01*
X207941467Y-97664086D01*
X207941460Y-97664090D01*
X207789116Y-97789116D01*
X207664090Y-97941460D01*
X207664086Y-97941467D01*
X207571188Y-98115266D01*
X207513975Y-98303870D01*
X207494659Y-98500000D01*
X91500500Y-98500000D01*
X91500500Y-92006879D01*
X101846672Y-92006879D01*
X101846672Y-92006880D01*
X101962821Y-92078797D01*
X101962822Y-92078798D01*
X102170195Y-92159134D01*
X102388807Y-92200000D01*
X102611193Y-92200000D01*
X102829809Y-92159133D01*
X103037168Y-92078801D01*
X103037181Y-92078795D01*
X103153326Y-92006879D01*
X102500001Y-91353553D01*
X102500000Y-91353553D01*
X101846672Y-92006879D01*
X91500500Y-92006879D01*
X91500500Y-90999999D01*
X101294859Y-90999999D01*
X101294859Y-91000000D01*
X101315378Y-91221439D01*
X101376240Y-91435350D01*
X101475369Y-91634428D01*
X101491137Y-91655308D01*
X101491138Y-91655308D01*
X102146447Y-91000000D01*
X102100369Y-90953922D01*
X102150000Y-90953922D01*
X102150000Y-91046078D01*
X102173852Y-91135095D01*
X102219930Y-91214905D01*
X102285095Y-91280070D01*
X102364905Y-91326148D01*
X102453922Y-91350000D01*
X102546078Y-91350000D01*
X102635095Y-91326148D01*
X102714905Y-91280070D01*
X102780070Y-91214905D01*
X102826148Y-91135095D01*
X102850000Y-91046078D01*
X102850000Y-90999999D01*
X102853553Y-90999999D01*
X102853553Y-91000000D01*
X103508861Y-91655308D01*
X103524631Y-91634425D01*
X103524633Y-91634422D01*
X103623759Y-91435350D01*
X103684621Y-91221439D01*
X103705141Y-91000000D01*
X103705141Y-90999999D01*
X103684621Y-90778560D01*
X103623759Y-90564649D01*
X103524635Y-90365580D01*
X103524630Y-90365572D01*
X103508860Y-90344690D01*
X102853553Y-90999999D01*
X102850000Y-90999999D01*
X102850000Y-90953922D01*
X102826148Y-90864905D01*
X102780070Y-90785095D01*
X102714905Y-90719930D01*
X102635095Y-90673852D01*
X102546078Y-90650000D01*
X102453922Y-90650000D01*
X102364905Y-90673852D01*
X102285095Y-90719930D01*
X102219930Y-90785095D01*
X102173852Y-90864905D01*
X102150000Y-90953922D01*
X102100369Y-90953922D01*
X101491138Y-90344691D01*
X101491137Y-90344691D01*
X101475368Y-90365574D01*
X101376240Y-90564649D01*
X101315378Y-90778560D01*
X101294859Y-90999999D01*
X91500500Y-90999999D01*
X91500500Y-89993119D01*
X101846671Y-89993119D01*
X102500000Y-90646447D01*
X102500001Y-90646447D01*
X103153327Y-89993119D01*
X103037178Y-89921202D01*
X103037177Y-89921201D01*
X102829804Y-89840865D01*
X102611193Y-89800000D01*
X102388807Y-89800000D01*
X102170195Y-89840865D01*
X101962824Y-89921200D01*
X101962823Y-89921201D01*
X101846671Y-89993119D01*
X91500500Y-89993119D01*
X91500500Y-68850992D01*
X105122559Y-68850992D01*
X105241230Y-68914423D01*
X105426907Y-68970748D01*
X105620000Y-68989765D01*
X105813092Y-68970748D01*
X105998772Y-68914422D01*
X105998774Y-68914422D01*
X106117438Y-68850992D01*
X106117439Y-68850991D01*
X105620001Y-68353553D01*
X105620000Y-68353553D01*
X105122559Y-68850992D01*
X91500500Y-68850992D01*
X91500500Y-67147844D01*
X103910000Y-67147844D01*
X103916401Y-67207372D01*
X103916403Y-67207379D01*
X103966645Y-67342086D01*
X103966649Y-67342093D01*
X104052809Y-67457187D01*
X104052812Y-67457190D01*
X104167906Y-67543350D01*
X104167913Y-67543354D01*
X104302620Y-67593596D01*
X104302627Y-67593598D01*
X104362155Y-67599999D01*
X104362172Y-67600000D01*
X104544822Y-67600000D01*
X104611861Y-67619685D01*
X104657616Y-67672489D01*
X104667560Y-67741647D01*
X104663482Y-67759996D01*
X104649252Y-67806904D01*
X104630234Y-68000000D01*
X104649251Y-68193092D01*
X104705576Y-68378769D01*
X104769007Y-68497438D01*
X105312195Y-67954250D01*
X105390000Y-67954250D01*
X105390000Y-68045750D01*
X105425015Y-68130285D01*
X105489715Y-68194985D01*
X105574250Y-68230000D01*
X105665750Y-68230000D01*
X105750285Y-68194985D01*
X105814985Y-68130285D01*
X105850000Y-68045750D01*
X105850000Y-67954250D01*
X105814985Y-67869715D01*
X105750285Y-67805015D01*
X105689893Y-67780000D01*
X105753552Y-67780000D01*
X106470991Y-68497439D01*
X106470992Y-68497438D01*
X106534422Y-68378774D01*
X106534422Y-68378772D01*
X106590748Y-68193092D01*
X106609765Y-68000000D01*
X106590747Y-67806904D01*
X106576518Y-67759996D01*
X106575894Y-67690129D01*
X106613141Y-67631016D01*
X106676435Y-67601425D01*
X106695178Y-67600000D01*
X106877828Y-67600000D01*
X106877844Y-67599999D01*
X106937372Y-67593598D01*
X106937379Y-67593596D01*
X107072086Y-67543354D01*
X107072093Y-67543350D01*
X107187187Y-67457190D01*
X107187190Y-67457187D01*
X107273350Y-67342093D01*
X107273354Y-67342086D01*
X107323596Y-67207379D01*
X107323598Y-67207372D01*
X107329999Y-67147844D01*
X107330000Y-67147827D01*
X107330000Y-64810000D01*
X105870000Y-64810000D01*
X105870000Y-67571638D01*
X105850315Y-67638677D01*
X105850000Y-67639067D01*
X105850000Y-67656000D01*
X105830315Y-67723039D01*
X105777511Y-67768794D01*
X105756281Y-67773412D01*
X105753552Y-67780000D01*
X105689893Y-67780000D01*
X105665750Y-67770000D01*
X105574250Y-67770000D01*
X105489715Y-67805015D01*
X105425015Y-67869715D01*
X105390000Y-67954250D01*
X105312195Y-67954250D01*
X105486446Y-67779999D01*
X105482631Y-67770789D01*
X105446961Y-67760315D01*
X105401206Y-67707511D01*
X105390000Y-67656000D01*
X105390000Y-67629433D01*
X105372834Y-67597996D01*
X105370000Y-67571638D01*
X105370000Y-64810000D01*
X103910000Y-64810000D01*
X103910000Y-67147844D01*
X91500500Y-67147844D01*
X91500500Y-64504066D01*
X91500765Y-64495956D01*
X91501794Y-64480252D01*
X91517075Y-64247102D01*
X91519190Y-64231048D01*
X91567045Y-63990462D01*
X91571243Y-63974797D01*
X91594337Y-63906762D01*
X91650093Y-63742512D01*
X91656291Y-63727547D01*
X91764790Y-63507533D01*
X91772893Y-63493498D01*
X91909182Y-63289527D01*
X91919039Y-63276681D01*
X92080786Y-63092244D01*
X92092244Y-63080786D01*
X92276681Y-62919039D01*
X92289527Y-62909182D01*
X92493498Y-62772893D01*
X92507533Y-62764790D01*
X92727547Y-62656291D01*
X92742512Y-62650093D01*
X92969653Y-62572989D01*
X92974797Y-62571243D01*
X92990464Y-62567045D01*
X93231048Y-62519190D01*
X93247102Y-62517075D01*
X93495957Y-62500765D01*
X93504067Y-62500500D01*
X93565892Y-62500500D01*
X103786000Y-62500500D01*
X103853039Y-62520185D01*
G37*
%TD.AperFunction*%
%TD*%
M02*
