%TF.GenerationSoftware,KiCad,Pcbnew,8.0.3*%
%TF.CreationDate,2024-09-19T11:22:37+05:30*%
%TF.ProjectId,VLF amplifier,564c4620-616d-4706-9c69-666965722e6b,rev?*%
%TF.SameCoordinates,Original*%
%TF.FileFunction,Soldermask,Bot*%
%TF.FilePolarity,Negative*%
%FSLAX46Y46*%
G04 Gerber Fmt 4.6, Leading zero omitted, Abs format (unit mm)*
G04 Created by KiCad (PCBNEW 8.0.3) date 2024-09-19 11:22:37*
%MOMM*%
%LPD*%
G01*
G04 APERTURE LIST*
%ADD10C,1.400000*%
%ADD11O,1.400000X1.400000*%
%ADD12C,1.600000*%
%ADD13O,1.600000X1.600000*%
%ADD14R,1.000000X1.000000*%
%ADD15R,2.420000X5.080000*%
%ADD16R,1.600000X1.600000*%
G04 APERTURE END LIST*
D10*
%TO.C,R11*%
X166310000Y-132500000D03*
D11*
X158690000Y-132500000D03*
%TD*%
D10*
%TO.C,R5*%
X220000000Y-116310000D03*
D11*
X220000000Y-108690000D03*
%TD*%
D10*
%TO.C,R3*%
X208500000Y-113000000D03*
D11*
X208500000Y-120620000D03*
%TD*%
D12*
%TO.C,C8*%
X154500000Y-132500000D03*
D13*
X154500000Y-122500000D03*
%TD*%
D10*
%TO.C,R15*%
X102500000Y-91000000D03*
D11*
X110120000Y-91000000D03*
%TD*%
D14*
%TO.C,J4*%
X165000000Y-65000000D03*
%TD*%
D12*
%TO.C,C1*%
X179500000Y-113500000D03*
D13*
X189500000Y-113500000D03*
%TD*%
D12*
%TO.C,C11*%
X110000000Y-94500000D03*
D13*
X110000000Y-104500000D03*
%TD*%
D12*
%TO.C,C12*%
X208500000Y-84500000D03*
D13*
X198500000Y-84500000D03*
%TD*%
D10*
%TO.C,R13*%
X119880000Y-122500000D03*
D11*
X127500000Y-122500000D03*
%TD*%
D10*
%TO.C,R1*%
X186500000Y-124810000D03*
D11*
X186500000Y-117190000D03*
%TD*%
D10*
%TO.C,R4*%
X208500000Y-95310000D03*
D11*
X208500000Y-87690000D03*
%TD*%
D10*
%TO.C,R2*%
X177690000Y-128000000D03*
D11*
X185310000Y-128000000D03*
%TD*%
D12*
%TO.C,C2*%
X173000000Y-127500000D03*
D13*
X173000000Y-117500000D03*
%TD*%
D10*
%TO.C,R8*%
X169000000Y-139000000D03*
D11*
X169000000Y-131380000D03*
%TD*%
D12*
%TO.C,C3*%
X213500000Y-106500000D03*
D13*
X213500000Y-116500000D03*
%TD*%
D10*
%TO.C,R7*%
X192000000Y-134000000D03*
D11*
X184380000Y-134000000D03*
%TD*%
D14*
%TO.C,J3*%
X155500000Y-65000000D03*
%TD*%
D10*
%TO.C,R6*%
X212000000Y-121000000D03*
D11*
X219620000Y-121000000D03*
%TD*%
D12*
%TO.C,C10*%
X100000000Y-108000000D03*
D13*
X110000000Y-108000000D03*
%TD*%
D15*
%TO.C,J2*%
X114380000Y-64560000D03*
X105620000Y-64560000D03*
%TD*%
%TO.C,J1*%
X212380000Y-65060000D03*
X203620000Y-65060000D03*
%TD*%
D12*
%TO.C,L1*%
X208500000Y-73380000D03*
D13*
X208500000Y-81000000D03*
%TD*%
D16*
%TO.C,U2*%
X149120000Y-127580000D03*
D13*
X149120000Y-125040000D03*
X149120000Y-122500000D03*
X149120000Y-119960000D03*
X141500000Y-119960000D03*
X141500000Y-122500000D03*
X141500000Y-125040000D03*
X141500000Y-127580000D03*
%TD*%
D12*
%TO.C,C9*%
X116190000Y-132500000D03*
D13*
X116190000Y-122500000D03*
%TD*%
D12*
%TO.C,C4*%
X208500000Y-108500000D03*
D13*
X208500000Y-98500000D03*
%TD*%
D16*
%TO.C,U1*%
X192880000Y-123380000D03*
D13*
X192880000Y-125920000D03*
X192880000Y-128460000D03*
X192880000Y-131000000D03*
X200500000Y-131000000D03*
X200500000Y-128460000D03*
X200500000Y-125920000D03*
X200500000Y-123380000D03*
%TD*%
D12*
%TO.C,C7*%
X132000000Y-132500000D03*
D13*
X132000000Y-122500000D03*
%TD*%
D12*
%TO.C,C5*%
X182000000Y-131500000D03*
D13*
X172000000Y-131500000D03*
%TD*%
D12*
%TO.C,C6*%
X169000000Y-126500000D03*
D13*
X159000000Y-126500000D03*
%TD*%
D10*
%TO.C,R9*%
X157690000Y-118000000D03*
D11*
X165310000Y-118000000D03*
%TD*%
D10*
%TO.C,R10*%
X165310000Y-122000000D03*
D11*
X157690000Y-122000000D03*
%TD*%
D10*
%TO.C,R14*%
X110000000Y-111690000D03*
D11*
X110000000Y-119310000D03*
%TD*%
D10*
%TO.C,R12*%
X137000000Y-122690000D03*
D11*
X137000000Y-130310000D03*
%TD*%
M02*
