M48
; DRILL file {KiCad 8.0.3} date 2024-09-19T11:22:40+0530
; FORMAT={-:-/ absolute / inch / decimal}
; #@! TF.CreationDate,2024-09-19T11:22:40+05:30
; #@! TF.GenerationSoftware,Kicad,Pcbnew,8.0.3
; #@! TF.FileFunction,Plated,1,2,PTH
FMAT,2
INCH
; #@! TA.AperFunction,Plated,PTH,ViaDrill
T1C0.0118
; #@! TA.AperFunction,Plated,PTH,ComponentDrill
T2C0.0181
; #@! TA.AperFunction,Plated,PTH,ComponentDrill
T3C0.0256
; #@! TA.AperFunction,Plated,PTH,ComponentDrill
T4C0.0276
; #@! TA.AperFunction,Plated,PTH,ComponentDrill
T5C0.0315
%
G90
G05
T1
X7.2244Y-4.8228
X7.2835Y-4.9606
T2
X4.1583Y-2.6772
X4.5031Y-2.6772
X8.0165Y-2.6969
X8.3614Y-2.6969
T3
X6.122Y-2.5591
X6.4961Y-2.5591
T4
X4.0354Y-3.5827
X4.3307Y-4.3972
X4.3307Y-4.6972
X4.3354Y-3.5827
X4.7197Y-4.8228
X5.0197Y-4.8228
X5.3937Y-4.8303
X5.3937Y-5.1303
X6.2083Y-4.6457
X6.2083Y-4.8031
X6.2476Y-5.2165
X6.5083Y-4.6457
X6.5083Y-4.8031
X6.5476Y-5.2165
X6.6535Y-5.1724
X6.6535Y-5.4724
X6.9957Y-5.0394
X7.2591Y-5.2756
X7.2957Y-5.0394
X7.3425Y-4.6138
X7.3425Y-4.9138
X7.5591Y-5.2756
X8.2087Y-3.4524
X8.2087Y-3.7524
X8.2087Y-4.4488
X8.2087Y-4.7488
X8.3465Y-4.7638
X8.6465Y-4.7638
X8.6614Y-4.2791
X8.6614Y-4.5791
T5
X3.937Y-4.252
X4.3307Y-3.7205
X4.3307Y-4.1142
X4.3307Y-4.252
X4.5744Y-4.8228
X4.5744Y-5.2165
X5.1969Y-4.8228
X5.1969Y-5.2165
X5.5709Y-4.7228
X5.5709Y-4.8228
X5.5709Y-4.9228
X5.5709Y-5.0228
X5.8709Y-4.7228
X5.8709Y-4.8228
X5.8709Y-4.9228
X5.8709Y-5.0228
X6.0827Y-4.8228
X6.0827Y-5.2165
X6.2598Y-4.9803
X6.6535Y-4.9803
X6.7717Y-5.1772
X6.811Y-4.626
X6.811Y-5.0197
X7.0669Y-4.4685
X7.1654Y-5.1772
X7.4606Y-4.4685
X7.5937Y-4.8575
X7.5937Y-4.9575
X7.5937Y-5.0575
X7.5937Y-5.1575
X7.815Y-3.3268
X7.8937Y-4.8575
X7.8937Y-4.9575
X7.8937Y-5.0575
X7.8937Y-5.1575
X8.2087Y-2.889
X8.2087Y-3.189
X8.2087Y-3.3268
X8.2087Y-3.878
X8.2087Y-4.2717
X8.4055Y-4.1929
X8.4055Y-4.5866
M30
