%TF.GenerationSoftware,KiCad,Pcbnew,8.0.3*%
%TF.CreationDate,2024-09-19T11:22:37+05:30*%
%TF.ProjectId,VLF amplifier,564c4620-616d-4706-9c69-666965722e6b,rev?*%
%TF.SameCoordinates,Original*%
%TF.FileFunction,Legend,Top*%
%TF.FilePolarity,Positive*%
%FSLAX46Y46*%
G04 Gerber Fmt 4.6, Leading zero omitted, Abs format (unit mm)*
G04 Created by KiCad (PCBNEW 8.0.3) date 2024-09-19 11:22:37*
%MOMM*%
%LPD*%
G01*
G04 APERTURE LIST*
%ADD10C,0.300000*%
%ADD11C,0.150000*%
%ADD12C,0.120000*%
G04 APERTURE END LIST*
D10*
X165221177Y-66834876D02*
X165030701Y-66739638D01*
X165030701Y-66739638D02*
X164744987Y-66739638D01*
X164744987Y-66739638D02*
X164459272Y-66834876D01*
X164459272Y-66834876D02*
X164268796Y-67025352D01*
X164268796Y-67025352D02*
X164173558Y-67215828D01*
X164173558Y-67215828D02*
X164078320Y-67596780D01*
X164078320Y-67596780D02*
X164078320Y-67882495D01*
X164078320Y-67882495D02*
X164173558Y-68263447D01*
X164173558Y-68263447D02*
X164268796Y-68453923D01*
X164268796Y-68453923D02*
X164459272Y-68644400D01*
X164459272Y-68644400D02*
X164744987Y-68739638D01*
X164744987Y-68739638D02*
X164935463Y-68739638D01*
X164935463Y-68739638D02*
X165221177Y-68644400D01*
X165221177Y-68644400D02*
X165316415Y-68549161D01*
X165316415Y-68549161D02*
X165316415Y-67882495D01*
X165316415Y-67882495D02*
X164935463Y-67882495D01*
X166173558Y-68739638D02*
X166173558Y-66739638D01*
X166173558Y-66739638D02*
X167316415Y-68739638D01*
X167316415Y-68739638D02*
X167316415Y-66739638D01*
X168268796Y-68739638D02*
X168268796Y-66739638D01*
X168268796Y-66739638D02*
X168744986Y-66739638D01*
X168744986Y-66739638D02*
X169030701Y-66834876D01*
X169030701Y-66834876D02*
X169221177Y-67025352D01*
X169221177Y-67025352D02*
X169316415Y-67215828D01*
X169316415Y-67215828D02*
X169411653Y-67596780D01*
X169411653Y-67596780D02*
X169411653Y-67882495D01*
X169411653Y-67882495D02*
X169316415Y-68263447D01*
X169316415Y-68263447D02*
X169221177Y-68453923D01*
X169221177Y-68453923D02*
X169030701Y-68644400D01*
X169030701Y-68644400D02*
X168744986Y-68739638D01*
X168744986Y-68739638D02*
X168268796Y-68739638D01*
X153499999Y-69019750D02*
X152357142Y-69019750D01*
X152928570Y-69019750D02*
X152928570Y-67019750D01*
X152928570Y-67019750D02*
X152738094Y-67305464D01*
X152738094Y-67305464D02*
X152547618Y-67495940D01*
X152547618Y-67495940D02*
X152357142Y-67591178D01*
X154261904Y-67210226D02*
X154357142Y-67114988D01*
X154357142Y-67114988D02*
X154547618Y-67019750D01*
X154547618Y-67019750D02*
X155023809Y-67019750D01*
X155023809Y-67019750D02*
X155214285Y-67114988D01*
X155214285Y-67114988D02*
X155309523Y-67210226D01*
X155309523Y-67210226D02*
X155404761Y-67400702D01*
X155404761Y-67400702D02*
X155404761Y-67591178D01*
X155404761Y-67591178D02*
X155309523Y-67876892D01*
X155309523Y-67876892D02*
X154166666Y-69019750D01*
X154166666Y-69019750D02*
X155404761Y-69019750D01*
X155976190Y-67019750D02*
X156642856Y-69019750D01*
X156642856Y-69019750D02*
X157309523Y-67019750D01*
X152833333Y-72239638D02*
X152833333Y-70239638D01*
X152833333Y-70239638D02*
X153595238Y-70239638D01*
X153595238Y-70239638D02*
X153785714Y-70334876D01*
X153785714Y-70334876D02*
X153880952Y-70430114D01*
X153880952Y-70430114D02*
X153976190Y-70620590D01*
X153976190Y-70620590D02*
X153976190Y-70906304D01*
X153976190Y-70906304D02*
X153880952Y-71096780D01*
X153880952Y-71096780D02*
X153785714Y-71192019D01*
X153785714Y-71192019D02*
X153595238Y-71287257D01*
X153595238Y-71287257D02*
X152833333Y-71287257D01*
X154642857Y-70239638D02*
X155119047Y-72239638D01*
X155119047Y-72239638D02*
X155500000Y-70811066D01*
X155500000Y-70811066D02*
X155880952Y-72239638D01*
X155880952Y-72239638D02*
X156357143Y-70239638D01*
X158261904Y-72239638D02*
X157595237Y-71287257D01*
X157119047Y-72239638D02*
X157119047Y-70239638D01*
X157119047Y-70239638D02*
X157880952Y-70239638D01*
X157880952Y-70239638D02*
X158071428Y-70334876D01*
X158071428Y-70334876D02*
X158166666Y-70430114D01*
X158166666Y-70430114D02*
X158261904Y-70620590D01*
X158261904Y-70620590D02*
X158261904Y-70906304D01*
X158261904Y-70906304D02*
X158166666Y-71096780D01*
X158166666Y-71096780D02*
X158071428Y-71192019D01*
X158071428Y-71192019D02*
X157880952Y-71287257D01*
X157880952Y-71287257D02*
X157119047Y-71287257D01*
D11*
X161857142Y-134874819D02*
X161523809Y-134398628D01*
X161285714Y-134874819D02*
X161285714Y-133874819D01*
X161285714Y-133874819D02*
X161666666Y-133874819D01*
X161666666Y-133874819D02*
X161761904Y-133922438D01*
X161761904Y-133922438D02*
X161809523Y-133970057D01*
X161809523Y-133970057D02*
X161857142Y-134065295D01*
X161857142Y-134065295D02*
X161857142Y-134208152D01*
X161857142Y-134208152D02*
X161809523Y-134303390D01*
X161809523Y-134303390D02*
X161761904Y-134351009D01*
X161761904Y-134351009D02*
X161666666Y-134398628D01*
X161666666Y-134398628D02*
X161285714Y-134398628D01*
X162809523Y-134874819D02*
X162238095Y-134874819D01*
X162523809Y-134874819D02*
X162523809Y-133874819D01*
X162523809Y-133874819D02*
X162428571Y-134017676D01*
X162428571Y-134017676D02*
X162333333Y-134112914D01*
X162333333Y-134112914D02*
X162238095Y-134160533D01*
X163761904Y-134874819D02*
X163190476Y-134874819D01*
X163476190Y-134874819D02*
X163476190Y-133874819D01*
X163476190Y-133874819D02*
X163380952Y-134017676D01*
X163380952Y-134017676D02*
X163285714Y-134112914D01*
X163285714Y-134112914D02*
X163190476Y-134160533D01*
X218534819Y-112666666D02*
X218058628Y-112999999D01*
X218534819Y-113238094D02*
X217534819Y-113238094D01*
X217534819Y-113238094D02*
X217534819Y-112857142D01*
X217534819Y-112857142D02*
X217582438Y-112761904D01*
X217582438Y-112761904D02*
X217630057Y-112714285D01*
X217630057Y-112714285D02*
X217725295Y-112666666D01*
X217725295Y-112666666D02*
X217868152Y-112666666D01*
X217868152Y-112666666D02*
X217963390Y-112714285D01*
X217963390Y-112714285D02*
X218011009Y-112761904D01*
X218011009Y-112761904D02*
X218058628Y-112857142D01*
X218058628Y-112857142D02*
X218058628Y-113238094D01*
X217534819Y-111761904D02*
X217534819Y-112238094D01*
X217534819Y-112238094D02*
X218011009Y-112285713D01*
X218011009Y-112285713D02*
X217963390Y-112238094D01*
X217963390Y-112238094D02*
X217915771Y-112142856D01*
X217915771Y-112142856D02*
X217915771Y-111904761D01*
X217915771Y-111904761D02*
X217963390Y-111809523D01*
X217963390Y-111809523D02*
X218011009Y-111761904D01*
X218011009Y-111761904D02*
X218106247Y-111714285D01*
X218106247Y-111714285D02*
X218344342Y-111714285D01*
X218344342Y-111714285D02*
X218439580Y-111761904D01*
X218439580Y-111761904D02*
X218487200Y-111809523D01*
X218487200Y-111809523D02*
X218534819Y-111904761D01*
X218534819Y-111904761D02*
X218534819Y-112142856D01*
X218534819Y-112142856D02*
X218487200Y-112238094D01*
X218487200Y-112238094D02*
X218439580Y-112285713D01*
X210874819Y-116976666D02*
X210398628Y-117309999D01*
X210874819Y-117548094D02*
X209874819Y-117548094D01*
X209874819Y-117548094D02*
X209874819Y-117167142D01*
X209874819Y-117167142D02*
X209922438Y-117071904D01*
X209922438Y-117071904D02*
X209970057Y-117024285D01*
X209970057Y-117024285D02*
X210065295Y-116976666D01*
X210065295Y-116976666D02*
X210208152Y-116976666D01*
X210208152Y-116976666D02*
X210303390Y-117024285D01*
X210303390Y-117024285D02*
X210351009Y-117071904D01*
X210351009Y-117071904D02*
X210398628Y-117167142D01*
X210398628Y-117167142D02*
X210398628Y-117548094D01*
X209874819Y-116643332D02*
X209874819Y-116024285D01*
X209874819Y-116024285D02*
X210255771Y-116357618D01*
X210255771Y-116357618D02*
X210255771Y-116214761D01*
X210255771Y-116214761D02*
X210303390Y-116119523D01*
X210303390Y-116119523D02*
X210351009Y-116071904D01*
X210351009Y-116071904D02*
X210446247Y-116024285D01*
X210446247Y-116024285D02*
X210684342Y-116024285D01*
X210684342Y-116024285D02*
X210779580Y-116071904D01*
X210779580Y-116071904D02*
X210827200Y-116119523D01*
X210827200Y-116119523D02*
X210874819Y-116214761D01*
X210874819Y-116214761D02*
X210874819Y-116500475D01*
X210874819Y-116500475D02*
X210827200Y-116595713D01*
X210827200Y-116595713D02*
X210779580Y-116643332D01*
X152439580Y-127666666D02*
X152487200Y-127714285D01*
X152487200Y-127714285D02*
X152534819Y-127857142D01*
X152534819Y-127857142D02*
X152534819Y-127952380D01*
X152534819Y-127952380D02*
X152487200Y-128095237D01*
X152487200Y-128095237D02*
X152391961Y-128190475D01*
X152391961Y-128190475D02*
X152296723Y-128238094D01*
X152296723Y-128238094D02*
X152106247Y-128285713D01*
X152106247Y-128285713D02*
X151963390Y-128285713D01*
X151963390Y-128285713D02*
X151772914Y-128238094D01*
X151772914Y-128238094D02*
X151677676Y-128190475D01*
X151677676Y-128190475D02*
X151582438Y-128095237D01*
X151582438Y-128095237D02*
X151534819Y-127952380D01*
X151534819Y-127952380D02*
X151534819Y-127857142D01*
X151534819Y-127857142D02*
X151582438Y-127714285D01*
X151582438Y-127714285D02*
X151630057Y-127666666D01*
X151963390Y-127095237D02*
X151915771Y-127190475D01*
X151915771Y-127190475D02*
X151868152Y-127238094D01*
X151868152Y-127238094D02*
X151772914Y-127285713D01*
X151772914Y-127285713D02*
X151725295Y-127285713D01*
X151725295Y-127285713D02*
X151630057Y-127238094D01*
X151630057Y-127238094D02*
X151582438Y-127190475D01*
X151582438Y-127190475D02*
X151534819Y-127095237D01*
X151534819Y-127095237D02*
X151534819Y-126904761D01*
X151534819Y-126904761D02*
X151582438Y-126809523D01*
X151582438Y-126809523D02*
X151630057Y-126761904D01*
X151630057Y-126761904D02*
X151725295Y-126714285D01*
X151725295Y-126714285D02*
X151772914Y-126714285D01*
X151772914Y-126714285D02*
X151868152Y-126761904D01*
X151868152Y-126761904D02*
X151915771Y-126809523D01*
X151915771Y-126809523D02*
X151963390Y-126904761D01*
X151963390Y-126904761D02*
X151963390Y-127095237D01*
X151963390Y-127095237D02*
X152011009Y-127190475D01*
X152011009Y-127190475D02*
X152058628Y-127238094D01*
X152058628Y-127238094D02*
X152153866Y-127285713D01*
X152153866Y-127285713D02*
X152344342Y-127285713D01*
X152344342Y-127285713D02*
X152439580Y-127238094D01*
X152439580Y-127238094D02*
X152487200Y-127190475D01*
X152487200Y-127190475D02*
X152534819Y-127095237D01*
X152534819Y-127095237D02*
X152534819Y-126904761D01*
X152534819Y-126904761D02*
X152487200Y-126809523D01*
X152487200Y-126809523D02*
X152439580Y-126761904D01*
X152439580Y-126761904D02*
X152344342Y-126714285D01*
X152344342Y-126714285D02*
X152153866Y-126714285D01*
X152153866Y-126714285D02*
X152058628Y-126761904D01*
X152058628Y-126761904D02*
X152011009Y-126809523D01*
X152011009Y-126809523D02*
X151963390Y-126904761D01*
X105667142Y-89534819D02*
X105333809Y-89058628D01*
X105095714Y-89534819D02*
X105095714Y-88534819D01*
X105095714Y-88534819D02*
X105476666Y-88534819D01*
X105476666Y-88534819D02*
X105571904Y-88582438D01*
X105571904Y-88582438D02*
X105619523Y-88630057D01*
X105619523Y-88630057D02*
X105667142Y-88725295D01*
X105667142Y-88725295D02*
X105667142Y-88868152D01*
X105667142Y-88868152D02*
X105619523Y-88963390D01*
X105619523Y-88963390D02*
X105571904Y-89011009D01*
X105571904Y-89011009D02*
X105476666Y-89058628D01*
X105476666Y-89058628D02*
X105095714Y-89058628D01*
X106619523Y-89534819D02*
X106048095Y-89534819D01*
X106333809Y-89534819D02*
X106333809Y-88534819D01*
X106333809Y-88534819D02*
X106238571Y-88677676D01*
X106238571Y-88677676D02*
X106143333Y-88772914D01*
X106143333Y-88772914D02*
X106048095Y-88820533D01*
X107524285Y-88534819D02*
X107048095Y-88534819D01*
X107048095Y-88534819D02*
X107000476Y-89011009D01*
X107000476Y-89011009D02*
X107048095Y-88963390D01*
X107048095Y-88963390D02*
X107143333Y-88915771D01*
X107143333Y-88915771D02*
X107381428Y-88915771D01*
X107381428Y-88915771D02*
X107476666Y-88963390D01*
X107476666Y-88963390D02*
X107524285Y-89011009D01*
X107524285Y-89011009D02*
X107571904Y-89106247D01*
X107571904Y-89106247D02*
X107571904Y-89344342D01*
X107571904Y-89344342D02*
X107524285Y-89439580D01*
X107524285Y-89439580D02*
X107476666Y-89487200D01*
X107476666Y-89487200D02*
X107381428Y-89534819D01*
X107381428Y-89534819D02*
X107143333Y-89534819D01*
X107143333Y-89534819D02*
X107048095Y-89487200D01*
X107048095Y-89487200D02*
X107000476Y-89439580D01*
X164666666Y-62759819D02*
X164666666Y-63474104D01*
X164666666Y-63474104D02*
X164619047Y-63616961D01*
X164619047Y-63616961D02*
X164523809Y-63712200D01*
X164523809Y-63712200D02*
X164380952Y-63759819D01*
X164380952Y-63759819D02*
X164285714Y-63759819D01*
X165571428Y-63093152D02*
X165571428Y-63759819D01*
X165333333Y-62712200D02*
X165095238Y-63426485D01*
X165095238Y-63426485D02*
X165714285Y-63426485D01*
X184333333Y-111439580D02*
X184285714Y-111487200D01*
X184285714Y-111487200D02*
X184142857Y-111534819D01*
X184142857Y-111534819D02*
X184047619Y-111534819D01*
X184047619Y-111534819D02*
X183904762Y-111487200D01*
X183904762Y-111487200D02*
X183809524Y-111391961D01*
X183809524Y-111391961D02*
X183761905Y-111296723D01*
X183761905Y-111296723D02*
X183714286Y-111106247D01*
X183714286Y-111106247D02*
X183714286Y-110963390D01*
X183714286Y-110963390D02*
X183761905Y-110772914D01*
X183761905Y-110772914D02*
X183809524Y-110677676D01*
X183809524Y-110677676D02*
X183904762Y-110582438D01*
X183904762Y-110582438D02*
X184047619Y-110534819D01*
X184047619Y-110534819D02*
X184142857Y-110534819D01*
X184142857Y-110534819D02*
X184285714Y-110582438D01*
X184285714Y-110582438D02*
X184333333Y-110630057D01*
X185285714Y-111534819D02*
X184714286Y-111534819D01*
X185000000Y-111534819D02*
X185000000Y-110534819D01*
X185000000Y-110534819D02*
X184904762Y-110677676D01*
X184904762Y-110677676D02*
X184809524Y-110772914D01*
X184809524Y-110772914D02*
X184714286Y-110820533D01*
X112779580Y-100142857D02*
X112827200Y-100190476D01*
X112827200Y-100190476D02*
X112874819Y-100333333D01*
X112874819Y-100333333D02*
X112874819Y-100428571D01*
X112874819Y-100428571D02*
X112827200Y-100571428D01*
X112827200Y-100571428D02*
X112731961Y-100666666D01*
X112731961Y-100666666D02*
X112636723Y-100714285D01*
X112636723Y-100714285D02*
X112446247Y-100761904D01*
X112446247Y-100761904D02*
X112303390Y-100761904D01*
X112303390Y-100761904D02*
X112112914Y-100714285D01*
X112112914Y-100714285D02*
X112017676Y-100666666D01*
X112017676Y-100666666D02*
X111922438Y-100571428D01*
X111922438Y-100571428D02*
X111874819Y-100428571D01*
X111874819Y-100428571D02*
X111874819Y-100333333D01*
X111874819Y-100333333D02*
X111922438Y-100190476D01*
X111922438Y-100190476D02*
X111970057Y-100142857D01*
X112874819Y-99190476D02*
X112874819Y-99761904D01*
X112874819Y-99476190D02*
X111874819Y-99476190D01*
X111874819Y-99476190D02*
X112017676Y-99571428D01*
X112017676Y-99571428D02*
X112112914Y-99666666D01*
X112112914Y-99666666D02*
X112160533Y-99761904D01*
X112874819Y-98238095D02*
X112874819Y-98809523D01*
X112874819Y-98523809D02*
X111874819Y-98523809D01*
X111874819Y-98523809D02*
X112017676Y-98619047D01*
X112017676Y-98619047D02*
X112112914Y-98714285D01*
X112112914Y-98714285D02*
X112160533Y-98809523D01*
X202857142Y-87279580D02*
X202809523Y-87327200D01*
X202809523Y-87327200D02*
X202666666Y-87374819D01*
X202666666Y-87374819D02*
X202571428Y-87374819D01*
X202571428Y-87374819D02*
X202428571Y-87327200D01*
X202428571Y-87327200D02*
X202333333Y-87231961D01*
X202333333Y-87231961D02*
X202285714Y-87136723D01*
X202285714Y-87136723D02*
X202238095Y-86946247D01*
X202238095Y-86946247D02*
X202238095Y-86803390D01*
X202238095Y-86803390D02*
X202285714Y-86612914D01*
X202285714Y-86612914D02*
X202333333Y-86517676D01*
X202333333Y-86517676D02*
X202428571Y-86422438D01*
X202428571Y-86422438D02*
X202571428Y-86374819D01*
X202571428Y-86374819D02*
X202666666Y-86374819D01*
X202666666Y-86374819D02*
X202809523Y-86422438D01*
X202809523Y-86422438D02*
X202857142Y-86470057D01*
X203809523Y-87374819D02*
X203238095Y-87374819D01*
X203523809Y-87374819D02*
X203523809Y-86374819D01*
X203523809Y-86374819D02*
X203428571Y-86517676D01*
X203428571Y-86517676D02*
X203333333Y-86612914D01*
X203333333Y-86612914D02*
X203238095Y-86660533D01*
X204190476Y-86470057D02*
X204238095Y-86422438D01*
X204238095Y-86422438D02*
X204333333Y-86374819D01*
X204333333Y-86374819D02*
X204571428Y-86374819D01*
X204571428Y-86374819D02*
X204666666Y-86422438D01*
X204666666Y-86422438D02*
X204714285Y-86470057D01*
X204714285Y-86470057D02*
X204761904Y-86565295D01*
X204761904Y-86565295D02*
X204761904Y-86660533D01*
X204761904Y-86660533D02*
X204714285Y-86803390D01*
X204714285Y-86803390D02*
X204142857Y-87374819D01*
X204142857Y-87374819D02*
X204761904Y-87374819D01*
X123047142Y-121034819D02*
X122713809Y-120558628D01*
X122475714Y-121034819D02*
X122475714Y-120034819D01*
X122475714Y-120034819D02*
X122856666Y-120034819D01*
X122856666Y-120034819D02*
X122951904Y-120082438D01*
X122951904Y-120082438D02*
X122999523Y-120130057D01*
X122999523Y-120130057D02*
X123047142Y-120225295D01*
X123047142Y-120225295D02*
X123047142Y-120368152D01*
X123047142Y-120368152D02*
X122999523Y-120463390D01*
X122999523Y-120463390D02*
X122951904Y-120511009D01*
X122951904Y-120511009D02*
X122856666Y-120558628D01*
X122856666Y-120558628D02*
X122475714Y-120558628D01*
X123999523Y-121034819D02*
X123428095Y-121034819D01*
X123713809Y-121034819D02*
X123713809Y-120034819D01*
X123713809Y-120034819D02*
X123618571Y-120177676D01*
X123618571Y-120177676D02*
X123523333Y-120272914D01*
X123523333Y-120272914D02*
X123428095Y-120320533D01*
X124332857Y-120034819D02*
X124951904Y-120034819D01*
X124951904Y-120034819D02*
X124618571Y-120415771D01*
X124618571Y-120415771D02*
X124761428Y-120415771D01*
X124761428Y-120415771D02*
X124856666Y-120463390D01*
X124856666Y-120463390D02*
X124904285Y-120511009D01*
X124904285Y-120511009D02*
X124951904Y-120606247D01*
X124951904Y-120606247D02*
X124951904Y-120844342D01*
X124951904Y-120844342D02*
X124904285Y-120939580D01*
X124904285Y-120939580D02*
X124856666Y-120987200D01*
X124856666Y-120987200D02*
X124761428Y-121034819D01*
X124761428Y-121034819D02*
X124475714Y-121034819D01*
X124475714Y-121034819D02*
X124380476Y-120987200D01*
X124380476Y-120987200D02*
X124332857Y-120939580D01*
X185034819Y-121166666D02*
X184558628Y-121499999D01*
X185034819Y-121738094D02*
X184034819Y-121738094D01*
X184034819Y-121738094D02*
X184034819Y-121357142D01*
X184034819Y-121357142D02*
X184082438Y-121261904D01*
X184082438Y-121261904D02*
X184130057Y-121214285D01*
X184130057Y-121214285D02*
X184225295Y-121166666D01*
X184225295Y-121166666D02*
X184368152Y-121166666D01*
X184368152Y-121166666D02*
X184463390Y-121214285D01*
X184463390Y-121214285D02*
X184511009Y-121261904D01*
X184511009Y-121261904D02*
X184558628Y-121357142D01*
X184558628Y-121357142D02*
X184558628Y-121738094D01*
X185034819Y-120214285D02*
X185034819Y-120785713D01*
X185034819Y-120499999D02*
X184034819Y-120499999D01*
X184034819Y-120499999D02*
X184177676Y-120595237D01*
X184177676Y-120595237D02*
X184272914Y-120690475D01*
X184272914Y-120690475D02*
X184320533Y-120785713D01*
X207034819Y-91666666D02*
X206558628Y-91999999D01*
X207034819Y-92238094D02*
X206034819Y-92238094D01*
X206034819Y-92238094D02*
X206034819Y-91857142D01*
X206034819Y-91857142D02*
X206082438Y-91761904D01*
X206082438Y-91761904D02*
X206130057Y-91714285D01*
X206130057Y-91714285D02*
X206225295Y-91666666D01*
X206225295Y-91666666D02*
X206368152Y-91666666D01*
X206368152Y-91666666D02*
X206463390Y-91714285D01*
X206463390Y-91714285D02*
X206511009Y-91761904D01*
X206511009Y-91761904D02*
X206558628Y-91857142D01*
X206558628Y-91857142D02*
X206558628Y-92238094D01*
X206368152Y-90809523D02*
X207034819Y-90809523D01*
X205987200Y-91047618D02*
X206701485Y-91285713D01*
X206701485Y-91285713D02*
X206701485Y-90666666D01*
X181333333Y-126534819D02*
X181000000Y-126058628D01*
X180761905Y-126534819D02*
X180761905Y-125534819D01*
X180761905Y-125534819D02*
X181142857Y-125534819D01*
X181142857Y-125534819D02*
X181238095Y-125582438D01*
X181238095Y-125582438D02*
X181285714Y-125630057D01*
X181285714Y-125630057D02*
X181333333Y-125725295D01*
X181333333Y-125725295D02*
X181333333Y-125868152D01*
X181333333Y-125868152D02*
X181285714Y-125963390D01*
X181285714Y-125963390D02*
X181238095Y-126011009D01*
X181238095Y-126011009D02*
X181142857Y-126058628D01*
X181142857Y-126058628D02*
X180761905Y-126058628D01*
X181714286Y-125630057D02*
X181761905Y-125582438D01*
X181761905Y-125582438D02*
X181857143Y-125534819D01*
X181857143Y-125534819D02*
X182095238Y-125534819D01*
X182095238Y-125534819D02*
X182190476Y-125582438D01*
X182190476Y-125582438D02*
X182238095Y-125630057D01*
X182238095Y-125630057D02*
X182285714Y-125725295D01*
X182285714Y-125725295D02*
X182285714Y-125820533D01*
X182285714Y-125820533D02*
X182238095Y-125963390D01*
X182238095Y-125963390D02*
X181666667Y-126534819D01*
X181666667Y-126534819D02*
X182285714Y-126534819D01*
X170939580Y-122666666D02*
X170987200Y-122714285D01*
X170987200Y-122714285D02*
X171034819Y-122857142D01*
X171034819Y-122857142D02*
X171034819Y-122952380D01*
X171034819Y-122952380D02*
X170987200Y-123095237D01*
X170987200Y-123095237D02*
X170891961Y-123190475D01*
X170891961Y-123190475D02*
X170796723Y-123238094D01*
X170796723Y-123238094D02*
X170606247Y-123285713D01*
X170606247Y-123285713D02*
X170463390Y-123285713D01*
X170463390Y-123285713D02*
X170272914Y-123238094D01*
X170272914Y-123238094D02*
X170177676Y-123190475D01*
X170177676Y-123190475D02*
X170082438Y-123095237D01*
X170082438Y-123095237D02*
X170034819Y-122952380D01*
X170034819Y-122952380D02*
X170034819Y-122857142D01*
X170034819Y-122857142D02*
X170082438Y-122714285D01*
X170082438Y-122714285D02*
X170130057Y-122666666D01*
X170130057Y-122285713D02*
X170082438Y-122238094D01*
X170082438Y-122238094D02*
X170034819Y-122142856D01*
X170034819Y-122142856D02*
X170034819Y-121904761D01*
X170034819Y-121904761D02*
X170082438Y-121809523D01*
X170082438Y-121809523D02*
X170130057Y-121761904D01*
X170130057Y-121761904D02*
X170225295Y-121714285D01*
X170225295Y-121714285D02*
X170320533Y-121714285D01*
X170320533Y-121714285D02*
X170463390Y-121761904D01*
X170463390Y-121761904D02*
X171034819Y-122333332D01*
X171034819Y-122333332D02*
X171034819Y-121714285D01*
X167534819Y-135356666D02*
X167058628Y-135689999D01*
X167534819Y-135928094D02*
X166534819Y-135928094D01*
X166534819Y-135928094D02*
X166534819Y-135547142D01*
X166534819Y-135547142D02*
X166582438Y-135451904D01*
X166582438Y-135451904D02*
X166630057Y-135404285D01*
X166630057Y-135404285D02*
X166725295Y-135356666D01*
X166725295Y-135356666D02*
X166868152Y-135356666D01*
X166868152Y-135356666D02*
X166963390Y-135404285D01*
X166963390Y-135404285D02*
X167011009Y-135451904D01*
X167011009Y-135451904D02*
X167058628Y-135547142D01*
X167058628Y-135547142D02*
X167058628Y-135928094D01*
X166963390Y-134785237D02*
X166915771Y-134880475D01*
X166915771Y-134880475D02*
X166868152Y-134928094D01*
X166868152Y-134928094D02*
X166772914Y-134975713D01*
X166772914Y-134975713D02*
X166725295Y-134975713D01*
X166725295Y-134975713D02*
X166630057Y-134928094D01*
X166630057Y-134928094D02*
X166582438Y-134880475D01*
X166582438Y-134880475D02*
X166534819Y-134785237D01*
X166534819Y-134785237D02*
X166534819Y-134594761D01*
X166534819Y-134594761D02*
X166582438Y-134499523D01*
X166582438Y-134499523D02*
X166630057Y-134451904D01*
X166630057Y-134451904D02*
X166725295Y-134404285D01*
X166725295Y-134404285D02*
X166772914Y-134404285D01*
X166772914Y-134404285D02*
X166868152Y-134451904D01*
X166868152Y-134451904D02*
X166915771Y-134499523D01*
X166915771Y-134499523D02*
X166963390Y-134594761D01*
X166963390Y-134594761D02*
X166963390Y-134785237D01*
X166963390Y-134785237D02*
X167011009Y-134880475D01*
X167011009Y-134880475D02*
X167058628Y-134928094D01*
X167058628Y-134928094D02*
X167153866Y-134975713D01*
X167153866Y-134975713D02*
X167344342Y-134975713D01*
X167344342Y-134975713D02*
X167439580Y-134928094D01*
X167439580Y-134928094D02*
X167487200Y-134880475D01*
X167487200Y-134880475D02*
X167534819Y-134785237D01*
X167534819Y-134785237D02*
X167534819Y-134594761D01*
X167534819Y-134594761D02*
X167487200Y-134499523D01*
X167487200Y-134499523D02*
X167439580Y-134451904D01*
X167439580Y-134451904D02*
X167344342Y-134404285D01*
X167344342Y-134404285D02*
X167153866Y-134404285D01*
X167153866Y-134404285D02*
X167058628Y-134451904D01*
X167058628Y-134451904D02*
X167011009Y-134499523D01*
X167011009Y-134499523D02*
X166963390Y-134594761D01*
X216279580Y-111666666D02*
X216327200Y-111714285D01*
X216327200Y-111714285D02*
X216374819Y-111857142D01*
X216374819Y-111857142D02*
X216374819Y-111952380D01*
X216374819Y-111952380D02*
X216327200Y-112095237D01*
X216327200Y-112095237D02*
X216231961Y-112190475D01*
X216231961Y-112190475D02*
X216136723Y-112238094D01*
X216136723Y-112238094D02*
X215946247Y-112285713D01*
X215946247Y-112285713D02*
X215803390Y-112285713D01*
X215803390Y-112285713D02*
X215612914Y-112238094D01*
X215612914Y-112238094D02*
X215517676Y-112190475D01*
X215517676Y-112190475D02*
X215422438Y-112095237D01*
X215422438Y-112095237D02*
X215374819Y-111952380D01*
X215374819Y-111952380D02*
X215374819Y-111857142D01*
X215374819Y-111857142D02*
X215422438Y-111714285D01*
X215422438Y-111714285D02*
X215470057Y-111666666D01*
X215374819Y-111333332D02*
X215374819Y-110714285D01*
X215374819Y-110714285D02*
X215755771Y-111047618D01*
X215755771Y-111047618D02*
X215755771Y-110904761D01*
X215755771Y-110904761D02*
X215803390Y-110809523D01*
X215803390Y-110809523D02*
X215851009Y-110761904D01*
X215851009Y-110761904D02*
X215946247Y-110714285D01*
X215946247Y-110714285D02*
X216184342Y-110714285D01*
X216184342Y-110714285D02*
X216279580Y-110761904D01*
X216279580Y-110761904D02*
X216327200Y-110809523D01*
X216327200Y-110809523D02*
X216374819Y-110904761D01*
X216374819Y-110904761D02*
X216374819Y-111190475D01*
X216374819Y-111190475D02*
X216327200Y-111285713D01*
X216327200Y-111285713D02*
X216279580Y-111333332D01*
X188023333Y-136374819D02*
X187690000Y-135898628D01*
X187451905Y-136374819D02*
X187451905Y-135374819D01*
X187451905Y-135374819D02*
X187832857Y-135374819D01*
X187832857Y-135374819D02*
X187928095Y-135422438D01*
X187928095Y-135422438D02*
X187975714Y-135470057D01*
X187975714Y-135470057D02*
X188023333Y-135565295D01*
X188023333Y-135565295D02*
X188023333Y-135708152D01*
X188023333Y-135708152D02*
X187975714Y-135803390D01*
X187975714Y-135803390D02*
X187928095Y-135851009D01*
X187928095Y-135851009D02*
X187832857Y-135898628D01*
X187832857Y-135898628D02*
X187451905Y-135898628D01*
X188356667Y-135374819D02*
X189023333Y-135374819D01*
X189023333Y-135374819D02*
X188594762Y-136374819D01*
X155166666Y-62759819D02*
X155166666Y-63474104D01*
X155166666Y-63474104D02*
X155119047Y-63616961D01*
X155119047Y-63616961D02*
X155023809Y-63712200D01*
X155023809Y-63712200D02*
X154880952Y-63759819D01*
X154880952Y-63759819D02*
X154785714Y-63759819D01*
X155547619Y-62759819D02*
X156166666Y-62759819D01*
X156166666Y-62759819D02*
X155833333Y-63140771D01*
X155833333Y-63140771D02*
X155976190Y-63140771D01*
X155976190Y-63140771D02*
X156071428Y-63188390D01*
X156071428Y-63188390D02*
X156119047Y-63236009D01*
X156119047Y-63236009D02*
X156166666Y-63331247D01*
X156166666Y-63331247D02*
X156166666Y-63569342D01*
X156166666Y-63569342D02*
X156119047Y-63664580D01*
X156119047Y-63664580D02*
X156071428Y-63712200D01*
X156071428Y-63712200D02*
X155976190Y-63759819D01*
X155976190Y-63759819D02*
X155690476Y-63759819D01*
X155690476Y-63759819D02*
X155595238Y-63712200D01*
X155595238Y-63712200D02*
X155547619Y-63664580D01*
X215643333Y-119534819D02*
X215310000Y-119058628D01*
X215071905Y-119534819D02*
X215071905Y-118534819D01*
X215071905Y-118534819D02*
X215452857Y-118534819D01*
X215452857Y-118534819D02*
X215548095Y-118582438D01*
X215548095Y-118582438D02*
X215595714Y-118630057D01*
X215595714Y-118630057D02*
X215643333Y-118725295D01*
X215643333Y-118725295D02*
X215643333Y-118868152D01*
X215643333Y-118868152D02*
X215595714Y-118963390D01*
X215595714Y-118963390D02*
X215548095Y-119011009D01*
X215548095Y-119011009D02*
X215452857Y-119058628D01*
X215452857Y-119058628D02*
X215071905Y-119058628D01*
X216500476Y-118534819D02*
X216310000Y-118534819D01*
X216310000Y-118534819D02*
X216214762Y-118582438D01*
X216214762Y-118582438D02*
X216167143Y-118630057D01*
X216167143Y-118630057D02*
X216071905Y-118772914D01*
X216071905Y-118772914D02*
X216024286Y-118963390D01*
X216024286Y-118963390D02*
X216024286Y-119344342D01*
X216024286Y-119344342D02*
X216071905Y-119439580D01*
X216071905Y-119439580D02*
X216119524Y-119487200D01*
X216119524Y-119487200D02*
X216214762Y-119534819D01*
X216214762Y-119534819D02*
X216405238Y-119534819D01*
X216405238Y-119534819D02*
X216500476Y-119487200D01*
X216500476Y-119487200D02*
X216548095Y-119439580D01*
X216548095Y-119439580D02*
X216595714Y-119344342D01*
X216595714Y-119344342D02*
X216595714Y-119106247D01*
X216595714Y-119106247D02*
X216548095Y-119011009D01*
X216548095Y-119011009D02*
X216500476Y-118963390D01*
X216500476Y-118963390D02*
X216405238Y-118915771D01*
X216405238Y-118915771D02*
X216214762Y-118915771D01*
X216214762Y-118915771D02*
X216119524Y-118963390D01*
X216119524Y-118963390D02*
X216071905Y-119011009D01*
X216071905Y-119011009D02*
X216024286Y-119106247D01*
X104357142Y-105939580D02*
X104309523Y-105987200D01*
X104309523Y-105987200D02*
X104166666Y-106034819D01*
X104166666Y-106034819D02*
X104071428Y-106034819D01*
X104071428Y-106034819D02*
X103928571Y-105987200D01*
X103928571Y-105987200D02*
X103833333Y-105891961D01*
X103833333Y-105891961D02*
X103785714Y-105796723D01*
X103785714Y-105796723D02*
X103738095Y-105606247D01*
X103738095Y-105606247D02*
X103738095Y-105463390D01*
X103738095Y-105463390D02*
X103785714Y-105272914D01*
X103785714Y-105272914D02*
X103833333Y-105177676D01*
X103833333Y-105177676D02*
X103928571Y-105082438D01*
X103928571Y-105082438D02*
X104071428Y-105034819D01*
X104071428Y-105034819D02*
X104166666Y-105034819D01*
X104166666Y-105034819D02*
X104309523Y-105082438D01*
X104309523Y-105082438D02*
X104357142Y-105130057D01*
X105309523Y-106034819D02*
X104738095Y-106034819D01*
X105023809Y-106034819D02*
X105023809Y-105034819D01*
X105023809Y-105034819D02*
X104928571Y-105177676D01*
X104928571Y-105177676D02*
X104833333Y-105272914D01*
X104833333Y-105272914D02*
X104738095Y-105320533D01*
X105928571Y-105034819D02*
X106023809Y-105034819D01*
X106023809Y-105034819D02*
X106119047Y-105082438D01*
X106119047Y-105082438D02*
X106166666Y-105130057D01*
X106166666Y-105130057D02*
X106214285Y-105225295D01*
X106214285Y-105225295D02*
X106261904Y-105415771D01*
X106261904Y-105415771D02*
X106261904Y-105653866D01*
X106261904Y-105653866D02*
X106214285Y-105844342D01*
X106214285Y-105844342D02*
X106166666Y-105939580D01*
X106166666Y-105939580D02*
X106119047Y-105987200D01*
X106119047Y-105987200D02*
X106023809Y-106034819D01*
X106023809Y-106034819D02*
X105928571Y-106034819D01*
X105928571Y-106034819D02*
X105833333Y-105987200D01*
X105833333Y-105987200D02*
X105785714Y-105939580D01*
X105785714Y-105939580D02*
X105738095Y-105844342D01*
X105738095Y-105844342D02*
X105690476Y-105653866D01*
X105690476Y-105653866D02*
X105690476Y-105415771D01*
X105690476Y-105415771D02*
X105738095Y-105225295D01*
X105738095Y-105225295D02*
X105785714Y-105130057D01*
X105785714Y-105130057D02*
X105833333Y-105082438D01*
X105833333Y-105082438D02*
X105928571Y-105034819D01*
X102454819Y-65113333D02*
X103169104Y-65113333D01*
X103169104Y-65113333D02*
X103311961Y-65160952D01*
X103311961Y-65160952D02*
X103407200Y-65256190D01*
X103407200Y-65256190D02*
X103454819Y-65399047D01*
X103454819Y-65399047D02*
X103454819Y-65494285D01*
X102550057Y-64684761D02*
X102502438Y-64637142D01*
X102502438Y-64637142D02*
X102454819Y-64541904D01*
X102454819Y-64541904D02*
X102454819Y-64303809D01*
X102454819Y-64303809D02*
X102502438Y-64208571D01*
X102502438Y-64208571D02*
X102550057Y-64160952D01*
X102550057Y-64160952D02*
X102645295Y-64113333D01*
X102645295Y-64113333D02*
X102740533Y-64113333D01*
X102740533Y-64113333D02*
X102883390Y-64160952D01*
X102883390Y-64160952D02*
X103454819Y-64732380D01*
X103454819Y-64732380D02*
X103454819Y-64113333D01*
X111547619Y-70669104D02*
X112023809Y-70669104D01*
X111452381Y-70954819D02*
X111785714Y-69954819D01*
X111785714Y-69954819D02*
X112119047Y-70954819D01*
X112452381Y-70954819D02*
X112452381Y-69954819D01*
X112452381Y-69954819D02*
X113023809Y-70954819D01*
X113023809Y-70954819D02*
X113023809Y-69954819D01*
X113357143Y-69954819D02*
X113928571Y-69954819D01*
X113642857Y-70954819D02*
X113642857Y-69954819D01*
X114023810Y-71050057D02*
X114785714Y-71050057D01*
X115214286Y-69954819D02*
X115404762Y-69954819D01*
X115404762Y-69954819D02*
X115500000Y-70002438D01*
X115500000Y-70002438D02*
X115595238Y-70097676D01*
X115595238Y-70097676D02*
X115642857Y-70288152D01*
X115642857Y-70288152D02*
X115642857Y-70621485D01*
X115642857Y-70621485D02*
X115595238Y-70811961D01*
X115595238Y-70811961D02*
X115500000Y-70907200D01*
X115500000Y-70907200D02*
X115404762Y-70954819D01*
X115404762Y-70954819D02*
X115214286Y-70954819D01*
X115214286Y-70954819D02*
X115119048Y-70907200D01*
X115119048Y-70907200D02*
X115023810Y-70811961D01*
X115023810Y-70811961D02*
X114976191Y-70621485D01*
X114976191Y-70621485D02*
X114976191Y-70288152D01*
X114976191Y-70288152D02*
X115023810Y-70097676D01*
X115023810Y-70097676D02*
X115119048Y-70002438D01*
X115119048Y-70002438D02*
X115214286Y-69954819D01*
X116071429Y-69954819D02*
X116071429Y-70764342D01*
X116071429Y-70764342D02*
X116119048Y-70859580D01*
X116119048Y-70859580D02*
X116166667Y-70907200D01*
X116166667Y-70907200D02*
X116261905Y-70954819D01*
X116261905Y-70954819D02*
X116452381Y-70954819D01*
X116452381Y-70954819D02*
X116547619Y-70907200D01*
X116547619Y-70907200D02*
X116595238Y-70859580D01*
X116595238Y-70859580D02*
X116642857Y-70764342D01*
X116642857Y-70764342D02*
X116642857Y-69954819D01*
X116976191Y-69954819D02*
X117547619Y-69954819D01*
X117261905Y-70954819D02*
X117261905Y-69954819D01*
X200454819Y-65613333D02*
X201169104Y-65613333D01*
X201169104Y-65613333D02*
X201311961Y-65660952D01*
X201311961Y-65660952D02*
X201407200Y-65756190D01*
X201407200Y-65756190D02*
X201454819Y-65899047D01*
X201454819Y-65899047D02*
X201454819Y-65994285D01*
X201454819Y-64613333D02*
X201454819Y-65184761D01*
X201454819Y-64899047D02*
X200454819Y-64899047D01*
X200454819Y-64899047D02*
X200597676Y-64994285D01*
X200597676Y-64994285D02*
X200692914Y-65089523D01*
X200692914Y-65089523D02*
X200740533Y-65184761D01*
X212214286Y-71169104D02*
X212690476Y-71169104D01*
X212119048Y-71454819D02*
X212452381Y-70454819D01*
X212452381Y-70454819D02*
X212785714Y-71454819D01*
X213119048Y-71454819D02*
X213119048Y-70454819D01*
X213119048Y-70454819D02*
X213690476Y-71454819D01*
X213690476Y-71454819D02*
X213690476Y-70454819D01*
X214023810Y-70454819D02*
X214595238Y-70454819D01*
X214309524Y-71454819D02*
X214309524Y-70454819D01*
X214690477Y-71550057D02*
X215452381Y-71550057D01*
X215690477Y-71454819D02*
X215690477Y-70454819D01*
X216166667Y-71454819D02*
X216166667Y-70454819D01*
X216166667Y-70454819D02*
X216738095Y-71454819D01*
X216738095Y-71454819D02*
X216738095Y-70454819D01*
X211174819Y-77356666D02*
X211174819Y-77832856D01*
X211174819Y-77832856D02*
X210174819Y-77832856D01*
X211174819Y-76499523D02*
X211174819Y-77070951D01*
X211174819Y-76785237D02*
X210174819Y-76785237D01*
X210174819Y-76785237D02*
X210317676Y-76880475D01*
X210317676Y-76880475D02*
X210412914Y-76975713D01*
X210412914Y-76975713D02*
X210460533Y-77070951D01*
X145238095Y-129364819D02*
X145238095Y-130174342D01*
X145238095Y-130174342D02*
X145285714Y-130269580D01*
X145285714Y-130269580D02*
X145333333Y-130317200D01*
X145333333Y-130317200D02*
X145428571Y-130364819D01*
X145428571Y-130364819D02*
X145619047Y-130364819D01*
X145619047Y-130364819D02*
X145714285Y-130317200D01*
X145714285Y-130317200D02*
X145761904Y-130269580D01*
X145761904Y-130269580D02*
X145809523Y-130174342D01*
X145809523Y-130174342D02*
X145809523Y-129364819D01*
X146238095Y-129460057D02*
X146285714Y-129412438D01*
X146285714Y-129412438D02*
X146380952Y-129364819D01*
X146380952Y-129364819D02*
X146619047Y-129364819D01*
X146619047Y-129364819D02*
X146714285Y-129412438D01*
X146714285Y-129412438D02*
X146761904Y-129460057D01*
X146761904Y-129460057D02*
X146809523Y-129555295D01*
X146809523Y-129555295D02*
X146809523Y-129650533D01*
X146809523Y-129650533D02*
X146761904Y-129793390D01*
X146761904Y-129793390D02*
X146190476Y-130364819D01*
X146190476Y-130364819D02*
X146809523Y-130364819D01*
X114129580Y-127666666D02*
X114177200Y-127714285D01*
X114177200Y-127714285D02*
X114224819Y-127857142D01*
X114224819Y-127857142D02*
X114224819Y-127952380D01*
X114224819Y-127952380D02*
X114177200Y-128095237D01*
X114177200Y-128095237D02*
X114081961Y-128190475D01*
X114081961Y-128190475D02*
X113986723Y-128238094D01*
X113986723Y-128238094D02*
X113796247Y-128285713D01*
X113796247Y-128285713D02*
X113653390Y-128285713D01*
X113653390Y-128285713D02*
X113462914Y-128238094D01*
X113462914Y-128238094D02*
X113367676Y-128190475D01*
X113367676Y-128190475D02*
X113272438Y-128095237D01*
X113272438Y-128095237D02*
X113224819Y-127952380D01*
X113224819Y-127952380D02*
X113224819Y-127857142D01*
X113224819Y-127857142D02*
X113272438Y-127714285D01*
X113272438Y-127714285D02*
X113320057Y-127666666D01*
X114224819Y-127190475D02*
X114224819Y-126999999D01*
X114224819Y-126999999D02*
X114177200Y-126904761D01*
X114177200Y-126904761D02*
X114129580Y-126857142D01*
X114129580Y-126857142D02*
X113986723Y-126761904D01*
X113986723Y-126761904D02*
X113796247Y-126714285D01*
X113796247Y-126714285D02*
X113415295Y-126714285D01*
X113415295Y-126714285D02*
X113320057Y-126761904D01*
X113320057Y-126761904D02*
X113272438Y-126809523D01*
X113272438Y-126809523D02*
X113224819Y-126904761D01*
X113224819Y-126904761D02*
X113224819Y-127095237D01*
X113224819Y-127095237D02*
X113272438Y-127190475D01*
X113272438Y-127190475D02*
X113320057Y-127238094D01*
X113320057Y-127238094D02*
X113415295Y-127285713D01*
X113415295Y-127285713D02*
X113653390Y-127285713D01*
X113653390Y-127285713D02*
X113748628Y-127238094D01*
X113748628Y-127238094D02*
X113796247Y-127190475D01*
X113796247Y-127190475D02*
X113843866Y-127095237D01*
X113843866Y-127095237D02*
X113843866Y-126904761D01*
X113843866Y-126904761D02*
X113796247Y-126809523D01*
X113796247Y-126809523D02*
X113748628Y-126761904D01*
X113748628Y-126761904D02*
X113653390Y-126714285D01*
X206439580Y-103666666D02*
X206487200Y-103714285D01*
X206487200Y-103714285D02*
X206534819Y-103857142D01*
X206534819Y-103857142D02*
X206534819Y-103952380D01*
X206534819Y-103952380D02*
X206487200Y-104095237D01*
X206487200Y-104095237D02*
X206391961Y-104190475D01*
X206391961Y-104190475D02*
X206296723Y-104238094D01*
X206296723Y-104238094D02*
X206106247Y-104285713D01*
X206106247Y-104285713D02*
X205963390Y-104285713D01*
X205963390Y-104285713D02*
X205772914Y-104238094D01*
X205772914Y-104238094D02*
X205677676Y-104190475D01*
X205677676Y-104190475D02*
X205582438Y-104095237D01*
X205582438Y-104095237D02*
X205534819Y-103952380D01*
X205534819Y-103952380D02*
X205534819Y-103857142D01*
X205534819Y-103857142D02*
X205582438Y-103714285D01*
X205582438Y-103714285D02*
X205630057Y-103666666D01*
X205868152Y-102809523D02*
X206534819Y-102809523D01*
X205487200Y-103047618D02*
X206201485Y-103285713D01*
X206201485Y-103285713D02*
X206201485Y-102666666D01*
X195928095Y-120504819D02*
X195928095Y-121314342D01*
X195928095Y-121314342D02*
X195975714Y-121409580D01*
X195975714Y-121409580D02*
X196023333Y-121457200D01*
X196023333Y-121457200D02*
X196118571Y-121504819D01*
X196118571Y-121504819D02*
X196309047Y-121504819D01*
X196309047Y-121504819D02*
X196404285Y-121457200D01*
X196404285Y-121457200D02*
X196451904Y-121409580D01*
X196451904Y-121409580D02*
X196499523Y-121314342D01*
X196499523Y-121314342D02*
X196499523Y-120504819D01*
X197499523Y-121504819D02*
X196928095Y-121504819D01*
X197213809Y-121504819D02*
X197213809Y-120504819D01*
X197213809Y-120504819D02*
X197118571Y-120647676D01*
X197118571Y-120647676D02*
X197023333Y-120742914D01*
X197023333Y-120742914D02*
X196928095Y-120790533D01*
X129939580Y-127666666D02*
X129987200Y-127714285D01*
X129987200Y-127714285D02*
X130034819Y-127857142D01*
X130034819Y-127857142D02*
X130034819Y-127952380D01*
X130034819Y-127952380D02*
X129987200Y-128095237D01*
X129987200Y-128095237D02*
X129891961Y-128190475D01*
X129891961Y-128190475D02*
X129796723Y-128238094D01*
X129796723Y-128238094D02*
X129606247Y-128285713D01*
X129606247Y-128285713D02*
X129463390Y-128285713D01*
X129463390Y-128285713D02*
X129272914Y-128238094D01*
X129272914Y-128238094D02*
X129177676Y-128190475D01*
X129177676Y-128190475D02*
X129082438Y-128095237D01*
X129082438Y-128095237D02*
X129034819Y-127952380D01*
X129034819Y-127952380D02*
X129034819Y-127857142D01*
X129034819Y-127857142D02*
X129082438Y-127714285D01*
X129082438Y-127714285D02*
X129130057Y-127666666D01*
X129034819Y-127333332D02*
X129034819Y-126666666D01*
X129034819Y-126666666D02*
X130034819Y-127095237D01*
X163833333Y-129279580D02*
X163785714Y-129327200D01*
X163785714Y-129327200D02*
X163642857Y-129374819D01*
X163642857Y-129374819D02*
X163547619Y-129374819D01*
X163547619Y-129374819D02*
X163404762Y-129327200D01*
X163404762Y-129327200D02*
X163309524Y-129231961D01*
X163309524Y-129231961D02*
X163261905Y-129136723D01*
X163261905Y-129136723D02*
X163214286Y-128946247D01*
X163214286Y-128946247D02*
X163214286Y-128803390D01*
X163214286Y-128803390D02*
X163261905Y-128612914D01*
X163261905Y-128612914D02*
X163309524Y-128517676D01*
X163309524Y-128517676D02*
X163404762Y-128422438D01*
X163404762Y-128422438D02*
X163547619Y-128374819D01*
X163547619Y-128374819D02*
X163642857Y-128374819D01*
X163642857Y-128374819D02*
X163785714Y-128422438D01*
X163785714Y-128422438D02*
X163833333Y-128470057D01*
X164690476Y-128374819D02*
X164500000Y-128374819D01*
X164500000Y-128374819D02*
X164404762Y-128422438D01*
X164404762Y-128422438D02*
X164357143Y-128470057D01*
X164357143Y-128470057D02*
X164261905Y-128612914D01*
X164261905Y-128612914D02*
X164214286Y-128803390D01*
X164214286Y-128803390D02*
X164214286Y-129184342D01*
X164214286Y-129184342D02*
X164261905Y-129279580D01*
X164261905Y-129279580D02*
X164309524Y-129327200D01*
X164309524Y-129327200D02*
X164404762Y-129374819D01*
X164404762Y-129374819D02*
X164595238Y-129374819D01*
X164595238Y-129374819D02*
X164690476Y-129327200D01*
X164690476Y-129327200D02*
X164738095Y-129279580D01*
X164738095Y-129279580D02*
X164785714Y-129184342D01*
X164785714Y-129184342D02*
X164785714Y-128946247D01*
X164785714Y-128946247D02*
X164738095Y-128851009D01*
X164738095Y-128851009D02*
X164690476Y-128803390D01*
X164690476Y-128803390D02*
X164595238Y-128755771D01*
X164595238Y-128755771D02*
X164404762Y-128755771D01*
X164404762Y-128755771D02*
X164309524Y-128803390D01*
X164309524Y-128803390D02*
X164261905Y-128851009D01*
X164261905Y-128851009D02*
X164214286Y-128946247D01*
X161333333Y-120454819D02*
X161000000Y-119978628D01*
X160761905Y-120454819D02*
X160761905Y-119454819D01*
X160761905Y-119454819D02*
X161142857Y-119454819D01*
X161142857Y-119454819D02*
X161238095Y-119502438D01*
X161238095Y-119502438D02*
X161285714Y-119550057D01*
X161285714Y-119550057D02*
X161333333Y-119645295D01*
X161333333Y-119645295D02*
X161333333Y-119788152D01*
X161333333Y-119788152D02*
X161285714Y-119883390D01*
X161285714Y-119883390D02*
X161238095Y-119931009D01*
X161238095Y-119931009D02*
X161142857Y-119978628D01*
X161142857Y-119978628D02*
X160761905Y-119978628D01*
X161809524Y-120454819D02*
X162000000Y-120454819D01*
X162000000Y-120454819D02*
X162095238Y-120407200D01*
X162095238Y-120407200D02*
X162142857Y-120359580D01*
X162142857Y-120359580D02*
X162238095Y-120216723D01*
X162238095Y-120216723D02*
X162285714Y-120026247D01*
X162285714Y-120026247D02*
X162285714Y-119645295D01*
X162285714Y-119645295D02*
X162238095Y-119550057D01*
X162238095Y-119550057D02*
X162190476Y-119502438D01*
X162190476Y-119502438D02*
X162095238Y-119454819D01*
X162095238Y-119454819D02*
X161904762Y-119454819D01*
X161904762Y-119454819D02*
X161809524Y-119502438D01*
X161809524Y-119502438D02*
X161761905Y-119550057D01*
X161761905Y-119550057D02*
X161714286Y-119645295D01*
X161714286Y-119645295D02*
X161714286Y-119883390D01*
X161714286Y-119883390D02*
X161761905Y-119978628D01*
X161761905Y-119978628D02*
X161809524Y-120026247D01*
X161809524Y-120026247D02*
X161904762Y-120073866D01*
X161904762Y-120073866D02*
X162095238Y-120073866D01*
X162095238Y-120073866D02*
X162190476Y-120026247D01*
X162190476Y-120026247D02*
X162238095Y-119978628D01*
X162238095Y-119978628D02*
X162285714Y-119883390D01*
X160857142Y-124374819D02*
X160523809Y-123898628D01*
X160285714Y-124374819D02*
X160285714Y-123374819D01*
X160285714Y-123374819D02*
X160666666Y-123374819D01*
X160666666Y-123374819D02*
X160761904Y-123422438D01*
X160761904Y-123422438D02*
X160809523Y-123470057D01*
X160809523Y-123470057D02*
X160857142Y-123565295D01*
X160857142Y-123565295D02*
X160857142Y-123708152D01*
X160857142Y-123708152D02*
X160809523Y-123803390D01*
X160809523Y-123803390D02*
X160761904Y-123851009D01*
X160761904Y-123851009D02*
X160666666Y-123898628D01*
X160666666Y-123898628D02*
X160285714Y-123898628D01*
X161809523Y-124374819D02*
X161238095Y-124374819D01*
X161523809Y-124374819D02*
X161523809Y-123374819D01*
X161523809Y-123374819D02*
X161428571Y-123517676D01*
X161428571Y-123517676D02*
X161333333Y-123612914D01*
X161333333Y-123612914D02*
X161238095Y-123660533D01*
X162428571Y-123374819D02*
X162523809Y-123374819D01*
X162523809Y-123374819D02*
X162619047Y-123422438D01*
X162619047Y-123422438D02*
X162666666Y-123470057D01*
X162666666Y-123470057D02*
X162714285Y-123565295D01*
X162714285Y-123565295D02*
X162761904Y-123755771D01*
X162761904Y-123755771D02*
X162761904Y-123993866D01*
X162761904Y-123993866D02*
X162714285Y-124184342D01*
X162714285Y-124184342D02*
X162666666Y-124279580D01*
X162666666Y-124279580D02*
X162619047Y-124327200D01*
X162619047Y-124327200D02*
X162523809Y-124374819D01*
X162523809Y-124374819D02*
X162428571Y-124374819D01*
X162428571Y-124374819D02*
X162333333Y-124327200D01*
X162333333Y-124327200D02*
X162285714Y-124279580D01*
X162285714Y-124279580D02*
X162238095Y-124184342D01*
X162238095Y-124184342D02*
X162190476Y-123993866D01*
X162190476Y-123993866D02*
X162190476Y-123755771D01*
X162190476Y-123755771D02*
X162238095Y-123565295D01*
X162238095Y-123565295D02*
X162285714Y-123470057D01*
X162285714Y-123470057D02*
X162333333Y-123422438D01*
X162333333Y-123422438D02*
X162428571Y-123374819D01*
X112374819Y-116142857D02*
X111898628Y-116476190D01*
X112374819Y-116714285D02*
X111374819Y-116714285D01*
X111374819Y-116714285D02*
X111374819Y-116333333D01*
X111374819Y-116333333D02*
X111422438Y-116238095D01*
X111422438Y-116238095D02*
X111470057Y-116190476D01*
X111470057Y-116190476D02*
X111565295Y-116142857D01*
X111565295Y-116142857D02*
X111708152Y-116142857D01*
X111708152Y-116142857D02*
X111803390Y-116190476D01*
X111803390Y-116190476D02*
X111851009Y-116238095D01*
X111851009Y-116238095D02*
X111898628Y-116333333D01*
X111898628Y-116333333D02*
X111898628Y-116714285D01*
X112374819Y-115190476D02*
X112374819Y-115761904D01*
X112374819Y-115476190D02*
X111374819Y-115476190D01*
X111374819Y-115476190D02*
X111517676Y-115571428D01*
X111517676Y-115571428D02*
X111612914Y-115666666D01*
X111612914Y-115666666D02*
X111660533Y-115761904D01*
X111708152Y-114333333D02*
X112374819Y-114333333D01*
X111327200Y-114571428D02*
X112041485Y-114809523D01*
X112041485Y-114809523D02*
X112041485Y-114190476D01*
X139374819Y-127142857D02*
X138898628Y-127476190D01*
X139374819Y-127714285D02*
X138374819Y-127714285D01*
X138374819Y-127714285D02*
X138374819Y-127333333D01*
X138374819Y-127333333D02*
X138422438Y-127238095D01*
X138422438Y-127238095D02*
X138470057Y-127190476D01*
X138470057Y-127190476D02*
X138565295Y-127142857D01*
X138565295Y-127142857D02*
X138708152Y-127142857D01*
X138708152Y-127142857D02*
X138803390Y-127190476D01*
X138803390Y-127190476D02*
X138851009Y-127238095D01*
X138851009Y-127238095D02*
X138898628Y-127333333D01*
X138898628Y-127333333D02*
X138898628Y-127714285D01*
X139374819Y-126190476D02*
X139374819Y-126761904D01*
X139374819Y-126476190D02*
X138374819Y-126476190D01*
X138374819Y-126476190D02*
X138517676Y-126571428D01*
X138517676Y-126571428D02*
X138612914Y-126666666D01*
X138612914Y-126666666D02*
X138660533Y-126761904D01*
X138470057Y-125809523D02*
X138422438Y-125761904D01*
X138422438Y-125761904D02*
X138374819Y-125666666D01*
X138374819Y-125666666D02*
X138374819Y-125428571D01*
X138374819Y-125428571D02*
X138422438Y-125333333D01*
X138422438Y-125333333D02*
X138470057Y-125285714D01*
X138470057Y-125285714D02*
X138565295Y-125238095D01*
X138565295Y-125238095D02*
X138660533Y-125238095D01*
X138660533Y-125238095D02*
X138803390Y-125285714D01*
X138803390Y-125285714D02*
X139374819Y-125857142D01*
X139374819Y-125857142D02*
X139374819Y-125238095D01*
D12*
%TO.C,R11*%
X159630000Y-132500000D02*
X160580000Y-132500000D01*
X160580000Y-131580000D02*
X160580000Y-133420000D01*
X160580000Y-133420000D02*
X164420000Y-133420000D01*
X164420000Y-131580000D02*
X160580000Y-131580000D01*
X164420000Y-133420000D02*
X164420000Y-131580000D01*
X165370000Y-132500000D02*
X164420000Y-132500000D01*
%TO.C,R5*%
X219080000Y-110580000D02*
X219080000Y-114420000D01*
X219080000Y-114420000D02*
X220920000Y-114420000D01*
X220000000Y-109630000D02*
X220000000Y-110580000D01*
X220000000Y-115370000D02*
X220000000Y-114420000D01*
X220920000Y-110580000D02*
X219080000Y-110580000D01*
X220920000Y-114420000D02*
X220920000Y-110580000D01*
%TO.C,R3*%
X207580000Y-114890000D02*
X207580000Y-118730000D01*
X207580000Y-118730000D02*
X209420000Y-118730000D01*
X208500000Y-113940000D02*
X208500000Y-114890000D01*
X208500000Y-119680000D02*
X208500000Y-118730000D01*
X209420000Y-114890000D02*
X207580000Y-114890000D01*
X209420000Y-118730000D02*
X209420000Y-114890000D01*
%TO.C,C8*%
X153080000Y-125480000D02*
X153080000Y-129520000D01*
X153080000Y-129520000D02*
X155920000Y-129520000D01*
X154500000Y-123540000D02*
X154500000Y-125480000D01*
X154500000Y-131460000D02*
X154500000Y-129520000D01*
X155920000Y-125480000D02*
X153080000Y-125480000D01*
X155920000Y-129520000D02*
X155920000Y-125480000D01*
%TO.C,R15*%
X103440000Y-91000000D02*
X104390000Y-91000000D01*
X104390000Y-90080000D02*
X104390000Y-91920000D01*
X104390000Y-91920000D02*
X108230000Y-91920000D01*
X108230000Y-90080000D02*
X104390000Y-90080000D01*
X108230000Y-91920000D02*
X108230000Y-90080000D01*
X109180000Y-91000000D02*
X108230000Y-91000000D01*
%TO.C,J4*%
X163890000Y-64240000D02*
X165000000Y-64240000D01*
X163890000Y-65000000D02*
X163890000Y-64240000D01*
X163890000Y-65760000D02*
X163890000Y-65695000D01*
X163890000Y-65760000D02*
X164436529Y-65760000D01*
X163890000Y-65760000D02*
X166110000Y-65760000D01*
X165563471Y-65760000D02*
X166110000Y-65760000D01*
X166110000Y-65760000D02*
X166110000Y-65695000D01*
%TO.C,C1*%
X180540000Y-113500000D02*
X182480000Y-113500000D01*
X182480000Y-112080000D02*
X182480000Y-114920000D01*
X182480000Y-114920000D02*
X186520000Y-114920000D01*
X186520000Y-112080000D02*
X182480000Y-112080000D01*
X186520000Y-114920000D02*
X186520000Y-112080000D01*
X188460000Y-113500000D02*
X186520000Y-113500000D01*
%TO.C,C11*%
X108580000Y-97480000D02*
X108580000Y-101520000D01*
X108580000Y-101520000D02*
X111420000Y-101520000D01*
X110000000Y-95540000D02*
X110000000Y-97480000D01*
X110000000Y-103460000D02*
X110000000Y-101520000D01*
X111420000Y-97480000D02*
X108580000Y-97480000D01*
X111420000Y-101520000D02*
X111420000Y-97480000D01*
%TO.C,C12*%
X199540000Y-84500000D02*
X201480000Y-84500000D01*
X201480000Y-83080000D02*
X201480000Y-85920000D01*
X201480000Y-85920000D02*
X205520000Y-85920000D01*
X205520000Y-83080000D02*
X201480000Y-83080000D01*
X205520000Y-85920000D02*
X205520000Y-83080000D01*
X207460000Y-84500000D02*
X205520000Y-84500000D01*
%TO.C,R13*%
X120820000Y-122500000D02*
X121770000Y-122500000D01*
X121770000Y-121580000D02*
X121770000Y-123420000D01*
X121770000Y-123420000D02*
X125610000Y-123420000D01*
X125610000Y-121580000D02*
X121770000Y-121580000D01*
X125610000Y-123420000D02*
X125610000Y-121580000D01*
X126560000Y-122500000D02*
X125610000Y-122500000D01*
%TO.C,R1*%
X185580000Y-119080000D02*
X185580000Y-122920000D01*
X185580000Y-122920000D02*
X187420000Y-122920000D01*
X186500000Y-118130000D02*
X186500000Y-119080000D01*
X186500000Y-123870000D02*
X186500000Y-122920000D01*
X187420000Y-119080000D02*
X185580000Y-119080000D01*
X187420000Y-122920000D02*
X187420000Y-119080000D01*
%TO.C,R4*%
X207580000Y-89580000D02*
X207580000Y-93420000D01*
X207580000Y-93420000D02*
X209420000Y-93420000D01*
X208500000Y-88630000D02*
X208500000Y-89580000D01*
X208500000Y-94370000D02*
X208500000Y-93420000D01*
X209420000Y-89580000D02*
X207580000Y-89580000D01*
X209420000Y-93420000D02*
X209420000Y-89580000D01*
%TO.C,R2*%
X178630000Y-128000000D02*
X179580000Y-128000000D01*
X179580000Y-127080000D02*
X179580000Y-128920000D01*
X179580000Y-128920000D02*
X183420000Y-128920000D01*
X183420000Y-127080000D02*
X179580000Y-127080000D01*
X183420000Y-128920000D02*
X183420000Y-127080000D01*
X184370000Y-128000000D02*
X183420000Y-128000000D01*
%TO.C,C2*%
X171580000Y-120480000D02*
X171580000Y-124520000D01*
X171580000Y-124520000D02*
X174420000Y-124520000D01*
X173000000Y-118540000D02*
X173000000Y-120480000D01*
X173000000Y-126460000D02*
X173000000Y-124520000D01*
X174420000Y-120480000D02*
X171580000Y-120480000D01*
X174420000Y-124520000D02*
X174420000Y-120480000D01*
%TO.C,R8*%
X168080000Y-133270000D02*
X168080000Y-137110000D01*
X168080000Y-137110000D02*
X169920000Y-137110000D01*
X169000000Y-132320000D02*
X169000000Y-133270000D01*
X169000000Y-138060000D02*
X169000000Y-137110000D01*
X169920000Y-133270000D02*
X168080000Y-133270000D01*
X169920000Y-137110000D02*
X169920000Y-133270000D01*
%TO.C,C3*%
X212080000Y-109480000D02*
X212080000Y-113520000D01*
X212080000Y-113520000D02*
X214920000Y-113520000D01*
X213500000Y-107540000D02*
X213500000Y-109480000D01*
X213500000Y-115460000D02*
X213500000Y-113520000D01*
X214920000Y-109480000D02*
X212080000Y-109480000D01*
X214920000Y-113520000D02*
X214920000Y-109480000D01*
%TO.C,R7*%
X185320000Y-134000000D02*
X186270000Y-134000000D01*
X186270000Y-133080000D02*
X186270000Y-134920000D01*
X186270000Y-134920000D02*
X190110000Y-134920000D01*
X190110000Y-133080000D02*
X186270000Y-133080000D01*
X190110000Y-134920000D02*
X190110000Y-133080000D01*
X191060000Y-134000000D02*
X190110000Y-134000000D01*
%TO.C,J3*%
X154390000Y-64240000D02*
X155500000Y-64240000D01*
X154390000Y-65000000D02*
X154390000Y-64240000D01*
X154390000Y-65760000D02*
X154390000Y-65695000D01*
X154390000Y-65760000D02*
X154936529Y-65760000D01*
X154390000Y-65760000D02*
X156610000Y-65760000D01*
X156063471Y-65760000D02*
X156610000Y-65760000D01*
X156610000Y-65760000D02*
X156610000Y-65695000D01*
%TO.C,R6*%
X212940000Y-121000000D02*
X213890000Y-121000000D01*
X213890000Y-120080000D02*
X213890000Y-121920000D01*
X213890000Y-121920000D02*
X217730000Y-121920000D01*
X217730000Y-120080000D02*
X213890000Y-120080000D01*
X217730000Y-121920000D02*
X217730000Y-120080000D01*
X218680000Y-121000000D02*
X217730000Y-121000000D01*
%TO.C,C10*%
X101040000Y-108000000D02*
X102980000Y-108000000D01*
X102980000Y-106580000D02*
X102980000Y-109420000D01*
X102980000Y-109420000D02*
X107020000Y-109420000D01*
X107020000Y-106580000D02*
X102980000Y-106580000D01*
X107020000Y-109420000D02*
X107020000Y-106580000D01*
X108960000Y-108000000D02*
X107020000Y-108000000D01*
%TO.C,J2*%
X109750000Y-68780000D02*
X110000000Y-68280000D01*
X110000000Y-68280000D02*
X110250000Y-68780000D01*
X110250000Y-68780000D02*
X109750000Y-68780000D01*
%TO.C,J1*%
X207750000Y-69280000D02*
X208000000Y-68780000D01*
X208000000Y-68780000D02*
X208250000Y-69280000D01*
X208250000Y-69280000D02*
X207750000Y-69280000D01*
%TO.C,L1*%
X207280000Y-74420000D02*
X207280000Y-79960000D01*
X207280000Y-79960000D02*
X209720000Y-79960000D01*
X209720000Y-74420000D02*
X207280000Y-74420000D01*
X209720000Y-79960000D02*
X209720000Y-74420000D01*
%TO.C,U2*%
X142660000Y-118630000D02*
X142660000Y-128910000D01*
X142660000Y-128910000D02*
X144310000Y-128910000D01*
X146310000Y-128910000D02*
X147960000Y-128910000D01*
X147960000Y-118630000D02*
X142660000Y-118630000D01*
X147960000Y-128910000D02*
X147960000Y-118630000D01*
X144310000Y-128910000D02*
G75*
G02*
X146310000Y-128910000I1000000J0D01*
G01*
%TO.C,C9*%
X114770000Y-125480000D02*
X114770000Y-129520000D01*
X114770000Y-129520000D02*
X117610000Y-129520000D01*
X116190000Y-123540000D02*
X116190000Y-125480000D01*
X116190000Y-131460000D02*
X116190000Y-129520000D01*
X117610000Y-125480000D02*
X114770000Y-125480000D01*
X117610000Y-129520000D02*
X117610000Y-125480000D01*
%TO.C,C4*%
X207080000Y-101480000D02*
X207080000Y-105520000D01*
X207080000Y-105520000D02*
X209920000Y-105520000D01*
X208500000Y-99540000D02*
X208500000Y-101480000D01*
X208500000Y-107460000D02*
X208500000Y-105520000D01*
X209920000Y-101480000D02*
X207080000Y-101480000D01*
X209920000Y-105520000D02*
X209920000Y-101480000D01*
%TO.C,U1*%
X194040000Y-122050000D02*
X194040000Y-132330000D01*
X194040000Y-132330000D02*
X199340000Y-132330000D01*
X195690000Y-122050000D02*
X194040000Y-122050000D01*
X199340000Y-122050000D02*
X197690000Y-122050000D01*
X199340000Y-132330000D02*
X199340000Y-122050000D01*
X197690000Y-122050000D02*
G75*
G02*
X195690000Y-122050000I-1000000J0D01*
G01*
%TO.C,C7*%
X130580000Y-125480000D02*
X130580000Y-129520000D01*
X130580000Y-129520000D02*
X133420000Y-129520000D01*
X132000000Y-123540000D02*
X132000000Y-125480000D01*
X132000000Y-131460000D02*
X132000000Y-129520000D01*
X133420000Y-125480000D02*
X130580000Y-125480000D01*
X133420000Y-129520000D02*
X133420000Y-125480000D01*
%TO.C,C5*%
X173040000Y-131500000D02*
X174980000Y-131500000D01*
X174980000Y-130080000D02*
X174980000Y-132920000D01*
X174980000Y-132920000D02*
X179020000Y-132920000D01*
X179020000Y-130080000D02*
X174980000Y-130080000D01*
X179020000Y-132920000D02*
X179020000Y-130080000D01*
X180960000Y-131500000D02*
X179020000Y-131500000D01*
%TO.C,C6*%
X160040000Y-126500000D02*
X161980000Y-126500000D01*
X161980000Y-125080000D02*
X161980000Y-127920000D01*
X161980000Y-127920000D02*
X166020000Y-127920000D01*
X166020000Y-125080000D02*
X161980000Y-125080000D01*
X166020000Y-127920000D02*
X166020000Y-125080000D01*
X167960000Y-126500000D02*
X166020000Y-126500000D01*
%TO.C,R9*%
X158630000Y-118000000D02*
X159580000Y-118000000D01*
X159580000Y-117080000D02*
X159580000Y-118920000D01*
X159580000Y-118920000D02*
X163420000Y-118920000D01*
X163420000Y-117080000D02*
X159580000Y-117080000D01*
X163420000Y-118920000D02*
X163420000Y-117080000D01*
X164370000Y-118000000D02*
X163420000Y-118000000D01*
%TO.C,R10*%
X158630000Y-122000000D02*
X159580000Y-122000000D01*
X159580000Y-121080000D02*
X159580000Y-122920000D01*
X159580000Y-122920000D02*
X163420000Y-122920000D01*
X163420000Y-121080000D02*
X159580000Y-121080000D01*
X163420000Y-122920000D02*
X163420000Y-121080000D01*
X164370000Y-122000000D02*
X163420000Y-122000000D01*
%TO.C,R14*%
X109080000Y-113580000D02*
X109080000Y-117420000D01*
X109080000Y-117420000D02*
X110920000Y-117420000D01*
X110000000Y-112630000D02*
X110000000Y-113580000D01*
X110000000Y-118370000D02*
X110000000Y-117420000D01*
X110920000Y-113580000D02*
X109080000Y-113580000D01*
X110920000Y-117420000D02*
X110920000Y-113580000D01*
%TO.C,R12*%
X136080000Y-124580000D02*
X136080000Y-128420000D01*
X136080000Y-128420000D02*
X137920000Y-128420000D01*
X137000000Y-123630000D02*
X137000000Y-124580000D01*
X137000000Y-129370000D02*
X137000000Y-128420000D01*
X137920000Y-124580000D02*
X136080000Y-124580000D01*
X137920000Y-128420000D02*
X137920000Y-124580000D01*
%TD*%
M02*
